<svg width="48" height="48" viewBox="0 0 48 48" fill="none" xmlns="http://www.w3.org/2000/svg">
<path d="M23.9407 17.4286C17.7767 17.4286 11.9249 21.8643 12.6642 27.9823C12.7233 28.4587 12.7923 28.9582 12.8712 29.4872C13.1077 31.0643 14.4812 32.2143 16.0813 32.2143H17.9049L19.2356 40.4812C19.4149 41.615 19.9929 42.6476 20.8657 43.3932C21.7385 44.1389 22.8487 44.5485 23.9966 44.5485C25.1445 44.5485 26.2547 44.1389 27.1275 43.3932C28.0003 42.6476 28.5783 41.615 28.7576 40.4812L30.085 32.2143H31.9349C32.7027 32.2196 33.4472 31.9504 34.034 31.4552C34.6209 30.9599 35.0114 30.2713 35.1352 29.5134C35.2083 29.0392 35.274 28.5638 35.3323 28.0874C36.0913 21.9234 30.154 17.4286 23.9407 17.4286Z" stroke="#4CAF4F" stroke-width="2" stroke-linecap="round" stroke-linejoin="round"/>
<path d="M23.9999 16.6072C28.2056 16.6072 30.5713 14.2414 30.5713 10.0357C30.5713 5.83001 28.2056 3.46429 23.9999 3.46429C19.7942 3.46429 17.4285 5.83001 17.4285 10.0357C17.4285 14.2414 19.7942 16.6072 23.9999 16.6072Z" stroke="#4CAF4F" stroke-width="2" stroke-linecap="round" stroke-linejoin="round"/>
</svg>
