<svg width="25" height="24" viewBox="0 0 25 24" fill="none" xmlns="http://www.w3.org/2000/svg">
<path d="M13.9699 8.53003C13.8962 8.46137 13.8371 8.37857 13.7961 8.28657C13.7552 8.19457 13.7331 8.09526 13.7313 7.99455C13.7296 7.89385 13.7481 7.79382 13.7858 7.70043C13.8235 7.60705 13.8797 7.52221 13.9509 7.45099C14.0221 7.37977 14.1069 7.32363 14.2003 7.28591C14.2937 7.24819 14.3937 7.22966 14.4944 7.23144C14.5952 7.23322 14.6945 7.25526 14.7865 7.29625C14.8785 7.33724 14.9613 7.39634 15.0299 7.47003L19.0299 11.47C19.1704 11.6107 19.2493 11.8013 19.2493 12C19.2493 12.1988 19.1704 12.3894 19.0299 12.53L15.0299 16.53C14.9613 16.6037 14.8785 16.6628 14.7865 16.7038C14.6945 16.7448 14.5952 16.7668 14.4944 16.7686C14.3937 16.7704 14.2937 16.7519 14.2003 16.7142C14.1069 16.6764 14.0221 16.6203 13.9509 16.5491C13.8797 16.4779 13.8235 16.393 13.7858 16.2996C13.7481 16.2062 13.7296 16.1062 13.7313 16.0055C13.7331 15.9048 13.7552 15.8055 13.7961 15.7135C13.8371 15.6215 13.8962 15.5387 13.9699 15.47L16.6899 12.75H6.99993C6.80101 12.75 6.61025 12.671 6.4696 12.5304C6.32894 12.3897 6.24993 12.1989 6.24993 12C6.24993 11.8011 6.32894 11.6104 6.4696 11.4697C6.61025 11.329 6.80101 11.25 6.99993 11.25H16.6899L13.9699 8.53003Z" fill="white"/>
</svg>
