<svg width="278" height="180" viewBox="0 0 278 180" fill="none" xmlns="http://www.w3.org/2000/svg">
<g opacity="0.3">
<path d="M48.0747 90.2928H42.189V96.0525H48.0747V90.2928Z" stroke="black" stroke-miterlimit="10"/>
<path d="M38.2086 93.7863H35.8269V96.0615H38.2086V93.7863Z" stroke="black" stroke-miterlimit="10"/>
<path d="M277.61 126.678H255.302V80.9591H256.796V76.2206H204.527V80.9591H206.335V148.964H192.626V3.05566H145.621V113.394H128.432V101.185H132.937V96.0166H95.3462V21.9918H97.7844V18.1222H52.1599V21.9918H55.4298V96.142H19.3726V149.17H0.439819" stroke="black" stroke-miterlimit="10"/>
<path d="M194.507 1.46118H143.53V3.04666H194.507V1.46118Z" stroke="black" stroke-miterlimit="10"/>
<path d="M65.2555 26.3003H59.5151V32.275H65.2555V26.3003Z" stroke="black" stroke-miterlimit="10"/>
<path d="M73.6764 26.3003H67.936V32.275H73.6764V26.3003Z" stroke="black" stroke-miterlimit="10"/>
<path d="M82.0972 26.3003H76.3568V32.275H82.0972V26.3003Z" stroke="black" stroke-miterlimit="10"/>
<path d="M90.5181 26.3003H84.7777V32.275H90.5181V26.3003Z" stroke="black" stroke-miterlimit="10"/>
<path d="M65.2555 35.7684H59.5151V41.7431H65.2555V35.7684Z" stroke="black" stroke-miterlimit="10"/>
<path d="M73.6764 35.7684H67.936V41.7431H73.6764V35.7684Z" stroke="black" stroke-miterlimit="10"/>
<path d="M82.0972 35.7684H76.3568V41.7431H82.0972V35.7684Z" stroke="black" stroke-miterlimit="10"/>
<path d="M90.5181 35.7684H84.7777V41.7431H90.5181V35.7684Z" stroke="black" stroke-miterlimit="10"/>
<path d="M65.2555 45.2366H59.5151V51.2112H65.2555V45.2366Z" stroke="black" stroke-miterlimit="10"/>
<path d="M73.6764 45.2366H67.936V51.2112H73.6764V45.2366Z" stroke="black" stroke-miterlimit="10"/>
<path d="M82.0972 45.2366H76.3568V51.2112H82.0972V45.2366Z" stroke="black" stroke-miterlimit="10"/>
<path d="M90.5181 45.2366H84.7777V51.2112H90.5181V45.2366Z" stroke="black" stroke-miterlimit="10"/>
<path d="M65.2555 54.7046H59.5151V60.6792H65.2555V54.7046Z" stroke="black" stroke-miterlimit="10"/>
<path d="M73.6764 54.7046H67.936V60.6792H73.6764V54.7046Z" stroke="black" stroke-miterlimit="10"/>
<path d="M82.0972 54.7046H76.3568V60.6792H82.0972V54.7046Z" stroke="black" stroke-miterlimit="10"/>
<path d="M90.5181 54.7046H84.7777V60.6792H90.5181V54.7046Z" stroke="black" stroke-miterlimit="10"/>
<path d="M65.2555 64.1727H59.5151V70.1474H65.2555V64.1727Z" stroke="black" stroke-miterlimit="10"/>
<path d="M73.6764 64.1727H67.936V70.1474H73.6764V64.1727Z" stroke="black" stroke-miterlimit="10"/>
<path d="M82.0972 64.1727H76.3568V70.1474H82.0972V64.1727Z" stroke="black" stroke-miterlimit="10"/>
<path d="M90.5181 64.1727H84.7777V70.1474H90.5181V64.1727Z" stroke="black" stroke-miterlimit="10"/>
<path d="M65.2555 73.6407H59.5151V79.6154H65.2555V73.6407Z" stroke="black" stroke-miterlimit="10"/>
<path d="M73.6764 73.6407H67.936V79.6154H73.6764V73.6407Z" stroke="black" stroke-miterlimit="10"/>
<path d="M82.0972 73.6407H76.3568V79.6154H82.0972V73.6407Z" stroke="black" stroke-miterlimit="10"/>
<path d="M90.5181 73.6407H84.7777V79.6154H90.5181V73.6407Z" stroke="black" stroke-miterlimit="10"/>
<path d="M65.2555 83.1089H59.5151V89.0835H65.2555V83.1089Z" stroke="black" stroke-miterlimit="10"/>
<path d="M73.6764 83.1089H67.936V89.0835H73.6764V83.1089Z" stroke="black" stroke-miterlimit="10"/>
<path d="M82.0972 83.1089H76.3568V89.0835H82.0972V83.1089Z" stroke="black" stroke-miterlimit="10"/>
<path d="M90.5181 83.1089H84.7777V89.0835H90.5181V83.1089Z" stroke="black" stroke-miterlimit="10"/>
<path d="M65.2555 92.5769H59.5151V98.5515H65.2555V92.5769Z" stroke="black" stroke-miterlimit="10"/>
<path d="M73.6764 92.5769H67.936V98.5515H73.6764V92.5769Z" stroke="black" stroke-miterlimit="10"/>
<path d="M82.0972 92.5769H76.3568V98.5515H82.0972V92.5769Z" stroke="black" stroke-miterlimit="10"/>
<path d="M90.5181 92.5769H84.7777V98.5515H90.5181V92.5769Z" stroke="black" stroke-miterlimit="10"/>
<path d="M65.2555 101.239H59.5151V107.214H65.2555V101.239Z" stroke="black" stroke-miterlimit="10"/>
<path d="M73.6764 101.239H67.936V107.214H73.6764V101.239Z" stroke="black" stroke-miterlimit="10"/>
<path d="M82.0972 101.239H76.3568V107.214H82.0972V101.239Z" stroke="black" stroke-miterlimit="10"/>
<path d="M90.5181 101.239H84.7777V107.214H90.5181V101.239Z" stroke="black" stroke-miterlimit="10"/>
<path d="M65.2555 110.707H59.5151V116.682H65.2555V110.707Z" stroke="black" stroke-miterlimit="10"/>
<path d="M73.6764 110.707H67.936V116.682H73.6764V110.707Z" stroke="black" stroke-miterlimit="10"/>
<path d="M82.0972 110.707H76.3568V116.682H82.0972V110.707Z" stroke="black" stroke-miterlimit="10"/>
<path d="M90.5181 110.707H84.7777V116.682H90.5181V110.707Z" stroke="black" stroke-miterlimit="10"/>
<path d="M65.2555 120.175H59.5151V126.15H65.2555V120.175Z" stroke="black" stroke-miterlimit="10"/>
<path d="M73.6764 120.175H67.936V126.15H73.6764V120.175Z" stroke="black" stroke-miterlimit="10"/>
<path d="M82.0972 120.175H76.3568V126.15H82.0972V120.175Z" stroke="black" stroke-miterlimit="10"/>
<path d="M90.5181 120.175H84.7777V126.15H90.5181V120.175Z" stroke="black" stroke-miterlimit="10"/>
<path d="M65.2555 129.643H59.5151V135.618H65.2555V129.643Z" stroke="black" stroke-miterlimit="10"/>
<path d="M73.6764 129.643H67.936V135.618H73.6764V129.643Z" stroke="black" stroke-miterlimit="10"/>
<path d="M82.0972 129.643H76.3568V135.618H82.0972V129.643Z" stroke="black" stroke-miterlimit="10"/>
<path d="M90.5181 129.643H84.7777V135.618H90.5181V129.643Z" stroke="black" stroke-miterlimit="10"/>
<path d="M65.2555 139.111H59.5151V145.086H65.2555V139.111Z" stroke="black" stroke-miterlimit="10"/>
<path d="M73.6764 139.111H67.936V145.086H73.6764V139.111Z" stroke="black" stroke-miterlimit="10"/>
<path d="M82.0972 139.111H76.3568V145.086H82.0972V139.111Z" stroke="black" stroke-miterlimit="10"/>
<path d="M90.5181 139.111H84.7777V145.086H90.5181V139.111Z" stroke="black" stroke-miterlimit="10"/>
<path d="M65.2555 148.579H59.5151V154.554H65.2555V148.579Z" stroke="black" stroke-miterlimit="10"/>
<path d="M73.6764 148.579H67.936V154.554H73.6764V148.579Z" stroke="black" stroke-miterlimit="10"/>
<path d="M82.0972 148.579H76.3568V154.554H82.0972V148.579Z" stroke="black" stroke-miterlimit="10"/>
<path d="M90.5181 148.579H84.7777V154.554H90.5181V148.579Z" stroke="black" stroke-miterlimit="10"/>
<path d="M65.2555 158.047H59.5151V164.022H65.2555V158.047Z" stroke="black" stroke-miterlimit="10"/>
<path d="M73.6764 158.047H67.936V164.022H73.6764V158.047Z" stroke="black" stroke-miterlimit="10"/>
<path d="M82.0972 158.047H76.3568V164.022H82.0972V158.047Z" stroke="black" stroke-miterlimit="10"/>
<path d="M90.5181 158.047H84.7777V164.022H90.5181V158.047Z" stroke="black" stroke-miterlimit="10"/>
<path d="M65.2555 167.516H59.5151V173.49H65.2555V167.516Z" stroke="black" stroke-miterlimit="10"/>
<path d="M73.6764 167.516H67.936V173.49H73.6764V167.516Z" stroke="black" stroke-miterlimit="10"/>
<path d="M82.0972 167.516H76.3568V173.49H82.0972V167.516Z" stroke="black" stroke-miterlimit="10"/>
<path d="M90.5181 167.516H84.7777V173.49H90.5181V167.516Z" stroke="black" stroke-miterlimit="10"/>
<path d="M98.1477 101.239H92.4073V107.214H98.1477V101.239Z" stroke="black" stroke-miterlimit="10"/>
<path d="M106.569 101.239H100.828V107.214H106.569V101.239Z" stroke="black" stroke-miterlimit="10"/>
<path d="M114.989 101.239H109.249V107.214H114.989V101.239Z" stroke="black" stroke-miterlimit="10"/>
<path d="M123.41 101.239H117.67V107.214H123.41V101.239Z" stroke="black" stroke-miterlimit="10"/>
<path d="M98.1477 110.707H92.4073V116.682H98.1477V110.707Z" stroke="black" stroke-miterlimit="10"/>
<path d="M106.569 110.707H100.828V116.682H106.569V110.707Z" stroke="black" stroke-miterlimit="10"/>
<path d="M114.989 110.707H109.249V116.682H114.989V110.707Z" stroke="black" stroke-miterlimit="10"/>
<path d="M123.41 110.707H117.67V116.682H123.41V110.707Z" stroke="black" stroke-miterlimit="10"/>
<path d="M98.1477 120.175H92.4073V126.15H98.1477V120.175Z" stroke="black" stroke-miterlimit="10"/>
<path d="M106.569 120.175H100.828V126.15H106.569V120.175Z" stroke="black" stroke-miterlimit="10"/>
<path d="M114.989 120.175H109.249V126.15H114.989V120.175Z" stroke="black" stroke-miterlimit="10"/>
<path d="M123.41 120.175H117.67V126.15H123.41V120.175Z" stroke="black" stroke-miterlimit="10"/>
<path d="M98.1477 129.643H92.4073V135.618H98.1477V129.643Z" stroke="black" stroke-miterlimit="10"/>
<path d="M106.569 129.643H100.828V135.618H106.569V129.643Z" stroke="black" stroke-miterlimit="10"/>
<path d="M114.989 129.643H109.249V135.618H114.989V129.643Z" stroke="black" stroke-miterlimit="10"/>
<path d="M123.41 129.643H117.67V135.618H123.41V129.643Z" stroke="black" stroke-miterlimit="10"/>
<path d="M98.1477 139.111H92.4073V145.086H98.1477V139.111Z" stroke="black" stroke-miterlimit="10"/>
<path d="M106.569 139.111H100.828V145.086H106.569V139.111Z" stroke="black" stroke-miterlimit="10"/>
<path d="M114.989 139.111H109.249V145.086H114.989V139.111Z" stroke="black" stroke-miterlimit="10"/>
<path d="M123.41 139.111H117.67V145.086H123.41V139.111Z" stroke="black" stroke-miterlimit="10"/>
<path d="M98.1477 148.579H92.4073V154.554H98.1477V148.579Z" stroke="black" stroke-miterlimit="10"/>
<path d="M106.569 148.579H100.828V154.554H106.569V148.579Z" stroke="black" stroke-miterlimit="10"/>
<path d="M114.989 148.579H109.249V154.554H114.989V148.579Z" stroke="black" stroke-miterlimit="10"/>
<path d="M123.41 148.579H117.67V154.554H123.41V148.579Z" stroke="black" stroke-miterlimit="10"/>
<path d="M98.1477 158.047H92.4073V164.022H98.1477V158.047Z" stroke="black" stroke-miterlimit="10"/>
<path d="M106.569 158.047H100.828V164.022H106.569V158.047Z" stroke="black" stroke-miterlimit="10"/>
<path d="M114.989 158.047H109.249V164.022H114.989V158.047Z" stroke="black" stroke-miterlimit="10"/>
<path d="M123.41 158.047H117.67V164.022H123.41V158.047Z" stroke="black" stroke-miterlimit="10"/>
<path d="M98.1477 167.516H92.4073V173.49H98.1477V167.516Z" stroke="black" stroke-miterlimit="10"/>
<path d="M106.569 167.516H100.828V173.49H106.569V167.516Z" stroke="black" stroke-miterlimit="10"/>
<path d="M114.989 167.516H109.249V173.49H114.989V167.516Z" stroke="black" stroke-miterlimit="10"/>
<path d="M123.41 167.516H117.67V173.49H123.41V167.516Z" stroke="black" stroke-miterlimit="10"/>
<path d="M31.903 101.239H26.1626V107.214H31.903V101.239Z" stroke="black" stroke-miterlimit="10"/>
<path d="M40.3239 101.239H34.5835V107.214H40.3239V101.239Z" stroke="black" stroke-miterlimit="10"/>
<path d="M48.7448 101.239H43.0044V107.214H48.7448V101.239Z" stroke="black" stroke-miterlimit="10"/>
<path d="M57.1657 101.239H51.4253V107.214H57.1657V101.239Z" stroke="black" stroke-miterlimit="10"/>
<path d="M31.903 110.707H26.1626V116.682H31.903V110.707Z" stroke="black" stroke-miterlimit="10"/>
<path d="M40.3239 110.707H34.5835V116.682H40.3239V110.707Z" stroke="black" stroke-miterlimit="10"/>
<path d="M48.7448 110.707H43.0044V116.682H48.7448V110.707Z" stroke="black" stroke-miterlimit="10"/>
<path d="M57.1657 110.707H51.4253V116.682H57.1657V110.707Z" stroke="black" stroke-miterlimit="10"/>
<path d="M31.903 120.175H26.1626V126.15H31.903V120.175Z" stroke="black" stroke-miterlimit="10"/>
<path d="M40.3239 120.175H34.5835V126.15H40.3239V120.175Z" stroke="black" stroke-miterlimit="10"/>
<path d="M48.7448 120.175H43.0044V126.15H48.7448V120.175Z" stroke="black" stroke-miterlimit="10"/>
<path d="M57.1657 120.175H51.4253V126.15H57.1657V120.175Z" stroke="black" stroke-miterlimit="10"/>
<path d="M31.903 129.643H26.1626V135.618H31.903V129.643Z" stroke="black" stroke-miterlimit="10"/>
<path d="M40.3239 129.643H34.5835V135.618H40.3239V129.643Z" stroke="black" stroke-miterlimit="10"/>
<path d="M48.7448 129.643H43.0044V135.618H48.7448V129.643Z" stroke="black" stroke-miterlimit="10"/>
<path d="M57.1657 129.643H51.4253V135.618H57.1657V129.643Z" stroke="black" stroke-miterlimit="10"/>
<path d="M31.903 139.111H26.1626V145.086H31.903V139.111Z" stroke="black" stroke-miterlimit="10"/>
<path d="M40.3239 139.111H34.5835V145.086H40.3239V139.111Z" stroke="black" stroke-miterlimit="10"/>
<path d="M48.7448 139.111H43.0044V145.086H48.7448V139.111Z" stroke="black" stroke-miterlimit="10"/>
<path d="M57.1657 139.111H51.4253V145.086H57.1657V139.111Z" stroke="black" stroke-miterlimit="10"/>
<path d="M31.903 148.579H26.1626V154.554H31.903V148.579Z" stroke="black" stroke-miterlimit="10"/>
<path d="M40.3239 148.579H34.5835V154.554H40.3239V148.579Z" stroke="black" stroke-miterlimit="10"/>
<path d="M48.7448 148.579H43.0044V154.554H48.7448V148.579Z" stroke="black" stroke-miterlimit="10"/>
<path d="M57.1657 148.579H51.4253V154.554H57.1657V148.579Z" stroke="black" stroke-miterlimit="10"/>
<path d="M31.903 158.047H26.1626V164.022H31.903V158.047Z" stroke="black" stroke-miterlimit="10"/>
<path d="M40.3239 158.047H34.5835V164.022H40.3239V158.047Z" stroke="black" stroke-miterlimit="10"/>
<path d="M48.7448 158.047H43.0044V164.022H48.7448V158.047Z" stroke="black" stroke-miterlimit="10"/>
<path d="M57.1657 158.047H51.4253V164.022H57.1657V158.047Z" stroke="black" stroke-miterlimit="10"/>
<path d="M31.903 167.516H26.1626V173.49H31.903V167.516Z" stroke="black" stroke-miterlimit="10"/>
<path d="M40.3239 167.516H34.5835V173.49H40.3239V167.516Z" stroke="black" stroke-miterlimit="10"/>
<path d="M48.7448 167.516H43.0044V173.49H48.7448V167.516Z" stroke="black" stroke-miterlimit="10"/>
<path d="M57.1657 167.516H51.4253V173.49H57.1657V167.516Z" stroke="black" stroke-miterlimit="10"/>
<path d="M220.012 82.679H214.272V88.6536H220.012V82.679Z" stroke="black" stroke-miterlimit="10"/>
<path d="M228.433 82.679H222.693V88.6536H228.433V82.679Z" stroke="black" stroke-miterlimit="10"/>
<path d="M236.854 82.679H231.114V88.6536H236.854V82.679Z" stroke="black" stroke-miterlimit="10"/>
<path d="M245.275 82.679H239.534V88.6536H245.275V82.679Z" stroke="black" stroke-miterlimit="10"/>
<path d="M220.012 92.147H214.272V98.1216H220.012V92.147Z" stroke="black" stroke-miterlimit="10"/>
<path d="M228.433 92.147H222.693V98.1216H228.433V92.147Z" stroke="black" stroke-miterlimit="10"/>
<path d="M236.854 92.147H231.114V98.1216H236.854V92.147Z" stroke="black" stroke-miterlimit="10"/>
<path d="M245.275 92.147H239.534V98.1216H245.275V92.147Z" stroke="black" stroke-miterlimit="10"/>
<path d="M220.012 101.615H214.272V107.59H220.012V101.615Z" stroke="black" stroke-miterlimit="10"/>
<path d="M228.433 101.615H222.693V107.59H228.433V101.615Z" stroke="black" stroke-miterlimit="10"/>
<path d="M236.854 101.615H231.114V107.59H236.854V101.615Z" stroke="black" stroke-miterlimit="10"/>
<path d="M245.275 101.615H239.534V107.59H245.275V101.615Z" stroke="black" stroke-miterlimit="10"/>
<path d="M220.012 111.083H214.272V117.058H220.012V111.083Z" stroke="black" stroke-miterlimit="10"/>
<path d="M228.433 111.083H222.693V117.058H228.433V111.083Z" stroke="black" stroke-miterlimit="10"/>
<path d="M236.854 111.083H231.114V117.058H236.854V111.083Z" stroke="black" stroke-miterlimit="10"/>
<path d="M245.275 111.083H239.534V117.058H245.275V111.083Z" stroke="black" stroke-miterlimit="10"/>
<path d="M220.012 120.551H214.272V126.526H220.012V120.551Z" stroke="black" stroke-miterlimit="10"/>
<path d="M228.433 120.551H222.693V126.526H228.433V120.551Z" stroke="black" stroke-miterlimit="10"/>
<path d="M236.854 120.551H231.114V126.526H236.854V120.551Z" stroke="black" stroke-miterlimit="10"/>
<path d="M245.275 120.551H239.534V126.526H245.275V120.551Z" stroke="black" stroke-miterlimit="10"/>
<path d="M220.012 130.019H214.272V135.994H220.012V130.019Z" stroke="black" stroke-miterlimit="10"/>
<path d="M228.433 130.019H222.693V135.994H228.433V130.019Z" stroke="black" stroke-miterlimit="10"/>
<path d="M236.854 130.019H231.114V135.994H236.854V130.019Z" stroke="black" stroke-miterlimit="10"/>
<path d="M245.275 130.019H239.534V135.994H245.275V130.019Z" stroke="black" stroke-miterlimit="10"/>
<path d="M220.012 139.487H214.272V145.462H220.012V139.487Z" stroke="black" stroke-miterlimit="10"/>
<path d="M228.433 139.487H222.693V145.462H228.433V139.487Z" stroke="black" stroke-miterlimit="10"/>
<path d="M236.854 139.487H231.114V145.462H236.854V139.487Z" stroke="black" stroke-miterlimit="10"/>
<path d="M245.275 139.487H239.534V145.462H245.275V139.487Z" stroke="black" stroke-miterlimit="10"/>
<path d="M220.012 148.956H214.272V154.93H220.012V148.956Z" stroke="black" stroke-miterlimit="10"/>
<path d="M228.433 148.956H222.693V154.93H228.433V148.956Z" stroke="black" stroke-miterlimit="10"/>
<path d="M236.854 148.956H231.114V154.93H236.854V148.956Z" stroke="black" stroke-miterlimit="10"/>
<path d="M245.275 148.956H239.534V154.93H245.275V148.956Z" stroke="black" stroke-miterlimit="10"/>
<path d="M150.045 6.50439V179.51" stroke="black" stroke-miterlimit="10"/>
<path d="M155.745 6.50439V179.51" stroke="black" stroke-miterlimit="10"/>
<path d="M161.438 6.50439V179.51" stroke="black" stroke-miterlimit="10"/>
<path d="M167.129 6.50439V179.51" stroke="black" stroke-miterlimit="10"/>
<path d="M172.829 6.50439V179.51" stroke="black" stroke-miterlimit="10"/>
<path d="M178.521 6.50439V179.51" stroke="black" stroke-miterlimit="10"/>
<path d="M184.213 6.50439V179.51" stroke="black" stroke-miterlimit="10"/>
<path d="M189.913 6.50439V179.51" stroke="black" stroke-miterlimit="10"/>
</g>
</svg>
