<svg width="48" height="48" viewBox="0 0 48 48" fill="none" xmlns="http://www.w3.org/2000/svg">
<path d="M12.6314 23.9934H11.3599C9.44102 23.5893 7.65688 22.4689 6.26373 20.7636C4.48616 18.5884 3.4873 15.6379 3.4873 12.5624V7.64371C3.4873 7.03914 3.88159 6.50357 4.46645 6.32943C17.2154 2.53244 30.7945 2.53244 43.5434 6.32943C43.8265 6.41371 44.0748 6.58719 44.2512 6.82403C44.4276 7.06087 44.5228 7.34838 44.5226 7.64371V12.5657C44.5226 15.6411 43.5237 18.5917 41.7462 20.7669C40.3464 22.482 38.5492 23.6057 36.6204 24.0033H35.3719" stroke="#4CAF4F" stroke-width="2" stroke-linecap="round" stroke-linejoin="round"/>
<path d="M23.9868 34.5898V44.5357" stroke="#4CAF4F" stroke-width="2" stroke-linecap="round" stroke-linejoin="round"/>
<path d="M16.0879 44.5357H31.8856" stroke="#4CAF4F" stroke-width="2" stroke-linecap="round" stroke-linejoin="round"/>
<path d="M12.5725 22.6726C12.7696 28.9483 17.7245 34.5669 24.0067 34.5669C30.3974 34.5669 35.211 29.0469 35.4344 22.6594C35.4739 21.4569 35.5002 20.2412 35.5002 19.0123C35.5002 14.0344 35.165 8.96458 34.6229 4.46644C31.2057 3.70415 27.6966 3.46429 24.0067 3.46429C20.3136 3.46429 16.7322 3.67458 13.3873 4.46644C12.6456 10.5039 12.3732 16.5897 12.5725 22.6693V22.6726Z" stroke="#4CAF4F" stroke-width="2" stroke-linecap="round" stroke-linejoin="round"/>
</svg>
