<svg width="183" height="232" viewBox="0 0 183 232" fill="none" xmlns="http://www.w3.org/2000/svg">
<path d="M98.4261 140.124C97.7882 138.457 71.7183 107.939 71.7183 107.939L57.3229 124.555L84.281 146.779C81.8379 149.694 79.6734 152.882 77.822 156.292C75.7551 160.296 68.0447 173.938 64.6296 180.531V180.576C64.5004 180.817 64.3874 181.05 64.2743 181.274L64.2259 181.355C64.129 181.561 64.0321 181.749 63.9352 181.937L63.8787 182.045L63.6527 182.519C63.628 182.562 63.6064 182.607 63.5881 182.654L63.4104 183.03C63.3858 183.073 63.3642 183.118 63.3458 183.164L63.2167 183.46L63.1682 183.576C63.1259 183.676 63.0881 183.777 63.0552 183.881C62.1994 186.497 64.3389 186.971 66.0586 187.688C67.7783 188.404 75.6986 192.444 78.702 192.444C81.7054 192.444 82.7389 192.919 82.7389 191.011C82.7389 189.103 76.7401 185.547 76.0942 184.356C75.4483 183.164 72.8647 177.7 72.8647 177.7C72.8647 177.7 93.6545 154.151 95.1562 151.535C96.6579 148.92 99.072 141.79 98.4261 140.124Z" fill="#D4D4D4" stroke="#263238" stroke-linecap="round" stroke-linejoin="round"/>
<path d="M32.1975 225.444C49.4805 225.444 63.4911 209.9 63.4911 190.725C63.4911 171.55 49.4805 156.005 32.1975 156.005C14.9145 156.005 0.903809 171.55 0.903809 190.725C0.903809 209.9 14.9145 225.444 32.1975 225.444Z" fill="#263238" stroke="#263238" stroke-linecap="round" stroke-linejoin="round"/>
<path d="M36.62 221.237C51.8134 218.531 62.1529 202.673 59.7138 185.816C57.2748 168.959 42.9809 157.488 27.7875 160.194C12.594 162.9 2.25457 178.759 4.6936 195.615C7.13263 212.472 21.4265 223.943 36.62 221.237Z" fill="white" stroke="#263238" stroke-linecap="round" stroke-linejoin="round"/>
<path d="M32.1975 220.213C46.8765 220.213 58.7761 207.01 58.7761 190.725C58.7761 174.439 46.8765 161.237 32.1975 161.237C17.5185 161.237 5.6189 174.439 5.6189 190.725C5.6189 207.01 17.5185 220.213 32.1975 220.213Z" fill="white" stroke="#263238" stroke-linecap="round" stroke-linejoin="round"/>
<path d="M145.803 225.444C163.086 225.444 177.096 209.9 177.096 190.725C177.096 171.55 163.086 156.005 145.803 156.005C128.52 156.005 114.509 171.55 114.509 190.725C114.509 209.9 128.52 225.444 145.803 225.444Z" fill="#263238" stroke="#263238" stroke-linecap="round" stroke-linejoin="round"/>
<path d="M171.448 202.815C177.463 187.101 170.858 168.952 156.694 162.278C142.53 155.605 126.172 162.934 120.157 178.648C114.142 194.362 120.748 212.511 134.912 219.184C149.075 225.858 165.433 218.529 171.448 202.815Z" fill="white" stroke="#263238" stroke-linecap="round" stroke-linejoin="round"/>
<path d="M145.803 220.213C160.482 220.213 172.381 207.01 172.381 190.725C172.381 174.439 160.482 161.237 145.803 161.237C131.124 161.237 119.224 174.439 119.224 190.725C119.224 207.01 131.124 220.213 145.803 220.213Z" fill="white" stroke="#263238" stroke-linecap="round" stroke-linejoin="round"/>
<path d="M146.15 195.006C148.281 195.006 150.009 193.089 150.009 190.725C150.009 188.36 148.281 186.443 146.15 186.443C144.018 186.443 142.29 188.36 142.29 190.725C142.29 193.089 144.018 195.006 146.15 195.006Z" stroke="#263238" stroke-linecap="round" stroke-linejoin="round"/>
<path d="M54.6343 127.305L76.1345 194.057" stroke="#263238" stroke-width="4" stroke-miterlimit="10" stroke-linecap="round"/>
<path d="M146.828 192.265C139.319 183.478 120.185 125.684 116.955 115.768C116.819 115.351 116.808 114.896 116.924 114.471C117.041 114.046 117.278 113.675 117.601 113.412L124.916 107.482" stroke="#263238" stroke-width="4" stroke-miterlimit="10" stroke-linecap="round"/>
<path d="M33.0049 189.229C33.0049 189.229 47.6021 138.87 121.049 130.261" stroke="#263238" stroke-width="4" stroke-miterlimit="10" stroke-linecap="round"/>
<path d="M86.7999 192.767C86.7999 192.767 98.6602 189.73 106.645 175.309C114.63 160.887 121.016 147.72 126.49 144.432" stroke="#263238" stroke-width="4" stroke-miterlimit="10" stroke-linecap="round"/>
<path d="M43.8559 119.262C43.8559 119.262 43.6379 125.604 45.18 127.556C46.7221 129.509 56.6124 129.751 61.2305 129.016C65.8487 128.282 67.8267 126.329 67.3908 124.869C66.9548 123.409 59.6965 118.285 54.6343 117.793C49.5721 117.3 44.082 117.085 43.8559 119.262Z" fill="white" stroke="#263238" stroke-linecap="round" stroke-linejoin="round"/>
<path d="M118.085 97.8711C118.085 97.8711 135.194 100.397 138.609 114.317C142.024 128.237 130.632 134.821 123.559 134.821" stroke="#263238" stroke-linecap="round" stroke-linejoin="round"/>
<path d="M130.172 93.3116C130.172 93.3116 145.455 108.495 142.282 119.378C139.109 130.261 120.362 127.735 119.902 126.938" stroke="#263238" stroke-linecap="round" stroke-linejoin="round"/>
<path d="M83.2071 184.544L29.84 186.443L29.1941 192.865L81.9234 204.044L83.2071 184.544Z" fill="white" stroke="#263238" stroke-linecap="round" stroke-linejoin="round"/>
<path d="M81.9234 204.053C86.7792 204.053 90.7156 199.686 90.7156 194.299C90.7156 188.911 86.7792 184.544 81.9234 184.544C77.0675 184.544 73.1311 188.911 73.1311 194.299C73.1311 199.686 77.0675 204.053 81.9234 204.053Z" fill="white" stroke="#263238" stroke-linecap="round" stroke-linejoin="round"/>
<path d="M98.0143 189.479L82.9326 193.268C82.6788 193.333 82.4404 193.457 82.2334 193.632C82.0263 193.808 81.8555 194.03 81.7324 194.284C81.6093 194.539 81.5367 194.82 81.5195 195.108C81.5023 195.396 81.5409 195.685 81.6328 195.956C81.717 196.203 81.8444 196.43 82.0077 196.623C82.171 196.816 82.367 196.972 82.5844 197.081C82.8018 197.189 83.0364 197.25 83.2749 197.258C83.5133 197.267 83.7509 197.223 83.9741 197.129L100.525 190.241L98.0143 189.479Z" fill="white" stroke="#263238" stroke-miterlimit="10" stroke-linecap="round"/>
<path d="M106.096 187.33H95.9797V191.235H106.096V187.33Z" fill="white" stroke="#263238" stroke-miterlimit="10" stroke-linecap="round"/>
<path d="M32.1974 196.905C35.2741 196.905 37.7683 194.138 37.7683 190.725C37.7683 187.311 35.2741 184.544 32.1974 184.544C29.1207 184.544 26.6266 187.311 26.6266 190.725C26.6266 194.138 29.1207 196.905 32.1974 196.905Z" fill="white" stroke="#263238" stroke-linecap="round" stroke-linejoin="round"/>
<path d="M90.9417 82.6882L105.765 89.7735C105.765 89.7735 112.612 91.2874 113.298 92.2996C113.964 93.3151 114.507 94.4234 114.913 95.5959C115.147 96.3484 113.548 96.3484 113.548 96.3484C113.548 96.3484 115.373 99.1341 114.686 99.9314C114 100.729 113.322 100.944 112.862 99.9314C112.549 99.2881 112.075 98.7592 111.497 98.4086L107.162 96.8948L104.651 93.3118C104.651 93.3118 83.6592 91.0366 81.8427 90.2752C80.0261 89.5138 73.1715 78.6304 73.1715 78.6304L76.5948 74.071L90.9417 82.6882Z" fill="#D4D4D4" stroke="#263238" stroke-linecap="round" stroke-linejoin="round"/>
<path d="M114.719 181.265C114.291 180.549 109.786 180.074 107 179.125C104.374 178.086 101.8 176.89 99.29 175.542C99.29 175.542 112.151 126.553 112.151 124.645C112.151 122.074 106.661 120.534 104.974 119.638C98.1204 115.93 91.0284 112.793 83.7562 110.25C80.4217 109.122 76.9097 108.62 73.6964 107.079C70.8221 105.7 70.2731 103.783 70.2731 103.783L44.2516 101.508L43.3393 103.783C43.3393 103.783 43.2827 104.141 43.202 104.733C42.8791 107.124 42.1444 113.251 42.8791 114.675C43.7914 116.467 48.5872 121.51 53.8351 123.033C67.956 127.117 80.1876 133.782 95.1401 133.11C94.7283 135.313 92.6453 146.689 92.6453 150.335C92.6453 154.375 91.5715 170.543 91.5715 170.543C91.5715 170.543 90.9256 182.188 90.2878 185.287C89.65 188.387 90.2878 187.67 91.9994 187.67C93.7111 187.67 109.358 186.237 111.505 185.287C113.653 184.338 115.147 181.982 114.719 181.265Z" fill="#263238" stroke="#263238" stroke-linecap="round" stroke-linejoin="round"/>
<path d="M96.7629 168.241C96.3592 172.442 96.0524 175.506 96.0524 175.506" stroke="#263238" stroke-linecap="round" stroke-linejoin="round"/>
<path d="M90.6431 122.02C97.2958 125.003 101.672 127.243 101.672 127.243L98.3938 129.625H104.239L102.14 131.417L104.013 132.196C104.013 132.196 99.3384 139.98 98.636 148.32C98.2889 152.377 97.6672 158.988 97.1263 164.676" stroke="#757575" stroke-linecap="round" stroke-linejoin="round"/>
<path d="M63.0067 110.456C65.3239 111.486 70.7332 113.824 79.687 117.389C82.9165 118.679 86.0006 119.978 88.7457 121.178" stroke="#757575" stroke-linecap="round" stroke-linejoin="round"/>
<path d="M53.9562 106.228C53.9562 106.228 48.5791 110.385 50.4522 110.125C52.3253 109.865 58.8731 106.488 58.4048 108.047C57.971 109.31 57.4304 110.525 56.7901 111.675L61.6989 109.883" stroke="#757575" stroke-linecap="round" stroke-linejoin="round"/>
<path d="M106.984 179.125C104.358 178.086 101.784 176.89 99.2738 175.542C99.2738 175.542 97.1666 178.937 91.1274 177.1C90.9659 179.843 90.6802 182.576 90.2716 185.287C89.6257 188.378 90.2716 187.67 91.9832 187.67C93.6949 187.67 109.342 186.237 111.489 185.287C113.637 184.338 115.131 181.964 114.719 181.248C114.307 180.531 109.786 180.074 106.984 179.125Z" fill="white" stroke="#263238" stroke-linecap="round" stroke-linejoin="round"/>
<path d="M99.2899 175.56L99.6452 174.18C99.4209 174.598 99.2985 175.073 99.2899 175.56Z" stroke="#263238" stroke-linecap="round" stroke-linejoin="round"/>
<path d="M106.984 179.125C104.358 178.086 101.784 176.89 99.2738 175.542C99.0558 178.157 99.0558 179.581 99.0558 179.581L90.8852 180.101C90.7621 181.84 90.5573 183.572 90.2716 185.287C89.6257 188.378 90.2716 187.67 91.9832 187.67C93.6949 187.67 109.342 186.237 111.489 185.287C113.637 184.338 115.131 181.964 114.719 181.248C114.307 180.531 109.786 180.074 106.984 179.125Z" fill="#33BB51" stroke="#263238" stroke-linecap="round" stroke-linejoin="round"/>
<path d="M91.2081 172.908L91.1436 177.118C91.1436 177.118 92.4838 178.757 96.3026 177.951C100.121 177.145 100.339 175.121 100.339 175.121L100.88 170.642C99.498 171.743 97.9242 172.513 96.259 172.903C94.5939 173.293 92.8739 173.295 91.2081 172.908Z" fill="#616161" stroke="#263238" stroke-linecap="round" stroke-linejoin="round"/>
<path d="M91.9995 187.688C93.7111 187.688 109.358 186.255 111.506 185.305C113.338 184.49 114.735 182.618 114.783 181.669C107.848 185.305 90.2879 185.305 90.2879 185.305C89.642 188.396 90.2879 187.688 91.9995 187.688Z" fill="white" stroke="#263238" stroke-linecap="round" stroke-linejoin="round"/>
<path d="M112.151 95.8468C112.151 95.8468 115.122 95.596 116.713 97.3606C118.304 99.1252 119.224 104.446 121.735 106.73C124.246 109.014 126.983 107.232 129.001 104.195C131.02 101.159 132.279 97.7816 131.593 96.2588C130.907 94.736 119.28 97.271 119.28 97.271" stroke="#263238" stroke-width="4" stroke-miterlimit="10" stroke-linecap="round"/>
<path d="M75.5936 36.8437C75.5936 36.8437 72.5337 35.5538 68.1416 37.6319C63.7495 39.7101 58.0171 45.3354 55.4739 51.3727C52.9307 57.4101 50.2825 70.6672 49.5075 75.764C48.7324 80.8608 46.6171 88.7434 45.9147 91.6725C44.1062 99.2506 41.6518 106.166 43.0969 106.166C44.5421 106.166 54.6988 104.93 60.1647 106.166C65.6306 107.402 71.2742 108.208 73.0827 106.605C73.5509 106.175 72.5336 104.813 72.8808 103.022C73.8174 98.1757 75.7228 90.2035 75.86 89.3078C76.0457 88.0716 83.5542 73.9188 85.8633 67.2902C88.1724 60.6617 87.357 47.6822 86.5092 44.6277C85.6615 41.5732 79.2994 37.3184 78.6697 37.202C78.0399 37.0855 75.5936 36.8437 75.5936 36.8437Z" fill="#33BB51" stroke="#263238" stroke-linecap="round" stroke-linejoin="round"/>
<path d="M84.8623 42.3615C85.3612 45.0687 85.6315 47.8216 85.6697 50.5845C85.6697 54.8482 86.3479 61.02 86.3479 61.02L88.4147 64.7732C88.4147 64.7732 90.9741 54.275 89.9487 47.7539C88.9234 41.2329 84.8623 42.3615 84.8623 42.3615Z" fill="#263238" stroke="#263238" stroke-linecap="round" stroke-linejoin="round"/>
<path d="M56.8303 65.2837L54.5212 66.269" stroke="#263238" stroke-linecap="round" stroke-linejoin="round"/>
<path d="M55.8373 60.6079L68.844 60.2048L59.6077 64.1103" stroke="#263238" stroke-linecap="round" stroke-linejoin="round"/>
<path d="M68.4969 103.255C65.55 102.269 61.3194 100.908 58.0737 100.093" stroke="#263238" stroke-linecap="round" stroke-linejoin="round"/>
<path d="M72.0089 104.455L70.3942 103.891" stroke="#263238" stroke-linecap="round" stroke-linejoin="round"/>
<path d="M57.5408 98.113C60.5202 98.6888 63.4486 99.552 66.2927 100.693" stroke="#263238" stroke-linecap="round" stroke-linejoin="round"/>
<path d="M53.5282 85.3215C52.7693 86.1367 52.0184 86.907 51.2837 87.6057" stroke="#263238" stroke-linecap="round" stroke-linejoin="round"/>
<path d="M67.7218 66.3945C64.1503 71.943 60.2928 77.2576 56.1683 82.312" stroke="#263238" stroke-linecap="round" stroke-linejoin="round"/>
<path d="M74.3825 57.4011C74.3825 57.4011 69.0378 64.2357 63.6445 69.6102C58.2513 74.9847 45.7371 87.1937 45.7371 87.1937C45.7371 87.1937 62.1105 80.1084 70.7655 69.6102C79.4205 59.112 80.2279 55.1348 80.2279 55.1348C80.2279 55.1348 76.4252 54.5616 74.3825 57.4011Z" fill="#263238" stroke="#263238" stroke-linecap="round" stroke-linejoin="round"/>
<path d="M55.9665 46.6161C53.8405 46.7851 51.7063 46.7851 49.5802 46.6161C46.2539 46.3295 40.6265 45.7204 38.8341 50.3066C37.0418 54.8929 37.5585 56.2634 37.0499 60.5182C36.5412 64.773 32.3106 66.251 33.5943 67.6842C34.878 69.1174 33.2633 71.2134 33.2633 71.2134C33.2633 71.2134 30.9784 78.1286 31.7454 82.3834C32.5124 86.6383 41.6519 88.9045 43.6945 89.1912C45.7372 89.4778 46.5042 88.2954 49.5802 81.2458C51.074 77.6548 52.355 73.9594 53.4152 70.1833C53.9239 68.4814 55.9665 53.1641 56.4833 51.1755C57 49.1869 56.9919 46.3205 55.9665 46.6161Z" fill="#263238" stroke="#263238" stroke-linecap="round" stroke-linejoin="round"/>
<path d="M36.6704 68.7144C38.5936 69.2438 40.555 69.5855 42.5319 69.7355C46.2297 70.0759 49.9274 67.3439 49.6125 70.4163C49.2977 73.4887 45.5757 85.8053 42.8387 87.1758C40.1017 88.5463 32.0522 85.8053 32.0522 80.6726C32.0522 75.54 36.6704 68.7144 36.6704 68.7144Z" fill="#666666" stroke="#263238" stroke-linecap="round" stroke-linejoin="round"/>
<path d="M98.2323 18.9106L98.5471 21.2933L97.6671 24.1328C97.6671 24.1328 98.8862 29.5073 98.9912 30.3046C99.0961 31.1018 95.4791 32.6604 95.4791 32.6604C95.4791 32.6604 94.0662 39.1546 92.5887 39.8712C91.1112 40.5878 85.0963 37.1839 85.0963 37.1839L83.2071 49.9932L72.0412 37.0137L73.882 26.1483L72.025 17.5491L98.2323 18.9106Z" fill="white" stroke="#263238" stroke-linecap="round" stroke-linejoin="round"/>
<path d="M88.0352 19.2598C88.0352 19.2598 88.2694 20.4422 87.6719 21.0513C87.1311 21.4619 86.5301 21.765 85.8957 21.9471L85.3629 24.1238L83.8611 23.8461L83.6028 18.1133L88.0352 19.2598Z" fill="#263238" stroke="#263238" stroke-linecap="round" stroke-linejoin="round"/>
<path d="M98.5472 21.2934L89.2544 18.6957L98.1274 17.8447L98.5472 21.2934Z" fill="#263238" stroke="#263238" stroke-linecap="round" stroke-linejoin="round"/>
<path d="M97.3522 22.1356C96.9261 21.8056 96.4393 21.5846 95.9269 21.4885C95.4145 21.3925 94.8893 21.4238 94.3892 21.5802" stroke="#263238" stroke-linecap="round" stroke-linejoin="round"/>
<path d="M93.5899 33.8966C93.5899 33.8966 90.8126 33.825 90.4331 31.1108" stroke="#263238" stroke-linecap="round" stroke-linejoin="round"/>
<path d="M95.9232 24.5631C95.7859 25.4589 95.471 26.1665 95.2207 26.1217C94.9705 26.0769 94.8816 25.2976 95.0189 24.3929C95.1562 23.4882 95.471 22.7895 95.7213 22.8343C95.9716 22.8791 96.0604 23.6494 95.9232 24.5631Z" fill="#263238"/>
<path d="M98.8136 17.6568C98.8136 17.6568 99.6775 8.96798 97.8044 6.28073C95.9313 3.59348 85.6938 0.834565 84.4747 1.2287C83.6094 1.52665 82.7671 1.90108 81.9557 2.34838C79.4991 3.35026 77.1042 4.52918 74.7863 5.87764C72.671 7.31084 72.566 7.28396 71.8878 10.3564C71.2096 13.4288 71.2015 19.4572 71.2015 19.4572L98.8136 17.6568Z" fill="#33BB51" stroke="#263238" stroke-linecap="round" stroke-linejoin="round"/>
<path d="M80.785 16.7609C80.785 16.7609 98.5472 15.8652 101.865 16.4295C105.184 16.9938 108.752 17.1998 108.752 17.1998C108.752 17.1998 99.7905 18.4181 95.1885 19.1884C90.5865 19.9588 82.5855 19.7975 82.5855 19.7975L80.785 16.7609Z" fill="#33BB51" stroke="#263238" stroke-linecap="round" stroke-linejoin="round"/>
<path d="M79.5336 15.3636C79.2787 13.0166 79.3659 10.6393 79.792 8.32304C80.2815 6.23758 81.0086 4.22985 81.9558 2.34839C81.9558 2.34839 77.3537 2.34838 76.175 4.79378C74.9962 7.23918 76.5302 16.9043 76.5302 16.9043L79.5821 17.182L79.5336 15.8653V15.3636Z" fill="#263238" stroke="#263238" stroke-linecap="round" stroke-linejoin="round"/>
<path d="M84.289 24.0166C83.9876 25.3942 83.3247 26.6416 82.3841 27.601C81.4435 28.5605 80.2676 29.1889 79.0051 29.4068C77.7426 29.6246 76.4502 29.4222 75.2914 28.825C74.1326 28.2278 73.1595 27.2627 72.4952 26.0519C71.8309 24.841 71.5051 23.4387 71.5593 22.0224C71.6134 20.6061 72.0449 19.2394 72.7992 18.0953C73.5535 16.9511 74.5968 16.0809 75.7969 15.5947C76.9971 15.1084 78.3003 15.028 79.5417 15.3637C81.2051 15.8134 82.6395 16.9774 83.5297 18.6C84.4198 20.2225 84.693 22.1708 84.289 24.0166Z" fill="#263238" stroke="#263238" stroke-linecap="round" stroke-linejoin="round"/>
<path d="M81.7458 23.3267C81.5666 24.1441 81.1729 24.8842 80.6147 25.4535C80.0565 26.0228 79.3587 26.3957 78.6095 26.5251C77.8603 26.6546 77.0933 26.5347 76.4055 26.1806C75.7177 25.8266 75.1399 25.2543 74.7451 24.5361C74.3504 23.8178 74.1564 22.9859 74.1877 22.1454C74.219 21.3049 74.4742 20.4935 74.921 19.8138C75.3677 19.1342 75.9861 18.6167 76.6979 18.3268C77.4097 18.0369 78.183 17.9876 78.92 18.1851C79.9086 18.4525 80.7612 19.144 81.2909 20.1078C81.8206 21.0717 81.9842 22.2293 81.7458 23.3267Z" fill="#666666" stroke="#263238" stroke-linecap="round" stroke-linejoin="round"/>
<path d="M85.0963 37.229L82.0525 35.7241L83.9579 44.1621L85.0963 37.229Z" fill="#263238" stroke="#263238" stroke-linecap="round" stroke-linejoin="round"/>
<path d="M55.9665 46.6162C55.9665 46.6162 60.0033 39.9608 69.2639 37.5333C73.6802 36.3868 76.942 39.5219 78.476 42.0748C80.01 44.6277 80.2603 49.7334 80.2603 49.7334C80.2603 49.7334 73.3573 40.9461 71.3146 40.9461C69.272 40.9461 57.7912 45.6309 55.474 51.3727L55.9665 46.6162Z" fill="#263238" stroke="#263238" stroke-linecap="round" stroke-linejoin="round"/>
<path d="M61.9006 55.9411C61.9006 55.9411 79.7193 77.5825 81.9557 78.7111C84.1921 79.8398 118.384 92.2369 118.384 92.2369C118.416 92.8537 118.591 93.4508 118.893 93.9703C119.194 94.4898 119.611 94.9141 120.104 95.2019C121.168 95.7012 122.278 96.0707 123.414 96.3036C123.414 96.3036 122.849 98.6057 123.907 98.8028C124.964 98.9999 128.662 100.415 129.405 99.8239C130.148 99.2327 131.173 95.3452 130.923 94.0822C130.672 92.8192 119.264 87.8119 119.264 87.8119L90.5542 69.2251C90.5542 69.2251 78.8393 46.07 75.6663 42.5855C72.4933 39.101 66.3331 42.5407 66.3331 42.5407" fill="white"/>
<path d="M61.9006 55.9411C61.9006 55.9411 79.7193 77.5825 81.9557 78.7111C84.1921 79.8398 118.384 92.2369 118.384 92.2369C118.416 92.8537 118.591 93.4508 118.893 93.9703C119.194 94.4898 119.611 94.9141 120.104 95.2019C121.168 95.7012 122.278 96.0707 123.414 96.3036C123.414 96.3036 122.849 98.6057 123.907 98.8028C124.964 98.9999 128.662 100.415 129.405 99.8239C130.148 99.2327 131.173 95.3452 130.923 94.0822C130.672 92.8192 119.264 87.8119 119.264 87.8119L90.5542 69.2251C90.5542 69.2251 78.8393 46.07 75.6663 42.5855C72.4933 39.101 66.3331 42.5407 66.3331 42.5407" stroke="#263238" stroke-linecap="round" stroke-linejoin="round"/>
<path d="M61.9006 55.9411C61.9006 55.9411 67.31 62.5159 72.5418 68.607L86.2671 61.02C82.5774 53.9974 77.5313 44.6905 75.6098 42.5855C72.4449 39.101 66.2766 42.5407 66.2766 42.5407" fill="#33BB51"/>
<path d="M61.9006 55.9411C61.9006 55.9411 67.31 62.5159 72.5418 68.607L86.2671 61.02C82.5774 53.9974 77.5313 44.6905 75.6098 42.5855C72.4449 39.101 66.2766 42.5407 66.2766 42.5407" stroke="#263238" stroke-linecap="round" stroke-linejoin="round"/>
<path d="M126.151 95.3629L125.513 99.5909" stroke="#263238" stroke-linecap="round" stroke-linejoin="round"/>
<path d="M128.194 94.7809L127.241 99.6717" stroke="#263238" stroke-linecap="round" stroke-linejoin="round"/>
<path d="M129.889 95.0942L129.389 99.8238" stroke="#263238" stroke-linecap="round" stroke-linejoin="round"/>
</svg>
