<svg width="336" height="63" viewBox="0 0 336 63" fill="none" xmlns="http://www.w3.org/2000/svg">
<path d="M317.07 22.0565C317.07 21.7519 317.021 21.4205 317.013 21.0712C316.933 13.5827 314.43 8.40525 308.318 4.47291C296.87 -2.90807 290.225 4.47291 286.899 11.0298C283.572 17.5867 278.405 6.92727 270.275 8.15444C262.145 9.38162 262.524 19.2259 260.304 24.5467C258.083 29.8674 253.288 22.9075 247.006 24.1436C240.725 25.3797 240.362 29.4643 239.248 31.1036C238.133 32.7428 228.17 28.6492 222.632 31.9277C219.101 34.1818 216.17 37.433 214.138 41.3509H335.284C335.284 41.3509 336.762 31.4977 331.966 27.8341C327.655 24.5198 317.902 29.8226 317.07 22.0565Z" stroke="#263238" stroke-linecap="round" stroke-linejoin="round"/>
<path d="M260.877 34.3015C260.467 34.4186 260.084 34.6324 259.755 34.9285C258.197 36.4424 258.197 37.5262 258.197 37.5262" stroke="#263238" stroke-linecap="round" stroke-linejoin="round"/>
<path d="M287.601 21.5908C286.519 24.2064 285.566 27.0818 283.346 28.2283C280.173 29.8765 277.202 26.1592 274.271 25.3171C273.445 25.0181 272.556 25.009 271.725 25.2912C270.895 25.5733 270.162 26.1329 269.629 26.8937C268.305 28.5687 268.289 32.3577 266.553 33.4326C265.492 33.8901 264.355 34.0916 263.218 34.0238" stroke="#263238" stroke-linecap="round" stroke-linejoin="round"/>
<path d="M323.658 33.6921C323.569 33.4592 323.48 33.2174 323.375 32.9935C321.05 27.8339 315.544 31.9813 312.153 30.5391C309.15 29.2492 310.135 23.9732 309.731 21.2143C308.924 15.8398 302.909 11.8179 298.186 12.633C294.695 13.2999 291.541 15.3458 289.304 18.3927" stroke="#263238" stroke-linecap="round" stroke-linejoin="round"/>
<path d="M324.611 38.4309C324.524 37.5271 324.389 36.6298 324.207 35.7437" stroke="#263238" stroke-linecap="round" stroke-linejoin="round"/>
<path d="M73.0747 48.9826C73.0616 48.7529 73.0616 48.5226 73.0747 48.2929C73.0182 43.0707 71.2662 39.4608 67.0033 36.7108C59.0103 31.5603 54.376 36.7108 52.0508 41.2881C49.7255 45.8654 46.1247 38.4307 40.4569 39.2816C34.7892 40.1326 35.0395 47.003 33.4974 50.7204C31.9553 54.4377 28.5967 49.5828 24.2127 50.4427C19.8286 51.3026 19.5783 54.1601 18.8033 55.2977C18.0282 56.4353 11.0687 53.5868 7.20136 55.8709C4.73887 57.4457 2.69465 59.7137 1.27527 62.4457H85.7827C85.7827 62.4457 86.808 55.5843 83.4655 53.0135C80.454 50.7025 73.6479 54.3929 73.0747 48.9826Z" stroke="#263238" stroke-linecap="round" stroke-linejoin="round"/>
<path d="M33.8283 57.5371C33.5339 57.6173 33.2585 57.767 33.021 57.976C31.931 59.042 31.931 59.7675 31.931 59.7675" stroke="#263238" stroke-linecap="round" stroke-linejoin="round"/>
<path d="M52.5029 48.6335C51.752 50.425 51.09 52.4584 49.5317 53.2646C47.3196 54.4111 45.2446 51.8224 43.202 51.2312C42.6269 51.024 42.0082 51.0186 41.4302 51.2157C40.8523 51.4129 40.3432 51.8031 39.9725 52.333C39.0521 53.4975 39.0359 56.1489 37.8249 56.8924C37.0831 57.2151 36.287 57.3557 35.4916 57.3044" stroke="#263238" stroke-linecap="round" stroke-linejoin="round"/>
<path d="M77.6685 57.1073C77.604 56.9371 77.5394 56.7759 77.4667 56.6236C75.852 53.0406 72.0008 55.9159 69.6433 54.9037C67.5361 54.008 68.2304 50.3265 67.9478 48.4006C67.3988 44.6743 63.1843 41.8347 59.8741 42.408C57.4288 42.8685 55.217 44.2975 53.6493 46.4299" stroke="#263238" stroke-linecap="round" stroke-linejoin="round"/>
<path d="M78.3307 60.4126C78.2728 59.7706 78.1784 59.1334 78.0481 58.5046" stroke="#263238" stroke-linecap="round" stroke-linejoin="round"/>
</svg>
