<svg width="48" height="48" viewBox="0 0 48 48" fill="none" xmlns="http://www.w3.org/2000/svg">
<path d="M9.27295 33.2543C9.29842 33.7096 9.3207 34.168 9.34935 34.6232C9.43502 36.1052 10.0621 37.5041 11.1115 38.5541C12.1609 39.6041 13.5594 40.2319 15.0414 40.3184C16.5217 40.4044 17.9861 40.4712 19.4441 40.5158" stroke="#4CAF4F" stroke-width="2" stroke-linecap="round" stroke-linejoin="round"/>
<path d="M29.0967 7.61786C30.6511 7.66225 32.2049 7.73017 33.7573 7.8216C36.8261 8.00306 39.2647 10.4448 39.4493 13.5136C39.5098 14.5355 39.5607 15.5511 39.5989 16.5602" stroke="#4CAF4F" stroke-width="2" stroke-linecap="round" stroke-linejoin="round"/>
<path d="M13.9083 16.3119C18.588 16.3119 21.6059 19.9888 21.6059 24.8308H6.21387C6.21387 19.9888 9.23179 16.3119 13.9083 16.3119Z" stroke="#4CAF4F" stroke-width="2" stroke-linecap="round" stroke-linejoin="round"/>
<path d="M35.0467 34.3845C39.7264 34.3845 42.7444 38.0582 42.7444 42.9034H27.3491C27.3491 38.0582 30.3702 34.3845 35.0467 34.3845Z" stroke="#4CAF4F" stroke-width="2" stroke-linecap="round" stroke-linejoin="round"/>
<path d="M13.9082 16.3119C17.2668 16.3119 19.1546 14.4241 19.1546 11.0687C19.1546 7.71018 17.2668 5.82239 13.9082 5.82239C10.5528 5.82239 8.66504 7.71018 8.66504 11.0687C8.66504 14.4241 10.5528 16.3119 13.9082 16.3119Z" stroke="#4CAF4F" stroke-width="2" stroke-linecap="round" stroke-linejoin="round"/>
<path d="M35.0466 34.3844C38.402 34.3844 40.293 32.4966 40.293 29.1412C40.293 25.7827 38.402 23.8949 35.0466 23.8949C31.6881 23.8949 29.8003 25.7827 29.8003 29.1412C29.8003 32.4966 31.6881 34.3844 35.0466 34.3844Z" stroke="#4CAF4F" stroke-width="2" stroke-linecap="round" stroke-linejoin="round"/>
</svg>
