<svg width="59" height="49" viewBox="0 0 59 49" fill="none" xmlns="http://www.w3.org/2000/svg">
<path fill-rule="evenodd" clip-rule="evenodd" d="M35.0822 0.0736881C40.3077 -0.39864 45.5462 1.43603 49.7685 4.53372C53.9705 7.61649 56.9216 12.1237 58.3249 17.1255C59.6877 21.9831 58.7801 26.9957 57.4343 31.858C56.0258 36.9464 54.6519 42.4451 50.4311 45.6444C46.1717 48.873 40.4082 49.3601 35.0822 48.8005C30.1409 48.2814 26.0786 45.3561 21.9219 42.649C17.5248 39.7854 11.6737 37.6894 10.2816 32.6492C8.89442 27.6265 12.9685 22.9278 15.1697 18.2015C17.0745 14.1112 18.8722 10.0679 22.2155 7.02423C25.9059 3.66457 30.0995 0.524076 35.0822 0.0736881Z" fill="#E8F5E9"/>
<path d="M9.27295 34.2543C9.29842 34.7095 9.3207 35.1679 9.34935 35.6232C9.43502 37.1052 10.0621 38.504 11.1115 39.554C12.1609 40.604 13.5594 41.2319 15.0414 41.3184C16.5217 41.4043 17.9861 41.4712 19.4441 41.5158" stroke="#103E13" stroke-width="2" stroke-linecap="round" stroke-linejoin="round"/>
<path d="M29.0967 8.61792C30.6511 8.66231 32.2049 8.73023 33.7573 8.82166C36.8261 9.00312 39.2647 11.4448 39.4493 14.5137C39.5098 15.5356 39.5607 16.5511 39.5989 17.5603" stroke="#103E13" stroke-width="2" stroke-linecap="round" stroke-linejoin="round"/>
<path d="M13.9083 17.3119C18.588 17.3119 21.6059 20.9888 21.6059 25.8308H6.21387C6.21387 20.9888 9.23179 17.3119 13.9083 17.3119Z" stroke="#103E13" stroke-width="2" stroke-linecap="round" stroke-linejoin="round"/>
<path d="M35.0467 35.3844C39.7264 35.3844 42.7444 39.0581 42.7444 43.9034H27.3491C27.3491 39.0581 30.3702 35.3844 35.0467 35.3844Z" stroke="#103E13" stroke-width="2" stroke-linecap="round" stroke-linejoin="round"/>
<path d="M13.9082 17.3119C17.2668 17.3119 19.1546 15.4241 19.1546 12.0687C19.1546 8.71018 17.2668 6.82239 13.9082 6.82239C10.5528 6.82239 8.66504 8.71018 8.66504 12.0687C8.66504 15.4241 10.5528 17.3119 13.9082 17.3119Z" stroke="#103E13" stroke-width="2" stroke-linecap="round" stroke-linejoin="round"/>
<path d="M35.0466 35.3844C38.402 35.3844 40.293 33.4966 40.293 30.1412C40.293 26.7827 38.402 24.8949 35.0466 24.8949C31.6881 24.8949 29.8003 26.7827 29.8003 30.1412C29.8003 33.4966 31.6881 35.3844 35.0466 35.3844Z" stroke="#103E13" stroke-width="2" stroke-linecap="round" stroke-linejoin="round"/>
</svg>
