<svg width="393" height="407" viewBox="0 0 393 407" fill="none" xmlns="http://www.w3.org/2000/svg">
<path d="M189.952 406.659C294.443 406.659 379.15 400.547 379.15 393.007C379.15 385.467 294.443 379.354 189.952 379.354C85.4614 379.354 0.754883 385.467 0.754883 393.007C0.754883 400.547 85.4614 406.659 189.952 406.659Z" fill="#E0E0E0"/>
<path d="M171.601 58.3276C171.601 58.3276 166.212 51.4045 163.583 51.3692C160.955 51.334 158.476 56.8302 156.633 56.5396C154.79 56.2489 152.787 49.9423 148.051 51.4309C143.314 52.9195 142.141 60.2389 138.992 59.9747C135.843 59.7105 120.61 32.8723 120.61 32.8723L109.638 39.2405C109.638 39.2405 126.053 65.3828 124.633 68.2102C123.212 71.0376 116.377 68.1574 112.584 71.3899C108.791 74.6225 113.113 79.6783 112.39 81.3871C111.667 83.0958 106.93 82.1974 105.58 84.4523C104.231 86.7071 106.004 95.0219 106.004 95.0219L136.752 71.5221L171.601 58.3276Z" fill="white" stroke="#263238" stroke-miterlimit="10"/>
<path d="M99.523 26.3118L96.6299 39.3565L100.043 45.8304L108.582 41.3471C108.582 41.3471 104.207 36.0623 99.523 26.3118Z" fill="#4CAF4F" stroke="#263238" stroke-miterlimit="10"/>
<path d="M114.339 18.5388L126.687 23.5418L130.101 30.0157L121.598 34.5078C121.598 34.5078 119.728 27.9194 114.339 18.5388Z" fill="#4CAF4F" stroke="#263238" stroke-miterlimit="10"/>
<path d="M96.8857 3.60645C96.8857 3.60645 89.8911 23.8649 108.582 41.3224L122.377 34.0822C122.377 34.0822 118.99 10.6969 96.8857 3.60645Z" fill="white" stroke="#263238" stroke-miterlimit="10"/>
<path d="M103.937 36.2274C105.367 38.04 106.933 39.7419 108.621 41.3184L122.372 34.0782C121.987 31.827 121.396 29.6157 120.608 27.4722L103.937 36.2274Z" fill="#4CAF4F" stroke="#263238" stroke-miterlimit="10"/>
<path d="M110.497 20.4737C111.337 17.6069 109.69 14.6033 106.819 13.765C103.948 12.9267 100.941 14.5711 100.101 17.4379C99.2616 20.3047 100.908 23.3082 103.779 24.1465C106.65 24.9848 109.658 23.3404 110.497 20.4737Z" fill="#4CAF4F" stroke="#263238" stroke-miterlimit="10"/>
<path d="M108.349 17.3538C108.034 16.7615 107.552 16.2755 106.961 15.9572C106.37 15.6388 105.698 15.5024 105.03 15.5652C104.362 15.6279 103.727 15.887 103.206 16.3097C102.685 16.7324 102.302 17.2998 102.104 17.9402C101.905 18.5806 101.902 19.2652 102.093 19.9077C102.284 20.5502 102.662 21.1216 103.178 21.5499C103.694 21.9782 104.326 22.2441 104.994 22.314C105.661 22.3839 106.335 22.2547 106.929 21.9428C107.324 21.7351 107.675 21.4515 107.96 21.1083C108.246 20.765 108.461 20.3689 108.592 19.9426C108.724 19.5163 108.771 19.0682 108.729 18.6239C108.687 18.1797 108.558 17.7481 108.349 17.3538Z" fill="white" stroke="#263238" stroke-miterlimit="10"/>
<path d="M366.046 167.071L358.84 172.065L358.884 180.82L351.898 175.526L343.572 178.275L346.456 170.004L341.27 162.94L350.037 163.125L355.162 156.017L357.693 164.402L366.046 167.071Z" fill="white" stroke="#263238" stroke-miterlimit="10"/>
<path d="M29.4571 202.216L27.7283 208.215L31.6975 213.041L25.4439 213.253L22.0745 218.511L19.9399 212.636L13.8892 211.068L18.8286 207.228L18.4581 200.992L23.6357 204.489L29.4571 202.216Z" fill="white" stroke="#263238" stroke-miterlimit="10"/>
<path d="M130.728 279.759L128.999 285.757L132.968 290.584L126.714 290.795L123.345 296.054L121.219 290.187L115.168 288.611L120.099 284.771L119.729 278.534L124.906 282.031L130.728 279.759Z" fill="white" stroke="#263238" stroke-miterlimit="10"/>
<path d="M276.374 279.759L274.637 285.758L278.606 290.585L272.361 290.796L268.991 296.054L266.857 290.188L260.806 288.612L265.737 284.771L265.366 278.535L270.544 282.032L276.374 279.759Z" fill="white" stroke="#263238" stroke-miterlimit="10"/>
<path d="M59.9914 93.3029L58.783 97.5131L61.5614 100.895L57.1777 101.036L54.8226 104.727L53.3232 100.614L49.0894 99.5037L52.547 96.8173L52.2824 92.4485L55.9164 94.9059L59.9914 93.3029Z" fill="white" stroke="#263238" stroke-miterlimit="10"/>
<path d="M140.636 7.27719L136.843 9.4792L136.516 13.848L133.253 10.9325L128.993 11.9631L130.757 7.95541L128.455 4.23842L132.821 4.67882L135.652 1.34058L136.578 5.62128L140.636 7.27719Z" fill="white" stroke="#263238" stroke-miterlimit="10"/>
<path d="M374.041 180.626L372.824 184.836L375.611 188.218L371.227 188.359L368.864 192.05L367.373 187.937L363.13 186.836L366.588 184.14L366.332 179.771L369.957 182.229L374.041 180.626Z" fill="white" stroke="#263238" stroke-miterlimit="10"/>
<path d="M234.993 25.7495L233.256 31.7477L237.225 36.5745L230.98 36.7859L227.611 42.0443L225.476 36.1782L219.425 34.6015L224.356 30.7612L223.985 24.5251L229.163 28.0219L234.993 25.7495Z" fill="white" stroke="#263238" stroke-miterlimit="10"/>
<path d="M197.842 284.475C262.719 284.475 315.312 231.956 315.312 167.17C315.312 102.384 262.719 49.8645 197.842 49.8645C132.965 49.8645 80.3721 102.384 80.3721 167.17C80.3721 231.956 132.965 284.475 197.842 284.475Z" fill="#4CAF4F" stroke="#263238" stroke-miterlimit="10"/>
<path d="M174.237 275.717C180.536 277.088 186.944 277.901 193.386 278.148" stroke="#263238" stroke-miterlimit="10"/>
<path d="M159.868 271.553C163.052 272.707 166.289 273.729 169.57 274.592" stroke="#263238" stroke-miterlimit="10"/>
<path d="M90.8886 136.794C83.4119 163.086 85.9035 191.208 97.8867 215.782C109.87 240.355 130.504 259.654 155.842 269.989" stroke="#263238" stroke-miterlimit="10"/>
<path d="M105.839 104.844C101.822 110.762 98.3809 117.051 95.563 123.623" stroke="#263238" stroke-miterlimit="10"/>
<path d="M181.922 115.072L193.9 117.547L197.984 121.775L203.303 122.594L204.996 127.633L203.752 131.05L200.127 132.706L191.236 131.261L190.998 130.169L195.197 127.245L192.295 121.899L184.348 120.806L180.114 117.186L181.922 115.072Z" fill="white" stroke="#263238" stroke-miterlimit="10"/>
<path d="M278.44 225.436L268.941 223.833L257.474 222.38L249.042 224.247L240.786 224.37L232.495 228.202L227.662 229.567L224.663 230.228L219.67 234.755L214.713 238.137L206.334 235.143L206.554 227.119L201.5 226.238L196.058 227.444L194.709 225.216L194.162 220.204L191.657 217.905L187.961 219.297L187.476 222.257L182.916 223.551L177.747 219.57L174.66 213.404L177.05 204.887L185.059 203.68L187.661 205.107L190.933 204.376L194.462 201.029L198.237 201.329L205.011 208.666L206.854 207.979L204.923 201.813L202.568 198.906L201.959 193.622L211.062 187.042L210.18 176.684L213.708 172.183L215.86 165.136L218.462 163.982L223.816 158.521L223.604 156.284L219.309 157.526L218.012 155.527L215.013 156.196L210.603 158.31L211.997 154.294L220.993 149.467L222.625 146.543L227.767 151.678L230.766 153.58L234.294 151.642L231.878 148.472L225.254 145.671L217.13 139.778L209.298 136.669L202.523 137.03L198.528 134.493L193.932 134.37L193.632 135.577L194.841 143.574L196.534 146.058L196.014 155.298L189.61 152.153V148.163L183.295 146.719L180.181 144.27L180.031 137.171L186.656 129.719L185.774 123.069L182.836 124.012L180.393 121.986L178.629 118.093L176.662 118.242L176.547 122.831L173.628 124.047L170.153 114.834L167.674 113.953L163.502 113.169L159.63 116.305L166.219 120.259L168.336 124.663L156.869 119.502L148.437 113.671L146.285 106.44L138.726 105.832L134.068 110.571C132.925 111.662 131.724 112.691 130.47 113.653C129.226 114.534 124.181 116.19 124.181 116.19L124.119 121.052L117.945 122.708L119.153 125.579L129.588 124.98L136.027 129.534L138.144 139.047L137.023 148.137L139.564 156.945L134.898 171.919L137.676 192.115L142.668 202.993L148.137 210.921L152.344 210.559L150.016 206.508L147.114 203.733L144.424 198.052L146.752 196.969L152.732 205.909L157.39 214.003L158.96 221.05L165.522 226.15L176.274 230.976L191.269 231.646L196.561 234.755L200.795 238.375L206.352 240.278L212.702 240.586L218.629 238.983C218.629 238.983 218.965 241.757 219.265 243.123C219.564 244.488 216.786 249.949 216.786 249.949L215.022 256.044L218.55 261.54L225.086 262.659L235.371 269.485L239.543 270.269L240.425 274.347L241.307 276.109C261.738 268.021 279.476 254.352 292.491 236.666L292.2 234.667L296.61 219.693L292.527 218.029L278.44 225.436Z" fill="white" stroke="#263238" stroke-miterlimit="10"/>
<path d="M282.854 111.799L278.717 107.298L273.575 102.163L270.673 94.236L275.753 93.9629L275.418 91.1884L271.819 91.6992L274.51 89.6734L277.358 87.031L276.75 84.3093L272.516 80.6892L270.523 74.9904C250.403 59.1755 225.663 50.3528 200.063 49.8631C174.463 49.3734 149.402 57.2436 128.691 72.2775L135.959 75.3251L133.234 81.0591L128.303 83.2964L129.397 90.7568L127.395 92.0516L125.339 95.6453L126.698 100.481L131.452 99.9964L130.57 105.035L135.201 104.013L140.854 92.2101L140.704 87.6828L148.202 85.4543L149.384 81.7638L157.093 79.2006L156.881 74.4002L162.535 72.8588C162.535 72.8588 166.134 69.776 166.945 69.5998C168.595 69.5897 170.243 69.7015 171.876 69.9345L176.683 72.2863L182.434 71.0708L186.667 67.0014L193.045 66.1206C194.074 66.5169 195.184 66.6618 196.282 66.5434C197.64 66.2351 201.3 63.4342 201.3 63.4342L210.28 66.5698L214.09 68.3315L214.972 72.4096L219.179 72.0485L219.991 69.3003L223.898 70.1812L224.11 72.4096L216.427 76.3556L222.381 81.3057L233.389 84.5735L238.681 89.1009L244.785 88.3169L245.543 85.2958L247.599 84.274L239.316 80.4073L234.844 80.8301L238.134 78.954L233.839 75.0608L238.408 73.7572L245.12 75.695L247.934 81.9135L251.709 84.7849L255.916 92.122L262.867 95.1432L264.869 104.11L272.031 106.805L272.401 109.826V113.543L275.127 118.071L276.212 120.396L281.019 120.185L282.166 115.085L282.854 111.799Z" fill="white" stroke="#263238" stroke-miterlimit="10"/>
<path d="M280.342 83.6406L280.686 85.1996L280.298 89.8503L281.956 93.4792L285.193 93.902L286.34 99.0635L282.812 98.4294L285.255 113.289L283.323 119.992L287.187 127.117L291.456 129.592L294.719 144.275L300.796 154.898L306.539 162.755L313.163 162.992L314.133 157.073L314.865 156.193C314.399 151.341 313.636 146.523 312.581 141.765C307.698 119.681 296.498 99.489 280.342 83.6406Z" fill="white" stroke="#263238" stroke-miterlimit="10"/>
<path d="M217.08 95.8785L197.367 91.9766L189.534 94.0024L188.776 99.5867L184.727 96.7769L179.047 99.4634L180.493 108.553L186.174 111.002L188.564 105.056L193.556 108.227L203.629 113.688L207.007 121.21L216.084 128.609L227.092 124.17L225.91 120.162L222.434 116.084L219.471 105.33L221.164 100.106L217.08 95.8785Z" fill="white" stroke="#263238" stroke-miterlimit="10"/>
<path d="M233.08 98.5993L228.758 98.4143L225.883 102.193L229.543 109.645L233.08 108.861V98.5993Z" fill="white" stroke="#263238" stroke-miterlimit="10"/>
<path d="M259.56 98.1514L249.223 95.3064L246.585 92.4702L244.592 93.7738L247.705 98.7856L250.916 105.488L255.362 106.211L255.935 104.942L252.574 101.41L260.257 102.555L259.56 98.1514Z" fill="white" stroke="#263238" stroke-miterlimit="10"/>
<path d="M201.908 213.888L201.061 215.218L209.767 215.853L213.877 218.935L219.169 218.328L220.413 214.919L213.912 215.218L201.908 213.888Z" fill="white" stroke="#263238" stroke-miterlimit="10"/>
<path d="M227.262 213.679L221.908 216.577L223.214 218.576L230.288 217L231.17 214.525L228.779 215.344L227.262 213.679Z" fill="white" stroke="#263238" stroke-miterlimit="10"/>
<path d="M338.559 52.1462L287.815 38.6875L299.961 54.3306L338.559 52.1462Z" fill="white" stroke="#263238" stroke-linecap="round" stroke-linejoin="round"/>
<path d="M299.978 54.3472L299.599 64.8728L338.576 52.1628L299.978 54.3472Z" fill="white" stroke="#263238" stroke-linecap="round" stroke-linejoin="round"/>
<path d="M304.573 59.6056L299.599 64.8728L338.576 52.1628L304.573 59.6056Z" fill="white" stroke="#263238" stroke-linecap="round" stroke-linejoin="round"/>
<path d="M338.571 52.1628L304.569 59.6056L313.433 75.0285L338.571 52.1628Z" fill="white" stroke="#263238" stroke-linecap="round" stroke-linejoin="round"/>
<path d="M291.621 62.4587L290.316 62.6352" stroke="#263238" stroke-linecap="round" stroke-linejoin="round"/>
<path d="M287.702 62.9954C258.754 67.1175 77.8644 94.4665 40.0866 138.894C6.49844 178.398 62.314 189.461 75.3682 191.461" stroke="#263238" stroke-linecap="round" stroke-linejoin="round" stroke-dasharray="2.99 2.99"/>
<path d="M76.6011 191.645C77.439 191.769 77.9065 191.813 77.9065 191.813" stroke="#263238" stroke-linecap="round" stroke-linejoin="round"/>
<path d="M300.89 239.453L288.118 222.145C288.118 222.145 284.105 220.498 283.708 219.406C283.03 217.418 282.238 215.471 281.336 213.575C281.205 213.316 281.113 213.04 281.062 212.755C281.038 212.581 281.074 212.403 281.164 212.252C281.255 212.1 281.394 211.984 281.56 211.922C281.725 211.861 281.907 211.857 282.075 211.913C282.242 211.968 282.386 212.079 282.482 212.227C282.807 212.655 283.102 213.106 283.364 213.575C283.519 213.968 283.786 214.308 284.132 214.552C284.132 214.552 285.375 215.759 285.014 214.852C284.652 213.945 283.373 208.475 283.011 207.383C282.65 206.29 283.011 205.744 283.893 205.744C284.775 205.744 286.081 210.474 286.081 210.474C285.843 209.382 285.605 208.281 285.358 207.189L284.828 204.749C284.558 204.122 284.452 203.437 284.52 202.758C284.705 202.107 285.305 201.384 285.904 202.098C286.787 203.19 288.639 209.206 288.639 209.206V204.467C288.639 204.467 289.733 203.19 290.465 204.467C291.197 205.744 291.488 210.131 291.488 210.131L291.911 208.695C292.035 208.29 292.026 207.55 292.326 207.224C292.89 206.607 293.208 207.858 293.384 208.29C293.931 209.752 293.199 219.74 293.199 219.74L293.023 221.564L311.298 235.788L302.716 241.443L300.89 239.453Z" fill="#FFBE9D" stroke="#263238" stroke-linecap="round" stroke-linejoin="round"/>
<path d="M335.088 229.532C335.088 229.532 328.526 218.76 317.271 219.694C306.016 220.627 302.735 231.637 302.497 234.024C302.259 236.411 299.683 237.68 298.748 237.768C296.402 238.006 296.869 241.511 297.804 242.683L298.748 243.854C298.748 243.854 299.877 252.213 301.324 252.988C304.375 254.626 310.47 254.626 310.47 254.626L311.176 258.15L323.577 257.163C323.577 257.163 322.175 255.992 323.577 253.878C324.98 251.764 331.322 250.134 334.365 245.219C337.408 240.304 335.794 232.809 335.088 229.532Z" fill="#FFBE9D" stroke="#263238" stroke-linecap="round" stroke-linejoin="round"/>
<path d="M335.067 229.531C335.067 229.531 328.505 218.759 317.25 219.693C316.479 219.762 315.713 219.88 314.957 220.045C316.906 220.327 319.905 221.269 320.531 224.379C321.466 229.065 315.839 232.306 316.077 235.151C316.315 237.996 318.652 241.704 319.358 241.704C320.064 241.704 324.985 244.047 324.05 247.086C323.115 250.125 320.522 250.609 322.639 252.943C322.944 253.266 323.31 253.527 323.715 253.71C325.347 251.684 331.398 250.001 334.361 245.219C337.325 240.436 335.773 232.808 335.067 229.531Z" fill="#263238" stroke="#263238" stroke-linecap="round" stroke-linejoin="round"/>
<path d="M330.171 226.727C330.171 226.727 332.041 216.889 334.387 213.85C336.734 210.811 338.374 215.717 338.374 215.717C338.374 215.717 345.88 209.164 350.802 211.04C355.724 212.916 350.096 216.422 350.096 216.422C350.096 216.422 358.308 215.25 360.416 221.337C362.524 227.423 357.364 228.832 357.364 228.832C357.364 228.832 363.698 235.156 360.893 237.024C358.088 238.891 352.222 238.433 352.222 238.433C352.222 238.433 357.144 240.071 354.56 242.414C351.975 244.757 345.651 240.071 345.651 240.071C345.651 240.071 346.357 245.224 342.837 245.224C339.318 245.224 336.981 239.138 336.981 239.138C336.981 239.138 334.634 242.881 332.756 240.309C330.877 237.737 329.704 227.863 330.171 226.727Z" fill="#263238" stroke="#263238" stroke-linecap="round" stroke-linejoin="round"/>
<path d="M329.003 231.161C328.963 229.284 329.42 227.43 330.327 225.786C331.235 224.142 332.561 222.767 334.171 221.798C339.799 218.275 340.266 221.561 340.266 221.561C340.266 221.561 345.426 216.875 349.881 220.389C354.335 223.903 349.881 228.316 349.881 228.316C349.881 228.316 363.279 227.418 361.823 231.373C360.368 235.328 354.555 236.059 354.555 236.059C354.555 236.059 361.823 243.105 358.542 245.193C355.261 247.28 348.928 245.193 348.928 245.193C348.928 245.193 351.512 248.469 346.59 249.87C341.669 251.27 339.084 246.126 339.084 246.126C339.084 246.126 340.725 248.231 334.63 247.764C328.535 247.298 328.297 239.837 328.297 239.837C328.297 239.837 322.44 239.124 329.003 231.161Z" fill="#263238" stroke="#263238" stroke-linecap="round" stroke-linejoin="round"/>
<path d="M317.984 242.884C317.984 242.884 322.2 238.198 324.079 242.179C325.958 246.16 321.733 252.247 317.984 249.437" fill="#FFBE9D"/>
<path d="M317.984 242.884C317.984 242.884 322.2 238.198 324.079 242.179C325.958 246.16 321.733 252.247 317.984 249.437" stroke="#263238" stroke-linecap="round" stroke-linejoin="round"/>
<path d="M307.381 235.793C307.195 236.806 306.569 237.555 306.005 237.44C305.44 237.326 305.123 236.419 305.308 235.406C305.493 234.393 306.119 233.644 306.693 233.759C307.266 233.873 307.575 234.807 307.381 235.793Z" fill="#263238"/>
<path d="M306.006 230.496C306.006 230.496 309.049 228.62 309.755 233.544" stroke="#263238" stroke-linecap="round" stroke-linejoin="round"/>
<path d="M300.848 244.514C300.848 244.514 302.727 245.685 306.008 243.58" stroke="#263238" stroke-linecap="round" stroke-linejoin="round"/>
<path d="M323.365 334.187C323.365 334.187 332.882 346.756 334.831 346.756C336.781 346.756 364.203 335.579 364.203 335.579C366.171 336.588 367.891 338.02 369.24 339.771C370.924 342.282 369.522 346.201 372.882 346.201C376.243 346.201 375.123 337.816 374.003 334.751C372.882 331.686 370.642 323.573 368.71 322.737C366.779 321.9 360.04 327.766 360.04 327.766L347.392 331.95C345.716 332.505 335.643 334.187 335.643 334.187H323.365Z" fill="#FFBE9D" stroke="#263238" stroke-linecap="round" stroke-linejoin="round"/>
<path d="M368.681 322.729C367.332 322.156 363.742 324.746 361.625 326.428C363.698 328.119 367.005 330.55 367.005 330.55C366.223 331.273 365.379 331.928 364.483 332.506C362.807 333.624 364.201 335.58 364.201 335.58C366.169 336.589 367.889 338.021 369.237 339.772C370.922 342.283 369.519 346.202 372.88 346.202C376.24 346.202 375.12 337.817 374 334.752C372.88 331.687 370.639 323.566 368.681 322.729Z" fill="white" stroke="#263238" stroke-linecap="round" stroke-linejoin="round"/>
<path d="M373.853 345.891C376.032 344.42 375.035 337.462 374.038 334.722C372.918 331.648 370.678 323.545 368.746 322.708C368.208 322.479 367.317 322.752 366.312 323.272C368.449 326.23 370.265 329.407 371.727 332.749C373.632 337.497 374.77 342.059 374.012 345.283C373.906 345.521 373.853 345.724 373.853 345.891Z" fill="#4CAF4F" stroke="#263238" stroke-linecap="round" stroke-linejoin="round"/>
<path d="M302.105 331.951C302.105 331.951 301.267 341.728 302.987 344.521C304.707 347.313 311.102 374.697 311.102 375.534C310.981 376.755 310.795 377.969 310.546 379.171C310.546 379.171 308.306 385.337 304.107 387.548C299.909 389.759 297.395 392.577 299.635 393.713C301.876 394.85 312.222 391.758 315.027 390.639C317.832 389.521 323.98 387.565 324.253 385.055C324.526 382.545 320.054 375.261 320.054 373.86C320.054 372.46 321.739 360.445 321.457 354.024C321.175 347.603 317.258 340.328 317.258 340.328L317.541 333.343L302.105 331.951Z" fill="#FFBE9D" stroke="#263238" stroke-linecap="round" stroke-linejoin="round"/>
<path d="M324.183 385.04C324.368 383.393 322.516 379.711 321.21 376.972L313.272 380.293C313.247 379.686 313.083 379.094 312.792 378.561C312.502 378.028 312.092 377.569 311.596 377.219C311.386 377.062 311.134 376.973 310.873 376.963C310.705 378.011 310.476 379.174 310.476 379.174C310.476 379.174 308.235 385.34 304.037 387.55C299.838 389.761 297.325 392.58 299.565 393.716C301.805 394.852 312.152 391.761 314.957 390.642C317.761 389.523 323.909 387.55 324.183 385.04Z" fill="white" stroke="#263238" stroke-linecap="round" stroke-linejoin="round"/>
<path d="M324.214 385.031C324.235 384.353 324.124 383.677 323.888 383.04C319.366 385.942 314.531 388.326 309.476 390.148C303.919 392.121 300.655 392.606 298.776 392.615C298.801 392.853 298.891 393.08 299.037 393.27C299.184 393.46 299.381 393.605 299.605 393.689C301.846 394.808 312.192 391.734 314.997 390.615C317.802 389.497 323.941 387.541 324.214 385.031Z" fill="#4CAF4F" stroke="#263238" stroke-linecap="round" stroke-linejoin="round"/>
<path d="M303.205 296.927L293.705 335.031C293.705 335.031 300.417 339.223 319.725 337.823C339.033 336.422 349.379 329.438 349.379 329.438C349.379 329.438 347.704 324.69 346.866 323.853C345.871 322.693 344.938 321.482 344.07 320.224L335.92 293.924L303.205 296.927Z" fill="white" stroke="#263238" stroke-linecap="round" stroke-linejoin="round"/>
<path d="M308.521 300.944L305.442 314.077" stroke="#263238" stroke-linecap="round" stroke-linejoin="round"/>
<path d="M318.88 301.204V309.871" stroke="#263238" stroke-linecap="round" stroke-linejoin="round"/>
<path d="M331.178 300.376L335.659 315.464" stroke="#263238" stroke-linecap="round" stroke-linejoin="round"/>
<path d="M326.892 259.102C326.892 259.102 322.553 256.23 317.984 256.23C313.415 256.23 307.064 256.028 307.064 256.028C307.064 256.028 290.799 248.691 286.777 245.899C282.755 243.106 271.518 229.912 271.518 229.912C272.013 228.3 272.372 226.651 272.594 224.979C272.594 223.711 272.453 222.584 272.453 221.033C272.453 219.483 272.876 217.783 271.324 217.924C269.771 218.065 270.336 220.893 270.442 221.315C270.548 221.738 269.56 224.275 269.56 224.275C269.56 224.275 268.678 219.624 268.289 217.642C267.901 215.661 267.584 212.992 267.019 212.992C266.455 212.992 265.608 213.696 265.749 214.401C265.89 215.106 266.014 221.773 266.014 221.773L265.044 220.611L263.085 214.648C262.38 212.534 261.11 213.661 261.11 214.929C261.11 216.198 263.085 222.857 263.085 222.857L262.38 223.561C262.38 223.561 259.84 218.911 259.416 218.206C258.993 217.501 258.287 217.774 258.852 219.897C259.499 221.955 260.253 223.977 261.11 225.957L257.723 223.456C257.158 223.033 256.594 224.442 257.723 225.288C259.235 226.653 260.606 228.167 261.815 229.806C263.285 231.362 264.843 232.832 266.481 234.21C266.481 234.21 276.933 250.012 279.756 252.971C282.579 255.931 287.245 260.449 287.245 260.449C287.245 260.449 293.886 264.968 296.991 266.941L306.314 272.781L306.879 275.185L303.209 296.906C303.209 296.906 303.068 299.725 315.496 300.006C327.924 300.288 334.848 297.364 335.695 295.215C336.542 293.066 331.461 272.217 330.332 266.298C329.203 260.379 326.892 259.102 326.892 259.102Z" fill="#FFBE9D" stroke="#263238" stroke-linecap="round" stroke-linejoin="round"/>
<path d="M326.887 259.097C326.887 259.097 322.548 256.225 317.979 256.225C316.285 256.225 314.362 256.225 312.598 256.164C315.571 257.432 320.166 260.568 319.443 267.755C318.508 277.065 313.428 282.896 306.565 277.012L303.205 296.919C303.205 296.919 303.064 299.737 315.491 300.019C327.919 300.301 334.843 297.377 335.69 295.227C336.537 293.078 331.456 272.23 330.327 266.311C329.198 260.392 326.887 259.097 326.887 259.097Z" fill="#4CAF4F" stroke="#263238" stroke-linecap="round" stroke-linejoin="round"/>
<path d="M26.259 352.855L20.4464 357.585C20.4464 357.585 14.6426 359.725 12.2699 361.451C9.89718 363.178 11.8377 366.604 12.9138 367.89C13.9898 369.176 17.0064 370.682 18.9381 373.483C20.8697 376.284 23.6746 380.353 27.1146 381.41C30.5545 382.467 31.8511 381.842 31.8511 379.481C31.8511 377.121 28.1907 372.171 27.7585 370.022C27.3263 367.872 26.8764 363.363 26.8764 363.363L30.9867 358.21L26.259 352.855Z" fill="#FFBE9D" stroke="#263238" stroke-linecap="round" stroke-linejoin="round"/>
<path d="M26.9024 363.386L24.5385 363.606L23.0303 364.249L19.4227 357.978C16.9295 358.899 14.5334 360.065 12.2694 361.457C9.9055 363.174 11.8372 366.609 12.9133 367.895C13.9893 369.181 17.0059 370.687 18.9376 373.488C20.8693 376.289 23.6741 380.359 27.1141 381.416C30.5541 382.473 31.8507 381.847 31.8507 379.478C31.8507 377.109 28.1902 372.176 27.758 370.027C27.3258 367.878 26.9024 363.386 26.9024 363.386Z" fill="white" stroke="#263238" stroke-linecap="round" stroke-linejoin="round"/>
<path d="M44.7647 311.613L43.8826 335.677L24.5571 353.725L31.8692 363.819L59.2125 343.622L65.2369 329.873L48.4781 312.256C48.4781 312.256 44.7647 310.319 44.7647 311.613Z" fill="#263238" stroke="#263238" stroke-linecap="round" stroke-linejoin="round"/>
<path d="M63.0781 367.258L60.4937 379.933C60.4937 379.933 57.0538 388.53 58.1299 390.247C59.206 391.965 70.1786 393.26 73.398 393.682C76.6175 394.105 82.439 394.114 84.3706 392.802C86.3023 391.489 85.4467 390.009 84.1589 389.366C82.8712 388.724 74.9063 383.13 73.8302 382.487C72.7541 381.844 71.0341 379.264 71.0341 379.264L73.8302 370.667L63.0781 367.258Z" fill="#FFBE9D" stroke="#263238" stroke-linecap="round" stroke-linejoin="round"/>
<path d="M84.3708 392.817C86.3113 391.522 85.4469 390.024 84.1591 389.381C82.8713 388.738 74.9065 383.145 73.8304 382.502C72.7543 381.859 71.0344 379.279 71.0344 379.279C71.0344 379.279 68.45 380.353 68.45 381.216V382.714L60.2823 380.459C59.559 382.361 57.2128 388.774 58.1301 390.236C59.2062 391.953 70.1788 393.248 73.3982 393.671C76.6177 394.094 82.4391 394.102 84.3708 392.817Z" fill="white" stroke="#263238" stroke-linecap="round" stroke-linejoin="round"/>
<path d="M44.7612 312.906L67.1386 337.832L59.8353 368.123L75.5356 372.422C75.5356 372.422 85.2381 337.832 85.8643 335.683C86.4906 333.534 75.1123 313.126 75.1123 313.126C72.1517 310.699 68.5775 309.135 64.7836 308.607C58.0712 307.533 44.7612 312.906 44.7612 312.906Z" fill="#263238" stroke="#263238" stroke-linecap="round" stroke-linejoin="round"/>
<path d="M93.9927 221.941L100.581 217.387C100.581 217.387 101.464 210.103 101.596 209.46C101.728 208.817 105.045 204.598 105.75 204.298C106.876 203.892 107.962 203.385 108.996 202.783C109.402 202.378 110.513 202.475 110.416 203.189C110.212 203.985 109.94 204.763 109.605 205.514C109.605 205.514 112.03 202.475 112.136 204.633C112.242 206.791 109.808 208.887 109.49 210.2C109.173 211.512 108.379 215.564 108.379 215.564C108.379 215.564 112.022 211.82 112.533 211.01C113.045 210.2 114.156 211.116 113.75 212.331C113.345 213.547 111.819 215.67 111.219 217.616C110.619 219.563 107.259 221.465 106.147 221.765C105.036 222.064 103.713 222.478 103.713 222.478L95.6068 231.586L91.2495 223.28L93.9927 221.941Z" fill="#FFBE9D" stroke="#263238" stroke-linecap="round" stroke-linejoin="round"/>
<path d="M109.623 205.561C109.623 205.561 107.797 208.088 107.797 208.591C107.48 209.756 107.082 210.898 106.606 212.008" stroke="#263238" stroke-linecap="round" stroke-linejoin="round"/>
<path d="M108.198 203.428C108.198 203.428 105.87 207.066 105.261 208.079C104.806 209.203 104.532 210.392 104.45 211.602" stroke="#263238" stroke-linecap="round" stroke-linejoin="round"/>
<path d="M104.334 205.844C103.804 206.863 103.33 207.91 102.914 208.98C102.914 209.288 102.711 211.006 102.711 211.006" stroke="#263238" stroke-linecap="round" stroke-linejoin="round"/>
<path d="M94.6909 222.429C95.5963 223.822 96.0999 225.437 96.1463 227.097C96.2962 230.013 97.9104 233.069 98.3426 233.219C98.7748 233.368 101.553 233.219 101.112 235.403C100.792 236.819 100.192 238.158 99.3481 239.34C99.3481 239.34 98.7659 248.236 98.0338 249.69C97.3017 251.143 87.5287 250.28 87.5287 250.28C87.5287 250.28 83.586 257.855 83.586 258.295C83.586 258.735 70.8846 252.314 70.8846 252.314L71.3168 247.505C69.1549 245.997 67.1929 244.221 65.4777 242.22C63.8161 240.397 62.5277 238.266 61.6849 235.949C61.6118 232.348 62.3063 228.772 63.7224 225.459C66.0598 220.174 74.6774 216.704 83.2949 216.122C91.9125 215.541 94.6909 222.429 94.6909 222.429Z" fill="#FFBE9D" stroke="#263238" stroke-linecap="round" stroke-linejoin="round"/>
<path d="M83.7359 232.356C83.8858 231.043 82.8539 227.538 82.8539 227.538L79.9343 220.395C79.9343 220.395 70.62 224.385 62.8669 227.785C62.0277 230.438 61.6285 233.211 61.6849 235.994C62.5277 238.311 63.8162 240.441 65.4777 242.265C67.1929 244.266 69.1549 246.041 71.3168 247.55C72.5983 247.125 73.9191 246.83 75.2595 246.669C75.2595 246.669 69.4204 242.15 71.8989 239.667C74.3775 237.183 77.7469 239.667 78.0732 240.107C78.3996 240.547 80.5517 240.688 80.5517 239.816C80.36 238.578 80.0649 237.359 79.6697 236.17C79.6697 236.17 83.5948 233.668 83.7359 232.356Z" fill="#263238" stroke="#263238" stroke-linecap="round" stroke-linejoin="round"/>
<path d="M83.4279 228.999L91.6044 225.476L90.8723 219.786L93.7919 224.19L98.0256 221.548C98.0256 221.548 96.5703 215.382 87.3706 212.652C78.1709 209.921 70.7265 210.608 63.1322 218.342C55.5378 226.075 61.8179 241.375 61.8179 241.375L71.8908 235.975V230.585L74.2282 233.941L83.4279 228.999Z" fill="#263238" stroke="#263238" stroke-linecap="round" stroke-linejoin="round"/>
<path d="M94.3689 231.292C94.6247 232.226 94.5453 233.054 94.1925 233.151C93.8397 233.248 93.3105 232.569 93.0988 231.636C92.8871 230.702 92.9224 229.874 93.2752 229.777C93.628 229.68 94.1131 230.359 94.3689 231.292Z" fill="#263238"/>
<path d="M95.132 230.791C95.132 230.791 93.809 229.179 92.1948 229.91" stroke="#263238" stroke-linecap="round" stroke-linejoin="round"/>
<path d="M90.8667 228.845C91.1407 228.213 91.5888 227.672 92.1589 227.286C92.7289 226.899 93.3973 226.682 94.0861 226.66" stroke="#263238" stroke-linecap="round" stroke-linejoin="round"/>
<path d="M97.8862 241.669C97.0699 241.985 96.1725 242.029 95.3293 241.792C94.4861 241.555 93.7428 241.051 93.2114 240.356" stroke="#263238" stroke-linecap="round" stroke-linejoin="round"/>
<path d="M86.8794 260.555L68.8152 249.21C68.8152 249.21 41.9747 298.694 40.1665 304.621C38.3583 310.549 40.6781 313.429 47.3904 314.671C54.1027 315.913 61.8471 313.641 65.1988 312.355C68.5506 311.069 75.7833 315.191 75.7833 315.191C75.7833 315.191 77.0711 316.732 77.5915 315.446C78.1119 314.16 78.3589 309.774 78.3589 307.713C78.3589 305.652 87.9114 268.799 87.9114 264.932C87.9114 261.066 86.8794 260.555 86.8794 260.555Z" fill="#4CAF4F" stroke="#263238" stroke-linecap="round" stroke-linejoin="round"/>
<path d="M82.4496 271.895C82.4496 271.895 67.1815 276.589 63.9268 276.88" stroke="#263238" stroke-linecap="round" stroke-linejoin="round"/>
<path d="M64.2669 285.48C63.1291 286.14 62.1236 286.722 61.2944 287.18" stroke="#263238" stroke-linecap="round" stroke-linejoin="round"/>
<path d="M82.4334 274.273C82.4334 274.273 74.0981 279.558 67.3682 283.627" stroke="#263238" stroke-linecap="round" stroke-linejoin="round"/>
<path d="M70.6567 308.982C71.6801 309.485 72.6753 310.044 73.638 310.655" stroke="#263238" stroke-linecap="round" stroke-linejoin="round"/>
<path d="M57.7808 306.539C57.7808 306.539 61.9352 305.659 67.8448 307.79" stroke="#263238" stroke-linecap="round" stroke-linejoin="round"/>
<path d="M67.021 252.292L70.3727 246.884C70.3727 246.884 73.4775 247.139 78.117 250.231C82.7566 253.323 86.9374 260.545 86.9374 260.545L67.021 252.292Z" fill="#4CAF4F" stroke="#263238" stroke-linecap="round" stroke-linejoin="round"/>
<path d="M101.608 267.263L128.193 253.082V244.838L131.544 238.39C131.544 238.39 132.303 236.831 133.591 237.606L132.947 238.628L134.252 237.034C134.252 237.034 135.319 236.056 136.016 235.343C136.713 234.629 137.331 235.343 137.533 235.748C137.736 236.153 137.683 235.924 137.683 235.924C137.893 235.793 138.127 235.707 138.372 235.672C138.616 235.637 138.866 235.654 139.103 235.721C140.232 236.223 137.992 240.073 137.992 240.073C137.992 240.073 140.823 237.95 140.823 239.262C140.823 240.575 137.48 244.186 137.48 244.186C137.48 244.186 141.009 242.098 141.009 243.305C141.009 244.512 136.246 248.775 136.246 248.775C135.742 250.991 134.972 253.138 133.952 255.17C133.212 256.539 132.087 257.662 130.715 258.402C130.715 258.402 109.026 276.626 105.277 278.44C103.11 279.529 100.606 279.747 98.2827 279.048L100.611 267.598L101.608 267.263Z" fill="#FFBE9D" stroke="#263238" stroke-linecap="round" stroke-linejoin="round"/>
<path d="M137.662 235.925C137.662 235.925 134.627 240.073 134.222 240.575C133.566 241.757 132.977 242.974 132.458 244.222" stroke="#263238" stroke-linecap="round" stroke-linejoin="round"/>
<path d="M134.24 237.03C133.138 238.595 132.122 240.218 131.197 241.892C130.994 242.597 130.792 243.504 130.792 243.504" stroke="#263238" stroke-linecap="round" stroke-linejoin="round"/>
<path d="M137.972 240.057C137.972 240.057 135.943 242.7 135.643 243.29C135.344 243.88 134.426 245.219 134.426 245.219" stroke="#263238" stroke-linecap="round" stroke-linejoin="round"/>
<path d="M137.484 244.178L136.108 245.764" stroke="#263238" stroke-linecap="round" stroke-linejoin="round"/>
<path d="M76.7994 257.719L102.864 265.188L96.6894 287.358C96.6894 287.358 76.2966 270.623 75.2646 269.055" fill="#4CAF4F"/>
<path d="M76.7994 257.719L102.864 265.188L96.6894 287.358C96.6894 287.358 76.2966 270.623 75.2646 269.055" stroke="#263238" stroke-linecap="round" stroke-linejoin="round"/>
<path d="M87.5193 250.278L83.3296 249.344L85.0937 254.33L87.5193 250.278Z" fill="#263238" stroke="#263238" stroke-linecap="round" stroke-linejoin="round"/>
<path d="M94.7082 50.9555C94.708 49.4237 94.3487 47.9132 93.659 46.545C92.9694 45.1768 91.9685 43.9888 90.7365 43.0762C89.5046 42.1636 88.0757 41.5517 86.5644 41.2894C85.0532 41.0272 83.5014 41.1219 82.0333 41.5661C81.0445 38.7676 79.2122 36.3436 76.788 34.6271C74.3638 32.9107 71.4668 31.986 68.4951 31.9803C65.5234 31.9745 62.6228 32.8878 60.1919 34.5948C57.761 36.3018 55.9192 38.7186 54.9195 41.5132C54.0589 41.2676 53.1683 41.1431 52.2733 41.1433C49.8706 41.1792 47.5643 42.093 45.7906 43.7121C44.0169 45.3312 42.8989 47.5432 42.648 49.9297C42.397 52.3163 43.0306 54.7119 44.4288 56.6636C45.827 58.6152 47.8929 59.9875 50.2358 60.521L87.1756 60.5122C89.3245 59.9971 91.2367 58.7738 92.6035 57.0398C93.9702 55.3057 94.7118 53.1622 94.7082 50.9555Z" fill="white" stroke="#263238" stroke-miterlimit="10"/>
<path d="M103.512 55.8211C103.513 55.0671 103.337 54.3234 102.998 53.6497C102.659 52.976 102.166 52.3912 101.56 51.9422C100.953 51.4933 100.25 51.1927 99.5056 51.0648C98.7615 50.9369 97.9978 50.9852 97.2758 51.2057C96.7978 49.818 95.8979 48.614 94.7017 47.7617C93.5055 46.9093 92.0726 46.4512 90.6031 46.4512C89.1336 46.4512 87.7008 46.9093 86.5045 47.7617C85.3083 48.614 84.4084 49.818 83.9305 51.2057C83.3057 51.0295 82.6517 50.9808 82.0077 51.0625C81.3636 51.1442 80.7427 51.3546 80.1818 51.6812C79.621 52.0078 79.1318 52.4439 78.7434 52.9634C78.3551 53.4829 78.0755 54.0752 77.9214 54.705C77.7672 55.3348 77.7418 55.9892 77.8464 56.629C77.9511 57.2688 78.1838 57.8811 78.5306 58.4291C78.8774 58.9772 79.3312 59.4499 79.8649 59.819C80.3987 60.1881 81.0014 60.446 81.6372 60.5774H99.8072C100.873 60.3218 101.821 59.7117 102.494 58.8474C103.167 57.9831 103.526 56.916 103.512 55.8211Z" fill="white" stroke="#263238" stroke-miterlimit="10"/>
<path d="M363.364 106.954C363.364 105.422 363.005 103.912 362.315 102.543C361.625 101.175 360.625 99.9872 359.393 99.0745C358.161 98.1619 356.732 97.55 355.221 97.2878C353.709 97.0255 352.158 97.1203 350.69 97.5644C349.696 94.7726 347.862 92.3556 345.44 90.6442C343.018 88.9329 340.126 88.0107 337.159 88.0039C334.192 87.9972 331.295 88.9062 328.865 90.6065C326.435 92.3069 324.591 94.7155 323.584 97.5028C322.724 97.257 321.833 97.1324 320.938 97.1328C318.536 97.1687 316.229 98.0826 314.456 99.7016C312.682 101.321 311.564 103.533 311.313 105.919C311.062 108.306 311.696 110.701 313.094 112.653C314.492 114.605 316.558 115.977 318.901 116.511L355.841 116.44C357.976 115.926 359.877 114.713 361.241 112.993C362.605 111.274 363.353 109.147 363.364 106.954Z" fill="white" stroke="#263238" stroke-miterlimit="10"/>
<path d="M372.13 111.836C372.13 110.556 371.621 109.328 370.715 108.423C369.808 107.518 368.579 107.009 367.297 107.009C366.823 107.003 366.35 107.065 365.894 107.194C365.416 105.806 364.517 104.602 363.32 103.75C362.124 102.898 360.691 102.439 359.222 102.439C357.752 102.439 356.319 102.898 355.123 103.75C353.927 104.602 353.027 105.806 352.549 107.194C352.13 107.077 351.697 107.018 351.261 107.018C350.067 107.018 348.915 107.46 348.027 108.258C347.14 109.056 346.58 110.154 346.455 111.34C346.33 112.526 346.649 113.716 347.351 114.681C348.053 115.646 349.088 116.318 350.256 116.566H368.435C369.495 116.309 370.437 115.702 371.108 114.844C371.779 113.985 372.139 112.925 372.13 111.836Z" fill="white" stroke="#263238" stroke-miterlimit="10"/>
<path d="M81.1921 193.452C81.1948 191.92 80.8377 190.408 80.1497 189.039C79.4616 187.67 78.4617 186.48 77.2301 185.566C75.9986 184.653 74.5697 184.04 73.0581 183.777C71.5465 183.514 69.9943 183.609 68.526 184.054C67.535 181.256 65.7013 178.834 63.2766 177.118C60.8519 175.403 57.9549 174.479 54.9834 174.473C52.0118 174.467 49.1113 175.38 46.6799 177.086C44.2484 178.792 42.4053 181.207 41.4033 184.001C40.5419 183.76 39.6519 183.635 38.7572 183.631C36.3544 183.667 34.0481 184.581 32.2745 186.2C30.5008 187.819 29.3828 190.031 29.1319 192.417C28.8809 194.804 29.5145 197.2 30.9127 199.151C32.3109 201.103 34.3768 202.475 36.7197 203.009L73.6595 202.938C75.7989 202.43 77.7049 201.219 79.0712 199.498C80.4374 197.777 81.1845 195.648 81.1921 193.452Z" fill="white" stroke="#263238" stroke-miterlimit="10"/>
<path d="M89.9884 198.316C89.9884 197.036 89.4791 195.808 88.5727 194.903C87.6662 193.998 86.4367 193.489 85.1548 193.489C84.68 193.489 84.2077 193.558 83.7524 193.692C83.2725 192.307 82.3723 191.107 81.1772 190.257C79.9821 189.407 78.5513 188.95 77.0841 188.95C75.6169 188.95 74.1862 189.407 72.9911 190.257C71.7959 191.107 70.8958 192.307 70.4159 193.692C69.7927 193.52 69.1414 193.475 68.5004 193.559C67.8594 193.643 67.2418 193.854 66.6842 194.181C66.1265 194.508 65.6401 194.943 65.2538 195.46C64.8675 195.978 64.5891 196.568 64.4351 197.195C64.2811 197.822 64.2546 198.473 64.3571 199.111C64.4597 199.748 64.6893 200.358 65.0323 200.906C65.3753 201.453 65.8248 201.926 66.3541 202.296C66.8834 202.667 67.4817 202.928 68.1138 203.064H86.2926C87.3557 202.807 88.3 202.197 88.9713 201.335C89.6426 200.473 90.0011 199.408 89.9884 198.316Z" fill="white" stroke="#263238" stroke-miterlimit="10"/>
</svg>
