<svg width="135" height="36" viewBox="0 0 135 36" fill="none" xmlns="http://www.w3.org/2000/svg">
<path d="M124.026 24.2152C124.026 29.0353 121.209 33.1975 117.132 35.1458C118.543 35.6973 120.078 36 121.685 36C128.595 36 134.196 30.3985 134.196 23.4888C134.196 16.579 128.595 10.9776 121.685 10.9776C120.257 10.9776 118.884 11.2169 117.606 11.6575C115.185 4.88462 108.313 0 100.214 0C97.3845 0 94.7049 0.596116 92.3125 1.6606C99.3012 2.15951 105.186 6.64826 107.703 12.8616C109.015 12.374 110.436 12.1076 111.918 12.1076C118.605 12.1076 124.026 17.5284 124.026 24.2152Z" fill="#4CAF4F"/>
<path d="M6.49432 32.2557C5.14773 32.2557 3.98864 31.9829 3.01705 31.4375C2.05114 30.8863 1.30682 30.1079 0.784091 29.1023C0.261364 28.0909 0 26.8949 0 25.5142C0 24.1676 0.261364 22.9858 0.784091 21.9687C1.30682 20.9517 2.04261 20.1591 2.99148 19.5909C3.94602 19.0227 5.06534 18.7386 6.34943 18.7386C7.21307 18.7386 8.01705 18.8778 8.76136 19.1562C9.51136 19.429 10.1648 19.8409 10.7216 20.392C11.2841 20.9432 11.7216 21.6363 12.0341 22.4716C12.3466 23.3011 12.5028 24.2727 12.5028 25.3863V26.3835H1.44886V24.1335H9.08523C9.08523 23.6108 8.97159 23.1477 8.74432 22.7443C8.51705 22.3409 8.2017 22.0255 7.7983 21.7983C7.40057 21.5653 6.9375 21.4488 6.40909 21.4488C5.85795 21.4488 5.36932 21.5767 4.94318 21.8324C4.52273 22.0824 4.19318 22.4204 3.95455 22.8466C3.71591 23.267 3.59375 23.7358 3.58807 24.2528V26.392C3.58807 27.0398 3.70739 27.5994 3.94602 28.071C4.19034 28.5426 4.53409 28.9062 4.97727 29.1619C5.42045 29.4176 5.94602 29.5454 6.55398 29.5454C6.95739 29.5454 7.3267 29.4886 7.66193 29.375C7.99716 29.2613 8.28409 29.0909 8.52273 28.8636C8.76136 28.6363 8.94318 28.3579 9.06818 28.0284L12.4261 28.25C12.2557 29.0568 11.9062 29.7613 11.3778 30.3636C10.8551 30.9602 10.179 31.4261 9.34943 31.7613C8.52557 32.0909 7.57386 32.2557 6.49432 32.2557Z" fill="#4CAF4F"/>
<path d="M20.7869 32.2557C19.446 32.2557 18.2926 31.9716 17.3267 31.4034C16.3665 30.8295 15.6278 30.0341 15.1108 29.017C14.5994 28 14.3438 26.8295 14.3438 25.5057C14.3438 24.1648 14.6023 22.9886 15.1193 21.9773C15.642 20.9602 16.3835 20.1676 17.3438 19.5994C18.304 19.0255 19.446 18.7386 20.7699 18.7386C21.9119 18.7386 22.9119 18.946 23.7699 19.3608C24.6278 19.7755 25.3068 20.3579 25.8068 21.1079C26.3068 21.8579 26.5824 22.7386 26.6335 23.75H23.2074C23.1108 23.0966 22.8551 22.571 22.4403 22.1733C22.0313 21.7699 21.4943 21.5682 20.8295 21.5682C20.267 21.5682 19.7756 21.7216 19.3551 22.0284C18.9403 22.3295 18.6165 22.7699 18.3835 23.3494C18.1506 23.929 18.0341 24.6307 18.0341 25.4545C18.0341 26.2898 18.1477 27 18.375 27.5852C18.608 28.1704 18.9347 28.6165 19.3551 28.9233C19.7756 29.2301 20.267 29.3835 20.8295 29.3835C21.2443 29.3835 21.6165 29.2983 21.946 29.1278C22.2813 28.9574 22.5568 28.7102 22.7727 28.3863C22.9943 28.0568 23.1392 27.6619 23.2074 27.2017H26.6335C26.5767 28.2017 26.304 29.0824 25.8153 29.8437C25.3324 30.5994 24.6648 31.1903 23.8125 31.6165C22.9602 32.0426 21.9517 32.2557 20.7869 32.2557Z" fill="#4CAF4F"/>
<path d="M34.8729 32.2557C33.549 32.2557 32.4041 31.9744 31.4382 31.4119C30.478 30.8437 29.7365 30.054 29.2138 29.0426C28.6911 28.0255 28.4297 26.8466 28.4297 25.5057C28.4297 24.1534 28.6911 22.9716 29.2138 21.9602C29.7365 20.9432 30.478 20.1534 31.4382 19.5909C32.4041 19.0227 33.549 18.7386 34.8729 18.7386C36.1967 18.7386 37.3388 19.0227 38.299 19.5909C39.2649 20.1534 40.0092 20.9432 40.532 21.9602C41.0547 22.9716 41.3161 24.1534 41.3161 25.5057C41.3161 26.8466 41.0547 28.0255 40.532 29.0426C40.0092 30.054 39.2649 30.8437 38.299 31.4119C37.3388 31.9744 36.1967 32.2557 34.8729 32.2557ZM34.8899 29.4432C35.4922 29.4432 35.995 29.2727 36.3984 28.9318C36.8018 28.5852 37.1058 28.1136 37.3104 27.517C37.5206 26.9204 37.6257 26.2415 37.6257 25.4801C37.6257 24.7187 37.5206 24.0398 37.3104 23.4432C37.1058 22.8466 36.8018 22.375 36.3984 22.0284C35.995 21.6818 35.4922 21.5085 34.8899 21.5085C34.282 21.5085 33.7706 21.6818 33.3558 22.0284C32.9467 22.375 32.6371 22.8466 32.4268 23.4432C32.2223 24.0398 32.12 24.7187 32.12 25.4801C32.12 26.2415 32.2223 26.9204 32.4268 27.517C32.6371 28.1136 32.9467 28.5852 33.3558 28.9318C33.7706 29.2727 34.282 29.4432 34.8899 29.4432Z" fill="#4CAF4F"/>
<path d="M51.8331 23.392V26.2727H43.8729V23.392H51.8331Z" fill="#4CAF4F"/>
<path d="M54.9268 32V18.9091H58.4467V21.1932H58.5831C58.8217 20.3807 59.2223 19.767 59.7848 19.3523C60.3473 18.9318 60.995 18.7216 61.728 18.7216C61.9098 18.7216 62.1058 18.7329 62.3161 18.7557C62.5263 18.7784 62.7109 18.8096 62.87 18.8494V22.071C62.6996 22.0199 62.4638 21.9744 62.1626 21.9346C61.8615 21.8949 61.5859 21.875 61.3359 21.875C60.8018 21.875 60.3246 21.9915 59.9041 22.2244C59.4893 22.4517 59.1598 22.7699 58.9155 23.179C58.6768 23.588 58.5575 24.0596 58.5575 24.5937V32H54.9268Z" fill="#4CAF4F"/>
<path d="M70.0526 32.2557C68.7287 32.2557 67.5838 31.9744 66.6179 31.4119C65.6577 30.8437 64.9162 30.054 64.3935 29.0426C63.8707 28.0255 63.6094 26.8466 63.6094 25.5057C63.6094 24.1534 63.8707 22.9716 64.3935 21.9602C64.9162 20.9432 65.6577 20.1534 66.6179 19.5909C67.5838 19.0227 68.7287 18.7386 70.0526 18.7386C71.3764 18.7386 72.5185 19.0227 73.4787 19.5909C74.4446 20.1534 75.1889 20.9432 75.7116 21.9602C76.2344 22.9716 76.4957 24.1534 76.4957 25.5057C76.4957 26.8466 76.2344 28.0255 75.7116 29.0426C75.1889 30.054 74.4446 30.8437 73.4787 31.4119C72.5185 31.9744 71.3764 32.2557 70.0526 32.2557ZM70.0696 29.4432C70.6719 29.4432 71.1747 29.2727 71.5781 28.9318C71.9815 28.5852 72.2855 28.1136 72.4901 27.517C72.7003 26.9204 72.8054 26.2415 72.8054 25.4801C72.8054 24.7187 72.7003 24.0398 72.4901 23.4432C72.2855 22.8466 71.9815 22.375 71.5781 22.0284C71.1747 21.6818 70.6719 21.5085 70.0696 21.5085C69.4616 21.5085 68.9503 21.6818 68.5355 22.0284C68.1264 22.375 67.8168 22.8466 67.6065 23.4432C67.402 24.0398 67.2997 24.7187 67.2997 25.4801C67.2997 26.2415 67.402 26.9204 67.6065 27.517C67.8168 28.1136 68.1264 28.5852 68.5355 28.9318C68.9503 29.2727 69.4616 29.4432 70.0696 29.4432Z" fill="#4CAF4F"/>
<path d="M87.2514 26.4261V18.9091H90.8821V32H87.3963V29.6221H87.2599C86.9645 30.3892 86.473 31.0057 85.7855 31.4716C85.1037 31.9375 84.2713 32.1704 83.2884 32.1704C82.4134 32.1704 81.6435 31.9716 80.9787 31.5738C80.3139 31.1761 79.794 30.6108 79.419 29.8778C79.0497 29.1449 78.8622 28.267 78.8565 27.2443V18.9091H82.4872V26.5966C82.4929 27.3693 82.7003 27.9801 83.1094 28.429C83.5185 28.8778 84.0668 29.1023 84.7543 29.1023C85.1918 29.1023 85.6009 29.0028 85.9815 28.804C86.3622 28.5994 86.669 28.2983 86.902 27.9005C87.1406 27.5028 87.2571 27.0113 87.2514 26.4261Z" fill="#4CAF4F"/>
<path d="M100.749 18.9091V21.6363H92.8658V18.9091H100.749ZM94.6555 15.7727H98.2862V27.9773C98.2862 28.3125 98.3374 28.5738 98.4396 28.7613C98.5419 28.9432 98.6839 29.071 98.8658 29.1449C99.0533 29.2187 99.2692 29.2557 99.5135 29.2557C99.684 29.2557 99.8544 29.2415 100.025 29.213C100.195 29.179 100.326 29.1534 100.417 29.1363L100.988 31.838C100.806 31.8949 100.55 31.9602 100.221 32.0341C99.8913 32.1136 99.4908 32.1619 99.0192 32.179C98.1442 32.213 97.3771 32.0966 96.718 31.8295C96.0646 31.5625 95.5561 31.1477 95.1925 30.5852C94.8288 30.0227 94.6499 29.3125 94.6555 28.4545V15.7727Z" fill="#4CAF4F"/>
<path d="M108.94 32.2557C107.593 32.2557 106.434 31.9829 105.462 31.4375C104.496 30.8863 103.752 30.1079 103.229 29.1023C102.707 28.0909 102.445 26.8949 102.445 25.5142C102.445 24.1676 102.707 22.9858 103.229 21.9687C103.752 20.9517 104.488 20.1591 105.437 19.5909C106.391 19.0227 107.511 18.7386 108.795 18.7386C109.658 18.7386 110.462 18.8778 111.207 19.1562C111.957 19.429 112.61 19.8409 113.167 20.392C113.729 20.9432 114.167 21.6363 114.479 22.4716C114.792 23.3011 114.948 24.2727 114.948 25.3863V26.3835H103.894V24.1335H111.531C111.531 23.6108 111.417 23.1477 111.19 22.7443C110.962 22.3409 110.647 22.0255 110.244 21.7983C109.846 21.5653 109.383 21.4488 108.854 21.4488C108.303 21.4488 107.815 21.5767 107.388 21.8324C106.968 22.0824 106.638 22.4204 106.4 22.8466C106.161 23.267 106.039 23.7358 106.033 24.2528V26.392C106.033 27.0398 106.153 27.5994 106.391 28.071C106.636 28.5426 106.979 28.9062 107.423 29.1619C107.866 29.4176 108.391 29.5454 108.999 29.5454C109.403 29.5454 109.772 29.4886 110.107 29.375C110.442 29.2613 110.729 29.0909 110.968 28.8636C111.207 28.6363 111.388 28.3579 111.513 28.0284L114.871 28.25C114.701 29.0568 114.352 29.7613 113.823 30.3636C113.3 30.9602 112.624 31.4261 111.795 31.7613C110.971 32.0909 110.019 32.2557 108.94 32.2557Z" fill="#4CAF4F"/>
</svg>
