<svg width="59" height="49" viewBox="0 0 59 49" fill="none" xmlns="http://www.w3.org/2000/svg">
<path fill-rule="evenodd" clip-rule="evenodd" d="M35.0822 0.0736881C40.3077 -0.39864 45.5462 1.43603 49.7685 4.53372C53.9705 7.61649 56.9216 12.1237 58.3249 17.1255C59.6877 21.9831 58.7801 26.9957 57.4343 31.858C56.0258 36.9464 54.6519 42.4451 50.4311 45.6444C46.1717 48.873 40.4082 49.3601 35.0822 48.8005C30.1409 48.2814 26.0786 45.3561 21.9219 42.649C17.5248 39.7854 11.6737 37.6894 10.2816 32.6492C8.89442 27.6265 12.9685 22.9278 15.1697 18.2015C17.0745 14.1112 18.8722 10.0679 22.2155 7.02423C25.9059 3.66457 30.0995 0.524076 35.0822 0.0736881Z" fill="#E8F5E9"/>
<path d="M43.3752 20.8295C43.3952 17.0913 43.0702 13.3592 42.4042 9.68066C42.1081 8.05067 41.8725 6.27424 40.7074 5.0995C40.3763 4.76522 39.9911 4.53919 39.5708 4.57739C38.0204 4.72065 36.3586 5.15043 35.1775 5.47516C33.8022 5.85719 32.2263 6.6308 30.6887 7.3662C30.0236 7.68273 29.268 7.75378 28.5557 7.56677L17.3559 4.66972C15.4075 4.21128 12.415 4.96897 10.5749 5.47516C9.4224 5.79352 8.13305 6.38566 6.84371 7.00327C6.3789 7.22612 5.98414 7.79598 5.68489 8.37539C5.16596 9.37822 4.95266 10.4988 4.75528 11.6099L4.5961 12.4949C3.3 19.763 3.3 27.2031 4.5961 34.4711C4.90173 36.168 5.09911 38.0717 6.38846 39.2146C6.70045 39.4916 7.05701 39.6572 7.43903 39.5839C8.61059 39.3611 9.81079 38.8804 11.0906 38.441C12.9721 37.798 14.8536 37.0721 16.5982 36.5946C17.0947 36.4627 17.617 36.4627 18.1135 36.5946L21.8129 37.5528" stroke="#103E13" stroke-width="2" stroke-linecap="round" stroke-linejoin="round"/>
<path d="M17.8366 36.5754C17.6107 36.5183 17.3788 36.4883 17.1458 36.4863V5.0708C17.1458 4.93709 17.1521 4.80338 17.168 4.67285L28.8645 7.60174C29.1956 7.68133 29.533 7.7068 29.8673 7.67496V20.0272" stroke="#103E13" stroke-width="2" stroke-linecap="round" stroke-linejoin="round"/>
<path d="M44.3747 33.6943C44.3747 40.0074 37.0684 45.4735 36.2821 45.4735C35.4926 45.4735 28.1863 40.0074 28.1863 33.6943C28.1863 31.5476 29.0391 29.4888 30.557 27.9708C32.075 26.4529 34.1338 25.6001 36.2805 25.6001C38.4272 25.6001 40.486 26.4529 42.004 27.9708C43.522 29.4888 44.3747 31.5476 44.3747 33.6943Z" stroke="#103E13" stroke-width="2" stroke-linecap="round" stroke-linejoin="round"/>
<path d="M36.2788 33.8567V33.3728" stroke="#103E13" stroke-width="2" stroke-linecap="round" stroke-linejoin="round"/>
</svg>
