<svg width="342" height="433" viewBox="0 0 342 433" fill="none" xmlns="http://www.w3.org/2000/svg">
<path d="M259.384 9.58744C259.259 9.58744 259.139 9.53773 259.051 9.44924C258.962 9.36076 258.913 9.24074 258.913 9.11561V1.19827C258.913 1.07313 258.962 0.953122 259.051 0.864636C259.139 0.776151 259.259 0.72644 259.384 0.72644C259.509 0.728856 259.627 0.779342 259.715 0.867309C259.803 0.955277 259.854 1.07389 259.856 1.19827V9.0873C259.859 9.15128 259.849 9.21513 259.826 9.27509C259.804 9.33505 259.769 9.38993 259.725 9.43651C259.682 9.48309 259.629 9.52043 259.57 9.54635C259.512 9.57226 259.448 9.58623 259.384 9.58744Z" fill="#263238"/>
<path d="M259.384 113.154C259.259 113.154 259.139 113.105 259.051 113.016C258.962 112.928 258.913 112.808 258.913 112.683V106.152C258.913 106.027 258.962 105.907 259.051 105.819C259.139 105.73 259.259 105.681 259.384 105.681C259.509 105.683 259.627 105.734 259.715 105.822C259.803 105.909 259.854 106.028 259.856 106.152V112.683C259.856 112.808 259.807 112.928 259.718 113.016C259.63 113.105 259.51 113.154 259.384 113.154Z" fill="#263238"/>
<path d="M315.099 58.1012H307.899C307.773 58.1012 307.653 58.0515 307.565 57.963C307.476 57.8745 307.427 57.7545 307.427 57.6294C307.429 57.505 307.48 57.3864 307.568 57.2984C307.656 57.2104 307.774 57.1599 307.899 57.1575H315.099C315.224 57.1575 315.344 57.2072 315.432 57.2957C315.521 57.3842 315.571 57.5042 315.571 57.6294C315.571 57.7545 315.521 57.8745 315.432 57.963C315.344 58.0515 315.224 58.1012 315.099 58.1012Z" fill="#263238"/>
<path d="M210.861 58.1012H203.661C203.536 58.1012 203.416 58.0515 203.328 57.963C203.239 57.8745 203.189 57.7545 203.189 57.6294C203.189 57.5042 203.239 57.3842 203.328 57.2957C203.416 57.2072 203.536 57.1575 203.661 57.1575H210.861C210.986 57.1599 211.104 57.2104 211.192 57.2984C211.28 57.3864 211.331 57.505 211.333 57.6294C211.333 57.7545 211.284 57.8745 211.195 57.963C211.107 58.0515 210.987 58.1012 210.861 58.1012Z" fill="#263238"/>
<path d="M293.687 23.8462C293.562 23.8445 293.444 23.7936 293.356 23.7047C293.269 23.6149 293.221 23.4947 293.221 23.3697C293.221 23.2446 293.269 23.1245 293.356 23.0347L298.782 17.6086C298.826 17.5646 298.879 17.5297 298.936 17.5059C298.994 17.4821 299.055 17.4698 299.118 17.4698C299.18 17.4698 299.241 17.4821 299.299 17.5059C299.356 17.5297 299.409 17.5646 299.453 17.6086C299.497 17.6526 299.531 17.7048 299.555 17.7623C299.579 17.8198 299.591 17.8814 299.591 17.9436C299.591 18.0058 299.579 18.0674 299.555 18.1249C299.531 18.1824 299.497 18.2346 299.453 18.2786L294.026 23.7047C293.936 23.795 293.814 23.8459 293.687 23.8462Z" fill="#263238"/>
<path d="M220.317 97.1783C220.255 97.178 220.194 97.1653 220.138 97.141C220.081 97.1167 220.03 97.0812 219.987 97.0368C219.943 96.9929 219.907 96.9407 219.883 96.8832C219.859 96.8257 219.847 96.7641 219.847 96.7018C219.847 96.6395 219.859 96.5778 219.883 96.5203C219.907 96.4628 219.943 96.4107 219.987 96.3668L224.705 91.6485C224.749 91.6043 224.801 91.5692 224.859 91.5452C224.916 91.5212 224.978 91.5089 225.04 91.5089C225.102 91.5089 225.164 91.5212 225.222 91.5452C225.279 91.5692 225.331 91.6043 225.375 91.6485C225.42 91.6908 225.456 91.742 225.481 91.7988C225.505 91.8556 225.518 91.9169 225.518 91.9788C225.518 92.0407 225.505 92.1019 225.481 92.1587C225.456 92.2155 225.42 92.2667 225.375 92.309L220.657 97.0274C220.613 97.0738 220.56 97.1111 220.502 97.137C220.444 97.1629 220.381 97.177 220.317 97.1783Z" fill="#263238"/>
<path d="M225.073 23.8462C224.945 23.8459 224.823 23.795 224.733 23.7047L219.307 18.2786C219.218 18.1898 219.168 18.0693 219.168 17.9436C219.168 17.818 219.218 17.6975 219.307 17.6086C219.396 17.5198 219.517 17.4698 219.642 17.4698C219.768 17.4698 219.888 17.5198 219.977 17.6086L225.403 23.0347C225.448 23.0785 225.483 23.1307 225.507 23.1882C225.531 23.2457 225.543 23.3074 225.543 23.3697C225.543 23.432 225.531 23.4936 225.507 23.5511C225.483 23.6086 225.448 23.6608 225.403 23.7047C225.36 23.7491 225.309 23.7845 225.252 23.8088C225.196 23.8332 225.135 23.8459 225.073 23.8462Z" fill="#263238"/>
<path d="M298.443 97.1783C298.381 97.1791 298.32 97.1669 298.263 97.1425C298.206 97.1181 298.155 97.0821 298.112 97.0368L293.394 92.3184C293.308 92.2302 293.259 92.1117 293.259 91.9882C293.259 91.8647 293.308 91.7461 293.394 91.6579C293.438 91.6137 293.49 91.5786 293.548 91.5546C293.605 91.5306 293.667 91.5183 293.729 91.5183C293.791 91.5183 293.853 91.5306 293.911 91.5546C293.968 91.5786 294.02 91.6137 294.064 91.6579L298.782 96.3762C298.827 96.4201 298.862 96.4722 298.886 96.5297C298.91 96.5872 298.922 96.6489 298.922 96.7112C298.922 96.7735 298.91 96.8352 298.886 96.8927C298.862 96.9501 298.827 97.0023 298.782 97.0462C298.738 97.091 298.685 97.126 298.627 97.1488C298.568 97.1715 298.505 97.1816 298.443 97.1783Z" fill="#263238"/>
<path d="M259.385 76.5121C270.183 76.5121 278.937 67.758 278.937 56.9594C278.937 46.1607 270.183 37.4067 259.385 37.4067C248.586 37.4067 239.832 46.1607 239.832 56.9594C239.832 67.758 248.586 76.5121 259.385 76.5121Z" fill="#4CAF4F"/>
<path d="M259.385 76.9839C255.424 76.9839 251.553 75.8095 248.26 73.6091C244.967 71.4088 242.4 68.2814 240.885 64.6224C239.369 60.9634 238.972 56.9371 239.745 53.0528C240.518 49.1684 242.425 45.6004 245.225 42.7999C248.026 39.9994 251.594 38.0922 255.478 37.3196C259.363 36.5469 263.389 36.9435 267.048 38.4591C270.707 39.9747 273.834 42.5413 276.035 45.8343C278.235 49.1273 279.409 52.9989 279.409 56.9594C279.404 62.2687 277.293 67.3591 273.539 71.1133C269.785 74.8676 264.694 76.9789 259.385 76.9839ZM259.385 37.8785C255.611 37.8785 251.922 38.9976 248.784 41.0942C245.646 43.1908 243.201 46.1709 241.756 49.6574C240.312 53.144 239.934 56.9805 240.671 60.6819C241.407 64.3832 243.224 67.7831 245.893 70.4516C248.561 73.1201 251.961 74.9374 255.662 75.6736C259.364 76.4098 263.2 76.032 266.687 74.5878C270.173 73.1436 273.153 70.698 275.25 67.5601C277.347 64.4223 278.466 60.7332 278.466 56.9594C278.461 51.9003 276.449 47.0499 272.872 43.4727C269.294 39.8954 264.444 37.8835 259.385 37.8785Z" fill="#263238"/>
<path d="M259.384 33.3866C259.259 33.3866 259.139 33.3369 259.051 33.2484C258.962 33.1599 258.913 33.0399 258.913 32.9148V18.5334C258.913 18.4082 258.962 18.2882 259.051 18.1997C259.139 18.1112 259.259 18.0615 259.384 18.0615C259.51 18.0615 259.63 18.1112 259.718 18.1997C259.807 18.2882 259.856 18.4082 259.856 18.5334V32.9148C259.854 33.0392 259.803 33.1578 259.715 33.2457C259.627 33.3337 259.509 33.3842 259.384 33.3866Z" fill="#263238"/>
<path d="M259.384 97.2161C259.259 97.2161 259.139 97.1663 259.051 97.0779C258.962 96.9894 258.913 96.8694 258.913 96.7442V82.3534C258.913 82.2282 258.962 82.1082 259.051 82.0197C259.139 81.9312 259.259 81.8815 259.384 81.8815C259.509 81.8839 259.627 81.9344 259.715 82.0224C259.803 82.1104 259.854 82.229 259.856 82.3534V96.7442C259.854 96.8686 259.803 96.9872 259.715 97.0752C259.627 97.1632 259.509 97.2136 259.384 97.2161Z" fill="#263238"/>
<path d="M298.49 58.1107H284.099C283.975 58.1082 283.856 58.0578 283.768 57.9698C283.68 57.8818 283.63 57.7632 283.627 57.6388C283.627 57.5137 283.677 57.3937 283.766 57.3052C283.854 57.2167 283.974 57.167 284.099 57.167H298.49C298.615 57.167 298.735 57.2167 298.824 57.3052C298.912 57.3937 298.962 57.5137 298.962 57.6388C298.96 57.7632 298.909 57.8818 298.821 57.9698C298.733 58.0578 298.615 58.1082 298.49 58.1107Z" fill="#263238"/>
<path d="M234.661 58.1107H220.279C220.154 58.1107 220.034 58.0609 219.946 57.9725C219.857 57.884 219.808 57.764 219.808 57.6388C219.808 57.5137 219.857 57.3937 219.946 57.3052C220.034 57.2167 220.154 57.167 220.279 57.167H234.661C234.786 57.167 234.906 57.2167 234.994 57.3052C235.083 57.3937 235.133 57.5137 235.133 57.6388C235.13 57.7632 235.08 57.8818 234.992 57.9698C234.904 58.0578 234.785 58.1082 234.661 58.1107Z" fill="#263238"/>
<path d="M276.861 40.6245C276.769 40.6232 276.679 40.5948 276.603 40.5429C276.526 40.491 276.467 40.4178 276.432 40.3324C276.396 40.247 276.387 40.1531 276.405 40.0625C276.422 39.9718 276.466 39.8883 276.531 39.8224L286.704 29.6497C286.746 29.6046 286.797 29.5686 286.854 29.544C286.911 29.5194 286.972 29.5067 287.034 29.5067C287.096 29.5067 287.157 29.5194 287.214 29.544C287.271 29.5686 287.322 29.6046 287.364 29.6497C287.408 29.6936 287.444 29.7457 287.467 29.8032C287.491 29.8607 287.504 29.9224 287.504 29.9847C287.504 30.047 287.491 30.1087 287.467 30.1662C287.444 30.2236 287.408 30.2758 287.364 30.3197L277.21 40.483C277.166 40.5307 277.112 40.5682 277.052 40.5926C276.991 40.6171 276.926 40.628 276.861 40.6245Z" fill="#263238"/>
<path d="M231.726 85.7599C231.601 85.7582 231.483 85.7073 231.396 85.6184C231.308 85.5286 231.26 85.4084 231.26 85.2834C231.26 85.1583 231.308 85.0382 231.396 84.9484L241.568 74.804C241.612 74.7598 241.664 74.7247 241.722 74.7007C241.779 74.6768 241.841 74.6644 241.903 74.6644C241.965 74.6644 242.027 74.6768 242.085 74.7007C242.142 74.7247 242.194 74.7598 242.238 74.804C242.325 74.8922 242.373 75.0108 242.373 75.1343C242.373 75.2578 242.325 75.3764 242.238 75.4646L232.066 85.6372C231.972 85.7207 231.851 85.7647 231.726 85.7599Z" fill="#263238"/>
<path d="M241.898 40.6246C241.837 40.6242 241.776 40.6115 241.719 40.5872C241.662 40.5629 241.611 40.5275 241.568 40.483L231.396 30.3198C231.308 30.23 231.26 30.1098 231.26 29.9848C231.26 29.8597 231.308 29.7395 231.396 29.6498C231.439 29.6055 231.492 29.5704 231.549 29.5465C231.607 29.5225 231.668 29.5102 231.731 29.5102C231.793 29.5102 231.854 29.5225 231.912 29.5465C231.969 29.5704 232.022 29.6055 232.066 29.6498L242.238 39.8224C242.325 39.9106 242.373 40.0292 242.373 40.1527C242.373 40.2762 242.325 40.3948 242.238 40.483C242.148 40.5733 242.026 40.6242 241.898 40.6246Z" fill="#263238"/>
<path d="M287.034 85.7599C286.972 85.7607 286.911 85.7485 286.854 85.7241C286.797 85.6997 286.746 85.6637 286.704 85.6184L276.531 75.4457C276.444 75.3581 276.395 75.2393 276.395 75.1154C276.395 74.9915 276.444 74.8727 276.531 74.7851C276.619 74.6975 276.738 74.6483 276.862 74.6483C276.985 74.6483 277.104 74.6975 277.192 74.7851L287.365 84.9484C287.409 84.9922 287.444 85.0444 287.468 85.1019C287.492 85.1594 287.504 85.2211 287.504 85.2834C287.504 85.3457 287.492 85.4073 287.468 85.4648C287.444 85.5223 287.409 85.5745 287.365 85.6184C287.322 85.6637 287.271 85.6997 287.214 85.7241C287.158 85.7485 287.096 85.7607 287.034 85.7599Z" fill="#263238"/>
<path opacity="0.19" d="M188.506 95.3381C187.376 93.2092 185.763 91.3744 183.797 89.98C181.83 88.5856 179.565 87.6704 177.182 87.3075C169.152 86.2128 165.858 94.2434 163.31 98.6314C160.763 103.019 155.28 97.5368 149.071 97.9048C142.861 98.2729 142.135 101.915 139.945 104.51C137.756 107.106 131.547 104.142 128.263 105.973C124.979 107.804 124.611 110.352 124.611 110.352H216.609C216.609 110.352 219.534 100.132 211.89 99.0278C204.247 97.9237 202.038 101.944 199.481 101.217C196.924 100.49 198.018 95.7438 194.366 94.6114C193.402 94.2576 192.368 94.1389 191.348 94.2653C190.329 94.3917 189.355 94.7595 188.506 95.3381Z" fill="black"/>
<path opacity="0.19" d="M97.7636 118.477C96.6329 116.348 95.0201 114.513 93.0539 113.119C91.0877 111.724 88.8226 110.809 86.4396 110.446C78.4091 109.352 75.1157 117.382 72.5678 121.77C70.0199 126.158 64.5372 120.675 58.3279 121.043C52.1186 121.412 51.392 125.054 49.2027 127.649C47.0134 130.244 40.8041 127.281 37.5201 129.112C34.2362 130.943 33.8682 133.49 33.8682 133.49H125.875C125.875 133.49 128.791 123.271 121.157 122.166C113.523 121.062 111.296 125.082 108.738 124.356C106.181 123.629 107.285 118.882 103.633 117.75C102.668 117.395 101.631 117.275 100.61 117.402C99.5893 117.528 98.6133 117.897 97.7636 118.477Z" fill="black"/>
<path opacity="0.19" d="M269.529 118.477C268.399 116.348 266.786 114.513 264.82 113.119C262.853 111.724 260.588 110.809 258.205 110.446C250.175 109.352 246.881 117.382 244.333 121.77C241.786 126.158 236.303 120.675 230.094 121.043C223.884 121.412 223.158 125.054 220.968 127.649C218.779 130.244 212.57 127.281 209.286 129.112C206.002 130.943 205.634 133.49 205.634 133.49H297.632C297.632 133.49 300.557 123.271 292.913 122.166C285.27 121.062 283.061 125.082 280.504 124.356C277.947 123.629 279.041 118.882 275.389 117.75C274.425 117.396 273.391 117.278 272.371 117.404C271.352 117.53 270.378 117.898 269.529 118.477Z" fill="black"/>
<path opacity="0.19" d="M314.014 190.063C313.406 188.918 312.539 187.932 311.482 187.181C310.425 186.431 309.208 185.938 307.927 185.741C303.614 185.156 301.85 189.468 300.472 191.828C299.094 194.187 296.159 191.233 292.828 191.431C289.497 191.629 289.101 193.592 287.921 194.961C286.742 196.329 283.411 194.772 281.646 195.753C281.165 195.975 280.74 196.301 280.4 196.707C280.061 197.114 279.816 197.59 279.683 198.103H329.112C329.112 198.103 330.688 192.611 326.564 192.026C322.44 191.441 321.27 193.592 319.893 193.196C318.515 192.8 319.109 190.252 317.147 189.667C316.63 189.479 316.077 189.417 315.532 189.486C314.987 189.555 314.467 189.753 314.014 190.063Z" fill="black"/>
<path opacity="0.19" d="M44.7768 190.063C44.1697 188.92 43.3043 187.934 42.2493 187.183C41.1943 186.433 39.9789 185.939 38.6996 185.741C34.387 185.156 32.6224 189.468 31.2446 191.828C29.8669 194.187 26.9321 191.233 23.5915 191.431C20.251 191.629 19.8641 193.592 18.6939 194.961C17.5238 196.329 14.1738 194.772 12.4091 195.753C11.9284 195.975 11.503 196.301 11.1636 196.707C10.8241 197.114 10.5791 197.59 10.4463 198.103H59.8848C59.8848 198.103 61.4513 192.611 57.3369 192.026C53.2225 191.441 52.0335 193.592 50.6652 193.196C49.2969 192.8 49.882 190.252 47.9192 189.667C47.4015 189.479 46.8465 189.417 46.3001 189.486C45.7538 189.555 45.2316 189.752 44.7768 190.063Z" fill="black"/>
<path d="M284.246 113.616L272.374 103.383L239.991 140.952L251.864 151.185L284.246 113.616Z" fill="#263238"/>
<path d="M251.902 151.854L239.323 141.002L272.351 102.718L284.93 113.57L251.902 151.854ZM240.653 140.86L251.807 150.486L283.571 113.626L272.417 104.058L240.653 140.86Z" fill="#263238"/>
<path d="M295.966 134.516L284.223 124.393L254.243 159.175L265.987 169.297L295.966 134.516Z" fill="#263238"/>
<path d="M266.019 169.963L253.562 159.234L284.156 123.742L296.612 134.472L266.019 169.963ZM254.893 159.13L265.887 168.632L295.244 134.576L284.222 125.073L254.893 159.13Z" fill="#263238"/>
<path d="M199.349 149.287L206.775 140.672L213.853 146.777L230.518 127.442L274.37 165.235L280.938 157.61L288.563 164.188L276.597 178.069L281.221 182.061L263.461 202.661L199.349 149.287Z" fill="#263238"/>
<path d="M263.518 203.321L198.679 149.353L206.728 140.011L213.806 146.117L230.471 126.781L274.313 164.575L280.919 156.95L289.261 164.141L277.286 178.031L281.919 182.023L263.518 203.321ZM200.019 149.231L263.414 202L280.56 182.108L275.927 178.126L287.902 164.235L280.985 158.271L274.379 165.905L230.537 128.102L213.9 147.466L206.823 141.361L200.019 149.231Z" fill="#263238"/>
<path d="M278.596 142.628L265.458 131.304L229.231 173.333L242.368 184.657L278.596 142.628Z" fill="white"/>
<path d="M242.399 185.326L228.546 173.379L265.396 130.641L279.249 142.578L242.399 185.326ZM229.876 173.285L242.295 183.995L277.909 142.682L265.49 131.971L229.876 173.285Z" fill="#263238"/>
<path d="M282.858 146.29L269.72 134.966L233.493 176.995L246.631 188.319L282.858 146.29Z" fill="white"/>
<path d="M246.664 188.987L232.858 177.05L269.661 134.311L283.514 146.249L246.664 188.987ZM234.142 176.946L246.56 187.657L282.174 146.343L269.756 135.642L234.142 176.946Z" fill="#263238"/>
<path d="M285.599 145.158L266.192 128.431L263.746 131.269L283.153 147.996L285.599 145.158Z" fill="white"/>
<path d="M283.184 148.674L263.056 131.329L266.123 127.772L286.241 145.116L283.184 148.674ZM264.396 131.235L283.09 147.343L284.92 145.22L266.226 129.102L264.396 131.235Z" fill="#263238"/>
<path d="M286.956 144.534L271.83 131.598L269.395 134.445L284.52 147.381L286.956 144.534Z" fill="white"/>
<path d="M283.184 148.674L267.396 135.066L270.463 131.509L286.251 145.116L283.184 148.674ZM268.718 134.962L283.08 147.343L284.911 145.22L270.605 132.839L268.718 134.962Z" fill="#263238"/>
<path d="M270.53 141.254L267.928 139.011L264.46 143.035L267.061 145.278L270.53 141.254Z" fill="#263238"/>
<path d="M275.021 145.116L272.419 142.874L268.95 146.898L271.552 149.141L275.021 145.116Z" fill="#263238"/>
<path d="M279.522 149.002L276.92 146.759L273.451 150.783L276.053 153.026L279.522 149.002Z" fill="#263238"/>
<path d="M264.562 136.084L263.804 135.431L260.335 139.455L261.093 140.108L264.562 136.084Z" fill="#263238"/>
<path d="M265.845 137.232L265.087 136.579L261.619 140.603L262.376 141.256L265.845 137.232Z" fill="#263238"/>
<path d="M259.238 142.257L258.48 141.604L255.011 145.628L255.769 146.281L259.238 142.257Z" fill="#263238"/>
<path d="M260.521 143.395L259.763 142.742L256.294 146.766L257.052 147.419L260.521 143.395Z" fill="#263238"/>
<path d="M253.902 148.436L253.145 147.783L249.676 151.807L250.433 152.46L253.902 148.436Z" fill="#263238"/>
<path d="M255.197 149.568L254.439 148.915L250.97 152.939L251.728 153.592L255.197 149.568Z" fill="#263238"/>
<path d="M248.578 154.609L247.82 153.955L244.352 157.98L245.109 158.633L248.578 154.609Z" fill="#263238"/>
<path d="M249.914 155.721L249.156 155.068L245.688 159.092L246.445 159.745L249.914 155.721Z" fill="#263238"/>
<path d="M243.261 160.778L242.503 160.125L239.035 164.149L239.792 164.802L243.261 160.778Z" fill="#263238"/>
<path d="M244.59 161.894L243.832 161.241L240.363 165.265L241.121 165.918L244.59 161.894Z" fill="#263238"/>
<path d="M265.212 147.41L262.61 145.167L259.141 149.192L261.743 151.434L265.212 147.41Z" fill="#263238"/>
<path d="M269.713 151.296L267.111 149.053L263.642 153.077L266.244 155.32L269.713 151.296Z" fill="#263238"/>
<path d="M274.197 155.165L271.596 152.923L268.127 156.947L270.729 159.19L274.197 155.165Z" fill="#263238"/>
<path d="M259.895 153.589L257.293 151.346L253.825 155.371L256.427 157.613L259.895 153.589Z" fill="#263238"/>
<path d="M264.379 157.468L261.777 155.226L258.309 159.25L260.91 161.493L264.379 157.468Z" fill="#263238"/>
<path d="M270.255 160.818L267.645 158.585L264.191 162.623L266.802 164.856L270.255 160.818Z" fill="#263238"/>
<path d="M254.571 159.753L251.969 157.51L248.501 161.534L251.102 163.777L254.571 159.753Z" fill="#263238"/>
<path d="M259.072 163.638L256.47 161.395L253.002 165.42L255.603 167.662L259.072 163.638Z" fill="#263238"/>
<path d="M263.563 167.51L260.961 165.268L257.492 169.292L260.094 171.534L263.563 167.51Z" fill="#263238"/>
<path d="M249.254 165.932L246.652 163.689L243.184 167.713L245.785 169.956L249.254 165.932Z" fill="#263238"/>
<path d="M253.754 169.804L251.152 167.561L247.683 171.585L250.285 173.828L253.754 169.804Z" fill="#263238"/>
<path d="M258.248 173.674L255.646 171.431L252.177 175.455L254.779 177.698L258.248 173.674Z" fill="#263238"/>
<path d="M252.354 139.648L236.386 125.884L209.868 156.648L225.837 170.412L252.354 139.648Z" fill="white"/>
<path d="M225.885 171.058L209.201 156.676L236.331 125.196L253.015 139.577L225.885 171.058ZM210.531 156.572L225.781 169.727L251.732 139.709L236.473 126.554L210.531 156.572Z" fill="#263238"/>
<path d="M257.535 144.118L241.567 130.355L215.05 161.119L231.018 174.883L257.535 144.118Z" fill="white"/>
<path d="M231.057 175.549L214.373 161.168L241.512 129.687L258.196 144.069L231.057 175.549ZM215.703 161.064L230.972 174.219L256.875 144.163L241.616 131.018L215.703 161.064Z" fill="#263238"/>
<path d="M260.036 143.706L236.448 123.374L234.655 125.454L258.243 145.786L260.036 143.706Z" fill="white"/>
<path d="M258.281 146.456L233.981 125.507L236.388 122.676L260.687 143.691L258.281 146.456ZM235.312 125.413L258.186 145.126L259.357 143.757L236.492 124.044L235.312 125.413Z" fill="#263238"/>
<path d="M260.035 143.712L241.715 127.921L239.922 130.001L258.242 145.792L260.035 143.712Z" fill="white"/>
<path d="M258.281 146.456L239.247 130.046L241.653 127.215L260.687 143.691L258.281 146.456ZM240.578 129.952L258.186 145.126L259.357 143.757L241.748 128.593L240.578 129.952Z" fill="#263238"/>
<path d="M243.887 136.432L240.72 133.703L238.182 136.648L241.348 139.377L243.887 136.432Z" fill="#263238"/>
<path d="M249.358 141.141L246.191 138.412L243.653 141.356L246.819 144.086L249.358 141.141Z" fill="#263238"/>
<path d="M254.826 145.856L251.66 143.127L249.121 146.071L252.288 148.801L254.826 145.856Z" fill="#263238"/>
<path d="M236.619 130.164L235.697 129.369L233.159 132.314L234.081 133.109L236.619 130.164Z" fill="#263238"/>
<path d="M238.229 131.528L237.307 130.733L234.769 133.678L235.691 134.473L238.229 131.528Z" fill="#263238"/>
<path d="M232.726 134.686L231.804 133.891L229.266 136.836L230.188 137.631L232.726 134.686Z" fill="#263238"/>
<path d="M234.315 136.056L233.393 135.261L230.854 138.206L231.776 139.001L234.315 136.056Z" fill="#263238"/>
<path d="M228.818 139.207L227.896 138.412L225.358 141.357L226.28 142.152L228.818 139.207Z" fill="#263238"/>
<path d="M230.419 140.57L229.497 139.776L226.958 142.721L227.88 143.515L230.419 140.57Z" fill="#263238"/>
<path d="M224.899 143.73L223.977 142.935L221.438 145.88L222.36 146.675L224.899 143.73Z" fill="#263238"/>
<path d="M226.551 145.08L225.629 144.285L223.091 147.23L224.013 148.024L226.551 145.08Z" fill="#263238"/>
<path d="M221.054 148.23L220.132 147.436L217.593 150.38L218.516 151.175L221.054 148.23Z" fill="#263238"/>
<path d="M222.617 149.604L221.695 148.809L219.156 151.754L220.079 152.548L222.617 149.604Z" fill="#263238"/>
<path d="M240.007 140.943L236.84 138.214L234.302 141.159L237.468 143.888L240.007 140.943Z" fill="#263238"/>
<path d="M245.468 145.662L242.302 142.932L239.763 145.877L242.93 148.607L245.468 145.662Z" fill="#263238"/>
<path d="M250.924 150.378L247.757 147.648L245.219 150.593L248.385 153.323L250.924 150.378Z" fill="#263238"/>
<path d="M236.104 145.465L232.938 142.736L230.399 145.681L233.566 148.41L236.104 145.465Z" fill="#263238"/>
<path d="M242.83 149.696L239.653 146.979L237.126 149.934L240.303 152.651L242.83 149.696Z" fill="#263238"/>
<path d="M247.034 154.889L243.868 152.16L241.329 155.105L244.496 157.834L247.034 154.889Z" fill="#263238"/>
<path d="M232.215 149.977L229.048 147.247L226.51 150.192L229.676 152.922L232.215 149.977Z" fill="#263238"/>
<path d="M237.686 154.685L234.519 151.956L231.981 154.901L235.147 157.63L237.686 154.685Z" fill="#263238"/>
<path d="M243.141 159.401L239.975 156.672L237.436 159.617L240.603 162.346L243.141 159.401Z" fill="#263238"/>
<path d="M228.321 154.498L225.155 151.769L222.616 154.714L225.783 157.443L228.321 154.498Z" fill="#263238"/>
<path d="M233.792 159.207L230.626 156.478L228.088 159.423L231.254 162.152L233.792 159.207Z" fill="#263238"/>
<path d="M239.251 163.922L236.085 161.193L233.547 164.138L236.713 166.867L239.251 163.922Z" fill="#263238"/>
<path d="M285.585 168.286L269.617 154.522L243.099 185.286L259.067 199.05L285.585 168.286Z" fill="white"/>
<path d="M259.111 199.726L242.427 185.345L269.558 153.864L286.242 168.227L259.111 199.726ZM243.758 185.213L259.007 198.424L284.911 168.378L269.661 155.195L243.758 185.213Z" fill="#263238"/>
<path d="M290.766 172.756L274.797 158.992L248.28 189.756L264.248 203.52L290.766 172.756Z" fill="white"/>
<path d="M264.282 204.19L247.598 189.808L274.738 158.328L291.422 172.709L264.282 204.19ZM248.9 189.704L264.188 202.859L290.091 172.813L274.832 159.658L248.9 189.704Z" fill="#263238"/>
<path d="M293.266 172.352L269.679 152.021L267.886 154.101L291.474 174.432L293.266 172.352Z" fill="white"/>
<path d="M291.507 175.096L267.208 154.147L269.614 151.316L293.913 172.265L291.507 175.096ZM268.538 154.072L291.412 173.785L292.583 172.426L269.718 152.713L268.538 154.072Z" fill="#263238"/>
<path d="M293.266 172.349L274.946 156.558L273.153 158.638L291.473 174.429L293.266 172.349Z" fill="white"/>
<path d="M291.507 175.097L272.492 158.686L274.899 155.855L293.932 172.266L291.507 175.097ZM273.804 158.592L291.413 173.766L292.583 172.407L274.983 157.224L273.804 158.592Z" fill="#263238"/>
<path d="M277.108 165.079L273.941 162.349L271.403 165.294L274.569 168.024L277.108 165.079Z" fill="#263238"/>
<path d="M282.586 169.784L279.419 167.055L276.881 170L280.048 172.729L282.586 169.784Z" fill="#263238"/>
<path d="M289.511 173.943L286.333 171.226L283.806 174.18L286.984 176.898L289.511 173.943Z" fill="#263238"/>
<path d="M269.831 158.811L268.909 158.016L266.371 160.961L267.293 161.756L269.831 158.811Z" fill="#263238"/>
<path d="M271.435 160.182L270.513 159.387L267.974 162.332L268.896 163.127L271.435 160.182Z" fill="#263238"/>
<path d="M265.957 163.323L265.035 162.528L262.496 165.473L263.418 166.268L265.957 163.323Z" fill="#263238"/>
<path d="M267.564 164.693L266.642 163.898L264.104 166.843L265.026 167.638L267.564 164.693Z" fill="#263238"/>
<path d="M262.024 167.857L261.103 167.062L258.564 170.007L259.486 170.802L262.024 167.857Z" fill="#263238"/>
<path d="M263.662 169.205L262.74 168.411L260.201 171.356L261.123 172.15L263.662 169.205Z" fill="#263238"/>
<path d="M258.146 172.366L257.224 171.571L254.686 174.516L255.608 175.311L258.146 172.366Z" fill="#263238"/>
<path d="M259.744 173.736L258.822 172.941L256.284 175.886L257.206 176.681L259.744 173.736Z" fill="#263238"/>
<path d="M254.279 176.875L253.357 176.08L250.819 179.025L251.741 179.82L254.279 176.875Z" fill="#263238"/>
<path d="M255.861 178.248L254.938 177.453L252.4 180.398L253.322 181.193L255.861 178.248Z" fill="#263238"/>
<path d="M273.222 169.597L270.055 166.868L267.517 169.813L270.683 172.542L273.222 169.597Z" fill="#263238"/>
<path d="M278.693 174.306L275.526 171.577L272.988 174.522L276.154 177.251L278.693 174.306Z" fill="#263238"/>
<path d="M285.611 178.487L282.434 175.77L279.907 178.725L283.084 181.442L285.611 178.487Z" fill="#263238"/>
<path d="M269.334 174.103L266.168 171.373L263.63 174.318L266.796 177.047L269.334 174.103Z" fill="#263238"/>
<path d="M274.804 178.818L271.637 176.088L269.099 179.033L272.265 181.762L274.804 178.818Z" fill="#263238"/>
<path d="M280.275 183.526L277.108 180.797L274.57 183.742L277.737 186.471L280.275 183.526Z" fill="#263238"/>
<path d="M265.449 178.621L262.282 175.892L259.744 178.837L262.91 181.566L265.449 178.621Z" fill="#263238"/>
<path d="M272.346 182.861L269.168 180.144L266.641 183.099L269.818 185.816L272.346 182.861Z" fill="#263238"/>
<path d="M276.362 188.048L273.196 185.319L270.657 188.264L273.824 190.993L276.362 188.048Z" fill="#263238"/>
<path d="M261.552 183.136L258.386 180.406L255.847 183.351L259.014 186.081L261.552 183.136Z" fill="#263238"/>
<path d="M267.021 187.851L263.854 185.121L261.316 188.066L264.483 190.796L267.021 187.851Z" fill="#263238"/>
<path d="M272.482 192.56L269.316 189.83L266.778 192.775L269.944 195.504L272.482 192.56Z" fill="#263238"/>
<path d="M72.1147 207.493L64.2634 199.264L71.0295 192.809L53.4019 174.342L95.2816 134.377L88.3363 127.092L95.6214 120.147L108.276 133.406L112.702 129.187L131.471 148.863L72.1147 207.493Z" fill="#263238"/>
<path d="M72.1052 208.163L63.6122 199.245L70.3594 192.762L52.7412 174.294L94.621 134.33L87.6662 127.045L95.6307 119.496L108.295 132.745L112.711 128.527L132.141 148.872L131.811 149.202L72.1052 208.163ZM64.9333 199.273L72.1241 206.823L130.81 148.853L112.683 129.857L108.295 134.076L95.6307 120.808L89.0251 127.111L95.9704 134.396L54.0906 174.351L71.7183 192.819L64.9333 199.273Z" fill="#263238"/>
<path d="M73.0198 179.531L62.8887 189.199L75.56 202.478L85.6912 192.81L73.0198 179.531Z" fill="white"/>
<path d="M75.5403 203.142L62.2158 189.176L73.0302 178.862L86.3547 192.819L75.5403 203.142ZM63.5558 189.214L75.5687 201.812L85.0053 192.79L73.0019 180.211L63.5558 189.214Z" fill="#263238"/>
<path d="M73.0203 179.533L67.6885 184.621L80.3598 197.899L85.6917 192.811L73.0203 179.533Z" fill="white"/>
<path d="M80.3436 198.584L67.019 184.618L73.0302 178.881L86.3547 192.837L80.3436 198.584ZM68.3496 184.646L80.3719 197.244L85.0241 192.809L73.0019 180.211L68.3496 184.646Z" fill="#263238"/>
<path d="M48.4854 142.625L53.9209 153.288L88.7515 189.789L98.4523 180.532L55.7044 135.736L48.4854 142.625Z" fill="white"/>
<path d="M88.7421 190.459L53.5058 153.496L47.9004 142.531L55.7234 135.066L99.1319 180.551L88.7421 190.459ZM54.3079 153.005L88.7704 189.119L97.7824 180.513L55.695 136.397L49.0894 142.729L54.3079 153.005Z" fill="#263238"/>
<path d="M45.1636 145.796L50.5991 156.45L85.4391 192.96L95.14 183.703L52.3826 138.898L45.1636 145.796Z" fill="white"/>
<path d="M85.4204 193.621L50.184 156.667L44.5786 145.692L52.4016 138.237L95.8101 183.712L85.4204 193.621ZM50.9955 156.176L85.4487 192.29L94.4701 183.684L52.3733 139.568L45.7676 145.89L50.9955 156.176Z" fill="#263238"/>
<path d="M50.8038 140.897L50.1211 141.549L92.6304 186.094L93.3131 185.443L50.8038 140.897Z" fill="#263238"/>
<path d="M52.6495 145.332L48.0542 149.716L48.7056 150.399L53.3008 146.015L52.6495 145.332Z" fill="#263238"/>
<path d="M56.3038 149.16L51.7085 153.544L52.3599 154.226L56.9551 149.843L56.3038 149.16Z" fill="#263238"/>
<path d="M59.9586 152.997L55.3633 157.381L56.0146 158.064L60.6099 153.68L59.9586 152.997Z" fill="#263238"/>
<path d="M63.6133 156.812L59.0181 161.196L59.6694 161.878L64.2647 157.495L63.6133 156.812Z" fill="#263238"/>
<path d="M67.2676 160.64L62.6724 165.023L63.3237 165.706L67.919 161.323L67.2676 160.64Z" fill="#263238"/>
<path d="M70.9224 164.477L66.3271 168.861L66.9785 169.544L71.5738 165.16L70.9224 164.477Z" fill="#263238"/>
<path d="M74.5767 168.305L69.9814 172.689L70.6328 173.371L75.2281 168.988L74.5767 168.305Z" fill="#263238"/>
<path d="M78.2154 172.135L73.6201 176.519L74.2715 177.202L78.8668 172.818L78.2154 172.135Z" fill="#263238"/>
<path d="M81.8765 175.957L77.2812 180.341L77.9326 181.023L82.5279 176.64L81.8765 175.957Z" fill="#263238"/>
<path d="M85.5313 179.794L80.936 184.178L81.5874 184.861L86.1827 180.477L85.5313 179.794Z" fill="#263238"/>
<path d="M89.1856 183.622L84.5903 188.006L85.2417 188.689L89.837 184.305L89.1856 183.622Z" fill="#263238"/>
<path d="M73.1905 127.972L60.6426 139.947L98.9498 180.089L111.498 168.115L73.1905 127.972Z" fill="white"/>
<path d="M98.9334 180.768L59.979 139.917L73.1903 127.281L112.154 168.113L98.9334 180.768ZM61.3096 139.973L98.9712 179.437L110.833 168.113L73.1808 128.649L61.3096 139.973Z" fill="#263238"/>
<path d="M77.2613 124.088L64.7134 136.062L103.021 176.205L115.569 164.231L77.2613 124.088Z" fill="white"/>
<path d="M103.01 176.889L64.0464 136.057L77.2577 123.431L116.222 164.263L103.01 176.889ZM65.3864 136.085L103.039 175.559L114.91 164.235L77.2482 124.762L65.3864 136.085Z" fill="#263238"/>
<path d="M76.3989 121.251L57.8638 138.938L60.4502 141.649L78.9853 123.961L76.3989 121.251Z" fill="white"/>
<path d="M60.4413 142.323L57.2046 138.926L76.4176 120.591L79.6638 123.988L60.4413 142.323ZM58.554 138.964L60.4413 140.993L78.2955 124.007L76.361 121.978L58.554 138.964Z" fill="#263238"/>
<path d="M76.4053 121.242L62.0073 134.982L64.5937 137.692L78.9917 123.952L76.4053 121.242Z" fill="white"/>
<path d="M64.5841 138.379L61.3379 134.981L76.4365 120.591L79.6827 123.988L64.5841 138.379ZM62.6968 135.01L64.6313 137.048L78.3427 123.959L76.4082 121.931L62.6968 135.01Z" fill="#263238"/>
<path d="M71.0465 135.872L68.5615 138.243L72.2294 142.087L74.7144 139.716L71.0465 135.872Z" fill="#263238"/>
<path d="M75.3361 131.776L72.8511 134.147L76.5189 137.99L79.0039 135.619L75.3361 131.776Z" fill="#263238"/>
<path d="M79.6281 127.672L77.1431 130.044L80.8109 133.887L83.2959 131.516L79.6281 127.672Z" fill="#263238"/>
<path d="M65.3296 141.313L64.606 142.003L68.2738 145.847L68.9975 145.156L65.3296 141.313Z" fill="#263238"/>
<path d="M66.5801 140.14L65.8564 140.831L69.5243 144.674L70.2479 143.984L66.5801 140.14Z" fill="#263238"/>
<path d="M70.9605 147.227L70.2368 147.917L73.9047 151.761L74.6283 151.07L70.9605 147.227Z" fill="#263238"/>
<path d="M72.2012 146.026L71.4775 146.716L75.1454 150.56L75.869 149.869L72.2012 146.026Z" fill="#263238"/>
<path d="M76.5747 153.096L75.8511 153.787L79.5189 157.63L80.2426 156.94L76.5747 153.096Z" fill="#263238"/>
<path d="M77.8252 151.914L77.1016 152.604L80.7694 156.448L81.4931 155.757L77.8252 151.914Z" fill="#263238"/>
<path d="M81.6103 158.447L80.8901 159.137L84.556 162.963L85.2762 162.272L81.6103 158.447Z" fill="#263238"/>
<path d="M83.4556 157.818L82.7319 158.509L86.3998 162.352L87.1234 161.662L83.4556 157.818Z" fill="#263238"/>
<path d="M87.8291 164.879L87.1055 165.57L90.7733 169.413L91.497 168.723L87.8291 164.879Z" fill="#263238"/>
<path d="M88.4497 163.14L87.7295 163.83L91.3953 167.655L92.1155 166.965L88.4497 163.14Z" fill="#263238"/>
<path d="M76.6613 141.76L74.1763 144.132L77.8441 147.975L80.3291 145.604L76.6613 141.76Z" fill="#263238"/>
<path d="M80.9601 137.664L78.4751 140.035L82.1429 143.879L84.6279 141.507L80.9601 137.664Z" fill="#263238"/>
<path d="M85.2584 133.567L82.7734 135.939L86.4413 139.782L88.9263 137.411L85.2584 133.567Z" fill="#263238"/>
<path d="M82.2916 147.655L79.8066 150.026L83.4745 153.87L85.9595 151.499L82.2916 147.655Z" fill="#263238"/>
<path d="M86.5905 143.559L84.1055 145.93L87.7733 149.774L90.2583 147.402L86.5905 143.559Z" fill="#263238"/>
<path d="M90.8732 139.455L88.3882 141.827L92.056 145.67L94.541 143.299L90.8732 139.455Z" fill="#263238"/>
<path d="M87.9157 153.543L85.4307 155.915L89.0985 159.758L91.5835 157.387L87.9157 153.543Z" fill="#263238"/>
<path d="M92.2052 149.447L89.7202 151.818L93.3881 155.662L95.8731 153.29L92.2052 149.447Z" fill="#263238"/>
<path d="M96.504 145.35L94.019 147.722L97.6869 151.565L100.172 149.194L96.504 145.35Z" fill="#263238"/>
<path d="M93.5299 159.445L91.0449 161.816L94.7128 165.66L97.1978 163.288L93.5299 159.445Z" fill="#263238"/>
<path d="M97.8356 155.342L95.3506 157.713L99.0184 161.557L101.503 159.185L97.8356 155.342Z" fill="#263238"/>
<path d="M102.128 151.239L99.6426 153.61L103.31 157.453L105.795 155.082L102.128 151.239Z" fill="#263238"/>
<path d="M116.169 146.282L103.847 158.041L111.853 166.431L124.176 154.672L116.169 146.282Z" fill="white"/>
<path d="M111.843 167.113L103.18 158.035L116.184 145.626L124.847 154.704L111.843 167.113ZM104.52 158.063L111.881 165.773L123.516 154.666L116.165 146.956L104.52 158.063Z" fill="#263238"/>
<path d="M116.168 146.276L106.187 155.8L114.194 164.191L124.175 154.666L116.168 146.276Z" fill="white"/>
<path d="M114.183 164.877L105.521 155.799L116.184 145.626L124.847 154.704L114.183 164.877ZM106.851 155.836L114.212 163.546L123.507 154.666L116.156 146.956L106.851 155.836Z" fill="#263238"/>
<path d="M115.037 142.587L100.229 156.717L102.607 159.209L117.415 145.079L115.037 142.587Z" fill="white"/>
<path d="M102.633 159.885L99.6035 156.714L115.098 141.936L118.118 145.107L102.633 159.885ZM100.944 156.742L102.661 158.554L116.816 145.079L115.089 143.267L100.944 156.742Z" fill="#263238"/>
<path d="M115.033 142.588L102.689 154.366L105.067 156.858L117.41 145.079L115.033 142.588Z" fill="white"/>
<path d="M105.049 157.535L102.02 154.364L115.052 141.936L118.071 145.107L105.049 157.535ZM103.36 154.393L105.077 156.204L116.788 145.079L115.061 143.267L103.36 154.393Z" fill="#263238"/>
<path d="M116.407 148.86L108.65 156.26L109.301 156.942L117.058 149.543L116.407 148.86Z" fill="#263238"/>
<path d="M117.887 150.411L110.13 157.81L110.781 158.493L118.538 151.093L117.887 150.411Z" fill="#263238"/>
<path d="M119.372 151.968L111.616 159.367L112.267 160.05L120.024 152.651L119.372 151.968Z" fill="#263238"/>
<path d="M120.852 153.518L113.095 160.918L113.747 161.6L121.503 154.201L120.852 153.518Z" fill="#263238"/>
<path opacity="0.19" d="M164.632 73.7943C164.632 73.7943 165.122 75.6816 165.981 64.0179C166.84 52.3543 159.14 50.0612 154.582 52.911C150.024 55.7609 148.316 53.4772 143.475 45.5033C138.634 37.5293 126.102 32.4052 120.695 37.8124C115.288 43.2196 113.853 47.7869 110.182 44.9371C106.512 42.0872 101.633 34.6794 95.0838 35.8213C88.5347 36.9631 86.8267 46.0695 84.2599 47.2113C81.6932 48.3531 75.7198 39.8035 68.8782 43.5121C62.0367 47.2207 62.0461 50.9199 61.1874 52.3448C60.3286 53.7697 57.2051 48.6362 52.3641 49.2119C47.5231 49.7875 45.8057 54.619 45.8057 54.619H136.605C140.659 55.7009 144.516 57.4176 148.033 59.7054C154.299 63.6971 157.715 60.9227 159.706 60.6491C161.697 60.3754 161.386 73.766 161.386 73.766L164.632 73.7943Z" fill="black"/>
<path opacity="0.19" d="M177.182 73.7943C177.182 73.7943 177.673 75.6816 178.522 64.0179C179.371 52.3543 171.718 50.0612 167.198 52.911C162.678 55.7609 160.97 53.4772 156.148 45.5033C151.326 37.5293 138.86 32.4052 133.5 37.8124C128.14 43.2196 126.705 47.7869 123.016 44.9371C119.326 42.0872 114.523 34.6794 108.002 35.8213C101.481 36.9631 99.7827 46.0695 97.2254 47.2113C94.668 48.3531 88.7324 39.8035 81.9286 43.5121C75.1248 47.2207 75.1248 50.9199 74.2755 52.3448C73.4262 53.7697 70.3026 48.6362 65.49 49.2119C60.6773 49.7875 58.9692 54.619 58.9692 54.619H149.372C153.394 55.7185 157.216 57.448 160.696 59.7431C166.924 63.7348 170.322 60.9605 172.303 60.6868C174.285 60.4131 173.974 73.8037 173.974 73.8037L177.182 73.7943Z" fill="black"/>
<path opacity="0.19" d="M190.261 73.7943C190.261 73.7943 190.743 75.6816 191.592 64.0179C192.441 52.3543 184.798 50.0612 180.268 52.911C175.738 55.7609 174.03 53.4772 169.218 45.5033C164.405 37.5293 151.93 32.4052 146.57 37.8124C141.21 43.2196 139.766 47.7869 136.086 44.9371C132.405 42.0872 127.593 34.6794 121.063 35.8213C114.532 36.9631 112.843 46.0695 110.295 47.2113C107.747 48.3531 101.802 39.8035 94.9891 43.5121C88.1759 47.2207 88.1853 50.9199 87.336 52.3448C86.4867 53.7697 83.3726 48.6362 78.5505 49.2119C73.7284 49.7875 72.0298 54.619 72.0298 54.619H162.442C166.464 55.7167 170.287 57.4463 173.766 59.7431C180.004 63.7348 183.401 60.9605 185.383 60.6868C187.364 60.4131 187.053 73.8037 187.053 73.8037L190.261 73.7943Z" fill="black"/>
<path d="M165.264 73.6244H160.413L157.988 133.953H167.68L165.264 73.6244Z" fill="#4CAF4F"/>
<path d="M168.18 134.425H157.498L159.961 73.1526H165.717L168.18 134.425ZM158.479 133.481H167.189L164.811 74.0963H160.866L158.479 133.481Z" fill="#263238"/>
<path d="M165.226 74.1529H160.442C160.304 74.1529 160.172 74.0982 160.075 74.0009C159.978 73.9035 159.923 73.7715 159.923 73.6339C159.923 73.4962 159.978 73.3642 160.075 73.2669C160.172 73.1695 160.304 73.1148 160.442 73.1148H165.226C165.295 73.1136 165.363 73.1261 165.426 73.1517C165.49 73.1774 165.548 73.2155 165.596 73.264C165.645 73.3124 165.683 73.3702 165.708 73.4337C165.734 73.4973 165.747 73.5653 165.745 73.6339C165.745 73.7715 165.691 73.9035 165.593 74.0009C165.496 74.0982 165.364 74.1529 165.226 74.1529Z" fill="white"/>
<path d="M165.226 74.6247H160.442C160.311 74.6247 160.183 74.5991 160.062 74.5493C159.942 74.4995 159.833 74.4265 159.741 74.3345C159.649 74.2425 159.576 74.1332 159.526 74.013C159.476 73.8928 159.451 73.764 159.451 73.6339C159.451 73.5037 159.476 73.3749 159.526 73.2547C159.576 73.1345 159.649 73.0252 159.741 72.9332C159.833 72.8412 159.942 72.7682 160.062 72.7184C160.183 72.6686 160.311 72.643 160.442 72.643H165.226C165.489 72.643 165.741 72.7474 165.927 72.9332C166.112 73.119 166.217 73.3711 166.217 73.6339C166.217 73.8966 166.112 74.1487 165.927 74.3345C165.741 74.5203 165.489 74.6247 165.226 74.6247ZM160.442 73.5867V73.681H165.226L160.442 73.5867Z" fill="#263238"/>
<path d="M160.3 76.3893L160.215 78.5692H165.462L165.368 76.3893H160.3Z" fill="white"/>
<path d="M165.953 79.0411H159.725L159.847 75.9175H165.858L165.953 79.0411ZM160.706 78.0974H164.971L164.915 76.8612H160.753L160.706 78.0974Z" fill="#263238"/>
<path d="M167.349 125.649L167.264 123.469H158.413L158.328 125.649H167.349Z" fill="white"/>
<path d="M167.84 126.12H157.837L157.96 122.997H167.746L167.84 126.12ZM158.819 125.177H166.859L166.812 123.941H158.866L158.819 125.177Z" fill="#263238"/>
<path d="M158.951 110.021L158.866 112.192H166.811L166.726 110.021H158.951Z" fill="white"/>
<path d="M167.302 112.664H158.375L158.498 109.55H167.179L167.302 112.664ZM159.356 111.72H166.321L166.273 110.493H159.404L159.356 111.72Z" fill="#263238"/>
<path d="M158.686 116.74L158.592 118.92H167.075L166.99 116.74H158.686Z" fill="white"/>
<path d="M167.576 119.392H158.139L158.271 116.269H167.481L167.576 119.392ZM159.083 118.448H166.632L166.585 117.212H159.187L159.083 118.448Z" fill="#263238"/>
<path d="M159.224 103.293L159.139 105.473H166.537L166.453 103.293H159.224Z" fill="white"/>
<path d="M167.029 105.945H158.649L158.772 102.821H166.906L167.029 105.945ZM159.63 105.001H166.047V103.765H159.725L159.63 105.001Z" fill="#263238"/>
<path d="M160.036 83.1177L159.941 85.2881H165.726L165.641 83.1177H160.036Z" fill="white"/>
<path d="M166.217 85.76H159.451L159.583 82.6459H166.094L166.217 85.76ZM160.432 84.8163H165.235L165.188 83.5895H160.47L160.432 84.8163Z" fill="#263238"/>
<path d="M159.488 96.5648L159.403 98.7447H166.273L166.179 96.5648H159.488Z" fill="white"/>
<path d="M166.802 99.2165H158.951L159.073 96.093H166.623L166.802 99.2165ZM159.932 98.2729H165.821L165.764 97.0367H159.979L159.932 98.2729Z" fill="#263238"/>
<path d="M159.762 89.846L159.677 92.0164H166L165.915 89.846H159.762Z" fill="white"/>
<path d="M166.49 92.4883H159.187L159.309 89.3742H166.368L166.49 92.4883ZM160.168 91.5446H165.509V90.3179H160.196L160.168 91.5446Z" fill="#263238"/>
<path d="M178.315 73.6244H173.474L171.048 133.953H180.74L178.315 73.6244Z" fill="#4CAF4F"/>
<path d="M181.231 134.425H170.577L173.04 73.1526H178.787L181.231 134.425ZM171.539 133.481H180.249L177.862 74.0963H173.927L171.539 133.481Z" fill="#263238"/>
<path d="M178.286 74.1529H173.502C173.364 74.1529 173.232 74.0982 173.135 74.0009C173.038 73.9035 172.983 73.7715 172.983 73.6339C172.982 73.5653 172.994 73.4973 173.02 73.4337C173.046 73.3702 173.084 73.3124 173.132 73.264C173.181 73.2155 173.238 73.1774 173.302 73.1517C173.365 73.1261 173.434 73.1136 173.502 73.1148H178.286C178.424 73.1148 178.556 73.1695 178.653 73.2669C178.751 73.3642 178.805 73.4962 178.805 73.6339C178.805 73.7715 178.751 73.9035 178.653 74.0009C178.556 74.0982 178.424 74.1529 178.286 74.1529Z" fill="white"/>
<path d="M178.286 74.6247H173.502C173.239 74.6247 172.987 74.5203 172.801 74.3345C172.615 74.1487 172.511 73.8966 172.511 73.6339C172.511 73.3711 172.615 73.119 172.801 72.9332C172.987 72.7474 173.239 72.643 173.502 72.643H178.286C178.549 72.643 178.801 72.7474 178.987 72.9332C179.172 73.119 179.277 73.3711 179.277 73.6339C179.277 73.8966 179.172 74.1487 178.987 74.3345C178.801 74.5203 178.549 74.6247 178.286 74.6247ZM173.502 73.5867V73.681H178.286H178.333L173.502 73.5867Z" fill="#263238"/>
<path d="M173.36 76.3893L173.275 78.5692H178.513L178.428 76.3893H173.36Z" fill="white"/>
<path d="M179.003 79.0411H172.785L172.907 75.9175H178.881L179.003 79.0411ZM173.766 78.0974H178.022L177.975 76.8612H173.813L173.766 78.0974Z" fill="#263238"/>
<path d="M180.41 125.649L180.315 123.469H171.464L171.379 125.649H180.41Z" fill="white"/>
<path d="M180.9 126.12H170.888L171.011 122.997H180.768L180.9 126.12ZM171.87 125.177H179.919L179.862 123.941H171.917L171.87 125.177Z" fill="#263238"/>
<path d="M172.011 110.021L171.917 112.192H179.862L179.777 110.021H172.011Z" fill="white"/>
<path d="M180.353 112.664H171.426L171.558 109.55H180.231L180.353 112.664ZM172.408 111.72H179.372L179.325 110.493H172.464L172.408 111.72Z" fill="#263238"/>
<path d="M171.737 116.74L171.652 118.92H180.136L180.051 116.74H171.737Z" fill="white"/>
<path d="M180.627 119.392H171.19L171.313 116.269H180.532L180.627 119.392ZM172.134 118.448H179.683L179.636 117.212H172.228L172.134 118.448Z" fill="#263238"/>
<path d="M172.275 103.293L172.19 105.473H179.598L179.504 103.293H172.275Z" fill="white"/>
<path d="M180.089 105.945H171.7L171.822 102.821H179.957L180.089 105.945ZM172.681 105.001H179.07L179.013 103.765H172.691L172.681 105.001Z" fill="#263238"/>
<path d="M173.087 83.1177L173.002 85.2881H178.787L178.702 83.1177H173.087Z" fill="white"/>
<path d="M179.277 85.76H172.511L172.633 82.6459H179.154L179.277 85.76ZM173.492 84.8163H178.295L178.248 83.5895H173.53L173.492 84.8163Z" fill="#263238"/>
<path d="M172.549 96.5648L172.464 98.7447H179.324L179.239 96.5648H172.549Z" fill="white"/>
<path d="M179.815 99.2165H171.973L172.096 96.093H179.692L179.815 99.2165ZM172.955 98.2729H178.834L178.786 97.0367H173.002L172.955 98.2729Z" fill="#263238"/>
<path d="M172.822 89.846L172.728 92.0164H179.051L178.966 89.846H172.822Z" fill="white"/>
<path d="M179.551 92.4883H172.238L172.37 89.3742H179.419L179.551 92.4883ZM173.219 91.5446H178.56V90.3179H173.323L173.219 91.5446Z" fill="#263238"/>
<path d="M191.375 73.6244H186.524L184.099 133.953H193.791L191.375 73.6244Z" fill="#4CAF4F"/>
<path d="M194.281 134.425H183.608L186.071 73.1526H191.828L194.281 134.425ZM184.59 133.481H193.3L190.922 74.0963H186.977L184.59 133.481Z" fill="#263238"/>
<path d="M191.338 74.1529H186.553C186.416 74.1529 186.284 74.0982 186.186 74.0009C186.089 73.9035 186.034 73.7715 186.034 73.6339C186.034 73.4962 186.089 73.3642 186.186 73.2669C186.284 73.1695 186.416 73.1148 186.553 73.1148H191.338C191.406 73.1136 191.474 73.1261 191.538 73.1517C191.601 73.1774 191.659 73.2155 191.707 73.264C191.756 73.3124 191.794 73.3702 191.82 73.4337C191.845 73.4973 191.858 73.5653 191.857 73.6339C191.857 73.7715 191.802 73.9035 191.705 74.0009C191.607 74.0982 191.475 74.1529 191.338 74.1529Z" fill="white"/>
<path d="M191.337 74.6247H186.553C186.29 74.6247 186.038 74.5203 185.852 74.3345C185.666 74.1487 185.562 73.8966 185.562 73.6339C185.562 73.3711 185.666 73.119 185.852 72.9332C186.038 72.7474 186.29 72.643 186.553 72.643H191.337C191.6 72.643 191.852 72.7474 192.038 72.9332C192.224 73.119 192.328 73.3711 192.328 73.6339C192.328 73.8966 192.224 74.1487 192.038 74.3345C191.852 74.5203 191.6 74.6247 191.337 74.6247ZM186.553 73.5867V73.681H191.337H191.384L186.553 73.5867Z" fill="#263238"/>
<path d="M186.411 76.3893L186.326 78.5692H191.573L191.479 76.3893H186.411Z" fill="white"/>
<path d="M192.064 79.0411H185.836L185.959 75.9175H191.932L192.064 79.0411ZM186.817 78.0974H191.083L191.026 76.8612H186.865L186.817 78.0974Z" fill="#263238"/>
<path d="M193.46 125.649L193.375 123.469H184.524L184.439 125.649H193.46Z" fill="white"/>
<path d="M193.951 126.12H183.948L184.071 122.997H193.828L193.951 126.12ZM184.93 125.177H192.97L192.922 123.941H184.977L184.93 125.177Z" fill="#263238"/>
<path d="M185.062 110.021L184.977 112.192H192.923L192.838 110.021H185.062Z" fill="white"/>
<path d="M193.413 112.664H184.486L184.609 109.55H193.291L193.413 112.664ZM185.468 111.72H192.432L192.385 110.493H185.515L185.468 111.72Z" fill="#263238"/>
<path d="M184.788 116.74L184.703 118.92H193.187L193.102 116.74H184.788Z" fill="white"/>
<path d="M193.677 119.392H184.241L184.373 116.269H193.583L193.677 119.392ZM185.184 118.448H192.686L192.639 117.212H185.241L185.184 118.448Z" fill="#263238"/>
<path d="M185.335 103.293L185.25 105.473H192.649L192.564 103.293H185.335Z" fill="white"/>
<path d="M193.139 105.945H184.731L184.864 102.821H192.998L193.139 105.945ZM185.741 105.001H192.158L192.111 103.765H185.788L185.741 105.001Z" fill="#263238"/>
<path d="M186.147 83.1177L186.053 85.2881H191.837L191.752 83.1177H186.147Z" fill="white"/>
<path d="M192.328 85.76H185.562L185.694 82.6459H192.205L192.328 85.76ZM186.543 84.8163H191.337L191.29 83.5895H186.572L186.543 84.8163Z" fill="#263238"/>
<path d="M185.6 96.5648L185.515 98.7447H192.385L192.29 96.5648H185.6Z" fill="white"/>
<path d="M192.875 99.2165H185.024L185.147 96.093H192.743L192.875 99.2165ZM186.005 98.2729H191.894L191.837 97.0367H186.053L186.005 98.2729Z" fill="#263238"/>
<path d="M185.874 89.846L185.789 92.0164H192.111L192.026 89.846H185.874Z" fill="white"/>
<path d="M192.602 92.4883H185.298L185.421 89.3742H192.479L192.602 92.4883ZM186.279 91.5446H191.62L191.573 90.3179H186.326L186.279 91.5446Z" fill="#263238"/>
<path d="M138.36 120.156H119.072V161.3H138.36V120.156Z" fill="#263238"/>
<path d="M138.36 161.772H119.071C118.946 161.772 118.826 161.722 118.738 161.634C118.649 161.545 118.6 161.425 118.6 161.3V120.156C118.6 120.031 118.649 119.911 118.738 119.823C118.826 119.734 118.946 119.685 119.071 119.685H138.36C138.485 119.685 138.605 119.734 138.694 119.823C138.782 119.911 138.832 120.031 138.832 120.156V161.3C138.829 161.425 138.779 161.543 138.691 161.631C138.603 161.719 138.484 161.77 138.36 161.772ZM119.543 160.828H137.888V120.628H119.543V160.828Z" fill="#263238"/>
<path d="M137.492 114.664L147.938 120.77H145.928L135.557 115.58L137.492 114.664Z" fill="white"/>
<path d="M149.684 121.242H145.824L134.5 115.58L137.549 114.145L149.684 121.242ZM146.041 120.298H146.192L137.473 115.202L136.633 115.589L146.041 120.298Z" fill="#263238"/>
<path d="M146.843 161.3H127.555V120.156L137.491 114.664L146.843 120.156V161.3Z" fill="#4CAF4F"/>
<path d="M146.844 161.772H127.555C127.431 161.77 127.312 161.719 127.224 161.631C127.136 161.543 127.086 161.425 127.083 161.3V120.156C127.084 120.072 127.107 119.989 127.15 119.916C127.193 119.843 127.255 119.783 127.329 119.741L137.266 114.259C137.337 114.217 137.419 114.195 137.502 114.195C137.584 114.195 137.666 114.217 137.737 114.259L147.08 119.751C147.152 119.79 147.213 119.849 147.254 119.921C147.296 119.992 147.317 120.074 147.316 120.156V161.3C147.316 161.425 147.266 161.545 147.177 161.634C147.089 161.722 146.969 161.772 146.844 161.772ZM128.027 160.828H146.372V120.43L137.492 115.212L128.055 120.43L128.027 160.828Z" fill="#263238"/>
<path d="M117.581 121.044H126.074L137.492 114.664H128.895L117.581 121.044Z" fill="#8F8F8F"/>
<path d="M126.074 121.515H117.581C117.476 121.517 117.373 121.483 117.29 121.42C117.206 121.357 117.146 121.268 117.118 121.166C117.091 121.065 117.098 120.958 117.139 120.862C117.181 120.767 117.253 120.687 117.345 120.638L128.669 114.259C128.741 114.218 128.822 114.195 128.905 114.193H137.549C137.653 114.195 137.753 114.232 137.835 114.296C137.917 114.361 137.975 114.45 138.002 114.551C138.029 114.652 138.022 114.759 137.98 114.855C137.939 114.951 137.867 115.03 137.775 115.08L126.347 121.459C126.264 121.506 126.169 121.526 126.074 121.515ZM119.383 120.572H125.989L135.661 115.136H129.056L119.383 120.572Z" fill="#263238"/>
<path d="M138.983 118.231H135.869V121.053H138.983V118.231Z" fill="#263238"/>
<path d="M139.436 121.515H135.378V117.741H139.436V121.515ZM136.322 120.572H138.492V118.684H136.322V120.572Z" fill="#263238"/>
<path d="M192.998 126.545H130.641V161.291H192.998V126.545Z" fill="#263238"/>
<path d="M192.998 161.772H130.641C130.516 161.772 130.396 161.722 130.307 161.634C130.219 161.545 130.169 161.425 130.169 161.3V126.545C130.169 126.42 130.219 126.3 130.307 126.211C130.396 126.123 130.516 126.073 130.641 126.073H192.998C193.122 126.076 193.241 126.126 193.329 126.214C193.417 126.302 193.467 126.421 193.47 126.545V161.3C193.467 161.425 193.417 161.543 193.329 161.631C193.241 161.719 193.122 161.77 192.998 161.772ZM131.113 160.828H192.526V127.017H131.113V160.828Z" fill="#263238"/>
<path d="M224.101 126.545H158.083V161.291H224.101V126.545Z" fill="white"/>
<path d="M224.101 161.772H158.045C157.919 161.772 157.799 161.722 157.711 161.634C157.622 161.545 157.573 161.425 157.573 161.3V126.545C157.573 126.42 157.622 126.3 157.711 126.211C157.799 126.123 157.919 126.073 158.045 126.073H224.101C224.225 126.076 224.344 126.126 224.432 126.214C224.52 126.302 224.57 126.421 224.573 126.545V161.3C224.57 161.425 224.52 161.543 224.432 161.631C224.344 161.719 224.225 161.77 224.101 161.772ZM158.554 160.828H223.667V127.017H158.554V160.828Z" fill="#263238"/>
<path d="M177.409 139.86H166.528V161.291H177.409V139.86Z" fill="white"/>
<path d="M177.409 161.772H166.528C166.403 161.772 166.283 161.722 166.195 161.634C166.106 161.545 166.057 161.425 166.057 161.3V139.86C166.057 139.735 166.106 139.615 166.195 139.526C166.283 139.438 166.403 139.388 166.528 139.388H177.409C177.534 139.388 177.654 139.438 177.743 139.526C177.831 139.615 177.881 139.735 177.881 139.86V161.3C177.881 161.425 177.831 161.545 177.743 161.634C177.654 161.722 177.534 161.772 177.409 161.772ZM167.029 160.828H176.965V140.332H167L167.029 160.828Z" fill="#263238"/>
<path d="M175.625 139.86H166.528V161.291H175.625V139.86Z" fill="#263238"/>
<path d="M175.625 161.772H166.528C166.403 161.772 166.283 161.722 166.195 161.634C166.106 161.545 166.057 161.425 166.057 161.3V139.86C166.057 139.735 166.106 139.615 166.195 139.526C166.283 139.438 166.403 139.388 166.528 139.388H175.625C175.75 139.391 175.868 139.441 175.956 139.529C176.044 139.617 176.095 139.736 176.097 139.86V161.3C176.095 161.425 176.044 161.543 175.956 161.631C175.868 161.719 175.75 161.77 175.625 161.772ZM167 160.828H175.154V140.332H167V160.828Z" fill="#263238"/>
<path d="M196.895 139.86H186.015V161.291H196.895V139.86Z" fill="white"/>
<path d="M196.895 161.772H186.015C185.89 161.772 185.77 161.722 185.681 161.634C185.593 161.545 185.543 161.425 185.543 161.3V139.86C185.543 139.735 185.593 139.615 185.681 139.526C185.77 139.438 185.89 139.388 186.015 139.388H196.895C197.02 139.391 197.138 139.441 197.226 139.529C197.314 139.617 197.365 139.736 197.367 139.86V161.3C197.365 161.425 197.314 161.543 197.226 161.631C197.138 161.719 197.02 161.77 196.895 161.772ZM186.515 160.828H196.452V140.332H186.487L186.515 160.828Z" fill="#263238"/>
<path d="M195.112 139.86H186.015V161.291H195.112V139.86Z" fill="#263238"/>
<path d="M195.112 161.772H186.015C185.89 161.772 185.77 161.722 185.681 161.634C185.593 161.545 185.543 161.425 185.543 161.3V139.86C185.543 139.735 185.593 139.615 185.681 139.526C185.77 139.438 185.89 139.388 186.015 139.388H195.112C195.236 139.391 195.355 139.441 195.443 139.529C195.531 139.617 195.581 139.736 195.584 139.86V161.3C195.581 161.425 195.531 161.543 195.443 161.631C195.355 161.719 195.236 161.77 195.112 161.772ZM186.487 160.828H194.64V140.332H186.487V160.828Z" fill="#263238"/>
<path d="M216.382 139.86H205.502V161.291H216.382V139.86Z" fill="white"/>
<path d="M216.382 161.772H205.492C205.367 161.772 205.247 161.722 205.158 161.634C205.07 161.545 205.02 161.425 205.02 161.3V139.86C205.02 139.735 205.07 139.615 205.158 139.526C205.247 139.438 205.367 139.388 205.492 139.388H216.372C216.497 139.391 216.615 139.441 216.703 139.529C216.791 139.617 216.842 139.736 216.844 139.86V161.3C216.842 161.423 216.793 161.54 216.707 161.628C216.621 161.716 216.504 161.767 216.382 161.772ZM206.001 160.828H215.872V140.332H205.973L206.001 160.828Z" fill="#263238"/>
<path d="M214.599 139.86H205.502V161.291H214.599V139.86Z" fill="#263238"/>
<path d="M214.589 161.772H205.492C205.367 161.772 205.247 161.722 205.158 161.634C205.07 161.545 205.02 161.425 205.02 161.3V139.86C205.02 139.735 205.07 139.615 205.158 139.526C205.247 139.438 205.367 139.388 205.492 139.388H214.579C214.704 139.388 214.824 139.438 214.913 139.526C215.001 139.615 215.051 139.735 215.051 139.86V161.3C215.051 161.424 215.003 161.542 214.916 161.631C214.83 161.719 214.712 161.77 214.589 161.772ZM205.973 160.828H214.117V140.332H205.973V160.828Z" fill="#263238"/>
<path d="M139.077 130.527H133.141V135.972H139.077V130.527Z" fill="white"/>
<path d="M139.077 136.444H133.142C133.017 136.442 132.899 136.391 132.811 136.303C132.723 136.215 132.672 136.097 132.67 135.972V130.527C132.67 130.402 132.72 130.282 132.808 130.194C132.897 130.105 133.017 130.055 133.142 130.055H139.077C139.203 130.055 139.323 130.105 139.411 130.194C139.5 130.282 139.549 130.402 139.549 130.527V135.972C139.549 136.097 139.5 136.217 139.411 136.306C139.323 136.394 139.203 136.444 139.077 136.444ZM133.614 135.5H138.606V130.999H133.614V135.5Z" fill="#263238"/>
<path d="M147.108 130.527H141.172V135.972H147.108V130.527Z" fill="white"/>
<path d="M147.108 136.444H141.172C141.047 136.444 140.927 136.394 140.838 136.306C140.75 136.217 140.7 136.097 140.7 135.972V130.527C140.7 130.402 140.75 130.282 140.838 130.194C140.927 130.105 141.047 130.055 141.172 130.055H147.108C147.233 130.055 147.353 130.105 147.441 130.194C147.53 130.282 147.58 130.402 147.58 130.527V135.972C147.577 136.097 147.527 136.215 147.439 136.303C147.351 136.391 147.232 136.442 147.108 136.444ZM141.644 135.5H146.636V130.999H141.644V135.5Z" fill="#263238"/>
<path d="M155.129 130.527H149.193V135.972H155.129V130.527Z" fill="white"/>
<path d="M155.129 136.444H149.193C149.068 136.444 148.948 136.394 148.859 136.306C148.771 136.217 148.721 136.097 148.721 135.972V130.527C148.721 130.402 148.771 130.282 148.859 130.194C148.948 130.105 149.068 130.055 149.193 130.055H155.129C155.254 130.055 155.374 130.105 155.462 130.194C155.551 130.282 155.601 130.402 155.601 130.527V135.972C155.598 136.097 155.548 136.215 155.46 136.303C155.372 136.391 155.253 136.442 155.129 136.444ZM149.665 135.5H154.657V130.999H149.665V135.5Z" fill="#263238"/>
<path d="M176.267 130.527H167.406V135.972H176.267V130.527Z" fill="white"/>
<path d="M176.239 136.444H167.378C167.252 136.444 167.132 136.394 167.044 136.306C166.955 136.217 166.906 136.097 166.906 135.972V130.527C166.906 130.402 166.955 130.282 167.044 130.194C167.132 130.105 167.252 130.055 167.378 130.055H176.239C176.364 130.055 176.484 130.105 176.572 130.194C176.661 130.282 176.71 130.402 176.71 130.527V135.972C176.71 136.097 176.661 136.217 176.572 136.306C176.484 136.394 176.364 136.444 176.239 136.444ZM167.849 135.5H175.767V130.999H167.849V135.5Z" fill="#263238"/>
<path d="M175.757 130.527H166.896V135.972H175.757V130.527Z" fill="white"/>
<path d="M175.767 136.444H166.896C166.772 136.442 166.653 136.391 166.565 136.303C166.477 136.215 166.427 136.097 166.424 135.972V130.527C166.424 130.402 166.474 130.282 166.563 130.194C166.651 130.105 166.771 130.055 166.896 130.055H175.767C175.892 130.055 176.012 130.105 176.1 130.194C176.189 130.282 176.238 130.402 176.238 130.527V135.972C176.236 136.097 176.185 136.215 176.098 136.303C176.01 136.391 175.891 136.442 175.767 136.444ZM167.368 135.5H175.295V130.999H167.368V135.5Z" fill="#263238"/>
<path d="M195.735 130.527H186.874V135.972H195.735V130.527Z" fill="white"/>
<path d="M195.735 136.444H186.874C186.749 136.444 186.629 136.394 186.54 136.306C186.452 136.217 186.402 136.097 186.402 135.972V130.527C186.402 130.402 186.452 130.282 186.54 130.194C186.629 130.105 186.749 130.055 186.874 130.055H195.735C195.86 130.055 195.98 130.105 196.068 130.194C196.157 130.282 196.207 130.402 196.207 130.527V135.972C196.207 136.097 196.157 136.217 196.068 136.306C195.98 136.394 195.86 136.444 195.735 136.444ZM187.346 135.5H195.263V130.999H187.346V135.5Z" fill="#263238"/>
<path d="M195.225 130.527H186.364V135.972H195.225V130.527Z" fill="white"/>
<path d="M195.235 136.444H186.364C186.24 136.442 186.121 136.391 186.033 136.303C185.945 136.215 185.895 136.097 185.893 135.972V130.527C185.893 130.402 185.942 130.282 186.031 130.194C186.119 130.105 186.239 130.055 186.364 130.055H195.235C195.36 130.055 195.48 130.105 195.568 130.194C195.657 130.282 195.707 130.402 195.707 130.527V135.972C195.704 136.097 195.654 136.215 195.566 136.303C195.478 136.391 195.359 136.442 195.235 136.444ZM186.836 135.5H194.763V130.999H186.836V135.5Z" fill="#263238"/>
<path d="M215.202 130.527H206.341V135.972H215.202V130.527Z" fill="white"/>
<path d="M215.202 136.444H206.341C206.216 136.444 206.096 136.394 206.008 136.306C205.919 136.217 205.87 136.097 205.87 135.972V130.527C205.87 130.402 205.919 130.282 206.008 130.194C206.096 130.105 206.216 130.055 206.341 130.055H215.202C215.328 130.055 215.448 130.105 215.536 130.194C215.625 130.282 215.674 130.402 215.674 130.527V135.972C215.674 136.097 215.625 136.217 215.536 136.306C215.448 136.394 215.328 136.444 215.202 136.444ZM206.813 135.5H214.731V130.999H206.813V135.5Z" fill="#263238"/>
<path d="M214.693 130.527H205.832V135.972H214.693V130.527Z" fill="white"/>
<path d="M214.702 136.444H205.832C205.707 136.442 205.589 136.391 205.501 136.303C205.413 136.215 205.362 136.097 205.36 135.972V130.527C205.36 130.402 205.41 130.282 205.498 130.194C205.587 130.105 205.707 130.055 205.832 130.055H214.702C214.827 130.055 214.947 130.105 215.036 130.194C215.124 130.282 215.174 130.402 215.174 130.527V135.972C215.174 136.097 215.124 136.217 215.036 136.306C214.947 136.394 214.827 136.444 214.702 136.444ZM206.304 135.5H214.23V130.999H206.304V135.5Z" fill="#263238"/>
<path d="M129.772 135.906H121.874V140.483H129.772V135.906Z" fill="#4CAF4F"/>
<path d="M129.773 140.955H121.874C121.75 140.952 121.631 140.902 121.543 140.814C121.455 140.726 121.405 140.607 121.402 140.483V135.906C121.405 135.782 121.455 135.663 121.543 135.575C121.631 135.487 121.75 135.437 121.874 135.434H129.773C129.898 135.434 130.018 135.484 130.106 135.573C130.195 135.661 130.244 135.781 130.244 135.906V140.483C130.244 140.608 130.195 140.728 130.106 140.817C130.018 140.905 129.898 140.955 129.773 140.955ZM122.346 140.011H129.301V136.378H122.346V140.011Z" fill="#263238"/>
<path d="M132.264 135.906H124.365V140.483H132.264V135.906Z" fill="#4CAF4F"/>
<path d="M132.264 140.955H124.337C124.212 140.955 124.092 140.905 124.003 140.817C123.915 140.728 123.865 140.608 123.865 140.483V135.906C123.865 135.781 123.915 135.661 124.003 135.573C124.092 135.484 124.212 135.434 124.337 135.434H132.236C132.36 135.437 132.479 135.487 132.566 135.575C132.654 135.663 132.705 135.782 132.707 135.906V140.483C132.705 140.603 132.659 140.717 132.577 140.805C132.495 140.892 132.383 140.945 132.264 140.955ZM124.837 140.011H131.792V136.378H124.837V140.011Z" fill="#263238"/>
<path d="M139.426 138.482H119.958V161.3H139.426V138.482Z" fill="#263238"/>
<path d="M139.436 161.772H119.959C119.834 161.772 119.713 161.722 119.625 161.634C119.537 161.545 119.487 161.425 119.487 161.3V138.482C119.487 138.357 119.537 138.237 119.625 138.149C119.713 138.06 119.834 138.011 119.959 138.011H139.436C139.561 138.011 139.681 138.06 139.769 138.149C139.858 138.237 139.908 138.357 139.908 138.482V161.3C139.908 161.425 139.858 161.545 139.769 161.634C139.681 161.722 139.561 161.772 139.436 161.772ZM120.44 160.828H138.964V138.973H120.43L120.44 160.828Z" fill="#263238"/>
<path d="M153.874 138.482H134.406V161.3H153.874V138.482Z" fill="#4CAF4F"/>
<path d="M153.874 161.772H134.406C134.281 161.772 134.161 161.722 134.072 161.634C133.984 161.545 133.934 161.425 133.934 161.3V138.482C133.934 138.357 133.984 138.237 134.072 138.149C134.161 138.06 134.281 138.011 134.406 138.011H153.874C153.999 138.011 154.119 138.06 154.207 138.149C154.296 138.237 154.346 138.357 154.346 138.482V161.3C154.343 161.425 154.293 161.543 154.205 161.631C154.117 161.719 153.998 161.77 153.874 161.772ZM134.878 160.828H153.402V138.973H134.878V160.828Z" fill="#263238"/>
<path d="M146.758 152.92H141.521V161.291H146.758V152.92Z" fill="#263238"/>
<path d="M146.749 161.772H141.521C141.396 161.772 141.276 161.722 141.188 161.634C141.099 161.545 141.049 161.425 141.049 161.3V152.92C141.049 152.795 141.099 152.675 141.188 152.587C141.276 152.498 141.396 152.449 141.521 152.449H146.749C146.874 152.449 146.994 152.498 147.083 152.587C147.171 152.675 147.221 152.795 147.221 152.92V161.3C147.221 161.425 147.171 161.545 147.083 161.634C146.994 161.722 146.874 161.772 146.749 161.772ZM142.031 160.828H146.315V153.392H142.031V160.828Z" fill="#263238"/>
<path d="M132.518 141.2H129.282V156.695H132.518V141.2Z" fill="#4CAF4F"/>
<path d="M132.519 157.167H129.282C129.157 157.167 129.037 157.117 128.948 157.029C128.86 156.94 128.81 156.82 128.81 156.695V141.2C128.81 141.075 128.86 140.955 128.948 140.867C129.037 140.778 129.157 140.728 129.282 140.728H132.519C132.643 140.731 132.762 140.781 132.85 140.869C132.938 140.957 132.988 141.076 132.99 141.2V156.695C132.988 156.819 132.938 156.938 132.85 157.026C132.762 157.114 132.643 157.165 132.519 157.167ZM129.754 156.223H132.047V141.672H129.754V156.223Z" fill="#263238"/>
<path d="M128.376 141.2H125.139V156.695H128.376V141.2Z" fill="#4CAF4F"/>
<path d="M128.376 157.167H125.139C125.015 157.165 124.896 157.114 124.808 157.026C124.72 156.938 124.67 156.819 124.667 156.695V141.2C124.67 141.076 124.72 140.957 124.808 140.869C124.896 140.781 125.015 140.731 125.139 140.728H128.376C128.501 140.728 128.621 140.778 128.71 140.867C128.798 140.955 128.848 141.075 128.848 141.2V156.695C128.848 156.82 128.798 156.94 128.71 157.029C128.621 157.117 128.501 157.167 128.376 157.167ZM125.611 156.223H127.904V141.672H125.611V156.223Z" fill="#263238"/>
<path d="M124.243 141.2H121.006V156.695H124.243V141.2Z" fill="#4CAF4F"/>
<path d="M124.243 157.167H121.006C120.881 157.167 120.761 157.117 120.672 157.029C120.584 156.94 120.534 156.82 120.534 156.695V141.2C120.534 141.075 120.584 140.955 120.672 140.867C120.761 140.778 120.881 140.728 121.006 140.728H124.243C124.368 140.728 124.488 140.778 124.576 140.867C124.665 140.955 124.715 141.075 124.715 141.2V156.695C124.715 156.82 124.665 156.94 124.576 157.029C124.488 157.117 124.368 157.167 124.243 157.167ZM121.478 156.223H123.771V141.672H121.506L121.478 156.223Z" fill="#263238"/>
<path d="M164.915 130.093H160.253V161.159H164.915V130.093Z" fill="white"/>
<path d="M164.915 161.621H160.262C160.137 161.621 160.017 161.571 159.929 161.483C159.84 161.394 159.791 161.274 159.791 161.149V130.093C159.791 129.968 159.84 129.848 159.929 129.76C160.017 129.671 160.137 129.621 160.262 129.621H164.915C165.04 129.621 165.16 129.671 165.248 129.76C165.337 129.848 165.386 129.968 165.386 130.093V161.159C165.384 161.282 165.333 161.4 165.245 161.486C165.157 161.573 165.038 161.621 164.915 161.621ZM160.734 160.677H164.443V130.565H160.734V160.677Z" fill="#263238"/>
<path d="M165.651 130.093H160.989V161.159H165.651V130.093Z" fill="#4CAF4F"/>
<path d="M166.122 161.621H160.517V129.621H166.122V161.621ZM161.461 160.677H165.179V130.565H161.461V160.677Z" fill="#263238"/>
<path d="M183.92 130.093H179.258V161.159H183.92V130.093Z" fill="white"/>
<path d="M183.92 161.621H179.258C179.134 161.619 179.015 161.568 178.927 161.48C178.84 161.392 178.789 161.274 178.787 161.149V130.093C178.789 129.969 178.84 129.85 178.927 129.762C179.015 129.674 179.134 129.624 179.258 129.621H183.92C184.045 129.621 184.165 129.671 184.254 129.76C184.342 129.848 184.392 129.968 184.392 130.093V161.159C184.39 161.282 184.339 161.4 184.25 161.486C184.162 161.573 184.044 161.621 183.92 161.621ZM179.73 160.677H183.448V130.565H179.73V160.677Z" fill="#263238"/>
<path d="M184.656 130.093H179.995V161.159H184.656V130.093Z" fill="#4CAF4F"/>
<path d="M185.118 161.621H179.522V129.621H185.118V161.621ZM180.466 160.677H184.175V130.565H180.466V160.677Z" fill="#263238"/>
<path d="M203.378 130.093H198.716V161.159H203.378V130.093Z" fill="white"/>
<path d="M203.379 161.621H198.717C198.593 161.619 198.474 161.568 198.386 161.48C198.298 161.392 198.248 161.274 198.245 161.149V130.093C198.248 129.969 198.298 129.85 198.386 129.762C198.474 129.674 198.593 129.624 198.717 129.621H203.379C203.504 129.621 203.624 129.671 203.712 129.76C203.801 129.848 203.85 129.968 203.85 130.093V161.159C203.848 161.282 203.797 161.4 203.709 161.486C203.621 161.573 203.502 161.621 203.379 161.621ZM199.189 160.677H202.907V130.565H199.189V160.677Z" fill="#263238"/>
<path d="M204.114 130.093H199.453V161.159H204.114V130.093Z" fill="#4CAF4F"/>
<path d="M204.549 161.621H198.981V129.621H204.549V161.621ZM199.887 160.677H203.605V130.565H199.925L199.887 160.677Z" fill="#263238"/>
<path d="M222.865 130.093H218.203V161.159H222.865V130.093Z" fill="white"/>
<path d="M222.865 161.621H218.203C218.078 161.621 217.958 161.571 217.87 161.483C217.781 161.394 217.731 161.274 217.731 161.149V130.093C217.731 129.968 217.781 129.848 217.87 129.76C217.958 129.671 218.078 129.621 218.203 129.621H222.865C222.989 129.624 223.108 129.674 223.196 129.762C223.284 129.85 223.334 129.969 223.337 130.093V161.159C223.332 161.281 223.28 161.398 223.193 161.484C223.105 161.57 222.988 161.619 222.865 161.621ZM218.703 160.677H222.421V130.565H218.703V160.677Z" fill="#263238"/>
<path d="M223.601 130.093H218.939V161.159H223.601V130.093Z" fill="#4CAF4F"/>
<path d="M224.064 161.621H218.468V129.621H224.064V161.621ZM219.411 160.677H223.12V130.565H219.411V160.677Z" fill="#263238"/>
<path d="M176.871 418.439C208.86 418.439 234.793 416.09 234.793 413.192C234.793 410.294 208.86 407.945 176.871 407.945C144.881 407.945 118.949 410.294 118.949 413.192C118.949 416.09 144.881 418.439 176.871 418.439Z" fill="#E0E0E0"/>
<path d="M258.231 349.448C304.495 303.184 304.495 228.174 258.231 181.91C211.966 135.645 136.957 135.645 90.6925 181.91C44.4281 228.174 44.4281 303.184 90.6925 349.448C136.957 395.713 211.966 395.713 258.231 349.448Z" fill="#4CAF4F"/>
<path d="M154.978 214.24L167.198 215.938L171.586 219.93L176.993 220.392L179.032 225.365L178.012 228.885L174.474 230.801L165.424 229.933L165.113 228.848L169.142 225.62L165.867 220.421L157.799 219.854L153.298 216.486L154.978 214.24Z" fill="white"/>
<path d="M259.441 319.024L249.778 318.08L238.152 317.325L229.782 319.77L221.487 320.439L213.4 324.875L208.625 326.573L205.652 327.441L200.934 332.33L196.169 336.104L187.543 333.651L187.223 325.545L182.08 324.997L176.682 326.573L175.163 324.384L174.285 319.364L171.605 317.222L167.981 318.864L167.698 321.883L163.188 323.488L157.714 319.817L154.204 313.815L156.044 305.058L164.027 303.303L166.736 304.567L169.972 303.623L173.313 300.009L177.135 300.066L184.439 307.011L186.251 306.19L183.901 300.141L181.334 297.376L180.39 292.092L189.11 284.854L187.543 274.474L190.837 269.708L192.526 262.47L195.064 261.14L200.094 255.28L199.726 253.043L195.489 254.572L194.045 252.684L191.082 253.553L186.807 255.968L187.94 251.835L196.593 246.371L198.046 243.314L203.557 248.145L206.7 249.863L210.163 247.674L207.521 244.644L200.67 242.248L192.054 236.859L183.967 234.245L177.182 235.057L172.992 232.764L168.359 232.952L168.132 234.189L169.888 242.172L171.775 244.55L171.869 253.902L165.207 251.156L164.914 247.145L158.46 246.107L155.157 243.842L154.534 236.642L160.706 228.687L159.356 222.082L156.459 223.214L153.864 221.327L151.873 217.552L149.901 217.826L150.089 222.459L147.258 223.874L143.144 214.825L140.587 214.098L136.34 213.589L132.651 217.014L139.549 220.562L141.974 224.828L130.122 220.383L121.251 215.07L118.562 207.86L110.909 207.747L106.539 212.834C105.463 214.012 104.323 215.13 103.123 216.184C101.934 217.127 96.9612 219.156 96.9612 219.156L97.2255 224.054L91.1011 226.139L92.5071 228.97L102.963 227.677L109.748 231.848L112.513 241.285L111.984 250.514L115.127 259.262L111.446 274.7L115.58 294.866L121.327 305.492L127.357 313.098L131.565 312.456L128.951 308.54L125.847 305.926L122.761 300.387L125.035 299.132L131.641 307.747L136.869 315.589L138.916 322.61L145.862 327.328L157.007 331.386L172.105 331.065L177.607 333.849L182.108 337.218L187.836 338.765L194.243 338.652L200.104 336.642C200.104 336.642 200.623 339.426 201.047 340.775C201.472 342.125 199 347.815 199 347.815L197.631 354.128L201.529 359.432L208.134 360.121L219.024 366.311L223.28 366.83L224.46 370.878L225.488 372.624C245.523 363.089 262.466 348.104 274.379 329.385L273.945 327.394L277.361 312.041L273.143 310.635L259.441 319.024Z" fill="white"/>
<path d="M256.337 204.227L251.864 199.962L246.353 195.13L242.908 187.355L248.004 186.741L247.485 183.967L243.89 184.722L246.466 182.504L249.155 179.673L248.363 176.974L243.861 173.605L241.474 168C220.177 153.4 194.694 146.153 168.901 147.36C143.108 148.568 118.415 158.164 98.5749 174.691L106.124 177.276L103.765 183.24L98.9523 185.816L100.547 193.262L98.6598 194.706L96.8291 198.48L98.5277 203.265L103.246 202.463L102.699 207.596L107.294 206.256L112.192 193.989L111.739 189.44L119.137 186.694L120.081 182.919L127.63 179.824L127.102 174.993L132.688 173.105C132.688 173.105 136.104 169.765 136.916 169.529C138.575 169.408 140.24 169.408 141.898 169.529L146.89 171.577L152.552 169.925L156.544 165.537L162.904 164.263C163.967 164.595 165.093 164.666 166.188 164.471C167.538 164.074 171.029 161.008 171.029 161.008L180.277 163.574L184.231 165.056L185.411 169.104L189.62 168.453L190.261 165.622L194.234 166.217L194.602 168.453L187.138 172.983L193.46 177.578L204.784 180.136L210.446 184.344L216.542 183.146L217.099 180.06L219.1 178.89L210.503 175.54L206.03 176.267L209.219 174.162L204.548 170.444L209.059 168.831L215.938 170.331L219.184 176.418L223.176 179.06L227.894 186.175L235.095 188.751L237.699 197.659L245.088 199.887L245.683 202.935L245.9 206.709L248.948 211.097L250.193 213.362L255.015 212.834L255.836 207.615L256.337 204.227Z" fill="white"/>
<path d="M251.892 176.012L252.345 177.559L252.26 182.278L254.147 185.817L257.431 186.024L258.932 191.158L255.299 190.752L258.743 205.558L257.243 212.447L261.612 219.373L266.066 221.581L270.36 236.17L277.211 246.466L283.514 254.015L290.195 253.817L290.771 247.787L291.45 246.843C290.653 241.965 289.556 237.14 288.166 232.396C281.783 210.488 269.183 190.902 251.892 176.012Z" fill="white"/>
<path d="M181.655 312.475L180.891 313.872L189.695 313.928L194.045 316.759L199.33 315.806L200.349 312.286L193.828 313.022L181.655 312.475Z" fill="white"/>
<path d="M207.172 310.578L201.981 313.853L203.416 315.778L210.437 313.73L211.154 311.173L208.804 312.154L207.172 310.578Z" fill="white"/>
<path opacity="0.19" d="M262.603 335.34C239.222 342.174 214.303 341.634 191.241 333.794C168.178 325.955 148.093 311.197 133.72 291.531C119.347 271.864 111.386 248.245 110.922 223.891C110.457 199.537 117.51 175.631 131.122 155.431C113.84 162.222 98.3968 172.981 86.0382 186.839C73.6796 200.697 64.7519 217.266 59.9755 235.21C55.1991 253.153 54.7077 271.968 58.5411 290.137C62.3745 308.305 70.4252 325.318 82.0436 339.802C93.662 354.286 108.523 365.836 125.427 373.52C142.33 381.204 160.804 384.807 179.356 384.038C197.909 383.268 216.02 378.148 232.23 369.091C248.439 360.033 262.292 347.292 272.671 331.896C269.416 333.17 266.047 334.311 262.603 335.34Z" fill="black"/>
<path d="M174.426 378.305C168.889 378.307 163.36 377.897 157.884 377.078C157.759 377.061 157.646 376.994 157.57 376.893C157.494 376.792 157.461 376.665 157.478 376.54C157.496 376.415 157.562 376.302 157.663 376.226C157.764 376.15 157.891 376.117 158.016 376.134C164.421 377.093 170.897 377.488 177.371 377.314C177.495 377.314 177.615 377.362 177.704 377.448C177.794 377.535 177.847 377.652 177.852 377.776C177.853 377.838 177.842 377.9 177.82 377.958C177.797 378.015 177.763 378.068 177.72 378.113C177.677 378.158 177.626 378.193 177.569 378.218C177.513 378.243 177.451 378.257 177.39 378.258C176.408 378.295 175.417 378.305 174.426 378.305Z" fill="#263238"/>
<path d="M153.166 376.257H153.071C149.712 375.597 146.343 374.785 143.05 373.823C142.93 373.787 142.828 373.706 142.768 373.596C142.708 373.487 142.694 373.358 142.729 373.237C142.766 373.119 142.848 373.019 142.957 372.959C143.066 372.899 143.194 372.884 143.314 372.917C146.579 373.86 149.92 374.681 153.251 375.323C153.374 375.348 153.482 375.42 153.553 375.524C153.623 375.629 153.65 375.756 153.628 375.88C153.606 375.986 153.548 376.082 153.464 376.151C153.38 376.22 153.275 376.257 153.166 376.257Z" fill="#263238"/>
<path d="M139.029 372.539C138.98 372.548 138.928 372.548 138.878 372.539C112.583 363.771 90.4413 345.618 76.6881 321.552C62.9348 297.485 58.5347 269.194 64.3291 242.087C64.3583 241.966 64.4338 241.86 64.5395 241.793C64.6452 241.726 64.7728 241.703 64.8953 241.729C64.9558 241.741 65.0132 241.765 65.0641 241.8C65.1151 241.835 65.1586 241.879 65.192 241.931C65.2254 241.983 65.2481 242.041 65.2587 242.102C65.2694 242.163 65.2677 242.225 65.2539 242.285C59.506 269.164 63.8675 297.218 77.5043 321.083C91.1411 344.947 113.096 362.948 139.171 371.643C139.296 371.663 139.408 371.732 139.483 371.834C139.557 371.937 139.587 372.065 139.567 372.19C139.547 372.315 139.478 372.427 139.376 372.502C139.273 372.576 139.145 372.606 139.02 372.586L139.029 372.539Z" fill="#263238"/>
<path d="M68.661 229.055C68.608 229.065 68.5536 229.065 68.5006 229.055C68.3828 229.012 68.2864 228.925 68.2317 228.813C68.1771 228.7 68.1686 228.57 68.2081 228.451C70.6144 221.613 73.6701 215.022 77.3333 208.766C77.3963 208.659 77.4991 208.581 77.6192 208.55C77.7394 208.518 77.8672 208.535 77.975 208.597C78.0828 208.661 78.1609 208.766 78.1926 208.888C78.2244 209.009 78.2072 209.138 78.1449 209.248C74.514 215.448 71.4867 221.983 69.1046 228.763C69.0665 228.849 69.0045 228.922 68.9258 228.974C68.8472 229.026 68.7552 229.054 68.661 229.055Z" fill="#263238"/>
<path d="M174.512 384.627C144.418 384.653 115.432 373.274 93.3936 352.782C71.3546 332.29 57.8998 304.208 55.7393 274.192C53.5788 244.176 62.8731 214.456 81.7501 191.019C100.627 167.582 127.684 152.169 157.471 147.885C187.259 143.601 217.563 150.764 242.28 167.931C266.997 185.098 284.29 210.993 290.676 240.402C297.063 269.81 292.068 300.546 276.697 326.418C261.327 352.291 236.723 371.377 207.842 379.834C197.015 383.002 185.793 384.616 174.512 384.627ZM174.625 147.636C149.843 147.594 125.677 155.353 105.552 169.815C85.4272 184.276 70.365 204.705 62.5008 228.206C54.6366 251.707 54.3694 277.087 61.7372 300.749C69.1049 324.41 83.7337 345.152 103.55 360.033C123.366 374.915 147.363 383.182 172.14 383.662C196.918 384.141 221.217 376.809 241.594 362.706C261.971 348.602 277.392 328.442 285.669 305.083C293.947 281.725 294.662 256.353 287.714 232.566C280.543 208.107 265.657 186.622 245.277 171.316C224.896 156.01 200.113 147.704 174.625 147.636Z" fill="#263238"/>
<path d="M156.61 299.66C156.686 305.322 153.421 310.04 149.316 310.04C145.211 310.04 141.823 305.511 141.766 299.811C141.71 294.111 144.965 289.431 149.07 289.431C153.175 289.431 156.544 293.951 156.61 299.66Z" fill="#263238"/>
<path d="M153.591 294.913C153.883 297.112 153.053 299.047 151.703 299.226C150.354 299.405 149.07 297.763 148.768 295.555C148.467 293.347 149.306 291.422 150.656 291.243C152.005 291.063 153.326 292.705 153.591 294.913Z" fill="white"/>
<path d="M207.634 298.509C207.71 304.218 204.445 308.889 200.34 308.936C196.235 308.983 192.847 304.407 192.79 298.707C192.734 293.007 195.98 288.327 200.085 288.327C204.19 288.327 207.559 292.79 207.634 298.509Z" fill="#263238"/>
<path d="M204.36 293.187C204.652 295.395 203.822 297.32 202.472 297.499C201.123 297.678 199.839 296.036 199.538 293.838C199.236 291.639 200.075 289.704 201.425 289.525C202.774 289.346 204.058 290.988 204.36 293.187Z" fill="white"/>
<path d="M204.303 348.287C203.973 348.286 203.653 348.169 203.4 347.957C203.146 347.745 202.975 347.451 202.916 347.126C200.5 334.113 189.393 324.544 176.493 324.384H176.144C170.091 324.428 164.223 326.477 159.459 330.212C154.695 333.946 151.304 339.155 149.816 345.022C149.768 345.202 149.685 345.37 149.573 345.518C149.46 345.666 149.319 345.79 149.158 345.883C148.997 345.976 148.82 346.037 148.635 346.062C148.451 346.086 148.264 346.075 148.084 346.027C147.904 345.979 147.736 345.897 147.588 345.784C147.44 345.671 147.316 345.53 147.223 345.369C147.13 345.208 147.069 345.031 147.044 344.847C147.02 344.662 147.031 344.475 147.079 344.295C148.725 337.827 152.466 332.087 157.72 327.97C162.973 323.854 169.442 321.594 176.116 321.544H176.503C190.733 321.723 203.001 332.264 205.662 346.598C205.696 346.781 205.694 346.968 205.655 347.15C205.617 347.332 205.543 347.505 205.438 347.658C205.333 347.812 205.198 347.943 205.042 348.044C204.887 348.145 204.712 348.215 204.529 348.249L204.303 348.287Z" fill="#263238"/>
<path d="M131.348 291.035C130.347 291.101 129.361 290.767 128.606 290.106C127.851 289.445 127.39 288.511 127.324 287.51C127.257 286.509 127.591 285.523 128.252 284.768C128.913 284.013 129.847 283.552 130.848 283.486C131.056 283.486 151.156 280.655 163.207 271.548C163.602 271.249 164.052 271.031 164.532 270.905C165.012 270.78 165.511 270.751 166.003 270.819C166.494 270.886 166.967 271.05 167.394 271.301C167.822 271.552 168.196 271.884 168.496 272.28C168.795 272.675 169.014 273.125 169.139 273.605C169.264 274.085 169.293 274.585 169.226 275.076C169.158 275.567 168.994 276.04 168.743 276.468C168.492 276.895 168.16 277.27 167.764 277.569C154.11 287.902 132.755 290.846 131.849 290.969L131.348 291.035Z" fill="#263238"/>
<path d="M217.571 295.621C217.203 295.623 216.837 295.569 216.486 295.461C198.471 290.054 181.221 277.475 180.494 276.946C179.687 276.353 179.149 275.463 178.997 274.473C178.846 273.483 179.094 272.473 179.688 271.666C180.281 270.859 181.17 270.321 182.16 270.169C183.15 270.018 184.16 270.266 184.967 270.859C185.128 270.982 201.953 283.212 218.656 288.232C219.523 288.493 220.267 289.058 220.753 289.822C221.239 290.586 221.434 291.499 221.302 292.395C221.17 293.291 220.721 294.11 220.036 294.702C219.351 295.294 218.476 295.62 217.571 295.621Z" fill="#263238"/>
<path d="M256.072 264.641C256.072 266.902 255.173 269.071 253.574 270.669C251.975 272.268 249.807 273.167 247.546 273.167C245.284 273.167 243.116 272.268 241.517 270.669C239.918 269.071 239.02 266.902 239.02 264.641C239.02 259.734 247.513 245.031 247.513 245.031C247.513 245.031 256.072 259.762 256.072 264.641Z" fill="white"/>
<path d="M247.541 274.011C245.107 273.957 242.794 272.94 241.109 271.184C239.423 269.427 238.502 267.075 238.548 264.641C238.548 259.658 246.786 245.399 247.135 244.824L247.541 244.116L247.956 244.824C248.305 245.428 256.544 259.686 256.544 264.641C256.587 267.075 255.664 269.428 253.977 271.184C252.29 272.94 249.976 273.957 247.541 274.011ZM247.541 245.984C245.852 248.976 239.492 260.526 239.492 264.641C239.455 265.722 239.636 266.799 240.024 267.808C240.412 268.818 240.999 269.739 241.751 270.517C242.502 271.294 243.403 271.913 244.398 272.335C245.394 272.758 246.464 272.975 247.546 272.975C248.627 272.975 249.698 272.758 250.693 272.335C251.689 271.913 252.589 271.294 253.341 270.517C254.093 269.739 254.68 268.818 255.068 267.808C255.456 266.799 255.637 265.722 255.6 264.641C255.6 260.526 249.24 248.976 247.541 245.984Z" fill="#263238"/>
<path d="M269.169 283.354C269.201 284.133 269.074 284.912 268.798 285.642C268.521 286.371 268.1 287.038 267.559 287.601C267.018 288.164 266.369 288.612 265.651 288.918C264.933 289.224 264.161 289.381 263.38 289.381C262.599 289.381 261.827 289.224 261.109 288.918C260.391 288.612 259.742 288.164 259.201 287.601C258.66 287.038 258.239 286.371 257.962 285.642C257.686 284.912 257.559 284.133 257.591 283.354C257.591 280.022 263.375 270.038 263.375 270.038C263.375 270.038 269.169 280.004 269.169 283.354Z" fill="white"/>
<path d="M263.376 289.846C261.684 289.809 260.075 289.103 258.903 287.882C257.73 286.662 257.089 285.027 257.119 283.335C257.119 279.909 262.781 270.189 262.97 269.784L263.376 269.076L263.791 269.784C264.027 270.189 269.642 279.909 269.642 283.335C269.669 285.028 269.026 286.663 267.852 287.883C266.678 289.103 265.069 289.809 263.376 289.846ZM263.376 270.973C262.073 273.304 258.063 280.664 258.063 283.335C258.062 284.034 258.198 284.727 258.465 285.374C258.731 286.021 259.123 286.609 259.616 287.104C260.11 287.6 260.697 287.993 261.343 288.262C261.988 288.531 262.681 288.67 263.38 288.671C264.08 288.672 264.773 288.536 265.42 288.269C266.066 288.003 266.654 287.611 267.15 287.118C267.645 286.624 268.039 286.037 268.308 285.391C268.577 284.746 268.716 284.053 268.717 283.354C268.717 280.664 264.687 273.304 263.376 270.973Z" fill="#263238"/>
<path d="M116.165 322.921C116.196 323.701 116.07 324.48 115.793 325.209C115.517 325.939 115.095 326.606 114.555 327.169C114.014 327.732 113.365 328.18 112.647 328.486C111.929 328.792 111.156 328.949 110.376 328.949C109.595 328.949 108.823 328.792 108.104 328.486C107.386 328.18 106.737 327.732 106.197 327.169C105.656 326.606 105.235 325.939 104.958 325.209C104.681 324.48 104.555 323.701 104.586 322.921C104.586 319.59 110.371 309.606 110.371 309.606C110.371 309.606 116.165 319.59 116.165 322.921Z" fill="white"/>
<path d="M110.37 329.433C108.678 329.398 107.068 328.693 105.895 327.472C104.722 326.251 104.081 324.614 104.114 322.921C104.114 319.505 109.776 309.786 109.965 309.37L110.37 308.672L110.776 309.37C111.022 309.786 116.636 319.505 116.636 322.921C116.667 324.615 116.024 326.252 114.85 327.472C113.675 328.693 112.064 329.398 110.37 329.433ZM110.37 310.559C109.059 312.9 105.058 320.26 105.058 322.921C105.027 323.639 105.143 324.354 105.396 325.026C105.65 325.697 106.037 326.311 106.533 326.829C107.03 327.347 107.627 327.759 108.287 328.041C108.947 328.323 109.657 328.468 110.375 328.468C111.093 328.468 111.803 328.323 112.464 328.041C113.124 327.759 113.72 327.347 114.217 326.829C114.714 326.311 115.101 325.697 115.354 325.026C115.608 324.354 115.723 323.639 115.693 322.921C115.693 320.26 111.682 312.9 110.37 310.559Z" fill="#263238"/>
<path d="M207.776 216.873C207.807 217.652 207.681 218.431 207.404 219.161C207.127 219.89 206.706 220.557 206.165 221.12C205.625 221.683 204.976 222.131 204.258 222.437C203.54 222.743 202.767 222.9 201.986 222.9C201.206 222.9 200.433 222.743 199.715 222.437C198.997 222.131 198.348 221.683 197.808 221.12C197.267 220.557 196.846 219.89 196.569 219.161C196.292 218.431 196.166 217.652 196.197 216.873C196.197 213.532 201.982 203.557 201.982 203.557C201.982 203.557 207.776 213.523 207.776 216.873Z" fill="white"/>
<path d="M201.982 223.384C200.29 223.347 198.681 222.641 197.509 221.42C196.336 220.2 195.695 218.565 195.725 216.873C195.725 213.447 201.387 203.727 201.576 203.312L201.982 202.614L202.397 203.312C202.633 203.727 208.248 213.447 208.248 216.873C208.275 218.566 207.632 220.201 206.458 221.421C205.284 222.641 203.674 223.347 201.982 223.384ZM201.982 204.511C200.679 206.841 196.669 214.202 196.669 216.873C196.639 217.59 196.754 218.306 197.007 218.977C197.261 219.649 197.648 220.262 198.145 220.78C198.641 221.298 199.238 221.71 199.898 221.992C200.558 222.274 201.269 222.419 201.986 222.419C202.704 222.419 203.415 222.274 204.075 221.992C204.735 221.71 205.331 221.298 205.828 220.78C206.325 220.262 206.712 219.649 206.965 218.977C207.219 218.306 207.334 217.59 207.304 216.873C207.304 214.202 203.293 206.841 201.982 204.511Z" fill="#263238"/>
<path d="M141.908 204.492C141.94 205.272 141.813 206.05 141.536 206.78C141.26 207.51 140.838 208.176 140.298 208.739C139.757 209.302 139.108 209.75 138.39 210.056C137.672 210.362 136.899 210.52 136.119 210.52C135.338 210.52 134.566 210.362 133.848 210.056C133.129 209.75 132.481 209.302 131.94 208.739C131.399 208.176 130.978 207.51 130.701 206.78C130.424 206.05 130.298 205.272 130.329 204.492C130.329 201.151 136.124 191.177 136.124 191.177C136.124 191.177 141.908 201.151 141.908 204.492Z" fill="white"/>
<path d="M136.123 211.003C134.43 210.966 132.821 210.26 131.647 209.04C130.473 207.82 129.829 206.185 129.857 204.492C129.857 201.066 135.519 191.346 135.708 190.931L136.123 190.233L136.529 190.931C136.765 191.346 142.38 201.066 142.38 204.492C142.41 206.184 141.769 207.819 140.596 209.039C139.424 210.26 137.815 210.966 136.123 211.003ZM136.123 192.13C134.812 194.461 130.801 201.821 130.801 204.492C130.771 205.209 130.886 205.925 131.14 206.596C131.393 207.268 131.78 207.881 132.277 208.399C132.773 208.917 133.37 209.329 134.03 209.611C134.69 209.893 135.401 210.038 136.119 210.038C136.836 210.038 137.547 209.893 138.207 209.611C138.867 209.329 139.464 208.917 139.96 208.399C140.457 207.881 140.844 207.268 141.097 206.596C141.351 205.925 141.466 205.209 141.436 204.492C141.436 201.821 137.425 194.461 136.123 192.13Z" fill="#263238"/>
<path d="M185.732 395.583C185.763 396.363 185.637 397.142 185.36 397.872C185.083 398.601 184.662 399.268 184.121 399.831C183.581 400.394 182.932 400.842 182.214 401.148C181.496 401.454 180.723 401.611 179.943 401.611C179.162 401.611 178.389 401.454 177.671 401.148C176.953 400.842 176.304 400.394 175.764 399.831C175.223 399.268 174.802 398.601 174.525 397.872C174.248 397.142 174.122 396.363 174.153 395.583C174.153 392.252 179.947 382.268 179.947 382.268C179.947 382.268 185.732 392.252 185.732 395.583Z" fill="white"/>
<path d="M179.947 402.095C178.253 402.06 176.643 401.355 175.468 400.134C174.293 398.914 173.651 397.277 173.681 395.583C173.681 392.167 179.296 382.448 179.532 382.032L179.947 381.334L180.353 382.032C180.589 382.448 186.204 392.167 186.204 395.583C186.234 397.276 185.593 398.911 184.42 400.131C183.247 401.352 181.639 402.058 179.947 402.095ZM179.947 383.221C178.635 385.562 174.625 392.922 174.625 395.583C174.595 396.301 174.71 397.017 174.963 397.688C175.217 398.36 175.604 398.973 176.101 399.491C176.597 400.009 177.194 400.421 177.854 400.703C178.514 400.985 179.225 401.13 179.942 401.13C180.66 401.13 181.371 400.985 182.031 400.703C182.691 400.421 183.287 400.009 183.784 399.491C184.281 398.973 184.668 398.36 184.921 397.688C185.175 397.017 185.29 396.301 185.26 395.583C185.26 392.922 181.249 385.562 179.947 383.221Z" fill="#263238"/>
<path d="M118.553 261.168C118.584 261.948 118.458 262.726 118.181 263.456C117.904 264.186 117.483 264.852 116.942 265.415C116.402 265.978 115.753 266.426 115.035 266.732C114.316 267.038 113.544 267.196 112.763 267.196C111.983 267.196 111.21 267.038 110.492 266.732C109.774 266.426 109.125 265.978 108.584 265.415C108.044 264.852 107.622 264.186 107.346 263.456C107.069 262.726 106.942 261.948 106.974 261.168C106.974 257.828 112.759 247.844 112.759 247.844C112.759 247.844 118.553 257.875 118.553 261.168Z" fill="white"/>
<path d="M112.758 267.67C111.067 267.635 109.459 266.931 108.286 265.712C107.113 264.494 106.471 262.859 106.502 261.168C106.502 257.743 112.163 248.023 112.352 247.608L112.758 246.909L113.164 247.608C113.409 248.023 119.024 257.743 119.024 261.168C119.052 262.86 118.408 264.494 117.234 265.713C116.059 266.932 114.45 267.635 112.758 267.67ZM112.758 248.797C111.446 251.128 107.445 258.488 107.445 261.159C107.415 261.876 107.53 262.592 107.784 263.263C108.037 263.935 108.424 264.548 108.921 265.066C109.418 265.584 110.014 265.996 110.674 266.278C111.335 266.56 112.045 266.705 112.763 266.705C113.481 266.705 114.191 266.56 114.851 266.278C115.511 265.996 116.108 265.584 116.605 265.066C117.101 264.548 117.488 263.935 117.742 263.263C117.995 262.592 118.11 261.876 118.08 261.159C118.08 258.498 114.07 251.137 112.758 248.806V248.797Z" fill="#263238"/>
<path d="M43.7293 319.392V220.458C43.7293 218.005 42.7553 215.652 41.0212 213.916C39.2872 212.18 36.935 211.204 34.4814 211.201C32.0279 211.204 29.6756 212.18 27.9416 213.916C26.2076 215.652 25.2335 218.005 25.2335 220.458V318.826C21.6646 320.753 18.8305 323.802 17.1701 327.503C15.5097 331.203 15.1157 335.348 16.0492 339.295C16.9826 343.242 19.1913 346.771 22.3333 349.336C25.4753 351.901 29.3752 353.358 33.4292 353.482C37.4832 353.606 41.4649 352.39 44.7579 350.022C48.0509 347.655 50.4714 344.267 51.6445 340.385C52.8176 336.502 52.6778 332.341 51.2469 328.546C49.816 324.751 47.1737 321.534 43.7293 319.392Z" fill="white"/>
<path d="M34.0376 353.921C33.3 353.917 32.563 353.876 31.8295 353.798C27.8525 353.354 24.1198 351.656 21.1704 348.952C18.221 346.247 16.2076 342.675 15.421 338.752C14.6344 334.828 15.1152 330.756 16.7942 327.123C18.4731 323.491 21.2632 320.486 24.7614 318.543V220.458C24.7614 217.881 25.7855 215.408 27.6083 213.586C29.4311 211.763 31.9033 210.739 34.4812 210.739C37.059 210.739 39.5312 211.763 41.3541 213.586C43.1769 215.408 44.2009 217.881 44.2009 220.458V319.137C47.6437 321.334 50.281 324.588 51.7169 328.412C53.1528 332.235 53.3099 336.421 52.1645 340.341C51.0191 344.261 48.6331 347.703 45.3646 350.152C42.0961 352.601 38.1216 353.923 34.0376 353.921ZM34.4812 211.635C32.1535 211.64 29.9228 212.568 28.2777 214.214C26.6327 215.861 25.7076 218.093 25.7051 220.421V319.1L25.4597 319.241C21.993 321.117 19.2411 324.083 17.6299 327.681C16.0186 331.278 15.6378 335.307 16.5464 339.142C17.4549 342.978 19.6022 346.407 22.6559 348.9C25.7097 351.392 29.4997 352.809 33.4396 352.931C37.3796 353.053 41.2498 351.872 44.4516 349.573C47.6534 347.274 50.0082 343.984 51.1517 340.211C52.2953 336.439 52.1638 332.395 50.7777 328.705C49.3916 325.015 46.828 321.884 43.4837 319.798L43.2572 319.656V220.458C43.261 219.303 43.0368 218.158 42.5977 217.088C42.1586 216.019 41.513 215.047 40.6979 214.228C39.8829 213.408 38.9143 212.758 37.8476 212.313C36.7809 211.868 35.6369 211.638 34.4812 211.635Z" fill="#263238"/>
<path d="M37.8315 321.279V241.908H31.1314V321.034C27.6968 321.729 24.6364 323.661 22.5304 326.462C20.4243 329.262 19.4188 332.739 19.7044 336.231C19.9899 339.724 21.5468 342.991 24.0798 345.412C26.6129 347.834 29.9462 349.242 33.4483 349.371C36.9503 349.499 40.3777 348.338 43.0811 346.108C45.7845 343.878 47.5761 340.734 48.1164 337.272C48.6566 333.809 47.9081 330.269 46.0125 327.321C44.1169 324.374 41.2061 322.224 37.8315 321.279Z" fill="#4CAF4F"/>
<path d="M34.0095 349.769C30.3907 349.767 26.8988 348.435 24.1981 346.027C21.4974 343.618 19.7765 340.3 19.3628 336.705C18.9492 333.11 19.8715 329.489 21.9545 326.529C24.0375 323.57 27.1357 321.48 30.6595 320.657V241.436H38.3032V320.93C41.6812 321.961 44.5768 324.17 46.4631 327.156C48.3493 330.142 49.1008 333.706 48.5807 337.199C48.0606 340.693 46.3035 343.883 43.6292 346.19C40.955 348.497 37.5413 349.767 34.0095 349.769ZM31.6032 242.38V321.421L31.2257 321.497C27.9072 322.17 24.951 324.038 22.9172 326.745C20.8834 329.452 19.9132 332.812 20.1904 336.187C20.4677 339.561 21.9731 342.717 24.4214 345.057C26.8698 347.396 30.0911 348.756 33.475 348.879C36.859 349.002 40.1706 347.88 42.7825 345.725C45.3944 343.57 47.1252 340.532 47.647 337.186C48.1688 333.84 47.4453 330.419 45.6137 327.571C43.782 324.723 40.9694 322.646 37.7087 321.732L37.3595 321.638V242.37L31.6032 242.38Z" fill="#263238"/>
<path d="M28.2345 333.575C30.4287 333.575 32.2074 331.797 32.2074 329.603C32.2074 327.408 30.4287 325.63 28.2345 325.63C26.0404 325.63 24.2617 327.408 24.2617 329.603C24.2617 331.797 26.0404 333.575 28.2345 333.575Z" fill="white"/>
<path d="M32.9244 231.452H27.8664C27.742 231.45 27.6234 231.399 27.5354 231.311C27.4474 231.223 27.3969 231.105 27.3945 230.98C27.3945 230.855 27.4442 230.735 27.5327 230.647C27.6212 230.558 27.7412 230.508 27.8664 230.508H32.9244C33.0495 230.508 33.1695 230.558 33.258 230.647C33.3465 230.735 33.3962 230.855 33.3962 230.98C33.3962 231.105 33.3465 231.225 33.258 231.314C33.1695 231.402 33.0495 231.452 32.9244 231.452Z" fill="#263238"/>
<path d="M32.9244 239.001H27.8664C27.7412 239.001 27.6212 238.952 27.5327 238.863C27.4442 238.775 27.3945 238.655 27.3945 238.53C27.3969 238.405 27.4474 238.287 27.5354 238.199C27.6234 238.111 27.742 238.06 27.8664 238.058H32.9244C33.0495 238.058 33.1695 238.108 33.258 238.196C33.3465 238.284 33.3962 238.404 33.3962 238.53C33.3962 238.655 33.3465 238.775 33.258 238.863C33.1695 238.952 33.0495 239.001 32.9244 239.001Z" fill="#263238"/>
<path d="M32.9244 246.626H27.8664C27.7412 246.626 27.6212 246.577 27.5327 246.488C27.4442 246.4 27.3945 246.28 27.3945 246.154C27.3969 246.03 27.4474 245.911 27.5354 245.823C27.6234 245.735 27.742 245.685 27.8664 245.683H32.9244C33.0495 245.683 33.1695 245.732 33.258 245.821C33.3465 245.909 33.3962 246.029 33.3962 246.154C33.3962 246.28 33.3465 246.4 33.258 246.488C33.1695 246.577 33.0495 246.626 32.9244 246.626Z" fill="#263238"/>
<path d="M32.9244 254.213H27.8664C27.7412 254.213 27.6212 254.164 27.5327 254.075C27.4442 253.987 27.3945 253.867 27.3945 253.741C27.3969 253.617 27.4474 253.499 27.5354 253.411C27.6234 253.323 27.742 253.272 27.8664 253.27H32.9244C33.0495 253.27 33.1695 253.319 33.258 253.408C33.3465 253.496 33.3962 253.616 33.3962 253.741C33.3962 253.867 33.3465 253.987 33.258 254.075C33.1695 254.164 33.0495 254.213 32.9244 254.213Z" fill="#263238"/>
<path d="M32.9244 261.8H27.8664C27.7412 261.8 27.6212 261.751 27.5327 261.662C27.4442 261.574 27.3945 261.454 27.3945 261.329C27.3969 261.204 27.4474 261.086 27.5354 260.998C27.6234 260.91 27.742 260.859 27.8664 260.857H32.9244C33.0495 260.857 33.1695 260.906 33.258 260.995C33.3465 261.083 33.3962 261.203 33.3962 261.329C33.3962 261.454 33.3465 261.574 33.258 261.662C33.1695 261.751 33.0495 261.8 32.9244 261.8Z" fill="#263238"/>
<path d="M32.9244 269.387H27.8664C27.7412 269.387 27.6212 269.338 27.5327 269.249C27.4442 269.161 27.3945 269.041 27.3945 268.916C27.3945 268.79 27.4442 268.67 27.5327 268.582C27.6212 268.493 27.7412 268.444 27.8664 268.444H32.9244C33.0495 268.444 33.1695 268.493 33.258 268.582C33.3465 268.67 33.3962 268.79 33.3962 268.916C33.3962 269.041 33.3465 269.161 33.258 269.249C33.1695 269.338 33.0495 269.387 32.9244 269.387Z" fill="#263238"/>
<path d="M32.9244 276.974H27.8664C27.7412 276.974 27.6212 276.925 27.5327 276.836C27.4442 276.748 27.3945 276.628 27.3945 276.503C27.3945 276.377 27.4442 276.257 27.5327 276.169C27.6212 276.08 27.7412 276.031 27.8664 276.031H32.9244C33.0495 276.031 33.1695 276.08 33.258 276.169C33.3465 276.257 33.3962 276.377 33.3962 276.503C33.3962 276.628 33.3465 276.748 33.258 276.836C33.1695 276.925 33.0495 276.974 32.9244 276.974Z" fill="#263238"/>
<path d="M32.9244 284.562H27.8664C27.742 284.559 27.6234 284.509 27.5354 284.421C27.4474 284.333 27.3969 284.214 27.3945 284.09C27.3945 283.965 27.4442 283.845 27.5327 283.756C27.6212 283.668 27.7412 283.618 27.8664 283.618H32.9244C33.0495 283.618 33.1695 283.668 33.258 283.756C33.3465 283.845 33.3962 283.965 33.3962 284.09C33.3962 284.215 33.3465 284.335 33.258 284.423C33.1695 284.512 33.0495 284.562 32.9244 284.562Z" fill="#263238"/>
<path d="M32.9244 292.149H27.8664C27.742 292.146 27.6234 292.096 27.5354 292.008C27.4474 291.92 27.3969 291.801 27.3945 291.677C27.3945 291.552 27.4442 291.432 27.5327 291.343C27.6212 291.255 27.7412 291.205 27.8664 291.205H32.9244C33.0495 291.205 33.1695 291.255 33.258 291.343C33.3465 291.432 33.3962 291.552 33.3962 291.677C33.3962 291.802 33.3465 291.922 33.258 292.01C33.1695 292.099 33.0495 292.149 32.9244 292.149Z" fill="#263238"/>
<path d="M32.9244 299.736H27.8664C27.742 299.733 27.6234 299.683 27.5354 299.595C27.4474 299.507 27.3969 299.388 27.3945 299.264C27.3945 299.139 27.4442 299.019 27.5327 298.93C27.6212 298.842 27.7412 298.792 27.8664 298.792H32.9244C33.0495 298.792 33.1695 298.842 33.258 298.93C33.3465 299.019 33.3962 299.139 33.3962 299.264C33.3962 299.389 33.3465 299.509 33.258 299.597C33.1695 299.686 33.0495 299.736 32.9244 299.736Z" fill="#263238"/>
<path d="M32.9244 307.313H27.8664C27.7412 307.313 27.6212 307.264 27.5327 307.175C27.4442 307.087 27.3945 306.967 27.3945 306.841C27.3969 306.717 27.4474 306.598 27.5354 306.51C27.6234 306.423 27.742 306.372 27.8664 306.37H32.9244C33.0495 306.37 33.1695 306.419 33.258 306.508C33.3465 306.596 33.3962 306.716 33.3962 306.841C33.3962 306.967 33.3465 307.087 33.258 307.175C33.1695 307.264 33.0495 307.313 32.9244 307.313Z" fill="#263238"/>
<path d="M32.9244 314.9H27.8664C27.7412 314.9 27.6212 314.851 27.5327 314.762C27.4442 314.674 27.3945 314.554 27.3945 314.428C27.3969 314.304 27.4474 314.185 27.5354 314.097C27.6234 314.01 27.742 313.959 27.8664 313.957H32.9244C33.0495 313.957 33.1695 314.006 33.258 314.095C33.3465 314.183 33.3962 314.303 33.3962 314.428C33.3962 314.554 33.3465 314.674 33.258 314.762C33.1695 314.851 33.0495 314.9 32.9244 314.9Z" fill="#263238"/>
<path d="M21.8269 258.771L10.9088 239.87L0 258.771H7.84185V319.166H13.9851V258.771H21.8269Z" fill="#263238"/>
</svg>
