<svg width="60" height="49" viewBox="0 0 60 49" fill="none" xmlns="http://www.w3.org/2000/svg">
<path fill-rule="evenodd" clip-rule="evenodd" d="M35.5822 0.0736881C40.8077 -0.39864 46.0462 1.43603 50.2685 4.53372C54.4705 7.61649 57.4216 12.1237 58.8249 17.1255C60.1877 21.9831 59.2801 26.9957 57.9343 31.858C56.5258 36.9464 55.1519 42.4451 50.9311 45.6444C46.6717 48.873 40.9082 49.3601 35.5822 48.8005C30.6409 48.2814 26.5786 45.3561 22.4219 42.649C18.0248 39.7854 12.1737 37.6894 10.7816 32.6492C9.39442 27.6265 13.4685 22.9278 15.6697 18.2015C17.5745 14.1112 19.3722 10.0679 22.7155 7.02423C26.4059 3.66457 30.5995 0.524076 35.5822 0.0736881Z" fill="#E8F5E9"/>
<path d="M32.6879 24.9204C31.2299 24.7899 30.1826 23.5261 30.138 22.0617C30.1107 21.1694 30.0885 20.2769 30.0711 19.3844C29.1669 19.3672 28.2628 19.3449 27.3588 19.3175C25.8976 19.273 24.6338 18.2256 24.5001 16.7708C24.3952 15.6239 24.3952 14.4699 24.5001 13.3231C24.6338 11.865 25.8976 10.8177 27.3588 10.7763C28.2693 10.7445 29.1734 10.7254 30.0711 10.7063C30.0871 9.82125 30.1093 8.9267 30.1348 8.02578C30.1826 6.56457 31.2299 5.30073 32.6879 5.16703C33.8337 5.06233 34.9867 5.06233 36.1325 5.16703C37.5873 5.30073 38.6378 6.56457 38.6792 8.02578C38.7079 8.9267 38.7302 9.82125 38.7461 10.7094C39.6247 10.7254 40.5097 10.7476 41.4011 10.7731C42.8655 10.8177 44.1293 11.865 44.2598 13.3231C44.3649 14.4787 44.3649 15.612 44.2598 16.7676C44.1293 18.2256 42.8655 19.273 41.4011 19.3143C40.5097 19.3462 39.6247 19.3653 38.7461 19.3844C38.7302 20.2694 38.7079 21.1639 38.6824 22.0617C38.6378 23.5261 37.5873 24.7899 36.1325 24.9204C34.9867 25.0251 33.8337 25.0251 32.6879 24.9204Z" stroke="#103E13" stroke-width="2" stroke-linecap="round" stroke-linejoin="round"/>
<path d="M5.6093 22.9817L7.83136 22.8416C10.4508 22.6795 13.0795 22.9233 15.6245 23.5642L19.3364 24.5002C21.3706 25.0095 22.7172 26.9387 22.504 29.0207C22.4447 29.598 22.2669 30.1569 21.9817 30.6623C21.6966 31.1678 21.3102 31.6089 20.8468 31.9582C20.3833 32.3075 19.8528 32.5575 19.2883 32.6923C18.7239 32.8272 18.1377 32.8442 17.5664 32.7422L14.0359 32.1118L26.4801 34.3403L39.3668 31.2841C40.3694 31.0464 41.4253 31.2095 42.3095 31.7387C43.1937 32.2679 43.8363 33.1214 44.1006 34.1174C44.3463 35.0469 44.2449 36.0341 43.8154 36.8943C43.3859 37.7545 42.6577 38.4287 41.7671 38.7908L31.459 42.9802C26.4451 45.0176 20.8581 45.1449 15.755 43.3399L5.06812 39.5548" stroke="#103E13" stroke-width="2" stroke-linecap="round" stroke-linejoin="round"/>
</svg>
