<svg width="18" height="18" viewBox="0 0 18 18" fill="none" xmlns="http://www.w3.org/2000/svg">
<path d="M17.3301 0.669958C17.141 0.482125 16.9037 0.350079 16.6443 0.288332C16.385 0.226586 16.1136 0.237528 15.8601 0.319958L1.23012 5.19996C0.958795 5.28593 0.71903 5.45039 0.541111 5.67255C0.363193 5.89471 0.255103 6.16462 0.230492 6.44818C0.205881 6.73174 0.265854 7.01623 0.402836 7.26572C0.539818 7.51522 0.747665 7.71852 1.00012 7.84996L7.07012 10.85L10.0701 16.94C10.1907 17.1783 10.3752 17.3785 10.603 17.518C10.8309 17.6575 11.093 17.7309 11.3601 17.73H11.4601C11.7462 17.7089 12.0194 17.6023 12.2441 17.4239C12.4688 17.2456 12.6346 17.0038 12.7201 16.73L17.6701 2.13996C17.7585 1.88789 17.7735 1.6159 17.7133 1.35565C17.6531 1.09541 17.5202 0.857615 17.3301 0.669958ZM1.85012 6.57996L14.6201 2.31996L7.53012 9.40996L1.85012 6.57996ZM11.4301 16.15L8.59012 10.47L15.6801 3.37996L11.4301 16.15Z" fill="white"/>
</svg>
