<svg width="85" height="22" viewBox="0 0 85 22" fill="none" xmlns="http://www.w3.org/2000/svg">
<path d="M64.6182 0C62.9671 0 61.4019 0.372089 60 1.03785C64.1538 1.38578 67.6266 4.0991 69.0365 7.80864C69.7176 7.60339 70.4409 7.49114 71.1901 7.49114C75.2411 7.49114 78.5267 10.7399 78.5267 14.7456C78.5267 18.7512 75.2411 22 71.1901 22H77.0112C81.161 22 84.5267 18.5965 84.5267 14.4001C84.5267 10.2037 81.161 6.80025 77.0112 6.80025C76.2437 6.80025 75.5027 6.91784 74.805 7.13287C73.2567 2.96671 69.2796 0 64.6182 0Z" fill="#33BB51"/>
<path d="M3.34189 18V7.81818H10.4413V9.81676H5.80283V11.9048H10.0784V13.9084H5.80283V16.0014H10.4413V18H3.34189Z" fill="#33BB51"/>
<path d="M15.5471 18.1442C14.7417 18.1442 14.0507 17.9785 13.474 17.647C12.9006 17.3156 12.4598 16.8549 12.1515 16.2649C11.8433 15.6716 11.6892 14.9856 11.6892 14.2067C11.6892 13.4245 11.8433 12.7384 12.1515 12.1484C12.4631 11.5552 12.9056 11.0928 13.479 10.7614C14.0557 10.4299 14.7434 10.2642 15.5422 10.2642C16.2481 10.2642 16.863 10.3918 17.3866 10.647C17.9136 10.9022 18.3246 11.2635 18.6196 11.7308C18.9179 12.1948 19.0753 12.7401 19.0919 13.3665H16.8199C16.7735 12.9754 16.6409 12.6688 16.4221 12.4467C16.2067 12.2247 15.925 12.1136 15.577 12.1136C15.2953 12.1136 15.0483 12.1932 14.8362 12.3523C14.6241 12.508 14.4584 12.7401 14.339 13.0483C14.223 13.3532 14.165 13.7311 14.165 14.1818C14.165 14.6326 14.223 15.0137 14.339 15.3253C14.4584 15.6335 14.6241 15.8672 14.8362 16.0263C15.0483 16.1821 15.2953 16.2599 15.577 16.2599C15.8024 16.2599 16.0012 16.2119 16.1736 16.1158C16.3492 16.0196 16.4934 15.8788 16.6061 15.6932C16.7188 15.5043 16.79 15.2756 16.8199 15.0071H19.0919C19.0687 15.6368 18.9113 16.187 18.6196 16.6577C18.3312 17.1283 17.9252 17.4946 17.4015 17.7564C16.8812 18.0149 16.2631 18.1442 15.5471 18.1442Z" fill="#33BB51"/>
<path d="M23.9007 18.1442C23.0986 18.1442 22.4092 17.9801 21.8325 17.652C21.2591 17.3205 20.8166 16.8598 20.5051 16.2699C20.1968 15.6766 20.0427 14.9889 20.0427 14.2067C20.0427 13.4212 20.1968 12.7334 20.5051 12.1435C20.8166 11.5502 21.2591 11.0895 21.8325 10.7614C22.4092 10.4299 23.0986 10.2642 23.9007 10.2642C24.7027 10.2642 25.3905 10.4299 25.9639 10.7614C26.5406 11.0895 26.983 11.5502 27.2913 12.1435C27.6028 12.7334 27.7586 13.4212 27.7586 14.2067C27.7586 14.9889 27.6028 15.6766 27.2913 16.2699C26.983 16.8598 26.5406 17.3205 25.9639 17.652C25.3905 17.9801 24.7027 18.1442 23.9007 18.1442ZM23.9156 16.3097C24.2072 16.3097 24.4542 16.2202 24.6563 16.0412C24.8585 15.8622 25.0126 15.6136 25.1187 15.2955C25.2281 14.9773 25.2828 14.6094 25.2828 14.1918C25.2828 13.7675 25.2281 13.3963 25.1187 13.0781C25.0126 12.7599 24.8585 12.5114 24.6563 12.3324C24.4542 12.1534 24.2072 12.0639 23.9156 12.0639C23.614 12.0639 23.3588 12.1534 23.15 12.3324C22.9445 12.5114 22.787 12.7599 22.6776 13.0781C22.5716 13.3963 22.5186 13.7675 22.5186 14.1918C22.5186 14.6094 22.5716 14.9773 22.6776 15.2955C22.787 15.6136 22.9445 15.8622 23.15 16.0412C23.3588 16.2202 23.614 16.3097 23.9156 16.3097Z" fill="#33BB51"/>
<path d="M33.8911 12.9439V14.8182H29.178V12.9439H33.8911Z" fill="#33BB51"/>
<path d="M35.6075 18V7.81818H39.8135C40.5758 7.81818 41.2337 7.95573 41.7872 8.23082C42.344 8.5026 42.7732 8.8937 43.0748 9.40412C43.3765 9.91122 43.5273 10.5128 43.5273 11.2088C43.5273 11.9148 43.3731 12.5147 43.0649 13.0085C42.7567 13.4991 42.3192 13.8736 41.7524 14.1321C41.1856 14.3873 40.5145 14.5149 39.7389 14.5149H37.0791V12.576H39.2815C39.6527 12.576 39.9626 12.5279 40.2112 12.4318C40.4631 12.3324 40.6537 12.1832 40.7829 11.9844C40.9122 11.7822 40.9768 11.5237 40.9768 11.2088C40.9768 10.8939 40.9122 10.6338 40.7829 10.4283C40.6537 10.2195 40.4631 10.0637 40.2112 9.96094C39.9593 9.85488 39.6494 9.80185 39.2815 9.80185H38.0685V18H35.6075ZM41.3398 13.3466L43.8753 18H41.1906L38.7048 13.3466H41.3398Z" fill="#33BB51"/>
<path d="M48.2913 18.1442C47.4892 18.1442 46.7998 17.9801 46.2231 17.652C45.6497 17.3205 45.2072 16.8598 44.8957 16.2699C44.5874 15.6766 44.4333 14.9889 44.4333 14.2067C44.4333 13.4212 44.5874 12.7334 44.8957 12.1435C45.2072 11.5502 45.6497 11.0895 46.2231 10.7614C46.7998 10.4299 47.4892 10.2642 48.2913 10.2642C49.0934 10.2642 49.7811 10.4299 50.3545 10.7614C50.9312 11.0895 51.3737 11.5502 51.6819 12.1435C51.9935 12.7334 52.1492 13.4212 52.1492 14.2067C52.1492 14.9889 51.9935 15.6766 51.6819 16.2699C51.3737 16.8598 50.9312 17.3205 50.3545 17.652C49.7811 17.9801 49.0934 18.1442 48.2913 18.1442ZM48.3062 16.3097C48.5979 16.3097 48.8448 16.2202 49.047 16.0412C49.2491 15.8622 49.4033 15.6136 49.5093 15.2955C49.6187 14.9773 49.6734 14.6094 49.6734 14.1918C49.6734 13.7675 49.6187 13.3963 49.5093 13.0781C49.4033 12.7599 49.2491 12.5114 49.047 12.3324C48.8448 12.1534 48.5979 12.0639 48.3062 12.0639C48.0046 12.0639 47.7494 12.1534 47.5406 12.3324C47.3351 12.5114 47.1776 12.7599 47.0683 13.0781C46.9622 13.3963 46.9092 13.7675 46.9092 14.1918C46.9092 14.6094 46.9622 14.9773 47.0683 15.2955C47.1776 15.6136 47.3351 15.8622 47.5406 16.0412C47.7494 16.2202 48.0046 16.3097 48.3062 16.3097Z" fill="#33BB51"/>
<path d="M58.3215 14.7038V10.3636H60.7476V18H58.4308V16.5781H58.3513C58.1823 17.0455 57.8939 17.4167 57.4862 17.6918C57.0819 17.9635 56.593 18.0994 56.0196 18.0994C55.4993 18.0994 55.0419 17.9801 54.6475 17.7415C54.2531 17.5028 53.9465 17.1697 53.7277 16.7422C53.509 16.3113 53.3979 15.8075 53.3946 15.2308V10.3636H55.8257V14.7536C55.829 15.1678 55.9384 15.4943 56.1539 15.733C56.3693 15.9716 56.6626 16.0909 57.0338 16.0909C57.2758 16.0909 57.4929 16.0379 57.6851 15.9318C57.8807 15.8224 58.0348 15.665 58.1475 15.4595C58.2635 15.2507 58.3215 14.9988 58.3215 14.7038Z" fill="#33BB51"/>
<path d="M66.6054 10.3636V12.1534H61.7879V10.3636H66.6054ZM62.7971 8.53409H65.2283V15.5987C65.2283 15.7479 65.2515 15.8688 65.2979 15.9616C65.3476 16.0511 65.4188 16.1158 65.5116 16.1555C65.6044 16.192 65.7155 16.2102 65.8447 16.2102C65.9375 16.2102 66.0353 16.2019 66.1381 16.1854C66.2441 16.1655 66.3237 16.1489 66.3767 16.1357L66.7446 17.8906C66.6286 17.9238 66.4645 17.9652 66.2524 18.0149C66.0436 18.0646 65.7934 18.0961 65.5017 18.1094C64.9316 18.1359 64.4427 18.0696 64.0351 17.9105C63.6307 17.7481 63.3208 17.4962 63.1054 17.1548C62.8933 16.8134 62.7905 16.3842 62.7971 15.8672V8.53409Z" fill="#33BB51"/>
<path d="M71.3334 18.1442C70.5346 18.1442 69.8452 17.9867 69.2652 17.6719C68.6885 17.3537 68.2444 16.9013 67.9328 16.3146C67.6246 15.7247 67.4704 15.0237 67.4704 14.2116C67.4704 13.4228 67.6262 12.7334 67.9378 12.1435C68.2493 11.5502 68.6885 11.0895 69.2552 10.7614C69.822 10.4299 70.4899 10.2642 71.2588 10.2642C71.8024 10.2642 72.2995 10.3487 72.7503 10.5178C73.201 10.6868 73.5905 10.937 73.9186 11.2685C74.2467 11.5999 74.5019 12.0092 74.6842 12.4964C74.8665 12.9804 74.9577 13.5355 74.9577 14.1619V14.7685H68.3206V13.3565H72.6956C72.6923 13.098 72.631 12.8677 72.5116 12.6655C72.3923 12.4633 72.2283 12.3059 72.0194 12.1932C71.814 12.0772 71.577 12.0192 71.3085 12.0192C71.0367 12.0192 70.7931 12.0805 70.5777 12.2031C70.3622 12.3224 70.1916 12.4865 70.0656 12.6953C69.9397 12.9008 69.8734 13.1345 69.8667 13.3963V14.8331C69.8667 15.1446 69.9281 15.4181 70.0507 15.6534C70.1733 15.8854 70.3473 16.0661 70.5727 16.1953C70.7981 16.3246 71.0666 16.3892 71.3781 16.3892C71.5936 16.3892 71.7891 16.3594 71.9648 16.2997C72.1404 16.2401 72.2912 16.1522 72.4172 16.0362C72.5431 15.9202 72.6376 15.7777 72.7006 15.6087L74.9328 15.6733C74.84 16.1738 74.6362 16.6096 74.3213 16.9808C74.0097 17.3487 73.6004 17.6354 73.0933 17.8409C72.5862 18.0431 71.9996 18.1442 71.3334 18.1442Z" fill="#33BB51"/>
</svg>
