<svg width="317" height="316" viewBox="0 0 317 316" fill="none" xmlns="http://www.w3.org/2000/svg">
<path d="M44.5747 250.929H18.3457V259.276H44.5747V250.929Z" fill="#EBEBEB"/>
<path d="M60.3301 153.569H34.1011V161.917H60.3301V153.569Z" fill="#EBEBEB"/>
<path d="M29.9458 269.832C25.5743 269.907 14.556 270.093 10.3337 270.138H3.7168H3.3811V269.832V261.484V261.111H3.7541L16.8686 261.164C20.1286 261.164 26.7157 261.261 29.9831 261.305H30.1621V261.484L29.9458 269.832ZM29.9458 269.832L29.7668 261.484L29.9458 261.663C26.6709 261.708 20.0987 261.775 16.8313 261.805L3.7168 261.857L4.08979 261.484V269.832L3.74664 269.489H10.2442C14.3994 269.541 25.6713 269.728 29.9757 269.802L29.9458 269.832Z" fill="#EBEBEB"/>
<path d="M178.346 121.947C173.974 122.022 162.956 122.208 158.734 122.253H152.117H151.773V121.91V113.562V113.189H152.146L165.261 113.241C168.521 113.241 175.108 113.338 178.375 113.383H178.554V113.562L178.383 121.91L178.346 121.947ZM178.346 121.947L178.159 113.599L178.338 113.771C175.063 113.823 168.491 113.89 165.224 113.92L152.109 113.972L152.482 113.599L152.445 121.947L152.109 121.604H158.607C162.762 121.656 174.034 121.843 178.338 121.917L178.346 121.947Z" fill="#EBEBEB"/>
<path d="M163.71 132.473C159.345 132.547 148.327 132.734 144.097 132.779H137.488H137.13V132.443V124.095V123.722H137.51L150.617 123.775C153.885 123.775 160.472 123.872 163.732 123.916H163.918V124.095L163.739 132.443L163.71 132.473ZM163.71 132.473L163.538 124.125L163.71 124.297C160.442 124.349 153.87 124.416 150.595 124.446L137.488 124.498L137.861 124.125V132.473L137.525 132.13H144.023C148.178 132.182 159.45 132.368 163.747 132.443L163.71 132.473Z" fill="#EBEBEB"/>
<path d="M149.14 113.599H122.911V121.947H149.14V113.599Z" fill="#EBEBEB"/>
<path d="M312.318 261.455H286.089V269.802H312.318V261.455Z" fill="#EBEBEB"/>
<path d="M297.689 3.67773H271.46V12.0254H297.689V3.67773Z" fill="#EBEBEB"/>
<path d="M312.318 22.5512C307.947 22.6258 296.929 22.8123 292.706 22.8571H286.089H285.754V22.5214L285.716 14.1738V13.8008H286.089L299.204 13.853C302.471 13.853 309.051 13.95 312.318 13.9947H312.497V14.1738L312.318 22.5214V22.5512ZM312.318 22.5512L312.139 14.2036L312.318 14.3752C309.043 14.4274 302.479 14.4946 299.204 14.5244L286.089 14.5766L286.462 14.2036V22.5512L286.119 22.2081H292.617C296.779 22.2603 308.051 22.4468 312.348 22.5214L312.318 22.5512Z" fill="#EBEBEB"/>
<path d="M44.5747 12.0254C40.2032 12.1 29.1849 12.2865 24.9626 12.3312H18.3457H18.01V11.9881V3.64045V3.26746H18.383L31.4975 3.31968C34.7649 3.31968 41.3446 3.41666 44.612 3.46142H44.7911V3.64045L44.612 11.9881L44.5747 12.0254ZM44.5747 12.0254L44.3957 3.67775L44.5747 3.84933C41.2998 3.90155 34.7276 3.96869 31.4602 3.99853L18.3457 4.05075L18.7187 3.67775V12.0254L18.3457 11.7195H24.8433C28.9984 11.7717 40.2704 11.9582 44.5747 12.0328V12.0254Z" fill="#EBEBEB"/>
<path d="M195.817 289.004C191.445 289.079 180.427 289.265 176.205 289.31H169.588H169.252V288.967V280.619V280.276H169.625L182.74 280.328C186.007 280.328 192.587 280.425 195.854 280.47H196.033V280.649L195.862 288.997L195.817 289.004ZM195.817 289.004L195.638 280.656L195.817 280.835C192.542 280.88 185.97 280.947 182.702 280.977L169.588 281.029L169.961 280.656V289.004L169.618 288.661H176.115C180.27 288.713 191.542 288.9 195.847 288.974L195.817 289.004Z" fill="#EBEBEB"/>
<path d="M53.0492 57.7545C52.2991 62.807 50.1139 67.5377 46.7534 71.3843C43.3928 75.2309 38.9984 78.0316 34.0924 79.4533C29.1865 80.875 23.9755 80.858 19.0789 79.4043C14.1824 77.9506 9.8063 75.1214 6.47095 71.2529C3.13559 67.3845 0.981287 62.6396 0.264168 57.5824C-0.452952 52.5252 0.29728 47.3684 2.42566 42.7252C4.55405 38.082 7.97105 34.1477 12.2704 31.3899C16.5698 28.6322 21.5706 27.1672 26.6784 27.1689V53.8381L53.0492 57.7545Z" fill="#EBEBEB"/>
<path d="M58.8006 48.4148C58.8021 49.7232 58.7049 51.0299 58.5097 52.3238L32.1389 48.4148V21.7456C35.6416 21.7427 39.1105 22.4305 42.3471 23.7698C45.5837 25.1091 48.5243 27.0736 51.0008 29.5507C53.4772 32.0279 55.4408 34.9691 56.7792 38.206C58.1176 41.4429 58.8045 44.912 58.8006 48.4148Z" fill="#DBDBDB"/>
<path d="M57.9203 63.3121H29.5652V64.0581H57.9203V63.3121Z" fill="#C7C7C7"/>
<path d="M59.9123 66.0424C59.4439 66.0439 58.9857 65.9063 58.5957 65.647C58.2056 65.3877 57.9014 65.0185 57.7215 64.5861C57.5416 64.1537 57.4941 63.6776 57.5851 63.2181C57.6761 62.7587 57.9015 62.3367 58.2327 62.0055C58.5638 61.6743 58.9859 61.449 59.4453 61.3579C59.9047 61.2669 60.3808 61.3144 60.8132 61.4943C61.2456 61.6742 61.6149 61.9785 61.8742 62.3685C62.1335 62.7585 62.2711 63.2168 62.2696 63.6851C62.2676 64.3097 62.0186 64.9082 61.577 65.3498C61.1353 65.7915 60.5369 66.0405 59.9123 66.0424ZM59.9123 62.0663C59.5918 62.0648 59.2781 62.1585 59.0109 62.3355C58.7437 62.5125 58.5351 62.7648 58.4114 63.0604C58.2877 63.3561 58.2546 63.6818 58.3162 63.9963C58.3778 64.3108 58.5314 64.6 58.7575 64.8271C58.9836 65.0542 59.272 65.2092 59.5863 65.2722C59.9005 65.3353 60.2263 65.3037 60.5226 65.1814C60.8188 65.0591 61.0721 64.8516 61.2503 64.5852C61.4285 64.3189 61.5236 64.0056 61.5236 63.6851C61.5236 63.2571 61.3541 62.8464 61.0521 62.5431C60.7501 62.2397 60.3403 62.0683 59.9123 62.0663Z" fill="#C7C7C7"/>
<path d="M89.1477 62.1931H67.1187V63.1853H89.1477V62.1931Z" fill="#C7C7C7"/>
<path d="M79.5842 64.1775H67.1187V65.1696H79.5842V64.1775Z" fill="#C7C7C7"/>
<path d="M145.44 159.217H138.405V209.273H145.44V159.217Z" fill="#EBEBEB"/>
<path d="M157.532 171.332H150.498V209.273H157.532V171.332Z" fill="#EBEBEB"/>
<path d="M169.618 190.302H162.583V209.273H169.618V190.302Z" fill="#EBEBEB"/>
<path d="M181.71 179.463H174.675V209.265H181.71V179.463Z" fill="#EBEBEB"/>
<path d="M193.803 168.087H186.768V209.273H193.803V168.087Z" fill="#EBEBEB"/>
<path d="M205.888 161.395H198.853V209.273H205.888V161.395Z" fill="#EBEBEB"/>
<path d="M134.325 152.846L134.407 166.953L134.444 181.059L134.504 209.273L134.325 209.094C140.79 209.094 147.255 209.094 153.721 209.094L173.116 209.138L192.512 209.176L211.908 209.28L192.512 209.385L173.116 209.422L153.721 209.459C147.255 209.459 140.79 209.459 134.325 209.459H134.146V209.288L134.205 181.074V166.968L134.325 152.846Z" fill="#EBEBEB"/>
<path d="M132.773 155.695C133.79 155.427 134.859 155.427 135.877 155.695C134.858 155.954 133.791 155.954 132.773 155.695Z" fill="#EBEBEB"/>
<path d="M132.773 159.963C133.791 159.704 134.858 159.704 135.877 159.963C135.372 160.106 134.849 160.174 134.325 160.164C133.801 160.171 133.278 160.103 132.773 159.963Z" fill="#EBEBEB"/>
<path d="M132.773 164.252C133.791 163.993 134.858 163.993 135.877 164.252C134.859 164.521 133.79 164.521 132.773 164.252Z" fill="#EBEBEB"/>
<path d="M132.773 168.542C133.79 168.273 134.859 168.273 135.877 168.542C134.859 168.81 133.79 168.81 132.773 168.542Z" fill="#EBEBEB"/>
<path d="M132.773 172.853C133.79 172.585 134.859 172.585 135.877 172.853C134.859 173.122 133.79 173.122 132.773 172.853Z" fill="#EBEBEB"/>
<path d="M132.773 177.12C133.79 176.852 134.859 176.852 135.877 177.12C134.858 177.379 133.791 177.379 132.773 177.12Z" fill="#EBEBEB"/>
<path d="M132.773 181.402C133.791 181.144 134.858 181.144 135.877 181.402C134.859 181.671 133.79 181.671 132.773 181.402Z" fill="#EBEBEB"/>
<path d="M132.773 185.692C133.791 185.433 134.858 185.433 135.877 185.692C134.859 185.96 133.79 185.96 132.773 185.692Z" fill="#EBEBEB"/>
<path d="M132.773 190.011C133.79 189.743 134.859 189.743 135.877 190.011C134.859 190.28 133.79 190.28 132.773 190.011Z" fill="#EBEBEB"/>
<path d="M132.773 194.271C133.79 194.002 134.859 194.002 135.877 194.271C134.859 194.539 133.79 194.539 132.773 194.271Z" fill="#EBEBEB"/>
<path d="M132.773 198.56C133.79 198.292 134.859 198.292 135.877 198.56C134.858 198.819 133.791 198.819 132.773 198.56Z" fill="#EBEBEB"/>
<path d="M132.773 202.85C133.278 202.709 133.801 202.642 134.325 202.648C134.849 202.638 135.372 202.706 135.877 202.85C134.858 203.108 133.791 203.108 132.773 202.85Z" fill="#EBEBEB"/>
<path d="M2.47119 306.199C102.121 305.744 213.915 305.744 313.549 306.199C213.9 306.662 102.106 306.654 2.47119 306.199Z" fill="#263238"/>
<path d="M304.232 0H181.956C180.317 0.0146256 178.696 0.352192 177.187 0.993412C175.678 1.63463 174.31 2.56694 173.161 3.73705C172.013 4.90716 171.106 6.29214 170.493 7.81284C169.88 9.33355 169.572 10.9602 169.588 12.5998V264.245C169.56 267.555 170.847 270.741 173.166 273.103C175.485 275.465 178.646 276.811 181.956 276.844H304.232C307.544 276.813 310.708 275.468 313.03 273.106C315.352 270.744 316.641 267.557 316.615 264.245V12.5998C316.643 9.28705 315.354 6.09887 313.032 3.73614C310.71 1.37341 307.544 0.0295504 304.232 0ZM308.872 256.464C308.872 263.088 303.911 268.452 297.794 268.452H188.402C182.27 268.452 177.309 263.088 177.309 256.464V22.1634C177.309 8.66841 182.27 7.98956 188.402 7.98956H210.312C211.587 7.98956 212.624 9.43678 212.624 11.2272V11.9731C212.624 16.1731 214.929 16.188 217.749 16.188H268.424C271.274 16.188 273.557 16.188 273.557 11.9731V11.2272C273.557 9.43678 274.586 7.98956 275.877 7.98956H297.779C303.896 7.98956 308.857 9.78739 308.857 22.1634L308.872 256.464Z" fill="#263238"/>
<path d="M308.842 22.1634V256.464C308.842 263.088 303.881 268.452 297.764 268.452H188.402C182.27 268.452 177.309 263.088 177.309 256.464V22.1634C177.309 8.66847 182.27 7.98962 188.402 7.98962H210.311C211.587 7.98962 212.624 9.43684 212.624 11.2272V11.9732C212.624 16.1731 214.929 16.1881 217.749 16.1881H268.424C271.274 16.1881 273.557 16.1881 273.557 11.9732V11.2272C273.557 9.43684 274.586 7.98962 275.877 7.98962H297.779C303.881 7.98962 308.842 9.78 308.842 22.1634Z" fill="white"/>
<path d="M206.507 13.2488C206.44 13.316 206.365 13.3831 206.298 13.4577L206.179 13.5771C205.637 13.0363 204.903 12.7326 204.138 12.7326C203.373 12.7326 202.639 13.0363 202.098 13.5771L201.979 13.4577L201.77 13.2488L202.031 13.0176C202.449 12.6795 202.943 12.449 203.471 12.3462C203.612 12.3462 203.747 12.3089 203.881 12.2865H204.269H204.552C204.807 12.3192 205.058 12.3818 205.298 12.473C205.473 12.5362 205.643 12.6135 205.806 12.7043C205.976 12.8057 206.138 12.9205 206.29 13.0474L206.514 13.2488H206.507Z" fill="#C7C7C7"/>
<path d="M202.777 14.2409L202.441 13.9127C202.806 13.541 203.283 13.2999 203.799 13.2264C204.17 13.172 204.549 13.2051 204.905 13.3229C205.261 13.4408 205.585 13.6402 205.85 13.9052L205.514 14.2409C205.151 13.8787 204.659 13.6754 204.146 13.6754C203.632 13.6754 203.14 13.8787 202.777 14.2409Z" fill="#C7C7C7"/>
<path d="M205.194 14.5767L204.858 14.9123C204.767 14.8185 204.658 14.7442 204.538 14.6942C204.417 14.6442 204.287 14.6194 204.157 14.6214C204.026 14.6198 203.897 14.6448 203.776 14.6948C203.656 14.7448 203.547 14.8188 203.456 14.9123L203.127 14.5767C203.405 14.3099 203.776 14.161 204.161 14.161C204.546 14.161 204.916 14.3099 205.194 14.5767Z" fill="#C7C7C7"/>
<path d="M204.463 15.2107C204.464 15.2715 204.448 15.3314 204.415 15.3826C204.382 15.4339 204.335 15.4743 204.279 15.4986C204.223 15.5229 204.162 15.53 204.102 15.519C204.042 15.5081 203.987 15.4796 203.943 15.4371C203.9 15.3946 203.87 15.3402 203.858 15.2806C203.845 15.2211 203.851 15.1592 203.874 15.1029C203.897 15.0466 203.936 14.9984 203.986 14.9644C204.037 14.9305 204.096 14.9123 204.157 14.9123C204.197 14.9113 204.236 14.9183 204.273 14.9329C204.31 14.9474 204.344 14.9692 204.373 14.997C204.401 15.0249 204.424 15.0581 204.439 15.0948C204.455 15.1315 204.463 15.1709 204.463 15.2107Z" fill="#C7C7C7"/>
<path d="M185.888 13.8829C185.888 13.7103 185.939 13.5416 186.035 13.398C186.131 13.2545 186.267 13.1426 186.427 13.0766C186.586 13.0105 186.761 12.9932 186.931 13.0269C187.1 13.0606 187.256 13.1437 187.378 13.2658C187.5 13.3878 187.583 13.5434 187.617 13.7127C187.65 13.882 187.633 14.0575 187.567 14.217C187.501 14.3764 187.389 14.5127 187.245 14.6087C187.102 14.7046 186.933 14.7558 186.761 14.7558C186.646 14.7558 186.532 14.7332 186.427 14.6893C186.321 14.6454 186.224 14.5812 186.143 14.5001C186.062 14.4191 185.998 14.3228 185.954 14.217C185.91 14.1111 185.888 13.9976 185.888 13.8829Z" fill="#C7C7C7"/>
<path d="M188.603 13.8829C188.603 13.7103 188.654 13.5416 188.75 13.398C188.846 13.2545 188.983 13.1426 189.142 13.0766C189.302 13.0105 189.477 12.9932 189.646 13.0269C189.816 13.0606 189.971 13.1437 190.093 13.2658C190.215 13.3878 190.298 13.5434 190.332 13.7127C190.366 13.882 190.349 14.0575 190.282 14.217C190.216 14.3764 190.105 14.5127 189.961 14.6087C189.817 14.7046 189.649 14.7558 189.476 14.7558C189.361 14.7558 189.248 14.7332 189.142 14.6893C189.036 14.6454 188.94 14.5812 188.859 14.5001C188.778 14.4191 188.714 14.3228 188.67 14.217C188.626 14.1111 188.603 13.9976 188.603 13.8829Z" fill="#C7C7C7"/>
<path d="M191.378 13.8829C191.378 13.7103 191.429 13.5416 191.525 13.398C191.621 13.2545 191.757 13.1426 191.917 13.0766C192.076 13.0105 192.252 12.9932 192.421 13.0269C192.59 13.0606 192.746 13.1437 192.868 13.2658C192.99 13.3878 193.073 13.5434 193.107 13.7127C193.14 13.882 193.123 14.0575 193.057 14.217C192.991 14.3764 192.879 14.5127 192.736 14.6087C192.592 14.7046 192.423 14.7558 192.251 14.7558C192.136 14.7558 192.023 14.7332 191.917 14.6893C191.811 14.6454 191.715 14.5812 191.634 14.5001C191.553 14.4191 191.488 14.3228 191.444 14.217C191.4 14.1111 191.378 13.9976 191.378 13.8829Z" fill="#C7C7C7"/>
<path d="M194.131 13.8829C194.131 13.71 194.182 13.5409 194.279 13.3972C194.375 13.2535 194.512 13.1417 194.671 13.0759C194.831 13.01 195.007 12.9932 195.177 13.0275C195.346 13.0617 195.502 13.1456 195.624 13.2684C195.745 13.3912 195.828 13.5475 195.861 13.7173C195.893 13.887 195.875 14.0628 195.808 14.2221C195.741 14.3815 195.628 14.5173 195.483 14.6123C195.339 14.7073 195.169 14.7572 194.996 14.7557C194.882 14.7557 194.769 14.7331 194.663 14.6891C194.558 14.6452 194.462 14.5808 194.382 14.4996C194.301 14.4185 194.238 14.3222 194.195 14.2164C194.152 14.1105 194.13 13.9972 194.131 13.8829Z" fill="#C7C7C7"/>
<path d="M196.876 13.8829C196.876 13.71 196.927 13.5409 197.024 13.3972C197.12 13.2535 197.257 13.1417 197.417 13.0759C197.576 13.01 197.752 12.9932 197.922 13.0275C198.091 13.0617 198.247 13.1456 198.369 13.2684C198.49 13.3912 198.573 13.5475 198.606 13.7173C198.639 13.887 198.62 14.0628 198.553 14.2221C198.486 14.3815 198.373 14.5173 198.228 14.6123C198.084 14.7073 197.914 14.7572 197.741 14.7557C197.627 14.7557 197.514 14.7331 197.408 14.6891C197.303 14.6452 197.207 14.5808 197.127 14.4996C197.046 14.4185 196.983 14.3222 196.94 14.2164C196.897 14.1105 196.875 13.9972 196.876 13.8829Z" fill="#C7C7C7"/>
<path d="M299.01 15.7926H291.915V12.5028H299.01V15.7926ZM292.296 15.4271H298.674V12.8609H292.296V15.4271Z" fill="#C7C7C7"/>
<path d="M297.048 13.0623H292.475V15.2331H297.048V13.0623Z" fill="#C7C7C7"/>
<path d="M299.621 13.2637H298.987V15.0242H299.621V13.2637Z" fill="#C7C7C7"/>
<path d="M249.991 10.9736H236.175C235.947 10.9736 235.729 10.8832 235.568 10.7223C235.408 10.5614 235.317 10.3432 235.317 10.1157C235.319 9.88946 235.41 9.67316 235.571 9.51389C235.732 9.35461 235.949 9.26525 236.175 9.26526H249.991C250.217 9.26525 250.434 9.35461 250.595 9.51389C250.755 9.67316 250.847 9.88946 250.849 10.1157C250.849 10.3432 250.758 10.5614 250.597 10.7223C250.437 10.8832 250.218 10.9736 249.991 10.9736Z" fill="white"/>
<path d="M194.414 254.659H193.773V257.613H192.564V256.113H190.438V257.613H189.237V254.659H188.596L191.505 251.652L194.414 254.659Z" fill="#EBEBEB"/>
<path d="M298.607 251.652H291.594V252.652H298.607V251.652Z" fill="#EBEBEB"/>
<path d="M298.607 254.136H291.594V255.136H298.607V254.136Z" fill="#EBEBEB"/>
<path d="M298.607 256.613H291.594V257.613H298.607V256.613Z" fill="#EBEBEB"/>
<path d="M245.664 254.741L243.672 256.867L241.673 254.741L242.031 254.405L243.672 256.158L245.313 254.405L245.664 254.741Z" fill="#EBEBEB"/>
<path d="M243.672 259.068C242.955 259.069 242.253 258.858 241.656 258.46C241.059 258.063 240.593 257.497 240.317 256.835C240.042 256.172 239.969 255.443 240.108 254.739C240.247 254.036 240.592 253.389 241.098 252.881C241.605 252.373 242.251 252.027 242.955 251.887C243.658 251.746 244.387 251.818 245.05 252.092C245.713 252.366 246.28 252.831 246.679 253.427C247.077 254.023 247.29 254.725 247.29 255.442C247.288 256.402 246.907 257.322 246.229 258.001C245.551 258.68 244.632 259.064 243.672 259.068ZM243.672 252.301C243.049 252.3 242.439 252.484 241.92 252.829C241.401 253.174 240.997 253.666 240.758 254.241C240.518 254.817 240.455 255.45 240.577 256.062C240.698 256.673 240.998 257.235 241.439 257.676C241.879 258.116 242.441 258.416 243.052 258.537C243.664 258.659 244.297 258.596 244.873 258.357C245.448 258.117 245.94 257.713 246.285 257.194C246.631 256.675 246.814 256.065 246.813 255.442C246.811 254.61 246.479 253.812 245.891 253.223C245.302 252.635 244.504 252.303 243.672 252.301Z" fill="#EBEBEB"/>
<path d="M301.889 25.4457H184.276V59.7761H301.889V25.4457Z" fill="#4CAF4F"/>
<path d="M190.968 36.4789L187.081 32.831L190.968 29.1906L191.572 29.8321L188.372 32.831L191.572 35.8299L190.968 36.4789Z" fill="white"/>
<path d="M299.092 30.5633C299.092 30.7108 299.048 30.855 298.966 30.9777C298.884 31.1004 298.767 31.196 298.631 31.2525C298.495 31.3089 298.345 31.3237 298.2 31.2949C298.055 31.2661 297.922 31.1951 297.818 31.0907C297.714 30.9864 297.643 30.8535 297.614 30.7088C297.585 30.5641 297.6 30.4141 297.656 30.2778C297.713 30.1415 297.808 30.0249 297.931 29.943C298.054 29.861 298.198 29.8173 298.346 29.8173C298.543 29.8173 298.733 29.8959 298.873 30.0358C299.013 30.1757 299.092 30.3654 299.092 30.5633Z" fill="white"/>
<path d="M299.092 33.286C299.092 33.4336 299.048 33.5778 298.966 33.7005C298.884 33.8232 298.767 33.9188 298.631 33.9752C298.495 34.0317 298.345 34.0465 298.2 34.0177C298.055 33.9889 297.922 33.9178 297.818 33.8135C297.714 33.7092 297.643 33.5763 297.614 33.4316C297.585 33.2869 297.6 33.1369 297.656 33.0005C297.713 32.8642 297.808 32.7477 297.931 32.6658C298.054 32.5838 298.198 32.54 298.346 32.54C298.543 32.54 298.733 32.6186 298.873 32.7585C299.013 32.8984 299.092 33.0882 299.092 33.286Z" fill="white"/>
<path d="M299.092 36.0015C299.092 36.149 299.048 36.2933 298.966 36.4159C298.884 36.5386 298.767 36.6342 298.631 36.6907C298.495 36.7471 298.345 36.7619 298.2 36.7331C298.055 36.7044 297.922 36.6333 297.818 36.529C297.714 36.4247 297.643 36.2917 297.614 36.147C297.585 36.0023 297.6 35.8523 297.656 35.716C297.713 35.5797 297.808 35.4632 297.931 35.3812C298.054 35.2992 298.198 35.2555 298.346 35.2555C298.543 35.2555 298.733 35.3341 298.873 35.474C299.013 35.6139 299.092 35.8036 299.092 36.0015Z" fill="white"/>
<path d="M196.876 32.831C210.408 32.3312 224.037 32.3312 237.577 32.831C224.037 33.3309 210.408 33.3309 196.876 32.831Z" fill="white"/>
<path d="M196.876 36.4789C206.014 36.2328 216.07 36.2328 225.224 36.4789C216.085 36.7251 206.029 36.7177 196.876 36.4789Z" fill="white"/>
<path d="M210.334 49.019C231.311 48.7878 254.847 48.7878 275.817 49.019C254.847 49.2503 231.311 49.2503 210.334 49.019Z" fill="white"/>
<path d="M189.633 87.9821C208.193 87.8479 226.76 87.8777 245.321 87.8255C263.881 87.7733 282.449 87.8255 301.016 87.9821C282.449 88.109 263.888 88.0791 245.321 88.1313C226.753 88.1836 208.193 88.109 189.633 87.9821Z" fill="#455A64"/>
<path d="M189.633 100.492C208.193 100.366 226.76 100.395 245.321 100.343C263.881 100.291 282.449 100.343 301.016 100.492C282.449 100.627 263.888 100.597 245.321 100.649C226.753 100.701 208.193 100.657 189.633 100.492Z" fill="#455A64"/>
<path d="M189.633 113.07C208.193 112.943 226.76 112.973 245.321 112.921C263.881 112.868 282.449 112.921 301.016 113.07C282.449 113.204 263.888 113.174 245.321 113.226C226.753 113.279 208.193 113.174 189.633 113.07Z" fill="#455A64"/>
<path d="M189.633 125.617C208.193 125.49 226.76 125.52 245.321 125.468C263.881 125.416 282.449 125.468 301.016 125.617C282.449 125.752 263.888 125.714 245.321 125.774C226.76 125.714 208.193 125.752 189.633 125.617Z" fill="#455A64"/>
<path d="M189.633 138.165C208.193 138.03 226.76 138.068 245.321 138.016C263.881 137.963 282.449 138.016 301.016 138.165C282.449 138.299 263.888 138.262 245.321 138.321C226.76 138.262 208.193 138.299 189.633 138.165Z" fill="#455A64"/>
<path d="M212.057 79.821C212.221 91.548 212.176 103.268 212.251 114.994C212.184 126.714 212.251 138.441 212.057 150.16C211.893 138.441 211.938 126.714 211.871 114.994C211.938 103.268 211.893 91.5406 212.057 79.821Z" fill="#455A64"/>
<path d="M231.319 79.821C231.483 91.548 231.438 103.268 231.513 114.994C231.438 126.714 231.513 138.441 231.319 150.16C231.154 138.441 231.199 126.714 231.132 114.994C231.199 103.268 231.125 91.5406 231.319 79.821Z" fill="#455A64"/>
<path d="M250.58 79.821C250.744 91.548 250.699 103.268 250.766 114.994C250.699 126.714 250.766 138.441 250.58 150.16C250.416 138.441 250.461 126.714 250.386 114.994C250.461 103.268 250.416 91.5406 250.58 79.821Z" fill="#455A64"/>
<path d="M269.841 79.821C270.006 91.548 269.961 103.268 270.028 114.994C269.961 126.714 270.028 138.441 269.841 150.16C269.677 138.441 269.715 126.714 269.647 114.994C269.722 103.268 269.677 91.5406 269.841 79.821Z" fill="#455A64"/>
<path d="M289.103 79.821C289.267 91.548 289.222 103.268 289.289 114.994C289.222 126.714 289.289 138.441 289.103 150.16C288.939 138.441 288.976 126.714 288.909 114.994C288.976 103.268 288.939 91.5406 289.103 79.821Z" fill="#455A64"/>
<path opacity="0.5" d="M192.437 129.064C195.839 129.064 197.868 116.322 202.68 116.322C207.491 116.322 208.006 125.617 212.057 125.617C216.108 125.617 215.988 109.288 221.434 109.288C226.88 109.288 225.619 115.912 231.318 115.912C237.018 115.912 234.854 100.492 240.822 100.492C246.79 100.492 244.373 121.693 250.58 121.693C254.511 121.693 256.025 114.98 260.718 114.98C263.821 114.98 265.649 118.344 269.707 118.344C273.765 118.344 274.653 105.394 279.726 105.394C284.798 105.394 285.373 113.055 289.103 113.055C292.833 113.055 294.168 100.507 301.038 100.507V150.146H192.437V129.064Z" fill="#4CAF4F"/>
<path opacity="0.3" d="M192.437 129.064C195.839 129.064 197.868 116.322 202.68 116.322C207.491 116.322 208.006 125.617 212.057 125.617C216.108 125.617 215.988 109.288 221.434 109.288C226.88 109.288 225.619 115.912 231.318 115.912C237.018 115.912 234.854 100.492 240.822 100.492C246.79 100.492 244.373 121.693 250.58 121.693C254.511 121.693 256.025 114.98 260.718 114.98C263.821 114.98 265.649 118.344 269.707 118.344C273.765 118.344 274.653 105.394 279.726 105.394C284.798 105.394 285.373 113.055 289.103 113.055C292.833 113.055 294.168 100.507 301.038 100.507V150.146H192.437V129.064Z" fill="#4CAF4F"/>
<path d="M192.437 129.675V128.452C193.467 128.452 194.884 125.468 195.921 123.305C197.696 119.575 199.539 115.71 202.68 115.71C205.664 115.71 207.193 118.538 208.513 121.029C209.55 122.984 210.617 125.006 212.057 125.006C213.325 125.006 214.422 121.082 215.227 118.217C216.54 113.525 217.898 108.676 221.434 108.676C224.589 108.676 225.828 110.578 226.917 112.257C228.006 113.935 228.894 115.3 231.318 115.3C233.511 115.3 234.369 111.705 235.197 108.228C236.175 104.14 237.182 99.9104 240.822 99.9104C244.463 99.9104 245.358 105.237 246.335 110.876C247.126 115.434 248.103 121.111 250.58 121.111C252.072 121.111 253.265 119.709 254.548 118.232C256.1 116.427 257.868 114.375 260.718 114.375C262.426 114.375 263.761 115.211 265.052 116.024C266.342 116.837 267.805 117.747 269.707 117.747C271.117 117.747 272.4 114.666 273.437 112.189C274.929 108.556 276.518 104.797 279.733 104.797C282.948 104.797 284.492 107.243 285.88 109.399C286.895 110.973 287.849 112.458 289.11 112.458C290.184 112.458 291.393 110.078 292.467 107.982C294.295 104.386 296.57 99.9179 301.024 99.9179V101.149C297.592 101.149 295.623 105.028 293.877 108.445C292.385 111.376 291.206 113.666 289.11 113.666C287.014 113.666 285.761 111.854 284.53 109.937C283.299 108.019 281.993 106.005 279.733 106.005C277.614 106.005 276.167 109.489 274.884 112.562C273.452 115.986 272.221 118.948 269.714 118.948C267.208 118.948 265.611 117.896 264.127 116.971C262.941 116.225 261.889 115.584 260.725 115.584C258.674 115.584 257.219 117.27 255.802 118.911C254.384 120.552 252.862 122.312 250.58 122.312C246.783 122.312 245.828 116.829 244.821 111.026C244.075 106.609 243.105 101.119 240.822 101.119C238.539 101.119 237.51 105.006 236.697 108.437C235.705 112.585 234.772 116.501 231.318 116.501C227.864 116.501 226.693 114.539 225.567 112.771C224.552 111.205 223.664 109.847 221.434 109.847C219.203 109.847 217.786 114.606 216.712 118.441C215.503 122.76 214.541 126.177 212.057 126.177C209.573 126.177 208.401 123.887 207.111 121.455C205.917 119.217 204.686 116.882 202.68 116.882C200.673 116.882 198.793 120.656 197.346 123.685C195.764 127.057 194.519 129.675 192.437 129.675Z" fill="#4CAF4F"/>
<path opacity="0.5" d="M250.58 121.723V150.16H231.319V115.912C237.018 115.912 234.855 100.492 240.823 100.492C246.79 100.492 244.373 121.723 250.58 121.723Z" fill="#4CAF4F"/>
<path d="M240.815 103.178C242.5 103.178 243.866 101.812 243.866 100.127C243.866 98.4417 242.5 97.0757 240.815 97.0757C239.13 97.0757 237.764 98.4417 237.764 100.127C237.764 101.812 239.13 103.178 240.815 103.178Z" fill="#263238"/>
<path d="M242.561 100.127C242.561 100.472 242.458 100.81 242.266 101.097C242.075 101.384 241.802 101.607 241.483 101.74C241.164 101.872 240.813 101.906 240.474 101.839C240.136 101.772 239.825 101.605 239.581 101.361C239.336 101.117 239.17 100.806 239.103 100.467C239.036 100.129 239.07 99.7778 239.202 99.4588C239.334 99.1399 239.558 98.8672 239.845 98.6754C240.132 98.4836 240.47 98.3812 240.815 98.3812C241.278 98.3812 241.722 98.5651 242.049 98.8925C242.377 99.2199 242.561 99.6639 242.561 100.127Z" fill="#4CAF4F"/>
<path d="M246.313 87.6912H235.242V93.868H246.313V87.6912Z" fill="#4CAF4F"/>
<path d="M239.315 93.868H242.232L240.778 95.9643L239.315 93.868Z" fill="#4CAF4F"/>
<path d="M237.309 89.9739C239.645 89.8471 241.985 89.8471 244.321 89.9739C241.985 90.0933 239.645 90.0933 237.309 89.9739Z" fill="white"/>
<path d="M237.309 91.1674C239.645 91.0406 241.985 91.0406 244.321 91.1674C241.985 91.2905 239.645 91.2905 237.309 91.1674Z" fill="white"/>
<path d="M192.437 80.5819C192.564 92.1821 192.669 103.775 192.676 115.375L192.795 150.16L192.437 149.877L246.723 149.944L273.87 150.004L301.016 150.16L273.87 150.317L246.723 150.377L192.437 150.451H192.079V150.16L192.199 115.375C192.206 103.775 192.333 92.1821 192.437 80.5819Z" fill="#455A64"/>
<path d="M198.249 155.367C200.813 154.979 203.421 154.979 205.985 155.367C203.42 155.748 200.813 155.748 198.249 155.367Z" fill="#DBDBDB"/>
<path d="M184.276 87.982C185.418 87.5944 186.656 87.5944 187.797 87.982C186.655 88.3626 185.419 88.3626 184.276 87.982Z" fill="#DBDBDB"/>
<path d="M184.276 100.492C185.419 100.112 186.655 100.112 187.797 100.492C186.656 100.88 185.418 100.88 184.276 100.492Z" fill="#DBDBDB"/>
<path d="M184.276 113.07C185.419 112.689 186.655 112.689 187.797 113.07C186.656 113.457 185.418 113.457 184.276 113.07Z" fill="#DBDBDB"/>
<path d="M184.276 125.617C185.419 125.237 186.655 125.237 187.797 125.617C186.656 126.005 185.418 126.005 184.276 125.617Z" fill="#DBDBDB"/>
<path d="M184.276 138.165C185.419 137.781 186.655 137.781 187.797 138.165C186.655 138.549 185.419 138.549 184.276 138.165Z" fill="#DBDBDB"/>
<path d="M217.227 155.367C219.788 154.979 222.394 154.979 224.955 155.367C222.393 155.748 219.789 155.748 217.227 155.367Z" fill="#DBDBDB"/>
<path d="M236.197 155.367C238.761 154.979 241.369 154.979 243.933 155.367C241.369 155.748 238.762 155.748 236.197 155.367Z" fill="#DBDBDB"/>
<path d="M255.168 155.367C257.732 154.979 260.34 154.979 262.904 155.367C260.339 155.748 257.732 155.748 255.168 155.367Z" fill="#DBDBDB"/>
<path d="M274.138 155.367C276.702 154.979 279.31 154.979 281.874 155.367C279.309 155.748 276.703 155.748 274.138 155.367Z" fill="#DBDBDB"/>
<path d="M293.116 155.367C295.68 154.979 298.288 154.979 300.852 155.367C298.288 155.748 295.681 155.748 293.116 155.367Z" fill="#DBDBDB"/>
<path d="M184.373 68.5267C195.295 68.0194 206.298 68.0194 217.197 68.5267C206.268 69.034 195.265 69.034 184.373 68.5267Z" fill="#DBDBDB"/>
<path d="M184.373 71.9806C191.389 71.4658 198.432 71.4658 205.448 71.9806C198.432 72.4879 191.389 72.4879 184.373 71.9806Z" fill="#DBDBDB"/>
<path d="M279.942 71.9805C286.962 71.6001 293.997 71.6001 301.016 71.9805C293.997 72.3535 286.962 72.3535 279.942 71.9805Z" fill="#4CAF4F"/>
<path d="M185.104 166.885C196.145 166.378 207.283 166.378 218.331 166.885C207.275 167.393 196.145 167.393 185.104 166.885Z" fill="#263238"/>
<path d="M275.921 166.886C284.281 166.513 292.646 166.513 301.017 166.886C292.656 167.263 284.291 167.263 275.921 166.886Z" fill="#4CAF4F"/>
<path d="M207.723 177.329C216.419 176.819 225.137 176.819 233.833 177.329C225.137 177.836 216.419 177.836 207.723 177.329Z" fill="#263238"/>
<path d="M207.723 181.156C215.015 180.649 222.333 180.649 229.625 181.156C222.333 181.663 215.015 181.663 207.723 181.156Z" fill="#263238"/>
<path d="M301.016 193.458C300.755 193.204 184.582 194.204 184.851 193.458V173.077V172.794H185.134L243.06 172.853C262.404 172.898 281.747 172.853 301.098 172.973C301.098 173.04 300.987 193.353 301.016 193.435V193.458ZM301.016 193.458L300.934 173.077C282.143 173.42 262.225 173.144 243.06 173.271C243.322 173.07 183.769 173.816 185.38 173.077V193.458C183.799 192.764 301.397 193.674 301.046 193.458H301.016Z" fill="#DBDBDB"/>
<path d="M202.874 176.009H188.103V190.78H202.874V176.009Z" fill="#4CAF4F"/>
<path d="M297.622 183.394C297.622 185.187 296.971 186.919 295.788 188.266C294.606 189.614 292.973 190.485 291.196 190.718C289.418 190.951 287.616 190.529 286.127 189.531C284.637 188.534 283.562 187.028 283.1 185.296C282.639 183.563 282.824 181.722 283.62 180.116C284.416 178.509 285.769 177.247 287.427 176.565C289.085 175.883 290.935 175.828 292.631 176.409C294.327 176.99 295.754 178.168 296.645 179.724C297.285 180.841 297.622 182.107 297.622 183.394Z" fill="#455A64"/>
<path d="M296.645 179.724L290.237 183.394V176.009C291.537 176.01 292.814 176.354 293.939 177.006C295.065 177.658 295.998 178.596 296.645 179.724Z" fill="#4CAF4F"/>
<path d="M290.237 188.504C293.059 188.504 295.347 186.216 295.347 183.394C295.347 180.572 293.059 178.284 290.237 178.284C287.415 178.284 285.127 180.572 285.127 183.394C285.127 186.216 287.415 188.504 290.237 188.504Z" fill="white"/>
<path d="M207.723 203.521C216.419 203.015 225.137 203.015 233.833 203.521C225.137 204.027 216.419 204.027 207.723 203.521Z" fill="#263238"/>
<path d="M207.723 207.363C215.015 206.856 222.333 206.856 229.625 207.363C222.333 207.87 215.015 207.87 207.723 207.363Z" fill="#263238"/>
<path d="M301.016 219.664C300.755 219.411 184.582 220.41 184.851 219.664V199.284V199H185.134L243.09 199.082C262.434 199.127 281.777 199.082 301.128 199.202C301.128 199.269 301.016 219.582 301.046 219.664H301.016ZM301.016 219.664L300.934 199.284C282.143 199.627 262.225 199.351 243.06 199.478C243.322 199.276 183.769 200.022 185.38 199.284V219.664C183.799 218.971 301.397 219.881 301.046 219.664H301.016Z" fill="#DBDBDB"/>
<path d="M202.874 202.216H188.103V216.986H202.874V202.216Z" fill="#455A64"/>
<path d="M297.622 209.601C297.622 211.394 296.971 213.125 295.788 214.473C294.606 215.821 292.973 216.692 291.196 216.925C289.418 217.158 287.616 216.736 286.127 215.738C284.637 214.74 283.562 213.235 283.1 211.502C282.639 209.77 282.824 207.929 283.62 206.322C284.416 204.716 285.769 203.454 287.427 202.772C289.085 202.09 290.935 202.034 292.631 202.616C294.327 203.197 295.754 204.375 296.645 205.931C297.285 207.048 297.622 208.313 297.622 209.601Z" fill="#455A64"/>
<path d="M297.622 209.601C297.621 209.963 297.594 210.325 297.54 210.683L290.237 209.601V202.216C292.195 202.216 294.074 202.994 295.459 204.379C296.844 205.764 297.622 207.642 297.622 209.601Z" fill="#4CAF4F"/>
<path d="M295.339 209.601C295.341 210.612 295.042 211.601 294.481 212.443C293.92 213.284 293.122 213.94 292.188 214.328C291.254 214.716 290.226 214.818 289.234 214.621C288.242 214.424 287.331 213.937 286.616 213.222C285.901 212.507 285.414 211.595 285.217 210.603C285.02 209.612 285.122 208.583 285.51 207.649C285.897 206.715 286.553 205.917 287.395 205.356C288.236 204.795 289.225 204.497 290.237 204.498C291.589 204.5 292.886 205.039 293.843 205.995C294.799 206.952 295.337 208.248 295.339 209.601Z" fill="white"/>
<path d="M207.723 229.728C216.419 229.221 225.137 229.221 233.833 229.728C225.137 230.234 216.419 230.234 207.723 229.728Z" fill="#263238"/>
<path d="M207.723 233.57C215.015 233.062 222.333 233.062 229.625 233.57C222.333 234.077 215.015 234.077 207.723 233.57Z" fill="#263238"/>
<path d="M301.016 245.871C300.755 245.617 184.582 246.617 184.851 245.871V225.49V225.207H185.134L243.09 225.289C262.434 225.334 281.777 225.289 301.128 225.408C301.128 225.476 301.016 245.789 301.046 245.871H301.016ZM301.016 245.871L300.934 225.49C282.143 225.834 262.225 225.558 243.06 225.684C243.322 225.483 183.769 226.229 185.38 225.49V245.871C183.799 245.177 301.397 246.087 301.046 245.871H301.016Z" fill="#DBDBDB"/>
<path d="M202.874 228.422H188.103V243.193H202.874V228.422Z" fill="#4CAF4F"/>
<path d="M297.622 235.807C297.623 237.301 297.171 238.759 296.325 239.99C295.479 241.221 294.28 242.166 292.885 242.7C292.041 243.028 291.143 243.194 290.237 243.193C288.776 243.193 287.348 242.76 286.134 241.948C284.919 241.137 283.973 239.983 283.414 238.634C282.855 237.284 282.709 235.799 282.993 234.367C283.278 232.934 283.982 231.618 285.015 230.585C286.048 229.552 287.363 228.849 288.796 228.564C290.229 228.279 291.714 228.425 293.063 228.984C294.413 229.543 295.566 230.49 296.378 231.704C297.189 232.919 297.622 234.347 297.622 235.807Z" fill="#455A64"/>
<path d="M297.622 235.808C297.623 237.301 297.17 238.759 296.324 239.99C295.479 241.221 294.279 242.166 292.885 242.7L290.237 235.808V228.422C292.195 228.422 294.074 229.2 295.459 230.585C296.844 231.97 297.622 233.849 297.622 235.808Z" fill="#4CAF4F"/>
<path d="M295.339 235.808C295.341 236.819 295.042 237.808 294.481 238.649C293.92 239.491 293.122 240.147 292.188 240.535C291.254 240.922 290.226 241.024 289.234 240.827C288.242 240.63 287.331 240.143 286.616 239.428C285.901 238.713 285.414 237.802 285.217 236.81C285.02 235.818 285.122 234.79 285.51 233.856C285.897 232.922 286.553 232.124 287.395 231.563C288.236 231.002 289.225 230.703 290.237 230.705C291.589 230.707 292.886 231.245 293.843 232.202C294.799 233.158 295.337 234.455 295.339 235.808Z" fill="white"/>
<path d="M312.437 238.702C303.217 251.197 293.594 265.692 291.251 281.365C291.246 281.392 291.246 281.42 291.251 281.447C291.257 281.474 291.267 281.499 291.282 281.522C291.298 281.545 291.317 281.565 291.34 281.58C291.363 281.595 291.389 281.606 291.415 281.611C291.442 281.617 291.47 281.617 291.497 281.611C291.524 281.606 291.55 281.596 291.573 281.58C291.595 281.565 291.615 281.545 291.63 281.523C291.646 281.5 291.656 281.474 291.662 281.447C292.72 277.174 294.082 272.98 295.735 268.9C301.8 267.229 307.76 265.856 310.938 259.836C314.191 253.652 313.78 245.58 313.176 238.836C313.094 238.501 312.602 238.501 312.437 238.702Z" fill="#4CAF4F"/>
<path d="M295.809 268.78C299.95 259.478 305.276 250.13 312.035 242.492C312.079 242.439 312.154 242.492 312.109 242.566C307.678 248.012 304.314 253.95 301.031 259.985C304.09 256.882 307.432 254.107 310.326 250.817C310.386 250.75 310.475 250.817 310.423 250.906C307.544 254.353 304.411 258.105 300.666 260.656C299.659 262.506 298.652 264.386 297.622 266.222C297.876 266.08 298.137 265.953 298.368 265.826C298.413 265.826 298.458 265.871 298.413 265.893C298.122 266.042 297.838 266.192 297.547 266.318C297.063 267.199 296.578 268.079 296.056 268.952C296.026 269.146 295.72 268.974 295.809 268.78Z" fill="#263238"/>
<path d="M298.89 265.535C301.37 264.147 303.737 262.566 305.969 260.806C306.029 260.761 306.119 260.843 306.059 260.895C303.897 262.765 301.526 264.379 298.994 265.707C298.983 265.714 298.971 265.718 298.958 265.72C298.945 265.722 298.931 265.722 298.918 265.719C298.906 265.716 298.894 265.71 298.883 265.702C298.872 265.694 298.863 265.685 298.856 265.673C298.85 265.662 298.845 265.65 298.843 265.636C298.841 265.623 298.842 265.61 298.845 265.597C298.848 265.584 298.853 265.572 298.861 265.562C298.869 265.551 298.879 265.542 298.89 265.535Z" fill="#263238"/>
<path d="M290.162 279.038C290.162 279.224 290.505 279.224 290.498 279.038C290.55 273.875 290.498 268.691 290.58 263.506C291.9 260.843 294.743 259.366 296.712 257.225C298.132 255.665 299.367 253.945 300.39 252.1C302.771 247.697 304.226 242.853 304.664 237.866C305.209 232.346 303.113 214.137 300.785 214.741C299.577 215.062 295.675 224.088 294.638 227.072C292.959 232.004 291.731 237.077 290.968 242.231C289.081 254.345 289.237 266.848 290.162 279.038Z" fill="#4CAF4F"/>
<path d="M290.125 256.777C290.408 250.25 291.878 243.655 293.258 237.322C294.75 230.504 296.473 224.081 299.972 217.993C300.032 217.881 300.203 217.993 300.144 218.098C297.803 222.83 295.992 227.806 294.743 232.936C294.974 232.563 295.257 232.189 295.489 231.869C295.586 231.734 295.809 231.869 295.72 232.003C295.404 232.553 295.034 233.071 294.616 233.547C294.609 233.551 294.601 233.552 294.593 233.552C294.586 233.552 294.578 233.551 294.571 233.547C293.363 238.426 292.497 243.409 291.759 248.385C291.811 248.325 291.863 248.258 291.923 248.198C291.982 248.139 292.02 248.198 291.997 248.251C291.908 248.422 291.803 248.579 291.699 248.75C291.326 251.272 290.953 253.793 290.632 256.292C295.108 252.451 298.965 247.915 301.136 242.335C301.136 242.335 301.188 242.335 301.173 242.335C299.054 248.124 295.712 253.271 290.558 256.785C290.468 257.456 290.371 258.128 290.274 258.799C290.274 258.933 290.035 258.903 290.035 258.762C290.035 258.172 290.035 257.576 290.088 256.979C290.076 256.963 290.069 256.946 290.064 256.927C290.06 256.908 290.06 256.889 290.063 256.87C290.067 256.851 290.074 256.833 290.085 256.817C290.095 256.801 290.109 256.788 290.125 256.777Z" fill="#263238"/>
<path d="M292.243 247.318C295.683 242.186 298.89 237.21 301.404 231.54C301.41 231.526 301.422 231.514 301.436 231.507C301.451 231.501 301.468 231.501 301.483 231.507C301.497 231.513 301.509 231.524 301.516 231.539C301.522 231.554 301.522 231.57 301.516 231.585C299.398 237.217 296.429 242.924 292.415 247.452C292.395 247.468 292.371 247.477 292.346 247.477C292.321 247.477 292.296 247.469 292.276 247.453C292.256 247.438 292.242 247.416 292.236 247.391C292.23 247.367 292.233 247.341 292.243 247.318Z" fill="#263238"/>
<path d="M296.809 230.295C298.234 227.773 299.733 225.326 301.076 222.76C301.113 222.686 301.21 222.76 301.18 222.82C300.081 225.5 298.687 228.049 297.025 230.422C297.006 230.445 296.979 230.461 296.949 230.466C296.919 230.472 296.889 230.466 296.862 230.451C296.836 230.436 296.817 230.412 296.807 230.383C296.797 230.354 296.798 230.323 296.809 230.295Z" fill="#263238"/>
<path d="M296.249 231.369V231.414C296.249 231.414 296.227 231.369 296.249 231.369Z" fill="#263238"/>
<path d="M286.671 264.11C286.6 267.541 286.196 270.956 285.462 274.308C285.515 274.674 285.567 275.054 285.627 275.42C286.679 271.728 287.288 267.924 287.439 264.088C287.471 264.035 287.487 263.974 287.487 263.913C287.487 263.851 287.471 263.79 287.439 263.737C287.598 258.583 287.225 253.426 286.328 248.348C284.731 238.859 281.24 229.758 274.623 222.656C274.569 222.605 274.503 222.569 274.432 222.549C274.36 222.528 274.285 222.526 274.212 222.54C274.139 222.555 274.071 222.586 274.013 222.632C273.955 222.678 273.908 222.737 273.877 222.805C271.207 229.593 272.139 237.725 274.414 244.439C275.643 248.105 277.402 251.571 279.636 254.726C281.934 257.934 284.836 260.627 286.671 264.11Z" fill="#4CAF4F"/>
<path d="M275.399 225.819C281.665 235.994 286.029 248.057 286.589 260.075C286.589 260.283 286.238 260.343 286.208 260.119C286.059 259.045 285.895 257.971 285.724 256.904C283.128 254.42 280.464 251.802 278.607 248.698C278.607 248.639 278.659 248.579 278.696 248.624C280.842 251.265 283.141 253.779 285.582 256.151C285.134 253.495 284.6 250.879 283.978 248.303C283.806 248.116 283.642 247.915 283.478 247.721C283.314 247.527 283.553 247.408 283.665 247.534L283.814 247.706C282.934 244.174 281.84 240.699 280.539 237.3C278.943 235.397 277.16 233.749 275.996 231.458C275.996 231.406 276.041 231.361 276.078 231.406C277.01 232.719 277.921 234.04 278.98 235.255C279.398 235.74 279.868 236.195 280.3 236.665C278.846 232.977 277.121 229.401 275.138 225.968C275.063 225.819 275.302 225.677 275.399 225.819Z" fill="#263238"/>
<path d="M276.667 238.381C278.689 241.104 281.001 243.708 282.881 246.527C282.934 246.602 282.822 246.684 282.754 246.624C280.33 244.386 278.279 241.253 276.525 238.456C276.473 238.366 276.63 238.299 276.667 238.381Z" fill="#263238"/>
<path d="M283.165 247.154L283.254 247.244C283.314 247.303 283.217 247.393 283.157 247.333L283.075 247.251C283.015 247.191 283.105 247.094 283.165 247.154Z" fill="#263238"/>
<path d="M265.574 245.386C266.317 251.067 268.606 256.434 272.191 260.903C273.667 262.657 275.494 264.083 277.555 265.088C279.875 266.236 282.307 267.564 284.716 268.504C285.855 271.415 286.702 274.431 287.245 277.508C287.327 277.247 287.402 276.971 287.477 276.71C285.94 263.461 277.361 252.092 266.395 244.864C266.309 244.809 266.209 244.78 266.107 244.78C266.005 244.78 265.905 244.809 265.819 244.864C265.732 244.919 265.664 244.997 265.621 245.09C265.577 245.182 265.561 245.285 265.574 245.386Z" fill="#4CAF4F"/>
<path d="M269.364 249.303C269.289 249.228 269.364 249.094 269.476 249.153C275.504 253.635 280.311 259.557 283.456 266.378C283.53 266.557 283.284 266.721 283.18 266.535C282.672 265.647 282.15 264.774 281.621 263.924C279.122 263.454 276.749 261.686 274.907 260.015C274.854 259.97 274.907 259.896 274.981 259.94C275.937 260.817 277 261.569 278.144 262.178C279.166 262.693 280.263 263.021 281.33 263.432C280.397 261.94 279.435 260.552 278.428 259.179C275.713 258.141 273.168 256.703 270.878 254.912C270.804 254.86 270.878 254.748 270.946 254.793C273.212 256.157 275.547 257.402 277.943 258.523C276.412 256.508 274.763 254.585 273.004 252.764C272.154 252.316 271.289 251.869 270.468 251.384C270.46 251.38 270.452 251.375 270.446 251.369C270.439 251.363 270.434 251.355 270.431 251.347C270.427 251.339 270.426 251.33 270.426 251.321C270.426 251.312 270.427 251.303 270.431 251.294C270.434 251.286 270.439 251.278 270.446 251.272C270.452 251.266 270.46 251.261 270.468 251.257C270.476 251.254 270.485 251.252 270.494 251.252C270.503 251.252 270.512 251.254 270.52 251.257C271.205 251.498 271.858 251.818 272.467 252.212C271.475 251.25 270.461 250.265 269.364 249.303Z" fill="#263238"/>
<path d="M269.602 253.875C269.749 253.964 269.889 254.064 270.02 254.174C270.065 254.211 270.02 254.263 269.968 254.248C269.816 254.174 269.669 254.089 269.528 253.995C269.453 253.95 269.52 253.823 269.602 253.875Z" fill="#263238"/>
<path d="M304.597 306.199H274.541L276.966 278.829L277.503 272.794H301.636L302.173 278.829L304.597 306.199Z" fill="#455A64"/>
<path d="M302.173 278.829H276.966L277.503 272.794H301.635L302.173 278.829Z" fill="#263238"/>
<path d="M303.075 268.579H276.063V274.554H303.075V268.579Z" fill="#455A64"/>
<path d="M164.276 42.6184C164.281 47.3832 162.959 52.0553 160.46 56.1122C157.961 60.1691 154.383 63.4508 150.125 65.5904C145.868 67.7299 141.099 68.643 136.352 68.2275C131.606 67.812 127.068 66.0843 123.247 63.2375L110.662 66.4527L115.884 54.7332C114.04 51.2892 113.005 47.4699 112.858 43.5658C112.712 39.6617 113.458 35.7756 115.04 32.2032C116.621 28.6308 118.997 25.4661 121.985 22.9498C124.974 20.4336 128.497 18.6321 132.287 17.6823C136.076 16.7326 140.033 16.6596 143.855 17.469C147.677 18.2783 151.264 19.9487 154.343 22.353C157.423 24.7573 159.913 27.8323 161.625 31.3439C163.338 34.8556 164.226 38.7115 164.224 42.6184H164.276Z" fill="white"/>
<path d="M164.276 42.6185C164.275 47.397 162.949 52.0817 160.447 56.1525C157.944 60.2232 154.362 63.5208 150.099 65.6792C145.835 67.8375 141.057 68.7722 136.295 68.3794C131.533 67.9865 126.972 66.2817 123.12 63.454L123.344 63.4987L110.774 66.7662L110.117 66.9377L110.393 66.3186L115.615 54.5841V54.9049C113.734 51.4203 112.687 47.5464 112.557 43.5882C112.02 31.5629 120.546 20.2164 132.288 17.5233C148.335 13.4204 164.418 26.0873 164.276 42.6185ZM164.276 42.6185C164.329 26.1395 148.342 13.6367 132.393 17.9187C121.016 20.6714 112.669 31.8986 113.258 43.5584C113.411 47.4042 114.431 51.1656 116.242 54.5618L116.324 54.7184L116.257 54.8825L111.02 66.5871L110.647 66.1321L123.247 62.984H123.366C127.152 65.8512 131.663 67.6055 136.391 68.0496C141.119 68.4938 145.878 67.6101 150.131 65.4981C154.385 63.386 157.965 60.1292 160.469 56.0939C162.973 52.0587 164.302 47.4049 164.306 42.6558L164.276 42.6185Z" fill="#263238"/>
<path d="M134.422 57.9037L122.911 46.2439L126.775 42.4244L133.504 49.2353L147.477 27.3256L152.057 30.2498L134.422 57.9037Z" fill="#4CAF4F"/>
<path d="M125.194 138.911C127.066 138.637 128.82 137.835 130.252 136.599C131.684 135.362 132.733 133.743 133.276 131.931C133.819 130.118 133.833 128.189 133.317 126.369C132.801 124.549 131.777 122.914 130.363 121.656C134.317 120.686 137.674 117.874 137.913 113.45C138.166 108.862 134.854 105.379 130.528 104.498C130.528 104.498 130.483 104.543 130.528 104.558C134.369 105.796 137.488 109.161 137.197 113.391C136.95 117.009 134.638 119.224 131.691 120.433C132.838 119.456 133.773 118.254 134.436 116.902C135.1 115.549 135.478 114.075 135.548 112.57C135.574 110.888 135.1 109.235 134.186 107.823C133.273 106.41 131.96 105.3 130.416 104.633C131.952 101.112 132.37 96.8146 130.356 93.3831C129.539 91.9455 128.32 90.777 126.85 90.0205C125.379 89.2641 123.72 88.9524 122.075 89.1235C122.515 87.315 122.414 85.4174 121.785 83.6657C121.157 81.914 120.028 80.3852 118.539 79.2687C117.05 78.1522 115.266 77.497 113.409 77.3843C111.551 77.2717 109.701 77.7065 108.088 78.6349C108.273 77.3049 108.12 75.9497 107.642 74.6948C107.164 73.4398 106.378 72.3257 105.355 71.4555C104.332 70.5853 103.107 69.9872 101.791 69.7165C100.476 69.4457 99.114 69.5112 97.8308 69.9068C97.7735 68.8788 97.4216 67.8891 96.8171 67.0557C96.2126 66.2224 95.381 65.5806 94.4216 65.207C92.1836 64.2522 89.7219 64.7744 87.5361 65.6621C86.9238 64.7788 86.0996 64.0632 85.1391 63.581C84.1785 63.0987 83.1123 62.8653 82.0382 62.9019C80.6564 62.997 79.3536 63.5805 78.3627 64.5482C77.3718 65.5158 76.7575 66.8045 76.6297 68.1835C72.8998 67.2809 68.7222 66.8258 65.231 68.7057C62.3589 70.2574 60.203 73.3682 60.591 76.6804C58.9673 76.5083 57.3256 76.6825 55.7742 77.1914C54.2228 77.7004 52.7969 78.5325 51.5908 79.633C50.3846 80.7334 49.4254 82.0772 48.7767 83.5755C48.1279 85.0738 47.8043 86.6927 47.8271 88.3253C46.4312 88.5998 45.132 89.2364 44.0597 90.1712C42.9874 91.106 42.1797 92.3063 41.7174 93.6516C41.0024 95.4764 40.7462 97.4489 40.9714 99.3958C39.7383 99.731 38.6421 100.446 37.8387 101.44C37.0352 102.433 36.5652 103.655 36.4955 104.931C36.3388 107.482 37.5846 109.526 39.3004 111.205C39.4545 111.88 39.4545 112.581 39.3004 113.256C38.9331 114.965 38.9958 116.738 39.4828 118.416C39.9697 120.094 40.8657 121.625 42.0904 122.872C41.6014 123.772 41.3099 124.766 41.2353 125.787C41.1607 126.809 41.3046 127.834 41.6576 128.796C42.0105 129.757 42.5644 130.632 43.2822 131.363C44 132.094 44.8653 132.663 45.8203 133.032C45.4143 135.12 45.8454 137.284 47.0205 139.056C48.1957 140.829 50.0206 142.068 52.1016 142.507C51.8999 144.187 52.062 145.892 52.5768 147.505C53.0916 149.118 53.9472 150.601 55.0855 151.854C56.8834 153.778 59.7107 155.151 62.2321 154.166C62.1874 156.24 64.2985 157.71 66.3052 157.896C67.0685 157.94 67.8342 157.897 68.588 157.77C69.4757 157.635 70.5872 157.232 71.4824 157.426C72.3776 157.62 73.0714 158.508 73.795 159.053C74.3179 159.444 74.8805 159.779 75.4735 160.052C77.7076 161.031 80.2087 161.22 82.5643 160.586C84.9199 159.953 86.9893 158.536 88.4313 156.568C91.2362 158.657 94.9811 157.881 97.8755 156.225C98.798 155.663 99.6715 155.024 100.487 154.316C101.177 153.638 102.06 153.19 103.015 153.032C103.642 152.958 104.291 153.032 104.925 152.958C107.074 152.727 108.528 151.242 109.789 149.623C117.517 154.897 126.186 147.43 125.194 138.911ZM37.331 106.147C37.2082 104.821 37.5013 103.489 38.1697 102.336C38.838 101.184 39.8485 100.269 41.0609 99.7166C41.0609 99.918 41.1355 100.045 41.1355 100.045C41.1355 100.045 40.4716 100.634 40.1807 100.955C39.6604 101.547 39.2305 102.214 38.905 102.932C38.2091 104.434 37.9754 106.108 38.2336 107.743C38.365 108.464 38.5855 109.166 38.8901 109.832C38.8901 109.922 38.9498 110.004 38.9871 110.086C38.0807 108.952 37.5073 107.588 37.331 106.147ZM83.2765 64.6848C82.013 64.5949 80.7524 64.8951 79.665 65.5448C78.5777 66.1945 77.7161 67.1625 77.1967 68.3178L76.9953 68.2656C77.689 65.7143 79.0244 63.5733 82.0829 63.439C83.0271 63.4075 83.963 63.6245 84.7969 64.0683C85.6309 64.5121 86.3337 65.1672 86.8349 65.968H86.7976C85.7675 65.2183 84.5473 64.7737 83.2765 64.6848ZM110.043 149.28C110.062 149.257 110.079 149.232 110.095 149.206C112.832 150.159 115.833 150.008 118.461 148.785C121.089 147.562 123.138 145.364 124.172 142.656C122.307 148.803 117.137 153.032 110.043 149.28Z" fill="#263238"/>
<path d="M86.4771 183.902C101.591 216.24 127.208 259.993 138.965 261.835C146.067 262.939 158.077 263.902 167.201 255.3C187.119 236.539 200.77 209.735 208.335 195.972C211.766 189.72 173.37 161.91 168.543 167.811C157.227 181.611 144.463 208.363 142.367 208.281C134.623 207.967 123.135 189.116 104.373 171.637C81.7773 150.571 80.0243 170.086 86.4771 183.902Z" fill="#AD6359"/>
<path d="M202.859 204.722C212.348 194.599 224.806 179.515 224.836 173.167C224.836 166.513 224.038 143.088 222.091 137.71C220.144 132.331 209.722 118.456 204.933 116.628C201.106 115.136 199.062 119.896 203.508 128.489C208.484 138.098 206.962 141.977 207.193 145.058C207.432 148.251 202.083 161.828 197.6 162.962C194.952 163.64 189.461 163.611 188.215 158.836C186.969 154.062 188.215 149.75 186.373 141.425C184.925 134.95 179.517 130.929 177.286 132.063C175.056 133.197 176.906 137.068 175.436 146.766C174.519 152.816 173.624 157.158 166.41 165.998C160.099 173.734 159.696 184.446 159.696 184.446L202.859 204.722Z" fill="#AD6359"/>
<path d="M225.276 158.239C225.015 154.592 227.514 143.536 226.649 138.717C225.783 133.898 220.129 116.158 214.713 114.711C207.932 112.898 209.946 127.318 211.386 133.502C212.825 139.687 208.872 150.832 208.872 150.832L218.204 154.8L225.276 158.239Z" fill="#AD6359"/>
<path d="M207.536 153.376C209.207 147.766 211.266 142.067 211.363 136.173C211.072 131.951 210.229 127.796 210.028 123.544C209.968 121.022 209.812 118.269 211.087 115.987C211.304 115.612 211.604 115.291 211.963 115.05C212.322 114.808 212.732 114.651 213.161 114.592C212.754 114.686 212.373 114.869 212.044 115.127C211.716 115.384 211.448 115.711 211.259 116.084C210.192 118.381 210.446 121.03 210.602 123.506C210.886 126.863 211.438 130.22 211.871 133.585C212.743 140.425 209.968 147.117 207.536 153.376Z" fill="#263238"/>
<path d="M224.963 161.417C225.709 157.867 231.147 148.049 231.677 143.2C232.206 138.351 231.721 119.814 226.992 116.867C221.024 113.137 218.98 127.497 218.644 133.816C218.309 140.134 211.453 149.601 211.453 149.601L219.226 156.091L224.963 161.417Z" fill="#AD6359"/>
<path d="M209.446 151.63C212.594 146.766 216.16 141.932 217.838 136.322C218.734 132.227 219.077 128.034 220.076 123.931C220.718 121.514 221.322 118.844 223.172 117.031C223.482 116.733 223.857 116.51 224.267 116.381C224.677 116.251 225.112 116.219 225.537 116.285C225.122 116.253 224.706 116.315 224.318 116.466C223.931 116.617 223.583 116.854 223.299 117.158C221.65 119.053 221.158 121.634 220.621 124.036C219.965 127.318 219.569 130.645 219.047 133.98C218.003 140.731 213.497 146.356 209.446 151.615V151.63Z" fill="#263238"/>
<path d="M210.722 160.172C206.365 163.782 200.278 165.125 194.757 165.491C190.539 165.642 186.403 166.706 182.635 168.609C181.375 169.243 180.152 169.947 178.972 170.72C183.432 167.085 188.949 164.991 194.698 164.752C200.24 164.364 205.999 163.26 210.714 160.164L210.722 160.172Z" fill="#263238"/>
<path d="M224.5 118.56L204.761 172.033C204.478 172.762 203.952 173.371 203.274 173.759C202.595 174.148 201.803 174.291 201.031 174.166L174.213 168.825C173.868 168.763 173.541 168.623 173.257 168.417C172.973 168.211 172.74 167.943 172.574 167.634C172.408 167.325 172.315 166.982 172.3 166.632C172.285 166.281 172.35 165.932 172.49 165.61L192.229 112.145C192.507 111.412 193.031 110.798 193.711 110.408C194.391 110.018 195.185 109.875 195.958 110.004L222.777 115.345C223.122 115.407 223.449 115.547 223.733 115.753C224.016 115.959 224.25 116.227 224.416 116.536C224.581 116.845 224.675 117.188 224.69 117.539C224.704 117.889 224.639 118.238 224.5 118.56Z" fill="#37474F"/>
<path d="M221.128 115.017L194.273 109.683C193.5 109.554 192.707 109.696 192.027 110.084C191.347 110.473 190.823 111.085 190.543 111.817L170.804 165.282C170.664 165.604 170.6 165.953 170.614 166.303C170.629 166.654 170.723 166.997 170.888 167.306C171.054 167.615 171.288 167.883 171.571 168.089C171.855 168.295 172.182 168.435 172.527 168.497L199.383 173.838C200.155 173.966 200.948 173.824 201.627 173.435C202.307 173.046 202.831 172.435 203.113 171.705L222.852 118.24C222.992 117.917 223.058 117.567 223.044 117.216C223.03 116.864 222.937 116.521 222.771 116.211C222.605 115.9 222.371 115.632 222.087 115.425C221.802 115.218 221.475 115.079 221.128 115.017ZM202.031 169.713C201.791 170.39 201.326 170.963 200.713 171.338C200.101 171.713 199.378 171.866 198.667 171.772L174.668 166.997C174.351 166.929 174.053 166.789 173.798 166.589C173.542 166.389 173.334 166.134 173.191 165.843C173.048 165.552 172.972 165.232 172.969 164.908C172.967 164.583 173.037 164.262 173.176 163.969L191.587 114.181C192.646 111.309 193.825 111.391 195.131 111.66L199.935 112.615C200.218 112.667 200.33 113.025 200.188 113.406L200.129 113.57C199.8 114.457 200.3 114.562 200.919 114.689L212.035 116.927C212.661 117.046 213.161 117.143 213.527 116.255L213.586 116.091C213.728 115.703 214.064 115.442 214.332 115.502L219.137 116.457C220.479 116.725 221.427 117.322 220.457 119.948L202.031 169.713Z" fill="#263238"/>
<path d="M220.412 119.926L202.031 169.713C201.791 170.39 201.326 170.963 200.714 171.338C200.101 171.713 199.379 171.866 198.667 171.772L174.668 166.998C174.351 166.929 174.053 166.789 173.798 166.589C173.542 166.389 173.335 166.134 173.191 165.843C173.048 165.552 172.972 165.232 172.969 164.908C172.967 164.583 173.037 164.262 173.176 163.969L191.587 114.181C192.647 111.309 193.825 111.391 195.131 111.66L199.935 112.615C200.218 112.667 200.33 113.025 200.189 113.406L200.129 113.57C199.801 114.457 200.3 114.562 200.92 114.689L212.035 116.927C212.662 117.046 213.161 117.143 213.527 116.255L213.587 116.091C213.728 115.703 214.064 115.442 214.333 115.502L219.137 116.457C220.435 116.703 221.382 117.3 220.412 119.926Z" fill="white"/>
<path d="M198.666 113.57H198.599C198.561 113.498 198.507 113.437 198.441 113.391C198.375 113.344 198.299 113.313 198.219 113.301C198.042 113.272 197.861 113.304 197.704 113.391V113.338L197.779 113.294L197.95 113.241C198.017 113.234 198.085 113.234 198.152 113.241H198.323H198.383C198.436 113.256 198.486 113.279 198.532 113.308L198.629 113.383C198.658 113.412 198.683 113.445 198.704 113.48L198.741 113.532L198.666 113.57Z" fill="#C7C7C7"/>
<path d="M197.764 113.614L197.719 113.532C197.824 113.467 197.947 113.436 198.07 113.443C198.151 113.446 198.229 113.469 198.298 113.511C198.367 113.553 198.425 113.612 198.465 113.681L198.368 113.734C198.341 113.686 198.303 113.645 198.258 113.614C198.213 113.583 198.161 113.563 198.107 113.555C197.989 113.534 197.868 113.555 197.764 113.614Z" fill="#C7C7C7"/>
<path d="M198.301 113.793L198.204 113.846C198.19 113.823 198.171 113.804 198.149 113.788C198.128 113.773 198.103 113.762 198.077 113.756C198.019 113.734 197.956 113.734 197.898 113.756L197.853 113.674C197.89 113.65 197.931 113.635 197.974 113.628C198.017 113.621 198.061 113.624 198.103 113.635C198.146 113.646 198.185 113.666 198.219 113.693C198.253 113.721 198.281 113.755 198.301 113.793Z" fill="#C7C7C7"/>
<path d="M198.055 113.92C198.047 113.936 198.034 113.95 198.018 113.958C198.001 113.966 197.983 113.968 197.965 113.965C197.957 113.963 197.95 113.96 197.943 113.955C197.936 113.95 197.931 113.944 197.927 113.937C197.923 113.93 197.92 113.923 197.919 113.914C197.918 113.906 197.918 113.898 197.92 113.89C197.928 113.873 197.941 113.859 197.957 113.85C197.973 113.841 197.991 113.836 198.01 113.838C198.019 113.84 198.027 113.843 198.035 113.848C198.042 113.854 198.048 113.86 198.052 113.868C198.056 113.876 198.059 113.885 198.059 113.894C198.06 113.903 198.058 113.912 198.055 113.92Z" fill="#C7C7C7"/>
<path d="M194.086 112.801C194.107 112.751 194.144 112.709 194.191 112.682C194.238 112.655 194.293 112.645 194.347 112.652C194.371 112.657 194.393 112.667 194.413 112.681C194.432 112.696 194.448 112.714 194.46 112.736C194.471 112.757 194.478 112.781 194.479 112.805C194.48 112.829 194.476 112.853 194.466 112.876C194.448 112.928 194.411 112.971 194.363 112.999C194.316 113.026 194.26 113.035 194.205 113.025C194.182 113.02 194.159 113.01 194.14 112.996C194.12 112.981 194.104 112.963 194.093 112.941C194.081 112.92 194.075 112.896 194.074 112.872C194.073 112.848 194.077 112.824 194.086 112.801Z" fill="#C7C7C7"/>
<path d="M194.691 112.921C194.71 112.87 194.747 112.827 194.795 112.8C194.842 112.773 194.898 112.763 194.952 112.771C194.975 112.776 194.998 112.786 195.017 112.801C195.037 112.815 195.053 112.834 195.064 112.855C195.076 112.877 195.082 112.9 195.083 112.924C195.084 112.949 195.08 112.973 195.071 112.995C195.051 113.046 195.014 113.089 194.967 113.116C194.919 113.143 194.864 113.153 194.81 113.144C194.786 113.14 194.764 113.13 194.744 113.115C194.725 113.101 194.709 113.082 194.697 113.061C194.686 113.039 194.679 113.016 194.678 112.991C194.677 112.967 194.681 112.943 194.691 112.921Z" fill="#C7C7C7"/>
<path d="M195.317 113.04C195.338 112.991 195.373 112.95 195.419 112.923C195.465 112.896 195.518 112.885 195.571 112.891C195.595 112.895 195.618 112.904 195.639 112.918C195.659 112.932 195.676 112.95 195.688 112.972C195.7 112.994 195.708 113.018 195.709 113.042C195.711 113.067 195.707 113.092 195.698 113.115C195.678 113.166 195.641 113.208 195.593 113.235C195.546 113.263 195.49 113.273 195.436 113.264C195.412 113.26 195.389 113.251 195.368 113.237C195.348 113.223 195.331 113.204 195.32 113.182C195.308 113.16 195.302 113.136 195.301 113.111C195.301 113.087 195.306 113.062 195.317 113.04Z" fill="#C7C7C7"/>
<path d="M195.891 113.174C195.913 113.125 195.95 113.083 195.997 113.058C196.045 113.032 196.099 113.023 196.153 113.032C196.177 113.036 196.2 113.046 196.221 113.06C196.241 113.074 196.258 113.092 196.27 113.114C196.282 113.135 196.289 113.159 196.291 113.184C196.293 113.209 196.289 113.233 196.279 113.256C196.257 113.305 196.22 113.345 196.173 113.371C196.125 113.397 196.071 113.406 196.018 113.398C195.994 113.394 195.971 113.385 195.95 113.371C195.93 113.357 195.913 113.338 195.901 113.317C195.889 113.295 195.881 113.271 195.88 113.247C195.878 113.222 195.882 113.197 195.891 113.174Z" fill="#C7C7C7"/>
<path d="M196.496 113.279C196.517 113.229 196.554 113.188 196.601 113.162C196.649 113.136 196.704 113.128 196.757 113.137C196.781 113.14 196.805 113.149 196.825 113.164C196.845 113.178 196.862 113.197 196.874 113.218C196.885 113.24 196.891 113.264 196.892 113.289C196.892 113.314 196.887 113.338 196.876 113.361C196.855 113.41 196.818 113.451 196.77 113.477C196.723 113.503 196.668 113.512 196.615 113.502C196.591 113.498 196.569 113.488 196.549 113.473C196.53 113.459 196.514 113.44 196.502 113.419C196.491 113.397 196.485 113.374 196.483 113.349C196.482 113.325 196.486 113.301 196.496 113.279Z" fill="#C7C7C7"/>
<path d="M218.748 118.15L217.189 117.837L217.45 117.135L219.002 117.449L218.748 118.15ZM217.301 117.777L218.696 118.053L218.898 117.508L217.495 117.232L217.301 117.777Z" fill="#C7C7C7"/>
<path d="M218.54 117.486L217.533 117.285L217.361 117.747L218.368 117.941L218.54 117.486Z" fill="#C7C7C7"/>
<path d="M218.95 118.016L218.808 117.986L218.943 117.613L219.084 117.635L218.95 118.016Z" fill="#C7C7C7"/>
<path d="M208.379 114.979L205.343 114.375C205.32 114.371 205.297 114.362 205.278 114.349C205.258 114.335 205.242 114.317 205.231 114.296C205.219 114.275 205.213 114.252 205.211 114.228C205.21 114.205 205.214 114.181 205.224 114.159C205.245 114.111 205.281 114.071 205.327 114.045C205.372 114.019 205.425 114.01 205.477 114.017L208.514 114.621C208.537 114.625 208.56 114.634 208.579 114.648C208.599 114.662 208.615 114.68 208.626 114.7C208.638 114.721 208.644 114.744 208.645 114.768C208.647 114.792 208.642 114.816 208.633 114.838C208.613 114.887 208.577 114.928 208.531 114.953C208.485 114.979 208.431 114.988 208.379 114.979Z" fill="white"/>
<path d="M177.07 164.327L176.928 164.304L176.697 164.931L176.436 164.879L176.555 164.558L176.085 164.461L175.966 164.782L175.705 164.73L175.936 164.103L175.794 164.073L176.667 163.566L177.07 164.327Z" fill="#EBEBEB"/>
<path d="M200.084 168.46L198.547 168.146L198.629 167.937L200.166 168.243L200.084 168.46Z" fill="#EBEBEB"/>
<path d="M199.89 168.982L198.353 168.676L198.435 168.467L199.972 168.765L199.89 168.982Z" fill="#EBEBEB"/>
<path d="M199.696 169.511L198.159 169.206L198.241 168.989L199.778 169.295L199.696 169.511Z" fill="#EBEBEB"/>
<path d="M188.312 166.587L187.708 166.953L187.432 166.408L187.536 166.356L187.76 166.796L188.26 166.498L188.312 166.587Z" fill="#EBEBEB"/>
<path d="M187.529 167.415C187.429 167.398 187.334 167.359 187.251 167.3C187.168 167.242 187.1 167.165 187.051 167.076C187.002 166.987 186.974 166.888 186.969 166.786C186.964 166.685 186.982 166.584 187.022 166.49C187.104 166.279 187.257 166.104 187.454 165.992C187.651 165.881 187.88 165.841 188.103 165.878C188.203 165.895 188.299 165.934 188.381 165.993C188.464 166.052 188.533 166.129 188.581 166.218C188.63 166.307 188.658 166.406 188.663 166.507C188.668 166.609 188.65 166.71 188.611 166.803C188.528 167.014 188.375 167.19 188.178 167.302C187.981 167.413 187.752 167.453 187.529 167.415ZM188.059 165.983C187.866 165.949 187.667 165.984 187.497 166.08C187.327 166.177 187.196 166.33 187.126 166.513C187.092 166.594 187.077 166.682 187.082 166.77C187.087 166.858 187.111 166.943 187.153 167.021C187.195 167.098 187.254 167.165 187.326 167.216C187.397 167.268 187.479 167.303 187.566 167.318C187.761 167.35 187.96 167.314 188.132 167.217C188.303 167.119 188.435 166.965 188.506 166.781C188.54 166.7 188.555 166.612 188.55 166.524C188.544 166.436 188.519 166.35 188.476 166.273C188.433 166.196 188.373 166.13 188.301 166.08C188.228 166.03 188.146 165.996 188.059 165.983Z" fill="#EBEBEB"/>
<path d="M193.43 117.822L192.863 116.882L194.004 116.277L194.086 116.434L193.146 116.934L193.609 117.71L193.43 117.822Z" fill="#DBDBDB"/>
<path d="M217.615 121.291C217.597 121.335 217.564 121.372 217.522 121.395C217.48 121.418 217.431 121.426 217.384 121.417C217.362 121.415 217.341 121.407 217.324 121.395C217.306 121.383 217.291 121.367 217.281 121.348C217.27 121.329 217.265 121.307 217.265 121.286C217.264 121.264 217.269 121.243 217.279 121.223C217.296 121.18 217.327 121.143 217.368 121.12C217.409 121.097 217.457 121.088 217.503 121.097C217.524 121.1 217.545 121.107 217.563 121.119C217.581 121.132 217.596 121.148 217.606 121.166C217.617 121.185 217.624 121.206 217.625 121.227C217.626 121.249 217.623 121.271 217.615 121.291Z" fill="#DBDBDB"/>
<path d="M217.398 121.865C217.382 121.909 217.351 121.947 217.31 121.971C217.269 121.996 217.222 122.006 217.175 121.999C217.153 121.995 217.132 121.987 217.114 121.974C217.097 121.961 217.082 121.944 217.071 121.925C217.06 121.906 217.054 121.884 217.053 121.862C217.051 121.84 217.055 121.818 217.063 121.798C217.082 121.754 217.115 121.718 217.157 121.695C217.199 121.672 217.247 121.664 217.294 121.671C217.315 121.675 217.334 121.683 217.351 121.696C217.368 121.708 217.382 121.725 217.392 121.743C217.402 121.762 217.408 121.782 217.409 121.803C217.41 121.824 217.406 121.845 217.398 121.865Z" fill="#DBDBDB"/>
<path d="M217.182 122.447C217.165 122.491 217.134 122.528 217.093 122.551C217.052 122.574 217.004 122.582 216.958 122.574C216.937 122.571 216.916 122.563 216.898 122.551C216.88 122.539 216.865 122.523 216.855 122.504C216.844 122.485 216.837 122.464 216.836 122.443C216.835 122.421 216.838 122.4 216.846 122.38C216.864 122.335 216.897 122.298 216.939 122.275C216.981 122.252 217.03 122.244 217.077 122.253C217.099 122.255 217.12 122.263 217.137 122.275C217.155 122.287 217.17 122.304 217.18 122.323C217.191 122.342 217.196 122.363 217.196 122.385C217.197 122.406 217.192 122.428 217.182 122.447Z" fill="#DBDBDB"/>
<path d="M200.128 118.396C203.485 118.941 206.842 119.605 210.095 120.38C206.738 119.843 203.381 119.179 200.128 118.396Z" fill="#DBDBDB"/>
<path d="M190.737 120.91C193.162 121.264 195.567 121.742 197.943 122.342C195.518 121.989 193.113 121.511 190.737 120.91Z" fill="#DBDBDB"/>
<path d="M209.692 127.512C211.343 127.714 212.977 128.041 214.579 128.489C212.927 128.29 211.293 127.964 209.692 127.512Z" fill="#DBDBDB"/>
<path d="M209.491 128.042C211.142 128.241 212.776 128.568 214.377 129.019C212.726 128.818 211.092 128.491 209.491 128.042Z" fill="#DBDBDB"/>
<path d="M190.468 121.641C192.03 121.826 193.574 122.135 195.086 122.566C193.524 122.382 191.98 122.072 190.468 121.641Z" fill="#DBDBDB"/>
<path d="M200.599 125.856L196.063 132.309L193.437 139.418C192.509 139.263 191.628 138.899 190.861 138.354C190.093 137.809 189.459 137.098 189.006 136.273C188.553 135.448 188.293 134.531 188.245 133.592C188.197 132.652 188.363 131.713 188.73 130.847C189.491 128.906 190.896 127.286 192.709 126.257C194.521 125.227 196.632 124.852 198.689 125.192C199.354 125.32 199.997 125.544 200.599 125.856Z" fill="#4CAF4F"/>
<path d="M198.301 138.896C196.765 139.54 195.075 139.721 193.437 139.418L196.063 132.309L198.301 138.896Z" fill="#263238"/>
<path d="M203.396 133.764C202.945 134.924 202.259 135.979 201.381 136.863C200.503 137.746 199.452 138.438 198.294 138.896L196.056 132.309L203.419 128.974C204.009 130.518 204.001 132.226 203.396 133.764Z" fill="#37474F"/>
<path d="M204.411 128.616L195.959 132.443L201.181 125.05C202.647 125.818 203.792 127.082 204.411 128.616Z" fill="#C7C7C7"/>
<path d="M199.726 133.033C199.345 134.004 198.642 134.814 197.735 135.329C196.828 135.844 195.771 136.031 194.743 135.86C194.279 135.782 193.839 135.6 193.456 135.328C193.072 135.056 192.755 134.701 192.529 134.289C192.302 133.877 192.171 133.419 192.146 132.95C192.122 132.48 192.203 132.011 192.385 131.578C192.766 130.607 193.469 129.796 194.376 129.282C195.283 128.767 196.34 128.579 197.368 128.751C197.833 128.826 198.275 129.006 198.66 129.278C199.045 129.549 199.363 129.905 199.59 130.317C199.817 130.73 199.948 131.189 199.971 131.659C199.995 132.13 199.911 132.599 199.726 133.033Z" fill="white"/>
<path d="M208.708 128.012L207.924 127.855L208.2 127.094L208.991 127.251L208.708 128.012Z" fill="#4CAF4F"/>
<path d="M208.953 129.519C210.605 129.718 212.239 130.045 213.84 130.496C212.188 130.295 210.555 129.968 208.953 129.519Z" fill="#DBDBDB"/>
<path d="M208.745 130.048C210.396 130.249 212.029 130.573 213.631 131.018C211.98 130.82 210.347 130.495 208.745 130.048Z" fill="#DBDBDB"/>
<path d="M207.969 130.019L207.178 129.862L207.462 129.094L208.253 129.258L207.969 130.019Z" fill="#263238"/>
<path d="M208.208 131.526C209.862 131.724 211.498 132.05 213.101 132.503C211.448 132.301 209.812 131.974 208.208 131.526Z" fill="#DBDBDB"/>
<path d="M207.999 132.055C209.65 132.254 211.283 132.578 212.885 133.025C211.234 132.825 209.601 132.501 207.999 132.055Z" fill="#DBDBDB"/>
<path d="M207.23 132.025L206.44 131.869L206.723 131.1L207.514 131.257L207.23 132.025Z" fill="#37474F"/>
<path d="M207.469 133.532C209.12 133.731 210.754 134.055 212.355 134.502C210.705 134.302 209.071 133.978 207.469 133.532Z" fill="#DBDBDB"/>
<path d="M207.253 134.062C208.904 134.261 210.537 134.585 212.139 135.032C210.488 134.832 208.855 134.507 207.253 134.062Z" fill="#DBDBDB"/>
<path d="M206.492 134.032L205.701 133.875L205.985 133.107L206.775 133.264L206.492 134.032Z" fill="#C7C7C7"/>
<path d="M192.027 165.289L190.296 164.946L196.354 148.549L198.077 148.892L192.027 165.289Z" fill="#EBEBEB"/>
<path d="M183.754 140.276C188.409 141.074 193.273 142.044 197.846 143.081C193.191 142.275 188.319 141.313 183.754 140.276Z" fill="#263238"/>
<path d="M183.418 141.186C186.067 141.589 188.693 142.111 191.251 142.745C188.603 142.35 185.977 141.828 183.418 141.186Z" fill="#263238"/>
<path d="M203.68 144.245C205.532 144.517 207.37 144.883 209.185 145.341C207.333 145.068 205.495 144.702 203.68 144.245Z" fill="#4CAF4F"/>
<path d="M180.427 155.457L179.868 155.345L183.157 146.423L183.724 146.535L180.427 155.457Z" fill="#4CAF4F"/>
<path d="M178.025 161.969L177.458 161.85L179.576 156.113L180.143 156.233L178.025 161.969Z" fill="#455A64"/>
<path d="M184.508 152.316L183.948 152.197L185.88 146.968L186.447 147.08L184.508 152.316Z" fill="#4CAF4F"/>
<path d="M180.748 162.507L180.181 162.395L183.665 152.973L184.224 153.085L180.748 162.507Z" fill="#455A64"/>
<path d="M188.275 150.026L187.708 149.914L188.603 147.505L189.162 147.617L188.275 150.026Z" fill="#4CAF4F"/>
<path d="M183.471 163.051L182.904 162.939L187.425 150.683L187.991 150.802L183.471 163.051Z" fill="#455A64"/>
<path d="M189.439 154.793L188.872 154.681L191.318 148.049L191.885 148.161L189.439 154.793Z" fill="#4CAF4F"/>
<path d="M186.186 163.588L185.627 163.476L188.588 155.457L189.155 155.569L186.186 163.588Z" fill="#455A64"/>
<path d="M192.676 153.935L192.109 153.823L194.041 148.586L194.608 148.706L192.676 153.935Z" fill="#4CAF4F"/>
<path d="M188.909 164.133L188.342 164.021L191.826 154.599L192.385 154.711L188.909 164.133Z" fill="#455A64"/>
<path d="M193.109 160.664L192.549 160.552L196.764 149.131L197.324 149.243L193.109 160.664Z" fill="#4CAF4F"/>
<path d="M191.632 164.677L191.065 164.565L192.258 161.32L192.825 161.432L191.632 164.677Z" fill="#455A64"/>
<path d="M198.256 154.636L197.689 154.524L199.48 149.676L200.047 149.787L198.256 154.636Z" fill="#4CAF4F"/>
<path d="M194.347 165.215L193.788 165.103L197.406 155.293L197.973 155.405L194.347 165.215Z" fill="#455A64"/>
<path d="M197.712 164.013L197.145 163.902L202.203 150.213L202.77 150.332L197.712 164.013Z" fill="#4CAF4F"/>
<path d="M197.07 165.759L196.503 165.647L196.861 164.677L197.428 164.789L197.07 165.759Z" fill="#455A64"/>
<path d="M204.403 153.801L203.844 153.689L204.925 150.757L205.485 150.869L204.403 153.801Z" fill="#4CAF4F"/>
<path d="M199.793 166.304L199.226 166.184L203.553 154.457L204.12 154.577L199.793 166.304Z" fill="#455A64"/>
<path d="M185.739 143.879C187.392 144.081 189.028 144.408 190.632 144.857C188.978 144.658 187.342 144.332 185.739 143.879Z" fill="#DBDBDB"/>
<path d="M185.545 144.409C187.196 144.606 188.83 144.933 190.431 145.386C188.78 145.183 187.147 144.857 185.545 144.409Z" fill="#DBDBDB"/>
<path d="M184.761 144.379L183.97 144.222L184.254 143.461L185.045 143.618L184.761 144.379Z" fill="#4CAF4F"/>
<path d="M193.9 145.505C195.554 145.704 197.19 146.03 198.793 146.483C197.139 146.284 195.503 145.958 193.9 145.505Z" fill="#DBDBDB"/>
<path d="M193.706 146.035C195.357 146.234 196.99 146.558 198.592 147.005C196.941 146.805 195.308 146.481 193.706 146.035Z" fill="#DBDBDB"/>
<path d="M192.922 146.005L192.132 145.849L192.415 145.088L193.206 145.244L192.922 146.005Z" fill="#455A64"/>
<path d="M223.418 177.576C224.91 174.36 230.072 161.708 230.363 156.352C230.654 150.996 229.058 130.563 223.649 127.49C216.809 123.626 215.332 139.5 215.324 146.468C215.317 153.435 209.095 160.828 209.095 160.828L219.077 169.653L223.418 177.576Z" fill="#AD6359"/>
<path d="M216.205 135.554C216.289 137.872 216.255 140.192 216.1 142.507C216.111 144.708 215.956 146.908 215.638 149.086C215.156 151.198 214.326 153.214 213.184 155.054C212.639 155.972 212.05 156.852 211.423 157.717C210.796 158.583 209.968 159.552 209.312 160.507C209.245 160.604 209.073 160.507 209.14 160.403C210.275 158.602 211.289 156.728 212.176 154.793C213.136 152.807 213.845 150.71 214.288 148.549C215.153 144.252 215.078 139.806 215.906 135.502C215.921 135.33 216.205 135.382 216.205 135.554Z" fill="#263238"/>
<path d="M215.615 149.079C215.541 144.2 214.265 123.931 223.016 126.93C227.894 129.765 229.222 140.358 229.789 145.58C228.849 140.701 227.163 130.123 222.71 127.542C215.168 125.088 216.07 144.61 215.615 149.049V149.079Z" fill="#263238"/>
<path d="M159.316 178.821L202.583 214.495C202.583 214.495 179.554 249.668 163.941 259.597C156.57 264.274 141.621 264.297 136.637 262.432C131.983 260.701 105.858 234.636 86.313 187.714C71.1619 151.22 95.3544 160.172 104.418 169.623C114.191 179.806 139.972 205.923 141.389 205.498C142.807 205.073 159.316 178.821 159.316 178.821Z" fill="#4CAF4F"/>
<path d="M153.691 191.712C160.218 196.8 166.582 202.081 172.908 207.378C176.011 209.981 187.932 220.806 191.371 223.857C191.505 223.984 191.184 224.334 191.035 224.222C187.656 221.619 175.049 211.011 171.99 208.355C165.761 202.939 159.569 197.486 153.542 191.846C153.437 191.772 153.579 191.623 153.691 191.712Z" fill="#263238"/>
<path opacity="0.1" d="M159.51 261.626C151.699 264.23 140.778 263.976 136.667 262.432C132.012 260.694 105.888 234.629 86.3355 187.721C78.0102 167.736 81.5239 161.388 87.9021 161.313C97.115 174.114 135.437 227.669 159.51 261.626Z" fill="black"/>
<path d="M131.013 306.177H16.7195C22.3144 279.105 46.6934 181.596 66.574 167.176C78.8008 158.299 94.9216 164.454 97.6967 168.243C108.969 183.805 127.738 281.276 131.013 306.177Z" fill="#EBEBEB"/>
<path d="M99.5767 171.13C99.5767 171.078 99.4872 171.093 99.4872 171.13C100.047 175.89 100.979 186.938 92.2809 186.796C88.7822 186.744 85.5148 185.065 82.777 183.387C80.0216 181.681 77.4602 179.68 75.138 177.419C72.5112 175.019 70.0976 172.396 67.9243 169.579C67.8348 169.459 67.6259 169.579 67.7154 169.72C69.9012 172.51 71.7512 175.435 74.2578 178.031C76.6903 180.612 79.4665 182.846 82.5084 184.67C85.4327 186.386 88.9016 188.049 92.6017 187.945C94.1389 187.971 95.643 187.497 96.8876 186.594C98.1321 185.691 99.0496 184.409 99.5021 182.939C100.688 179.179 100.427 174.868 99.5767 171.13Z" fill="#263238"/>
<path d="M70.2219 163.372C70.2219 163.372 77.8011 203.82 79.2334 218.836C80.6657 233.853 76.1077 306.177 76.1077 306.177H14.7874C14.7874 306.177 33.3625 217.24 51.587 182.79C61.7847 163.566 70.2219 163.372 70.2219 163.372Z" fill="#4CAF4F"/>
<path d="M96.3613 166.14C96.3613 166.14 108.603 211.891 109.409 216.755C110.214 221.619 114.28 306.572 114.28 306.572L134.31 306.43C134.31 306.43 113.258 178.374 96.3613 166.14Z" fill="#4CAF4F"/>
<path d="M51.0425 179.731C25.2312 214.48 -3.60131 284.006 5.28344 296.009C15.1902 309.437 51.0872 260.724 50.5725 258.254C50.1846 256.382 59.4423 215.323 66.6411 185.386C73.8399 155.449 57.4207 171.138 51.0425 179.731Z" fill="#AD6359"/>
<path d="M50.8633 258.262C51.5571 253.913 64.3881 199.679 67.8346 182.611C71.2811 165.543 65.2609 161.268 50.9678 178.463C36.6746 195.658 7.7824 250.436 3.30646 278.038C-1.01282 304.58 12.0793 302.738 27.7078 288.579C40.5015 276.964 50.8633 258.262 50.8633 258.262Z" fill="#4CAF4F"/>
<path d="M50.8633 258.262C54.5783 237.21 59.3029 216.372 65.0371 195.748C61.332 216.795 56.6074 237.633 50.8633 258.262Z" fill="#263238"/>
<path d="M65.731 198.829C65.5511 201.671 64.4573 204.38 62.6128 206.55C63.4931 203.931 64.612 201.365 65.731 198.829Z" fill="#263238"/>
<path d="M5.28341 296.009C13.4222 304.752 32.1391 303.999 79.3975 306.542C85.9399 306.893 100.837 261.395 93.8697 260.664C85.0969 259.739 50.8485 258.053 48.3643 258.239C27.0738 259.866 -0.236912 290.086 5.28341 296.009Z" fill="#AD6359"/>
<path d="M85.6043 262.29C85.6043 262.29 103.001 256.673 113.057 256.546C126.522 256.382 138.212 261.768 142.971 264.342C152.915 269.683 173.258 289.474 168.581 296.33C164.351 302.529 144.575 281.253 144.575 281.253C144.575 281.253 168.32 299.62 161.845 306.154C155.369 312.689 133.825 286.684 133.825 286.684C133.825 286.684 157.794 306.08 150.058 311.787C144.209 316.076 123.359 293.622 123.359 293.622C123.359 293.622 143.844 310.459 138.025 315.129C131.587 320.298 111.05 300.776 111.05 300.776C94.2429 310.168 82.3966 307.758 74.1758 305.05C72.184 304.394 85.6043 262.29 85.6043 262.29Z" fill="#AD6359"/>
<path d="M136.772 274.375C139.636 276.434 142.553 278.493 145.231 280.798C147.909 283.103 150.498 285.505 152.945 288.049C158.95 294.286 161.733 299.127 161.531 298.851C156.69 292.212 147.245 283.812 144.567 281.507C141.889 279.202 139.345 276.777 136.682 274.472C136.615 274.413 136.705 274.308 136.772 274.375Z" fill="#263238"/>
<path d="M128.275 283.879C131.818 286.662 135.444 289.295 138.868 292.242C142.292 295.188 145.254 298.21 148.454 301.402C148.7 301.641 148.454 301.693 148.23 301.462C144.91 298.433 141.606 295.897 138.249 292.913C134.892 289.929 131.654 286.811 128.2 283.961C128.178 283.916 128.223 283.834 128.275 283.879Z" fill="#263238"/>
<path d="M119.517 290.72C125.157 294.696 130.05 299.709 134.735 304.745C134.974 304.991 134.69 305.028 134.437 304.789C129.468 300.03 125.597 296.263 119.375 290.914C119.278 290.839 119.398 290.645 119.517 290.72Z" fill="#263238"/>
<path d="M88.4389 259.284L54.4516 309.84C54.4516 309.84 12.3778 306.222 4.90296 296.613C-0.0205727 290.287 26.7456 258.098 50.3636 258.09L88.4389 259.284Z" fill="#4CAF4F"/>
<path d="M23.7392 269.28C27.0887 266.043 36.7194 258.254 50.371 258.046C50.4904 258.046 50.5202 258.239 50.371 258.254C40.2181 259.388 27.3125 266.595 23.8213 269.444C23.7765 269.504 23.6721 269.362 23.7392 269.28Z" fill="#263238"/>
<path d="M42.3888 303.879C45.8278 298.12 49.5727 292.548 53.3325 286.99C57.0923 281.432 60.8446 275.852 64.7461 270.384C66.9841 267.296 69.1326 264.193 71.46 261.179C71.5197 261.097 71.6689 261.179 71.6167 261.268C68.1851 267.02 64.4552 272.615 60.7402 278.187C57.0251 283.76 53.228 289.325 49.3937 294.845C47.2303 297.956 44.9998 301.037 42.6797 304.051C42.5529 304.2 42.2694 304.043 42.3888 303.879Z" fill="#263238"/>
<path d="M88.4315 258.695C85.8507 258.3 83.2463 258.081 80.6359 258.038C78.025 257.919 75.414 257.844 72.803 257.792C67.5811 257.695 56.6076 256.889 47.223 258.232C47.1186 258.232 47.7228 258.68 47.8273 258.657C52.2584 257.784 85.1715 259.649 87.8273 259.47C87.742 259.656 87.6722 259.848 87.6184 260.045C87.6184 260.179 87.7377 260.328 87.8646 260.216C88.163 259.948 88.3569 259.642 88.6106 259.351C88.6632 259.304 88.7016 259.243 88.7216 259.175C88.7416 259.108 88.7424 259.036 88.7238 258.968C88.7052 258.899 88.668 258.838 88.6164 258.79C88.5648 258.741 88.5008 258.708 88.4315 258.695Z" fill="#263238"/>
<path d="M15.5334 302.656C19.6961 303.521 25.5297 305.215 29.7073 306.304C24.7952 305.99 19.9864 304.753 15.5334 302.656Z" fill="#263238"/>
<path d="M91.4677 182.857C85.276 183.603 73.4894 175.099 70.1473 165.998C69.9161 165.371 71.7139 159.426 73.5565 152.093C74.6531 147.617 75.7945 142.656 76.4659 138.038C76.6076 137.091 104.396 149.422 104.396 149.422C104.396 149.422 100.091 158.687 98.9351 166.751C98.8469 167.389 98.817 168.033 98.8456 168.676C98.8456 168.765 98.8456 168.87 98.8456 168.997C98.8903 172.682 98.0921 182.044 91.4677 182.857Z" fill="#AD6359"/>
<path d="M98.853 168.676C98.853 168.765 98.853 168.885 98.853 168.997C97.8525 168.974 96.8552 168.877 95.8691 168.706C78.868 165.767 77.5699 143.745 77.5103 138.202C82.5531 139.694 104.418 149.392 104.418 149.392C104.418 149.392 100.114 158.665 98.95 166.729C98.8611 167.374 98.8287 168.025 98.853 168.676Z" fill="#263238"/>
<path d="M76.4808 101.238C72.1168 111.19 74.0638 141.649 80.6211 149.153C90.125 160.045 107.439 163.014 117.13 151.19C126.529 139.724 123.292 100.075 115.809 93.0698C104.776 82.7677 82.9262 86.5573 76.4808 101.238Z" fill="#AD6359"/>
<path d="M103.277 123.961C103.277 123.887 103.12 124.066 103.128 124.155C103.262 126.207 103.075 128.579 101.24 129.325C101.181 129.325 101.196 129.452 101.24 129.437C103.516 129.042 103.739 125.856 103.277 123.961Z" fill="#263238"/>
<path d="M101.367 121.887C98.0548 121.753 98.0324 128.385 101.098 128.512C104.164 128.639 104.142 121.999 101.367 121.887Z" fill="#263238"/>
<path d="M115.175 124.364C115.175 124.282 115.332 124.461 115.332 124.543C115.257 126.595 115.518 128.967 117.376 129.653C117.436 129.653 117.428 129.78 117.376 129.765C115.093 129.422 114.75 126.281 115.175 124.364Z" fill="#263238"/>
<path d="M116.988 122.208C120.293 121.969 120.531 128.601 117.465 128.818C114.399 129.034 114.243 122.402 116.988 122.208Z" fill="#263238"/>
<path d="M98.7635 118.836C99.6322 118.588 100.486 118.292 101.322 117.949C102.299 117.591 103.12 117.412 103.769 116.531C103.925 116.263 103.988 115.952 103.949 115.644C103.91 115.337 103.771 115.051 103.553 114.83C102.561 113.95 101.248 114.084 100.047 114.457C98.8105 114.789 97.745 115.575 97.0626 116.658C96.9149 116.915 96.8472 117.211 96.8682 117.507C96.8893 117.802 96.998 118.085 97.1805 118.319C97.3631 118.553 97.6112 118.727 97.8931 118.819C98.1751 118.911 98.4781 118.917 98.7635 118.836Z" fill="#263238"/>
<path d="M119.599 118.874C118.709 118.693 117.83 118.461 116.966 118.18C115.951 117.904 115.123 117.785 114.407 116.964C114.231 116.708 114.144 116.401 114.16 116.091C114.176 115.781 114.295 115.484 114.496 115.248C115.421 114.293 116.734 114.323 117.965 114.607C119.21 114.855 120.319 115.557 121.076 116.576C121.236 116.817 121.322 117.1 121.324 117.39C121.326 117.679 121.244 117.963 121.087 118.207C120.931 118.45 120.707 118.643 120.442 118.762C120.178 118.88 119.885 118.919 119.599 118.874Z" fill="#263238"/>
<path d="M101.322 143.014C101.815 143.499 102.307 144.163 103.053 144.222C103.827 144.218 104.591 144.045 105.291 143.715C105.358 143.715 105.425 143.76 105.38 143.82C105.085 144.223 104.687 144.539 104.228 144.734C103.768 144.93 103.264 144.998 102.769 144.931C102.353 144.815 101.979 144.58 101.693 144.256C101.407 143.931 101.221 143.531 101.158 143.103C101.076 143.014 101.233 142.962 101.322 143.014Z" fill="#263238"/>
<path d="M103.486 136.889C104.005 137.704 104.688 138.403 105.49 138.942C106.292 139.481 107.197 139.849 108.148 140.022C108.976 140.182 109.823 140.222 110.662 140.142C110.825 140.144 110.988 140.126 111.147 140.09C111.297 140.077 111.447 140.055 111.594 140.022C111.704 140.002 111.804 139.947 111.879 139.864C111.954 139.782 112.001 139.678 112.012 139.567C112.016 139.498 112.016 139.428 112.012 139.358V139.157C112.057 137.576 111.915 135.173 111.915 135.173C112.49 135.464 115.436 136.8 115.392 135.972C115.011 129.123 114.586 121.514 112.758 114.778C112.751 114.729 112.725 114.684 112.685 114.654C112.645 114.624 112.595 114.611 112.546 114.618C112.496 114.625 112.451 114.651 112.421 114.691C112.391 114.731 112.378 114.781 112.385 114.83C112.49 121.425 113.758 127.96 113.967 134.577C112.919 134.089 111.81 133.747 110.669 133.562C110.446 133.629 111.027 138.21 110.953 138.918C110.956 138.943 110.956 138.968 110.953 138.993C108.29 139.329 106.29 138.515 103.717 136.718C103.56 136.583 103.366 136.725 103.486 136.889Z" fill="#263238"/>
<path d="M109.737 139.336C108.864 140.463 107.715 141.347 106.402 141.902C105.676 142.183 104.881 142.23 104.127 142.037C102.486 141.596 102.456 140.09 102.762 138.806C102.932 138.123 103.183 137.462 103.508 136.837C105.265 138.313 107.447 139.189 109.737 139.336Z" fill="#263238"/>
<path d="M106.402 141.902C105.676 142.183 104.881 142.23 104.127 142.037C102.486 141.597 102.456 140.09 102.762 138.807C104.522 138.993 106.253 140.194 106.402 141.902Z" fill="#FF9BBC"/>
<path d="M122.061 104.558C121.166 101.984 119.972 101.462 119.972 101.462C119.972 101.462 119.972 98.4409 117.272 94.5692C114.422 90.5185 111.304 89.9888 111.304 89.9888C111.304 89.9888 108.723 87.0646 102.814 85.953C101.457 85.6994 97.3464 85.6323 96.1005 86.147C94.6086 86.7363 93.1166 85.9605 91.5575 85.9307C90.1392 85.9042 88.7311 86.1762 87.4247 86.7289C86.3186 87.1879 85.2954 87.8255 84.396 88.6162C83.8665 89.1016 83.3682 89.6198 82.904 90.1679C82.2181 90.9457 81.3 91.4819 80.2856 91.6972C79.1101 92.0622 78.0256 92.6725 77.1035 93.4878C76.1815 94.3032 75.443 95.3049 74.9368 96.4267C74.2866 97.8311 73.936 99.3554 73.9073 100.903C73.8327 102.835 71.8111 103.737 71.0502 105.379C70.4741 106.684 70.2957 108.131 70.5372 109.537C70.7787 110.943 71.4294 112.247 72.4079 113.286C69.8865 115.091 68.9465 119.127 70.2968 122.313C71.3411 124.774 73.5269 125.871 75.735 126.475C76.1421 126.586 76.5596 126.653 76.9808 126.677C81.5015 127.423 85.9327 122.454 84.3288 117.083V117.038C86.8086 116.264 88.9789 114.723 90.528 112.637C92.2438 110.399 92.8033 107.415 92.8257 104.431C98.5026 108.012 106.373 104.483 107.38 97.1951C108.999 98.9706 113.639 101.969 115.78 101.298C116.705 107.848 121.002 110.25 122.136 110.25C122.285 110.295 123.076 107.497 122.061 104.558ZM81.5015 124.774C82.8145 123.409 83.8066 121.477 84.2766 117.382C84.5685 118.75 84.4622 120.174 83.9704 121.484C83.4786 122.794 82.6219 123.936 81.5015 124.774ZM99.4053 104.797C101.142 104.255 102.722 103.302 104.011 102.018C105.301 100.735 106.262 99.1601 106.813 97.4264C105.798 101.887 102.904 104.222 99.4277 104.797H99.4053Z" fill="#263238"/>
<path d="M100.576 133.45C99.0326 133.264 97.5723 132.649 96.3615 131.674C95.1506 130.699 94.2379 129.403 93.7271 127.935C93.2163 126.467 93.128 124.884 93.4723 123.368C93.8165 121.852 94.5795 120.463 95.6744 119.36C96.7692 118.256 98.152 117.482 99.6652 117.125C101.178 116.769 102.761 116.844 104.234 117.343C105.706 117.842 107.009 118.745 107.994 119.948C108.978 121.15 109.606 122.606 109.804 124.148C109.965 125.401 109.838 126.675 109.433 127.872C109.027 129.069 108.354 130.157 107.464 131.054C106.574 131.951 105.491 132.634 104.297 133.049C103.103 133.464 101.831 133.601 100.576 133.45ZM102.449 118.075C101.854 117.997 101.252 117.997 100.658 118.075C98.8448 118.303 97.1863 119.213 96.0206 120.621C94.8548 122.029 94.2694 123.828 94.3835 125.652C94.4976 127.476 95.3026 129.188 96.6347 130.439C97.9668 131.691 99.7257 132.387 101.553 132.387C103.381 132.387 105.14 131.691 106.472 130.439C107.804 129.188 108.609 127.476 108.723 125.652C108.837 123.828 108.252 122.029 107.086 120.621C105.92 119.213 104.262 118.303 102.449 118.075Z" fill="#4CAF4F"/>
<path d="M119.599 133.435C116.444 133.047 113.982 129.474 113.997 125.14C113.97 123.07 114.591 121.043 115.772 119.344C116.233 118.582 116.883 117.953 117.659 117.516C118.434 117.079 119.309 116.85 120.2 116.85C121.09 116.85 121.965 117.079 122.74 117.516C123.516 117.953 124.166 118.582 124.627 119.344C125.797 121.052 126.4 123.085 126.35 125.155C126.35 129.728 123.545 133.443 120.144 133.428C119.972 133.465 119.778 133.45 119.599 133.435ZM120.629 118.001C120.487 117.993 120.345 117.993 120.203 118.001C119.495 118.03 118.804 118.229 118.189 118.58C117.573 118.932 117.052 119.427 116.667 120.022C115.623 121.534 115.078 123.333 115.108 125.17C115.108 129.131 117.346 132.369 120.144 132.376C122.941 132.384 125.224 129.176 125.246 125.215C125.3 123.38 124.778 121.575 123.754 120.052C123.407 119.509 122.949 119.046 122.411 118.693C121.872 118.339 121.265 118.103 120.629 118.001Z" fill="#4CAF4F"/>
<path d="M109.528 125.11L108.782 124.26C110.05 123.208 112.967 121.798 114.981 123.976L114.168 124.722C112.37 122.775 109.618 125.013 109.528 125.11Z" fill="#4CAF4F"/>
<path d="M72.5119 127.087L71.5347 126.572C71.7734 126.117 73.9442 122.096 76.4209 121.693C78.7409 121.335 93.5787 122.79 94.2426 122.85L94.1307 123.954C89.8711 123.536 78.3903 122.507 76.5999 122.79C74.9588 123.044 73.0938 125.983 72.5119 127.087Z" fill="#4CAF4F"/>
<path d="M81.1283 126.781C81.1283 126.781 75.3095 116.457 70.6844 118.441C66.0593 120.425 69.7817 134.92 74.7426 137.337C75.3572 137.691 76.037 137.917 76.7412 138.001C77.4454 138.086 78.1594 138.027 78.8402 137.828C79.5211 137.63 80.1547 137.295 80.703 136.846C81.2514 136.396 81.703 135.84 82.0309 135.211L81.1283 126.781Z" fill="#AD6359"/>
<path d="M71.8632 122.574C71.8475 122.574 71.8323 122.579 71.8195 122.588C71.8068 122.597 71.7974 122.61 71.7924 122.625C71.7874 122.64 71.7873 122.656 71.792 122.671C71.7966 122.686 71.8059 122.699 71.8184 122.708C75.2873 124.521 76.8613 128.049 77.8535 131.66C76.9135 130.22 75.5185 129.34 73.6088 130.444C73.5044 130.504 73.6088 130.66 73.6834 130.645C74.3405 130.509 75.0238 130.579 75.6395 130.846C76.2552 131.113 76.7732 131.564 77.1224 132.137C77.7037 133.095 78.179 134.113 78.5398 135.174C78.6741 135.509 79.2858 135.397 79.1888 135.009V134.927C79.6886 130.332 76.7569 123.514 71.8632 122.574Z" fill="#263238"/>
</svg>
