<svg width="48" height="48" viewBox="0 0 48 48" fill="none" xmlns="http://www.w3.org/2000/svg">
<path d="M32.4378 5.12358C32.5521 4.84083 32.7483 4.59868 33.0012 4.42817C33.2541 4.25766 33.5522 4.16656 33.8572 4.16656C34.1622 4.16656 34.4602 4.25766 34.7131 4.42817C34.966 4.59868 35.1622 4.84083 35.2766 5.12358L37.2053 9.83201L42.4395 10.292C43.8063 10.4103 44.3386 12.132 43.2773 12.9994L40.1658 15.5557C39.9473 15.7347 39.7825 15.9706 39.6897 16.2373C39.5969 16.504 39.5798 16.7912 39.64 17.0672L40.6718 21.838C40.7367 22.1364 40.7108 22.4475 40.5976 22.7311C40.4844 23.0147 40.2889 23.258 40.0363 23.4297C39.7837 23.6014 39.4856 23.6936 39.1802 23.6946C38.8748 23.6955 38.5761 23.605 38.3225 23.4349L33.8572 20.4514L29.3919 23.4414C29.1381 23.612 28.8389 23.7027 28.5331 23.7017C28.2273 23.7007 27.9288 23.6082 27.676 23.436C27.4232 23.2639 27.2278 23.02 27.1149 22.7357C27.002 22.4515 26.9768 22.14 27.0426 21.8413L28.0743 17.0672C28.134 16.7917 28.1164 16.5052 28.0237 16.2391C27.9309 15.973 27.7665 15.7377 27.5486 15.559L24.437 13.0027C24.2012 12.8099 24.0283 12.551 23.9404 12.2594C23.8525 11.9677 23.8536 11.6564 23.9435 11.3653C24.0335 11.0743 24.2082 10.8167 24.4454 10.6255C24.6826 10.4343 24.9714 10.3182 25.2749 10.292L30.509 9.83201L32.4378 5.12687V5.12358Z" stroke="#4CAF4F" stroke-width="2" stroke-linecap="round" stroke-linejoin="round"/>
<path d="M4.22983 21.93L6.50354 21.7887C9.2071 21.6214 11.9203 21.873 14.547 22.5346L18.3584 23.494C19.3693 23.7491 20.2544 24.3597 20.8518 25.2142C21.4491 26.0686 21.7188 27.1096 21.6113 28.1466C21.355 30.6601 19.0155 32.418 16.5315 31.9777L12.9008 31.3271L25.7053 33.6239L38.9697 30.4761C40.0011 30.2318 41.0871 30.3996 41.9966 30.9439C42.9061 31.4883 43.5672 32.3661 43.8391 33.3906C44.3648 35.3719 43.3364 37.432 41.4405 38.2041L30.8277 42.5117C25.6682 44.6086 19.9189 44.7407 14.6685 42.883L3.66797 38.9894" stroke="#4CAF4F" stroke-width="2" stroke-linecap="round" stroke-linejoin="round"/>
</svg>
