<svg width="392" height="413" viewBox="0 0 392 413" fill="none" xmlns="http://www.w3.org/2000/svg">
<path d="M346.07 59.0565C346.07 58.7519 346.021 58.4205 346.013 58.0712C345.933 50.5827 343.43 45.4053 337.318 41.4729C325.87 34.0919 319.225 41.4729 315.899 48.0298C312.572 54.5867 307.405 43.9273 299.275 45.1544C291.145 46.3816 291.524 56.2259 289.304 61.5467C287.083 66.8674 282.288 59.9075 276.006 61.1436C269.725 62.3797 269.362 66.4643 268.248 68.1036C267.133 69.7428 257.17 65.6492 251.632 68.9277C248.101 71.1818 245.17 74.433 243.138 78.3509H364.284C364.284 78.3509 365.762 68.4977 360.966 64.8341C356.655 61.5198 346.902 66.8226 346.07 59.0565Z" stroke="#263238" stroke-linecap="round" stroke-linejoin="round"/>
<path d="M289.877 71.3015C289.467 71.4186 289.084 71.6324 288.755 71.9285C287.197 73.4424 287.197 74.5262 287.197 74.5262" stroke="#263238" stroke-linecap="round" stroke-linejoin="round"/>
<path d="M316.601 58.5908C315.519 61.2064 314.566 64.0818 312.346 65.2283C309.173 66.8765 306.202 63.1592 303.271 62.3171C302.445 62.0181 301.556 62.009 300.725 62.2912C299.895 62.5733 299.162 63.1329 298.629 63.8937C297.305 65.5687 297.289 69.3577 295.553 70.4326C294.492 70.8901 293.355 71.0916 292.218 71.0238" stroke="#263238" stroke-linecap="round" stroke-linejoin="round"/>
<path d="M352.658 70.6921C352.569 70.4592 352.48 70.2174 352.375 69.9935C350.05 64.8339 344.544 68.9813 341.153 67.5391C338.15 66.2492 339.135 60.9732 338.731 58.2143C337.924 52.8398 331.909 48.8179 327.186 49.633C323.695 50.2999 320.541 52.3458 318.304 55.3927" stroke="#263238" stroke-linecap="round" stroke-linejoin="round"/>
<path d="M353.611 75.4309C353.524 74.5271 353.389 73.6298 353.207 72.7437" stroke="#263238" stroke-linecap="round" stroke-linejoin="round"/>
<path d="M102.075 85.9826C102.062 85.7529 102.062 85.5226 102.075 85.2929C102.018 80.0707 100.266 76.4608 96.0033 73.7108C88.0103 68.5603 83.376 73.7108 81.0508 78.2881C78.7255 82.8654 75.1247 75.4307 69.4569 76.2816C63.7892 77.1326 64.0395 84.003 62.4974 87.7204C60.9553 91.4377 57.5967 86.5828 53.2127 87.4427C48.8286 88.3026 48.5783 91.1601 47.8033 92.2977C47.0282 93.4353 40.0687 90.5868 36.2014 92.8709C33.7389 94.4457 31.6946 96.7137 30.2753 99.4457H114.783C114.783 99.4457 115.808 92.5843 112.466 90.0135C109.454 87.7025 102.648 91.3929 102.075 85.9826Z" stroke="#263238" stroke-linecap="round" stroke-linejoin="round"/>
<path d="M62.8283 94.5371C62.5339 94.6173 62.2585 94.767 62.021 94.976C60.931 96.042 60.931 96.7675 60.931 96.7675" stroke="#263238" stroke-linecap="round" stroke-linejoin="round"/>
<path d="M81.5029 85.6335C80.752 87.425 80.09 89.4584 78.5317 90.2646C76.3196 91.4111 74.2446 88.8224 72.202 88.2312C71.6269 88.024 71.0082 88.0186 70.4302 88.2157C69.8523 88.4129 69.3432 88.8031 68.9725 89.333C68.0521 90.4975 68.0359 93.1489 66.8249 93.8924C66.0831 94.2151 65.287 94.3557 64.4916 94.3044" stroke="#263238" stroke-linecap="round" stroke-linejoin="round"/>
<path d="M106.669 94.1073C106.604 93.9371 106.539 93.7759 106.467 93.6236C104.852 90.0406 101.001 92.9159 98.6433 91.9037C96.5361 91.008 97.2304 87.3265 96.9478 85.4006C96.3988 81.6743 92.1843 78.8347 88.8741 79.408C86.4288 79.8685 84.217 81.2975 82.6493 83.4299" stroke="#263238" stroke-linecap="round" stroke-linejoin="round"/>
<path d="M107.331 97.4126C107.273 96.7706 107.178 96.1334 107.048 95.5046" stroke="#263238" stroke-linecap="round" stroke-linejoin="round"/>
<g opacity="0.3">
<path d="M102.075 190.293H96.189V196.053H102.075V190.293Z" stroke="black" stroke-miterlimit="10"/>
<path d="M92.2086 193.786H89.8269V196.061H92.2086V193.786Z" stroke="black" stroke-miterlimit="10"/>
<path d="M331.61 226.678H309.302V180.959H310.796V176.221H258.527V180.959H260.335V248.964H246.626V103.056H199.621V213.394H182.432V201.185H186.937V196.017H149.346V121.992H151.784V118.122H106.16V121.992H109.43V196.142H73.3726V249.17H54.4398" stroke="black" stroke-miterlimit="10"/>
<path d="M248.507 101.461H197.53V103.047H248.507V101.461Z" stroke="black" stroke-miterlimit="10"/>
<path d="M119.256 126.3H113.515V132.275H119.256V126.3Z" stroke="black" stroke-miterlimit="10"/>
<path d="M127.676 126.3H121.936V132.275H127.676V126.3Z" stroke="black" stroke-miterlimit="10"/>
<path d="M136.097 126.3H130.357V132.275H136.097V126.3Z" stroke="black" stroke-miterlimit="10"/>
<path d="M144.518 126.3H138.778V132.275H144.518V126.3Z" stroke="black" stroke-miterlimit="10"/>
<path d="M119.256 135.768H113.515V141.743H119.256V135.768Z" stroke="black" stroke-miterlimit="10"/>
<path d="M127.676 135.768H121.936V141.743H127.676V135.768Z" stroke="black" stroke-miterlimit="10"/>
<path d="M136.097 135.768H130.357V141.743H136.097V135.768Z" stroke="black" stroke-miterlimit="10"/>
<path d="M144.518 135.768H138.778V141.743H144.518V135.768Z" stroke="black" stroke-miterlimit="10"/>
<path d="M119.256 145.237H113.515V151.211H119.256V145.237Z" stroke="black" stroke-miterlimit="10"/>
<path d="M127.676 145.237H121.936V151.211H127.676V145.237Z" stroke="black" stroke-miterlimit="10"/>
<path d="M136.097 145.237H130.357V151.211H136.097V145.237Z" stroke="black" stroke-miterlimit="10"/>
<path d="M144.518 145.237H138.778V151.211H144.518V145.237Z" stroke="black" stroke-miterlimit="10"/>
<path d="M119.256 154.705H113.515V160.679H119.256V154.705Z" stroke="black" stroke-miterlimit="10"/>
<path d="M127.676 154.705H121.936V160.679H127.676V154.705Z" stroke="black" stroke-miterlimit="10"/>
<path d="M136.097 154.705H130.357V160.679H136.097V154.705Z" stroke="black" stroke-miterlimit="10"/>
<path d="M144.518 154.705H138.778V160.679H144.518V154.705Z" stroke="black" stroke-miterlimit="10"/>
<path d="M119.256 164.173H113.515V170.147H119.256V164.173Z" stroke="black" stroke-miterlimit="10"/>
<path d="M127.676 164.173H121.936V170.147H127.676V164.173Z" stroke="black" stroke-miterlimit="10"/>
<path d="M136.097 164.173H130.357V170.147H136.097V164.173Z" stroke="black" stroke-miterlimit="10"/>
<path d="M144.518 164.173H138.778V170.147H144.518V164.173Z" stroke="black" stroke-miterlimit="10"/>
<path d="M119.256 173.641H113.515V179.615H119.256V173.641Z" stroke="black" stroke-miterlimit="10"/>
<path d="M127.676 173.641H121.936V179.615H127.676V173.641Z" stroke="black" stroke-miterlimit="10"/>
<path d="M136.097 173.641H130.357V179.615H136.097V173.641Z" stroke="black" stroke-miterlimit="10"/>
<path d="M144.518 173.641H138.778V179.615H144.518V173.641Z" stroke="black" stroke-miterlimit="10"/>
<path d="M119.256 183.109H113.515V189.084H119.256V183.109Z" stroke="black" stroke-miterlimit="10"/>
<path d="M127.676 183.109H121.936V189.084H127.676V183.109Z" stroke="black" stroke-miterlimit="10"/>
<path d="M136.097 183.109H130.357V189.084H136.097V183.109Z" stroke="black" stroke-miterlimit="10"/>
<path d="M144.518 183.109H138.778V189.084H144.518V183.109Z" stroke="black" stroke-miterlimit="10"/>
<path d="M119.256 192.577H113.515V198.552H119.256V192.577Z" stroke="black" stroke-miterlimit="10"/>
<path d="M127.676 192.577H121.936V198.552H127.676V192.577Z" stroke="black" stroke-miterlimit="10"/>
<path d="M136.097 192.577H130.357V198.552H136.097V192.577Z" stroke="black" stroke-miterlimit="10"/>
<path d="M144.518 192.577H138.778V198.552H144.518V192.577Z" stroke="black" stroke-miterlimit="10"/>
<path d="M119.256 201.239H113.515V207.214H119.256V201.239Z" stroke="black" stroke-miterlimit="10"/>
<path d="M127.676 201.239H121.936V207.214H127.676V201.239Z" stroke="black" stroke-miterlimit="10"/>
<path d="M136.097 201.239H130.357V207.214H136.097V201.239Z" stroke="black" stroke-miterlimit="10"/>
<path d="M144.518 201.239H138.778V207.214H144.518V201.239Z" stroke="black" stroke-miterlimit="10"/>
<path d="M119.256 210.707H113.515V216.682H119.256V210.707Z" stroke="black" stroke-miterlimit="10"/>
<path d="M127.676 210.707H121.936V216.682H127.676V210.707Z" stroke="black" stroke-miterlimit="10"/>
<path d="M136.097 210.707H130.357V216.682H136.097V210.707Z" stroke="black" stroke-miterlimit="10"/>
<path d="M144.518 210.707H138.778V216.682H144.518V210.707Z" stroke="black" stroke-miterlimit="10"/>
<path d="M119.256 220.175H113.515V226.15H119.256V220.175Z" stroke="black" stroke-miterlimit="10"/>
<path d="M127.676 220.175H121.936V226.15H127.676V220.175Z" stroke="black" stroke-miterlimit="10"/>
<path d="M136.097 220.175H130.357V226.15H136.097V220.175Z" stroke="black" stroke-miterlimit="10"/>
<path d="M144.518 220.175H138.778V226.15H144.518V220.175Z" stroke="black" stroke-miterlimit="10"/>
<path d="M119.256 229.643H113.515V235.618H119.256V229.643Z" stroke="black" stroke-miterlimit="10"/>
<path d="M127.676 229.643H121.936V235.618H127.676V229.643Z" stroke="black" stroke-miterlimit="10"/>
<path d="M136.097 229.643H130.357V235.618H136.097V229.643Z" stroke="black" stroke-miterlimit="10"/>
<path d="M144.518 229.643H138.778V235.618H144.518V229.643Z" stroke="black" stroke-miterlimit="10"/>
<path d="M119.256 239.111H113.515V245.086H119.256V239.111Z" stroke="black" stroke-miterlimit="10"/>
<path d="M127.676 239.111H121.936V245.086H127.676V239.111Z" stroke="black" stroke-miterlimit="10"/>
<path d="M136.097 239.111H130.357V245.086H136.097V239.111Z" stroke="black" stroke-miterlimit="10"/>
<path d="M144.518 239.111H138.778V245.086H144.518V239.111Z" stroke="black" stroke-miterlimit="10"/>
<path d="M119.256 248.579H113.515V254.554H119.256V248.579Z" stroke="black" stroke-miterlimit="10"/>
<path d="M127.676 248.579H121.936V254.554H127.676V248.579Z" stroke="black" stroke-miterlimit="10"/>
<path d="M136.097 248.579H130.357V254.554H136.097V248.579Z" stroke="black" stroke-miterlimit="10"/>
<path d="M144.518 248.579H138.778V254.554H144.518V248.579Z" stroke="black" stroke-miterlimit="10"/>
<path d="M119.256 258.047H113.515V264.022H119.256V258.047Z" stroke="black" stroke-miterlimit="10"/>
<path d="M127.676 258.047H121.936V264.022H127.676V258.047Z" stroke="black" stroke-miterlimit="10"/>
<path d="M136.097 258.047H130.357V264.022H136.097V258.047Z" stroke="black" stroke-miterlimit="10"/>
<path d="M144.518 258.047H138.778V264.022H144.518V258.047Z" stroke="black" stroke-miterlimit="10"/>
<path d="M119.256 267.516H113.515V273.49H119.256V267.516Z" stroke="black" stroke-miterlimit="10"/>
<path d="M127.676 267.516H121.936V273.49H127.676V267.516Z" stroke="black" stroke-miterlimit="10"/>
<path d="M136.097 267.516H130.357V273.49H136.097V267.516Z" stroke="black" stroke-miterlimit="10"/>
<path d="M144.518 267.516H138.778V273.49H144.518V267.516Z" stroke="black" stroke-miterlimit="10"/>
<path d="M152.148 201.239H146.407V207.214H152.148V201.239Z" stroke="black" stroke-miterlimit="10"/>
<path d="M160.569 201.239H154.828V207.214H160.569V201.239Z" stroke="black" stroke-miterlimit="10"/>
<path d="M168.989 201.239H163.249V207.214H168.989V201.239Z" stroke="black" stroke-miterlimit="10"/>
<path d="M177.41 201.239H171.67V207.214H177.41V201.239Z" stroke="black" stroke-miterlimit="10"/>
<path d="M152.148 210.707H146.407V216.682H152.148V210.707Z" stroke="black" stroke-miterlimit="10"/>
<path d="M160.569 210.707H154.828V216.682H160.569V210.707Z" stroke="black" stroke-miterlimit="10"/>
<path d="M168.989 210.707H163.249V216.682H168.989V210.707Z" stroke="black" stroke-miterlimit="10"/>
<path d="M177.41 210.707H171.67V216.682H177.41V210.707Z" stroke="black" stroke-miterlimit="10"/>
<path d="M152.148 220.175H146.407V226.15H152.148V220.175Z" stroke="black" stroke-miterlimit="10"/>
<path d="M160.569 220.175H154.828V226.15H160.569V220.175Z" stroke="black" stroke-miterlimit="10"/>
<path d="M168.989 220.175H163.249V226.15H168.989V220.175Z" stroke="black" stroke-miterlimit="10"/>
<path d="M177.41 220.175H171.67V226.15H177.41V220.175Z" stroke="black" stroke-miterlimit="10"/>
<path d="M152.148 229.643H146.407V235.618H152.148V229.643Z" stroke="black" stroke-miterlimit="10"/>
<path d="M160.569 229.643H154.828V235.618H160.569V229.643Z" stroke="black" stroke-miterlimit="10"/>
<path d="M168.989 229.643H163.249V235.618H168.989V229.643Z" stroke="black" stroke-miterlimit="10"/>
<path d="M177.41 229.643H171.67V235.618H177.41V229.643Z" stroke="black" stroke-miterlimit="10"/>
<path d="M152.148 239.111H146.407V245.086H152.148V239.111Z" stroke="black" stroke-miterlimit="10"/>
<path d="M160.569 239.111H154.828V245.086H160.569V239.111Z" stroke="black" stroke-miterlimit="10"/>
<path d="M168.989 239.111H163.249V245.086H168.989V239.111Z" stroke="black" stroke-miterlimit="10"/>
<path d="M177.41 239.111H171.67V245.086H177.41V239.111Z" stroke="black" stroke-miterlimit="10"/>
<path d="M152.148 248.579H146.407V254.554H152.148V248.579Z" stroke="black" stroke-miterlimit="10"/>
<path d="M160.569 248.579H154.828V254.554H160.569V248.579Z" stroke="black" stroke-miterlimit="10"/>
<path d="M168.989 248.579H163.249V254.554H168.989V248.579Z" stroke="black" stroke-miterlimit="10"/>
<path d="M177.41 248.579H171.67V254.554H177.41V248.579Z" stroke="black" stroke-miterlimit="10"/>
<path d="M152.148 258.047H146.407V264.022H152.148V258.047Z" stroke="black" stroke-miterlimit="10"/>
<path d="M160.569 258.047H154.828V264.022H160.569V258.047Z" stroke="black" stroke-miterlimit="10"/>
<path d="M168.989 258.047H163.249V264.022H168.989V258.047Z" stroke="black" stroke-miterlimit="10"/>
<path d="M177.41 258.047H171.67V264.022H177.41V258.047Z" stroke="black" stroke-miterlimit="10"/>
<path d="M152.148 267.516H146.407V273.49H152.148V267.516Z" stroke="black" stroke-miterlimit="10"/>
<path d="M160.569 267.516H154.828V273.49H160.569V267.516Z" stroke="black" stroke-miterlimit="10"/>
<path d="M168.989 267.516H163.249V273.49H168.989V267.516Z" stroke="black" stroke-miterlimit="10"/>
<path d="M177.41 267.516H171.67V273.49H177.41V267.516Z" stroke="black" stroke-miterlimit="10"/>
<path d="M85.903 201.239H80.1626V207.214H85.903V201.239Z" stroke="black" stroke-miterlimit="10"/>
<path d="M94.3239 201.239H88.5835V207.214H94.3239V201.239Z" stroke="black" stroke-miterlimit="10"/>
<path d="M102.745 201.239H97.0044V207.214H102.745V201.239Z" stroke="black" stroke-miterlimit="10"/>
<path d="M111.166 201.239H105.425V207.214H111.166V201.239Z" stroke="black" stroke-miterlimit="10"/>
<path d="M85.903 210.707H80.1626V216.682H85.903V210.707Z" stroke="black" stroke-miterlimit="10"/>
<path d="M94.3239 210.707H88.5835V216.682H94.3239V210.707Z" stroke="black" stroke-miterlimit="10"/>
<path d="M102.745 210.707H97.0044V216.682H102.745V210.707Z" stroke="black" stroke-miterlimit="10"/>
<path d="M111.166 210.707H105.425V216.682H111.166V210.707Z" stroke="black" stroke-miterlimit="10"/>
<path d="M85.903 220.175H80.1626V226.15H85.903V220.175Z" stroke="black" stroke-miterlimit="10"/>
<path d="M94.3239 220.175H88.5835V226.15H94.3239V220.175Z" stroke="black" stroke-miterlimit="10"/>
<path d="M102.745 220.175H97.0044V226.15H102.745V220.175Z" stroke="black" stroke-miterlimit="10"/>
<path d="M111.166 220.175H105.425V226.15H111.166V220.175Z" stroke="black" stroke-miterlimit="10"/>
<path d="M85.903 229.643H80.1626V235.618H85.903V229.643Z" stroke="black" stroke-miterlimit="10"/>
<path d="M94.3239 229.643H88.5835V235.618H94.3239V229.643Z" stroke="black" stroke-miterlimit="10"/>
<path d="M102.745 229.643H97.0044V235.618H102.745V229.643Z" stroke="black" stroke-miterlimit="10"/>
<path d="M111.166 229.643H105.425V235.618H111.166V229.643Z" stroke="black" stroke-miterlimit="10"/>
<path d="M85.903 239.111H80.1626V245.086H85.903V239.111Z" stroke="black" stroke-miterlimit="10"/>
<path d="M94.3239 239.111H88.5835V245.086H94.3239V239.111Z" stroke="black" stroke-miterlimit="10"/>
<path d="M102.745 239.111H97.0044V245.086H102.745V239.111Z" stroke="black" stroke-miterlimit="10"/>
<path d="M111.166 239.111H105.425V245.086H111.166V239.111Z" stroke="black" stroke-miterlimit="10"/>
<path d="M85.903 248.579H80.1626V254.554H85.903V248.579Z" stroke="black" stroke-miterlimit="10"/>
<path d="M94.3239 248.579H88.5835V254.554H94.3239V248.579Z" stroke="black" stroke-miterlimit="10"/>
<path d="M102.745 248.579H97.0044V254.554H102.745V248.579Z" stroke="black" stroke-miterlimit="10"/>
<path d="M111.166 248.579H105.425V254.554H111.166V248.579Z" stroke="black" stroke-miterlimit="10"/>
<path d="M85.903 258.047H80.1626V264.022H85.903V258.047Z" stroke="black" stroke-miterlimit="10"/>
<path d="M94.3239 258.047H88.5835V264.022H94.3239V258.047Z" stroke="black" stroke-miterlimit="10"/>
<path d="M102.745 258.047H97.0044V264.022H102.745V258.047Z" stroke="black" stroke-miterlimit="10"/>
<path d="M111.166 258.047H105.425V264.022H111.166V258.047Z" stroke="black" stroke-miterlimit="10"/>
<path d="M85.903 267.516H80.1626V273.49H85.903V267.516Z" stroke="black" stroke-miterlimit="10"/>
<path d="M94.3239 267.516H88.5835V273.49H94.3239V267.516Z" stroke="black" stroke-miterlimit="10"/>
<path d="M102.745 267.516H97.0044V273.49H102.745V267.516Z" stroke="black" stroke-miterlimit="10"/>
<path d="M111.166 267.516H105.425V273.49H111.166V267.516Z" stroke="black" stroke-miterlimit="10"/>
<path d="M274.012 182.679H268.272V188.654H274.012V182.679Z" stroke="black" stroke-miterlimit="10"/>
<path d="M282.433 182.679H276.693V188.654H282.433V182.679Z" stroke="black" stroke-miterlimit="10"/>
<path d="M290.854 182.679H285.114V188.654H290.854V182.679Z" stroke="black" stroke-miterlimit="10"/>
<path d="M299.275 182.679H293.534V188.654H299.275V182.679Z" stroke="black" stroke-miterlimit="10"/>
<path d="M274.012 192.147H268.272V198.122H274.012V192.147Z" stroke="black" stroke-miterlimit="10"/>
<path d="M282.433 192.147H276.693V198.122H282.433V192.147Z" stroke="black" stroke-miterlimit="10"/>
<path d="M290.854 192.147H285.114V198.122H290.854V192.147Z" stroke="black" stroke-miterlimit="10"/>
<path d="M299.275 192.147H293.534V198.122H299.275V192.147Z" stroke="black" stroke-miterlimit="10"/>
<path d="M274.012 201.615H268.272V207.59H274.012V201.615Z" stroke="black" stroke-miterlimit="10"/>
<path d="M282.433 201.615H276.693V207.59H282.433V201.615Z" stroke="black" stroke-miterlimit="10"/>
<path d="M290.854 201.615H285.114V207.59H290.854V201.615Z" stroke="black" stroke-miterlimit="10"/>
<path d="M299.275 201.615H293.534V207.59H299.275V201.615Z" stroke="black" stroke-miterlimit="10"/>
<path d="M274.012 211.083H268.272V217.058H274.012V211.083Z" stroke="black" stroke-miterlimit="10"/>
<path d="M282.433 211.083H276.693V217.058H282.433V211.083Z" stroke="black" stroke-miterlimit="10"/>
<path d="M290.854 211.083H285.114V217.058H290.854V211.083Z" stroke="black" stroke-miterlimit="10"/>
<path d="M299.275 211.083H293.534V217.058H299.275V211.083Z" stroke="black" stroke-miterlimit="10"/>
<path d="M274.012 220.551H268.272V226.526H274.012V220.551Z" stroke="black" stroke-miterlimit="10"/>
<path d="M282.433 220.551H276.693V226.526H282.433V220.551Z" stroke="black" stroke-miterlimit="10"/>
<path d="M290.854 220.551H285.114V226.526H290.854V220.551Z" stroke="black" stroke-miterlimit="10"/>
<path d="M299.275 220.551H293.534V226.526H299.275V220.551Z" stroke="black" stroke-miterlimit="10"/>
<path d="M274.012 230.019H268.272V235.994H274.012V230.019Z" stroke="black" stroke-miterlimit="10"/>
<path d="M282.433 230.019H276.693V235.994H282.433V230.019Z" stroke="black" stroke-miterlimit="10"/>
<path d="M290.854 230.019H285.114V235.994H290.854V230.019Z" stroke="black" stroke-miterlimit="10"/>
<path d="M299.275 230.019H293.534V235.994H299.275V230.019Z" stroke="black" stroke-miterlimit="10"/>
<path d="M274.012 239.487H268.272V245.462H274.012V239.487Z" stroke="black" stroke-miterlimit="10"/>
<path d="M282.433 239.487H276.693V245.462H282.433V239.487Z" stroke="black" stroke-miterlimit="10"/>
<path d="M290.854 239.487H285.114V245.462H290.854V239.487Z" stroke="black" stroke-miterlimit="10"/>
<path d="M299.275 239.487H293.534V245.462H299.275V239.487Z" stroke="black" stroke-miterlimit="10"/>
<path d="M274.012 248.956H268.272V254.93H274.012V248.956Z" stroke="black" stroke-miterlimit="10"/>
<path d="M282.433 248.956H276.693V254.93H282.433V248.956Z" stroke="black" stroke-miterlimit="10"/>
<path d="M290.854 248.956H285.114V254.93H290.854V248.956Z" stroke="black" stroke-miterlimit="10"/>
<path d="M299.275 248.956H293.534V254.93H299.275V248.956Z" stroke="black" stroke-miterlimit="10"/>
<path d="M204.045 106.504V279.51" stroke="black" stroke-miterlimit="10"/>
<path d="M209.745 106.504V279.51" stroke="black" stroke-miterlimit="10"/>
<path d="M215.438 106.504V279.51" stroke="black" stroke-miterlimit="10"/>
<path d="M221.129 106.504V279.51" stroke="black" stroke-miterlimit="10"/>
<path d="M226.829 106.504V279.51" stroke="black" stroke-miterlimit="10"/>
<path d="M232.521 106.504V279.51" stroke="black" stroke-miterlimit="10"/>
<path d="M238.213 106.504V279.51" stroke="black" stroke-miterlimit="10"/>
<path d="M243.913 106.504V279.51" stroke="black" stroke-miterlimit="10"/>
</g>
<path d="M205.426 182.124C204.788 180.457 178.718 149.939 178.718 149.939L164.323 166.555L191.281 188.779C188.838 191.694 186.673 194.882 184.822 198.292C182.755 202.296 175.045 215.938 171.63 222.531V222.576C171.5 222.817 171.387 223.05 171.274 223.274L171.226 223.355C171.129 223.561 171.032 223.749 170.935 223.937L170.879 224.045L170.653 224.519C170.628 224.562 170.606 224.607 170.588 224.654L170.41 225.03C170.386 225.073 170.364 225.118 170.346 225.164L170.217 225.46L170.168 225.576C170.126 225.676 170.088 225.777 170.055 225.881C169.199 228.497 171.339 228.971 173.059 229.688C174.778 230.404 182.699 234.444 185.702 234.444C188.705 234.444 189.739 234.919 189.739 233.011C189.739 231.103 183.74 227.547 183.094 226.356C182.448 225.164 179.865 219.7 179.865 219.7C179.865 219.7 200.655 196.151 202.156 193.535C203.658 190.92 206.072 183.79 205.426 182.124Z" fill="#D4D4D4" stroke="#263238" stroke-linecap="round" stroke-linejoin="round"/>
<path d="M139.197 267.444C156.48 267.444 170.491 251.9 170.491 232.725C170.491 213.55 156.48 198.005 139.197 198.005C121.914 198.005 107.904 213.55 107.904 232.725C107.904 251.9 121.914 267.444 139.197 267.444Z" fill="#263238" stroke="#263238" stroke-linecap="round" stroke-linejoin="round"/>
<path d="M143.62 263.237C158.813 260.531 169.153 244.673 166.714 227.816C164.275 210.959 149.981 199.488 134.787 202.194C119.594 204.9 109.255 220.759 111.694 237.615C114.133 254.472 128.427 265.943 143.62 263.237Z" fill="white" stroke="#263238" stroke-linecap="round" stroke-linejoin="round"/>
<path d="M139.198 262.213C153.876 262.213 165.776 249.01 165.776 232.725C165.776 216.439 153.876 203.237 139.198 203.237C124.519 203.237 112.619 216.439 112.619 232.725C112.619 249.01 124.519 262.213 139.198 262.213Z" fill="white" stroke="#263238" stroke-linecap="round" stroke-linejoin="round"/>
<path d="M252.803 267.444C270.086 267.444 284.096 251.9 284.096 232.725C284.096 213.55 270.086 198.005 252.803 198.005C235.52 198.005 221.509 213.55 221.509 232.725C221.509 251.9 235.52 267.444 252.803 267.444Z" fill="#263238" stroke="#263238" stroke-linecap="round" stroke-linejoin="round"/>
<path d="M278.448 244.815C284.463 229.101 277.858 210.952 263.694 204.278C249.53 197.605 233.172 204.934 227.157 220.648C221.142 236.362 227.748 254.511 241.912 261.184C256.075 267.858 272.433 260.529 278.448 244.815Z" fill="white" stroke="#263238" stroke-linecap="round" stroke-linejoin="round"/>
<path d="M252.803 262.213C267.482 262.213 279.381 249.01 279.381 232.725C279.381 216.439 267.482 203.237 252.803 203.237C238.124 203.237 226.224 216.439 226.224 232.725C226.224 249.01 238.124 262.213 252.803 262.213Z" fill="white" stroke="#263238" stroke-linecap="round" stroke-linejoin="round"/>
<path d="M253.15 237.006C255.281 237.006 257.009 235.089 257.009 232.725C257.009 230.36 255.281 228.443 253.15 228.443C251.018 228.443 249.29 230.36 249.29 232.725C249.29 235.089 251.018 237.006 253.15 237.006Z" stroke="#263238" stroke-linecap="round" stroke-linejoin="round"/>
<path d="M161.634 169.305L183.135 236.057" stroke="#263238" stroke-width="4" stroke-miterlimit="10" stroke-linecap="round"/>
<path d="M253.828 234.265C246.319 225.478 227.185 167.684 223.955 157.768C223.819 157.351 223.808 156.896 223.924 156.471C224.041 156.046 224.278 155.675 224.601 155.412L231.916 149.482" stroke="#263238" stroke-width="4" stroke-miterlimit="10" stroke-linecap="round"/>
<path d="M140.005 231.229C140.005 231.229 154.602 180.87 228.049 172.261" stroke="#263238" stroke-width="4" stroke-miterlimit="10" stroke-linecap="round"/>
<path d="M193.8 234.767C193.8 234.767 205.66 231.73 213.645 217.309C221.63 202.887 228.016 189.72 233.49 186.432" stroke="#263238" stroke-width="4" stroke-miterlimit="10" stroke-linecap="round"/>
<path d="M150.856 161.262C150.856 161.262 150.638 167.604 152.18 169.556C153.722 171.509 163.612 171.751 168.231 171.016C172.849 170.282 174.827 168.329 174.391 166.869C173.955 165.409 166.697 160.285 161.634 159.793C156.572 159.3 151.082 159.085 150.856 161.262Z" fill="white" stroke="#263238" stroke-linecap="round" stroke-linejoin="round"/>
<path d="M225.085 139.871C225.085 139.871 242.194 142.397 245.609 156.317C249.024 170.237 237.632 176.821 230.559 176.821" stroke="#263238" stroke-linecap="round" stroke-linejoin="round"/>
<path d="M237.172 135.312C237.172 135.312 252.455 150.495 249.282 161.378C246.109 172.261 227.362 169.735 226.902 168.938" stroke="#263238" stroke-linecap="round" stroke-linejoin="round"/>
<path d="M190.207 226.544L136.84 228.443L136.194 234.865L188.923 246.044L190.207 226.544Z" fill="white" stroke="#263238" stroke-linecap="round" stroke-linejoin="round"/>
<path d="M188.923 246.053C193.779 246.053 197.716 241.686 197.716 236.299C197.716 230.911 193.779 226.544 188.923 226.544C184.068 226.544 180.131 230.911 180.131 236.299C180.131 241.686 184.068 246.053 188.923 246.053Z" fill="white" stroke="#263238" stroke-linecap="round" stroke-linejoin="round"/>
<path d="M205.014 231.479L189.933 235.268C189.679 235.333 189.44 235.457 189.233 235.632C189.026 235.808 188.856 236.03 188.732 236.284C188.609 236.539 188.537 236.82 188.519 237.108C188.502 237.396 188.541 237.685 188.633 237.956C188.717 238.203 188.844 238.43 189.008 238.623C189.171 238.816 189.367 238.972 189.584 239.081C189.802 239.189 190.036 239.25 190.275 239.258C190.513 239.267 190.751 239.223 190.974 239.129L207.525 232.241L205.014 231.479Z" fill="white" stroke="#263238" stroke-miterlimit="10" stroke-linecap="round"/>
<path d="M213.096 229.33H202.98V233.235H213.096V229.33Z" fill="white" stroke="#263238" stroke-miterlimit="10" stroke-linecap="round"/>
<path d="M139.197 238.905C142.274 238.905 144.768 236.138 144.768 232.725C144.768 229.311 142.274 226.544 139.197 226.544C136.121 226.544 133.627 229.311 133.627 232.725C133.627 236.138 136.121 238.905 139.197 238.905Z" fill="white" stroke="#263238" stroke-linecap="round" stroke-linejoin="round"/>
<path d="M197.942 124.688L212.765 131.774C212.765 131.774 219.612 133.287 220.298 134.3C220.964 135.315 221.507 136.423 221.913 137.596C222.147 138.348 220.548 138.348 220.548 138.348C220.548 138.348 222.373 141.134 221.686 141.931C221 142.729 220.322 142.944 219.862 141.931C219.549 141.288 219.075 140.759 218.497 140.409L214.162 138.895L211.651 135.312C211.651 135.312 190.659 133.037 188.843 132.275C187.026 131.514 180.172 120.63 180.172 120.63L183.595 116.071L197.942 124.688Z" fill="#D4D4D4" stroke="#263238" stroke-linecap="round" stroke-linejoin="round"/>
<path d="M221.719 223.265C221.291 222.549 216.786 222.074 214 221.125C211.374 220.086 208.8 218.89 206.29 217.542C206.29 217.542 219.151 168.553 219.151 166.645C219.151 164.074 213.661 162.534 211.974 161.638C205.12 157.93 198.028 154.793 190.756 152.25C187.422 151.122 183.91 150.62 180.696 149.079C177.822 147.7 177.273 145.783 177.273 145.783L151.252 143.508L150.339 145.783C150.339 145.783 150.283 146.141 150.202 146.733C149.879 149.124 149.144 155.251 149.879 156.675C150.791 158.467 155.587 163.51 160.835 165.033C174.956 169.117 187.188 175.782 202.14 175.11C201.728 177.313 199.645 188.689 199.645 192.335C199.645 196.375 198.572 212.543 198.572 212.543C198.572 212.543 197.926 224.188 197.288 227.287C196.65 230.387 197.288 229.67 198.999 229.67C200.711 229.67 216.358 228.237 218.505 227.287C220.653 226.338 222.147 223.982 221.719 223.265Z" fill="#263238" stroke="#263238" stroke-linecap="round" stroke-linejoin="round"/>
<path d="M203.763 210.241C203.359 214.442 203.052 217.506 203.052 217.506" stroke="#263238" stroke-linecap="round" stroke-linejoin="round"/>
<path d="M197.643 164.02C204.296 167.003 208.672 169.243 208.672 169.243L205.394 171.625H211.239L209.14 173.417L211.013 174.196C211.013 174.196 206.338 181.98 205.636 190.32C205.289 194.377 204.667 200.988 204.126 206.676" stroke="#757575" stroke-linecap="round" stroke-linejoin="round"/>
<path d="M170.007 152.456C172.324 153.486 177.733 155.824 186.687 159.389C189.916 160.679 193.001 161.978 195.746 163.178" stroke="#757575" stroke-linecap="round" stroke-linejoin="round"/>
<path d="M160.956 148.228C160.956 148.228 155.579 152.385 157.452 152.125C159.325 151.865 165.873 148.488 165.405 150.047C164.971 151.31 164.43 152.525 163.79 153.675L168.699 151.883" stroke="#757575" stroke-linecap="round" stroke-linejoin="round"/>
<path d="M213.984 221.125C211.358 220.086 208.784 218.89 206.274 217.542C206.274 217.542 204.167 220.937 198.127 219.1C197.966 221.843 197.68 224.576 197.272 227.287C196.626 230.378 197.272 229.67 198.983 229.67C200.695 229.67 216.342 228.237 218.489 227.287C220.637 226.338 222.131 223.964 221.719 223.248C221.307 222.531 216.786 222.074 213.984 221.125Z" fill="white" stroke="#263238" stroke-linecap="round" stroke-linejoin="round"/>
<path d="M206.29 217.56L206.645 216.18C206.421 216.598 206.298 217.073 206.29 217.56Z" stroke="#263238" stroke-linecap="round" stroke-linejoin="round"/>
<path d="M213.984 221.125C211.358 220.086 208.784 218.89 206.274 217.542C206.056 220.157 206.056 221.581 206.056 221.581L197.885 222.101C197.762 223.84 197.557 225.572 197.272 227.287C196.626 230.378 197.272 229.67 198.983 229.67C200.695 229.67 216.342 228.237 218.489 227.287C220.637 226.338 222.131 223.964 221.719 223.248C221.307 222.531 216.786 222.074 213.984 221.125Z" fill="#33BB51" stroke="#263238" stroke-linecap="round" stroke-linejoin="round"/>
<path d="M198.208 214.908L198.144 219.118C198.144 219.118 199.484 220.757 203.303 219.951C207.121 219.145 207.339 217.121 207.339 217.121L207.88 212.642C206.498 213.743 204.924 214.513 203.259 214.903C201.594 215.293 199.874 215.295 198.208 214.908Z" fill="#616161" stroke="#263238" stroke-linecap="round" stroke-linejoin="round"/>
<path d="M198.999 229.688C200.711 229.688 216.358 228.255 218.506 227.305C220.338 226.49 221.735 224.618 221.783 223.669C214.848 227.305 197.288 227.305 197.288 227.305C196.642 230.396 197.288 229.688 198.999 229.688Z" fill="white" stroke="#263238" stroke-linecap="round" stroke-linejoin="round"/>
<path d="M219.151 137.847C219.151 137.847 222.122 137.596 223.713 139.361C225.304 141.125 226.224 146.446 228.735 148.73C231.246 151.014 233.983 149.232 236.001 146.195C238.02 143.159 239.279 139.782 238.593 138.259C237.907 136.736 226.28 139.271 226.28 139.271" stroke="#263238" stroke-width="4" stroke-miterlimit="10" stroke-linecap="round"/>
<path d="M182.594 78.8437C182.594 78.8437 179.534 77.5538 175.142 79.6319C170.749 81.7101 165.017 87.3354 162.474 93.3727C159.931 99.4101 157.283 112.667 156.507 117.764C155.732 122.861 153.617 130.743 152.915 133.673C151.106 141.251 148.652 148.166 150.097 148.166C151.542 148.166 161.699 146.93 167.165 148.166C172.631 149.402 178.274 150.208 180.083 148.605C180.551 148.175 179.534 146.813 179.881 145.022C180.817 140.176 182.723 132.204 182.86 131.308C183.046 130.072 190.554 115.919 192.863 109.29C195.172 102.662 194.357 89.6822 193.509 86.6277C192.661 83.5732 186.299 79.3184 185.67 79.202C185.04 79.0855 182.594 78.8437 182.594 78.8437Z" fill="#33BB51" stroke="#263238" stroke-linecap="round" stroke-linejoin="round"/>
<path d="M191.862 84.3615C192.361 87.0687 192.631 89.8216 192.67 92.5845C192.67 96.8482 193.348 103.02 193.348 103.02L195.415 106.773C195.415 106.773 197.974 96.275 196.949 89.7539C195.923 83.2329 191.862 84.3615 191.862 84.3615Z" fill="#263238" stroke="#263238" stroke-linecap="round" stroke-linejoin="round"/>
<path d="M163.83 107.284L161.521 108.269" stroke="#263238" stroke-linecap="round" stroke-linejoin="round"/>
<path d="M162.837 102.608L175.844 102.205L166.608 106.11" stroke="#263238" stroke-linecap="round" stroke-linejoin="round"/>
<path d="M175.497 145.255C172.55 144.269 168.319 142.908 165.074 142.093" stroke="#263238" stroke-linecap="round" stroke-linejoin="round"/>
<path d="M179.009 146.455L177.394 145.891" stroke="#263238" stroke-linecap="round" stroke-linejoin="round"/>
<path d="M164.541 140.113C167.52 140.689 170.449 141.552 173.293 142.693" stroke="#263238" stroke-linecap="round" stroke-linejoin="round"/>
<path d="M160.528 127.322C159.769 128.137 159.018 128.907 158.284 129.606" stroke="#263238" stroke-linecap="round" stroke-linejoin="round"/>
<path d="M174.722 108.395C171.15 113.943 167.293 119.258 163.168 124.312" stroke="#263238" stroke-linecap="round" stroke-linejoin="round"/>
<path d="M181.383 99.4011C181.383 99.4011 176.038 106.236 170.645 111.61C165.251 116.985 152.737 129.194 152.737 129.194C152.737 129.194 169.111 122.108 177.766 111.61C186.421 101.112 187.228 97.1348 187.228 97.1348C187.228 97.1348 183.425 96.5616 181.383 99.4011Z" fill="#263238" stroke="#263238" stroke-linecap="round" stroke-linejoin="round"/>
<path d="M162.967 88.6161C160.84 88.7851 158.706 88.7851 156.58 88.6161C153.254 88.3295 147.627 87.7204 145.834 92.3066C144.042 96.8929 144.559 98.2634 144.05 102.518C143.541 106.773 139.311 108.251 140.594 109.684C141.878 111.117 140.263 113.213 140.263 113.213C140.263 113.213 137.978 120.129 138.745 124.383C139.512 128.638 148.652 130.905 150.695 131.191C152.737 131.478 153.504 130.295 156.58 123.246C158.074 119.655 159.355 115.959 160.415 112.183C160.924 110.481 162.967 95.1641 163.483 93.1755C164 91.1869 163.992 88.3205 162.967 88.6161Z" fill="#263238" stroke="#263238" stroke-linecap="round" stroke-linejoin="round"/>
<path d="M143.67 110.714C145.594 111.244 147.555 111.585 149.532 111.736C153.23 112.076 156.927 109.344 156.613 112.416C156.298 115.489 152.576 127.805 149.839 129.176C147.102 130.546 139.052 127.805 139.052 122.673C139.052 117.54 143.67 110.714 143.67 110.714Z" fill="#666666" stroke="#263238" stroke-linecap="round" stroke-linejoin="round"/>
<path d="M205.232 60.9106L205.547 63.2933L204.667 66.1328C204.667 66.1328 205.886 71.5073 205.991 72.3046C206.096 73.1018 202.479 74.6604 202.479 74.6604C202.479 74.6604 201.066 81.1546 199.589 81.8712C198.111 82.5878 192.096 79.1839 192.096 79.1839L190.207 91.9932L179.041 79.0137L180.882 68.1483L179.025 59.5491L205.232 60.9106Z" fill="white" stroke="#263238" stroke-linecap="round" stroke-linejoin="round"/>
<path d="M195.035 61.2598C195.035 61.2598 195.269 62.4422 194.672 63.0513C194.131 63.4619 193.53 63.765 192.896 63.9471L192.363 66.1238L190.861 65.8461L190.603 60.1133L195.035 61.2598Z" fill="#263238" stroke="#263238" stroke-linecap="round" stroke-linejoin="round"/>
<path d="M205.547 63.2934L196.254 60.6957L205.127 59.8447L205.547 63.2934Z" fill="#263238" stroke="#263238" stroke-linecap="round" stroke-linejoin="round"/>
<path d="M204.352 64.1356C203.926 63.8056 203.439 63.5846 202.927 63.4885C202.415 63.3925 201.889 63.4238 201.389 63.5802" stroke="#263238" stroke-linecap="round" stroke-linejoin="round"/>
<path d="M200.59 75.8966C200.59 75.8966 197.813 75.825 197.433 73.1108" stroke="#263238" stroke-linecap="round" stroke-linejoin="round"/>
<path d="M202.923 66.5631C202.786 67.4589 202.471 68.1665 202.221 68.1217C201.97 68.0769 201.882 67.2976 202.019 66.3929C202.156 65.4882 202.471 64.7895 202.721 64.8343C202.972 64.8791 203.06 65.6494 202.923 66.5631Z" fill="#263238"/>
<path d="M205.814 59.6568C205.814 59.6568 206.677 50.968 204.804 48.2807C202.931 45.5935 192.694 42.8346 191.475 43.2287C190.609 43.5267 189.767 43.9011 188.956 44.3484C186.499 45.3503 184.104 46.5292 181.786 47.8776C179.671 49.3108 179.566 49.284 178.888 52.3564C178.21 55.4288 178.202 61.4572 178.202 61.4572L205.814 59.6568Z" fill="#33BB51" stroke="#263238" stroke-linecap="round" stroke-linejoin="round"/>
<path d="M187.785 58.7609C187.785 58.7609 205.547 57.8652 208.865 58.4295C212.184 58.9938 215.752 59.1998 215.752 59.1998C215.752 59.1998 206.791 60.4181 202.189 61.1884C197.587 61.9588 189.585 61.7975 189.585 61.7975L187.785 58.7609Z" fill="#33BB51" stroke="#263238" stroke-linecap="round" stroke-linejoin="round"/>
<path d="M186.534 57.3636C186.279 55.0166 186.366 52.6393 186.792 50.323C187.282 48.2376 188.009 46.2298 188.956 44.3484C188.956 44.3484 184.354 44.3484 183.175 46.7938C181.996 49.2392 183.53 58.9043 183.53 58.9043L186.582 59.182L186.534 57.8653V57.3636Z" fill="#263238" stroke="#263238" stroke-linecap="round" stroke-linejoin="round"/>
<path d="M191.289 66.0166C190.988 67.3942 190.325 68.6416 189.384 69.601C188.444 70.5605 187.268 71.1889 186.005 71.4068C184.743 71.6246 183.45 71.4222 182.291 70.825C181.133 70.2278 180.16 69.2627 179.495 68.0519C178.831 66.841 178.505 65.4387 178.559 64.0224C178.613 62.6061 179.045 61.2394 179.799 60.0953C180.554 58.9511 181.597 58.0809 182.797 57.5947C183.997 57.1084 185.3 57.028 186.542 57.3637C188.205 57.8134 189.639 58.9774 190.53 60.6C191.42 62.2225 191.693 64.1708 191.289 66.0166Z" fill="#263238" stroke="#263238" stroke-linecap="round" stroke-linejoin="round"/>
<path d="M188.746 65.3267C188.567 66.1441 188.173 66.8842 187.615 67.4535C187.056 68.0228 186.359 68.3957 185.609 68.5251C184.86 68.6546 184.093 68.5347 183.405 68.1806C182.718 67.8266 182.14 67.2543 181.745 66.5361C181.35 65.8178 181.156 64.9859 181.188 64.1454C181.219 63.3049 181.474 62.4935 181.921 61.8138C182.368 61.1342 182.986 60.6167 183.698 60.3268C184.41 60.0369 185.183 59.9876 185.92 60.1851C186.909 60.4525 187.761 61.144 188.291 62.1078C188.821 63.0717 188.984 64.2293 188.746 65.3267Z" fill="#666666" stroke="#263238" stroke-linecap="round" stroke-linejoin="round"/>
<path d="M192.096 79.229L189.052 77.7241L190.958 86.1621L192.096 79.229Z" fill="#263238" stroke="#263238" stroke-linecap="round" stroke-linejoin="round"/>
<path d="M162.966 88.6162C162.966 88.6162 167.003 81.9608 176.264 79.5333C180.68 78.3868 183.942 81.5219 185.476 84.0748C187.01 86.6277 187.26 91.7334 187.26 91.7334C187.26 91.7334 180.357 82.9461 178.315 82.9461C176.272 82.9461 164.791 87.6309 162.474 93.3727L162.966 88.6162Z" fill="#263238" stroke="#263238" stroke-linecap="round" stroke-linejoin="round"/>
<path d="M168.901 97.9411C168.901 97.9411 186.719 119.582 188.956 120.711C191.192 121.84 225.384 134.237 225.384 134.237C225.416 134.854 225.591 135.451 225.893 135.97C226.194 136.49 226.611 136.914 227.104 137.202C228.168 137.701 229.278 138.071 230.414 138.304C230.414 138.304 229.849 140.606 230.907 140.803C231.964 141 235.662 142.415 236.405 141.824C237.148 141.233 238.173 137.345 237.923 136.082C237.672 134.819 226.264 129.812 226.264 129.812L197.554 111.225C197.554 111.225 185.839 88.07 182.666 84.5855C179.493 81.101 173.333 84.5407 173.333 84.5407" fill="white"/>
<path d="M168.901 97.9411C168.901 97.9411 186.719 119.582 188.956 120.711C191.192 121.84 225.384 134.237 225.384 134.237C225.416 134.854 225.591 135.451 225.893 135.97C226.194 136.49 226.611 136.914 227.104 137.202C228.168 137.701 229.278 138.071 230.414 138.304C230.414 138.304 229.849 140.606 230.907 140.803C231.964 141 235.662 142.415 236.405 141.824C237.148 141.233 238.173 137.345 237.923 136.082C237.672 134.819 226.264 129.812 226.264 129.812L197.554 111.225C197.554 111.225 185.839 88.07 182.666 84.5855C179.493 81.101 173.333 84.5407 173.333 84.5407" stroke="#263238" stroke-linecap="round" stroke-linejoin="round"/>
<path d="M168.901 97.9411C168.901 97.9411 174.31 104.516 179.542 110.607L193.267 103.02C189.577 95.9974 184.531 86.6905 182.61 84.5855C179.445 81.101 173.277 84.5407 173.277 84.5407" fill="#33BB51"/>
<path d="M168.901 97.9411C168.901 97.9411 174.31 104.516 179.542 110.607L193.267 103.02C189.577 95.9974 184.531 86.6905 182.61 84.5855C179.445 81.101 173.277 84.5407 173.277 84.5407" stroke="#263238" stroke-linecap="round" stroke-linejoin="round"/>
<path d="M233.151 137.363L232.513 141.591" stroke="#263238" stroke-linecap="round" stroke-linejoin="round"/>
<path d="M235.194 136.781L234.241 141.672" stroke="#263238" stroke-linecap="round" stroke-linejoin="round"/>
<path d="M236.889 137.094L236.389 141.824" stroke="#263238" stroke-linecap="round" stroke-linejoin="round"/>
<path d="M390.798 411.31C357.002 302.924 254.555 237.535 151.195 262.956C116.825 271.398 84.9771 289.465 58.6853 315.434C32.3934 341.404 12.5341 374.411 1 411.31H390.798Z" fill="#33BB51" stroke="#263238" stroke-miterlimit="10"/>
<path d="M34.304 364.767C27.2518 376.311 21.2146 388.579 16.2754 401.403" stroke="#263238" stroke-miterlimit="10"/>
<path d="M186.162 398.044L191.257 408.48L186.719 411.991H207.566L208.462 409.25L205.491 399.406L196.141 397.811L188.972 389.561L167.948 384.733L164.759 388.854L172.195 395.921L186.162 398.044Z" fill="white" stroke="#263238" stroke-miterlimit="10"/>
<path d="M76.0209 404.037L85.2572 411.31H175.925L174.585 400.346L169.434 402.138L165.13 398.25L162.103 390.645L158.655 390.941L158.437 399.898L153.431 402.227L147.328 384.258L142.936 382.548L135.605 381.016L128.807 387.143L140.384 394.864L144.098 403.401L124.027 393.323L109.212 381.956L105.393 367.866L92.1198 366.693L83.9331 375.937C81.929 378.067 79.8213 380.073 77.6194 381.947C75.4395 383.596 66.5666 386.892 66.5666 386.892L66.4616 396.378L55.5782 399.621L57.7016 405.219L76.0209 404.037Z" fill="white" stroke="#263238" stroke-miterlimit="10"/>
<path d="M345.206 378.338L337.94 369.559L328.913 359.536L323.786 344.102L332.708 343.574L332.127 338.199L325.829 339.131L330.56 335.18L335.55 330.057L334.484 324.799L327.056 317.722L323.544 306.615C288.214 275.759 244.769 258.545 199.814 257.587C154.858 256.63 110.85 271.983 74.4787 301.312L87.2271 307.242L82.4475 318.439L73.7925 322.792L75.706 337.339L72.202 339.874L68.593 346.879L71.0151 356.311L79.3472 355.371L77.8132 365.224L85.9353 363.226L95.866 340.188L95.6076 331.347L108.776 326.993L110.843 319.827L124.366 314.793L123.995 305.423L133.925 302.414C133.925 302.414 140.247 296.412 141.676 296.054C143.105 295.696 150.331 296.708 150.331 296.708L158.776 301.303L168.771 298.822L176.207 290.868L187.414 289.219C187.414 289.219 190.708 290.635 193.065 290.043C195.423 289.452 201.882 283.979 201.882 283.979L217.65 290.106L224.343 293.465L225.957 301.419L233.337 300.712L234.774 295.337L241.629 296.986L242 301.348L228.517 309.15L239.013 318.815L258.341 325.184L267.634 334.016L278.364 332.484L279.696 326.599L283.305 324.593L268.772 317.05L260.909 317.874L266.697 314.22L259.157 306.624L267.182 304.089L278.969 307.86L283.902 319.997L290.539 325.596L297.918 339.928L310.134 345.822L313.614 363.316L326.209 368.556L326.895 374.504L326.838 381.75L331.618 390.591L333.531 395.124L341.977 394.712L343.995 384.76L345.206 378.338Z" fill="white" stroke="#263238" stroke-miterlimit="10"/>
<path d="M343.567 342.57L349.219 343.403L351.237 353.463L344.964 352.227L349.299 381.231L345.9 394.309L352.69 408.22L358.552 412H391C380.686 378.527 363.477 348.184 340.741 323.383L341.355 326.429L340.644 335.548L343.567 342.57Z" fill="white" stroke="#263238" stroke-miterlimit="10"/>
<path d="M229.655 347.273L195.035 339.668L181.278 343.609L179.953 354.511L172.832 349.029L162.853 354.269L165.397 372.005L175.384 376.779L179.574 365.17L188.342 371.36L206.023 382.028L211.966 396.701L227.895 411.131L247.232 402.478L245.157 394.64L239.053 386.686L233.853 365.708L236.825 355.523L229.655 347.273Z" fill="white" stroke="#263238" stroke-miterlimit="10"/>
<path d="M257.8 352.576L250.211 352.217L245.165 359.58L251.583 374.136L257.8 372.605V352.576Z" fill="white" stroke="#263238" stroke-miterlimit="10"/>
<path d="M304.264 351.698L286.107 346.162L281.488 340.617L277.984 343.152L283.45 352.934L289.078 366.012L296.885 367.427L297.894 364.955L292 358.058L305.491 360.297L304.264 351.698Z" fill="white" stroke="#263238" stroke-miterlimit="10"/>
</svg>
