<svg width="106" height="18" viewBox="0 0 106 18" fill="none" xmlns="http://www.w3.org/2000/svg">
<g clip-path="url(#clip0_218_1560)">
<path d="M9.44071 14.5436C9.16931 14.3792 8.829 14.3792 8.55761 14.5437L4.39532 17.0665C3.75017 17.4575 2.95263 16.8789 3.12406 16.1443L4.22755 11.4153C4.29924 11.1081 4.19529 10.7864 3.95739 10.5792L0.293637 7.38862C-0.273874 6.8944 0.031211 5.96092 0.781053 5.89724L5.60934 5.48723C5.92375 5.46053 6.19766 5.26223 6.3212 4.97188L8.21605 0.518403C8.51015 -0.172801 9.48985 -0.172801 9.78395 0.518404L11.6788 4.97188C11.8023 5.26224 12.0762 5.46053 12.3907 5.48723L17.2189 5.89724C17.9688 5.96092 18.2739 6.8944 17.7064 7.38862L14.0426 10.5792C13.8047 10.7864 13.7008 11.1081 13.7725 11.4153L14.876 16.1446C15.0474 16.8792 14.25 17.4578 13.6048 17.0668L9.44071 14.5436Z" fill="#FFC500"/>
</g>
<g clip-path="url(#clip1_218_1560)">
<path d="M31.4407 14.5436C31.1693 14.3792 30.829 14.3792 30.5576 14.5437L26.3953 17.0665C25.7502 17.4575 24.9526 16.8789 25.1241 16.1443L26.2275 11.4153C26.2992 11.1081 26.1953 10.7864 25.9574 10.5792L22.2936 7.38862C21.7261 6.8944 22.0312 5.96092 22.7811 5.89724L27.6093 5.48723C27.9238 5.46053 28.1977 5.26223 28.3212 4.97188L30.2161 0.518403C30.5101 -0.172801 31.4899 -0.172801 31.7839 0.518404L33.6788 4.97188C33.8023 5.26224 34.0762 5.46053 34.3907 5.48723L39.2189 5.89724C39.9688 5.96092 40.2739 6.8944 39.7064 7.38862L36.0426 10.5792C35.8047 10.7864 35.7008 11.1081 35.7725 11.4153L36.876 16.1446C37.0474 16.8792 36.25 17.4578 35.6048 17.0668L31.4407 14.5436Z" fill="#FFC500"/>
</g>
<g clip-path="url(#clip2_218_1560)">
<path d="M53.4407 14.2093C53.1693 14.0448 52.829 14.0448 52.5576 14.2093L48.3953 16.7321C47.7502 17.1231 46.9526 16.5446 47.1241 15.8099L48.2275 11.0809C48.2992 10.7737 48.1953 10.452 47.9574 10.2448L44.2936 7.05427C43.7261 6.56005 44.0312 5.62656 44.7811 5.56289L49.6093 5.15288C49.9238 5.12618 50.1977 4.92788 50.3212 4.63753L52.2161 0.184052C52.5101 -0.507152 53.4899 -0.507151 53.7839 0.184053L55.6788 4.63753C55.8023 4.92789 56.0762 5.12618 56.3907 5.15288L61.2189 5.56289C61.9688 5.62656 62.2739 6.56005 61.7064 7.05427L58.0426 10.2448C57.8047 10.452 57.7008 10.7737 57.7725 11.0809L58.876 15.8103C59.0474 16.5449 58.25 17.1234 57.6048 16.7325L53.4407 14.2093Z" fill="#E0E8F1"/>
</g>
<g clip-path="url(#clip3_218_1560)">
<path d="M75.4407 14.2093C75.1693 14.0448 74.829 14.0448 74.5576 14.2093L70.3953 16.7321C69.7502 17.1231 68.9526 16.5446 69.1241 15.8099L70.2275 11.0809C70.2992 10.7737 70.1953 10.452 69.9574 10.2448L66.2936 7.05427C65.7261 6.56005 66.0312 5.62656 66.7811 5.56289L71.6093 5.15288C71.9238 5.12618 72.1977 4.92788 72.3212 4.63753L74.2161 0.184052C74.5101 -0.507152 75.4899 -0.507151 75.7839 0.184053L77.6788 4.63753C77.8023 4.92789 78.0762 5.12618 78.3907 5.15288L83.2189 5.56289C83.9688 5.62656 84.2739 6.56005 83.7064 7.05427L80.0426 10.2448C79.8047 10.452 79.7008 10.7737 79.7725 11.0809L80.876 15.8103C81.0474 16.5449 80.25 17.1234 79.6048 16.7325L75.4407 14.2093Z" fill="#E0E8F1"/>
</g>
<g clip-path="url(#clip4_218_1560)">
<path d="M97.4407 14.2093C97.1693 14.0448 96.829 14.0448 96.5576 14.2093L92.3953 16.7321C91.7502 17.1231 90.9526 16.5446 91.1241 15.8099L92.2275 11.0809C92.2992 10.7737 92.1953 10.452 91.9574 10.2448L88.2936 7.05427C87.7261 6.56005 88.0312 5.62656 88.7811 5.56289L93.6093 5.15288C93.9238 5.12618 94.1977 4.92788 94.3212 4.63753L96.2161 0.184052C96.5101 -0.507152 97.4899 -0.507151 97.7839 0.184053L99.6788 4.63753C99.8023 4.92789 100.076 5.12618 100.391 5.15288L105.219 5.56289C105.969 5.62656 106.274 6.56005 105.706 7.05427L102.043 10.2448C101.805 10.452 101.701 10.7737 101.772 11.0809L102.876 15.8103C103.047 16.5449 102.25 17.1234 101.605 16.7325L97.4407 14.2093Z" fill="#E0E8F1"/>
</g>
<defs>
<clipPath id="clip0_218_1560">
<rect width="18" height="17.25" fill="white"/>
</clipPath>
<clipPath id="clip1_218_1560">
<rect width="18" height="17.25" fill="white" transform="translate(22)"/>
</clipPath>
<clipPath id="clip2_218_1560">
<rect width="18" height="17.25" fill="white" transform="translate(44)"/>
</clipPath>
<clipPath id="clip3_218_1560">
<rect width="18" height="17.25" fill="white" transform="translate(66)"/>
</clipPath>
<clipPath id="clip4_218_1560">
<rect width="18" height="17.25" fill="white" transform="translate(88)"/>
</clipPath>
</defs>
</svg>
